<?xml version="1.0" encoding="utf-8"?>
<!-- Generated by IcoMoon.io -->
<!DOCTYPE svg PUBLIC "-//W3C//DTD SVG 1.1//EN" "http://www.w3.org/Graphics/SVG/1.1/DTD/svg11.dtd">
<svg version="1.1" xmlns="http://www.w3.org/2000/svg" xmlns:xlink="http://www.w3.org/1999/xlink" width="25" height="32" viewBox="0 0 25 32">
<g>
</g>
	<path d="M6.234 9.498c-0.225-3.547 2.124-6.597 6.234-6.597 4.11 0 6.080 2.567 6.080 6.677 0 0.041 0 6.347 0 6.347h3.284l0.028-6.389c0-0.041 0.019-0.060 0.019-0.101 0-5.217-4.221-9.435-9.438-9.435-5.217 0-9.442 4.234-9.442 9.451 0 0.041 0.004 0.083 0.005 0.124l-0.002 8.329h3.246l-0.013-8.406z" fill="#000000" />
	<path d="M0 15.925h24.978v16.075h-24.978v-16.075z" fill="#000000" />
</svg>
