<?xml version="1.0" encoding="utf-8"?>
<!-- Generator: Adobe Illustrator 16.0.0, SVG Export Plug-In . SVG Version: 6.00 Build 0)  -->
<!DOCTYPE svg PUBLIC "-//W3C//DTD SVG 1.1//EN" "http://www.w3.org/Graphics/SVG/1.1/DTD/svg11.dtd">
<svg version="1.1" id="Layer_1" xmlns="http://www.w3.org/2000/svg" xmlns:xlink="http://www.w3.org/1999/xlink" x="0px" y="0px"
	 width="22px" height="22px" viewBox="286.64 409.945 22 22" enable-background="new 286.64 409.945 22 22" xml:space="preserve">
<path fill="#ADADAE" d="M306.14,425.146c-0.4-0.101-0.801-0.5-0.801-0.9c-0.242-1.7-1.191-3.134-2.5-4.004v-3.796
	c0-3.364-2.679-6-6.099-6s-6.1,2.636-6.1,6v5.825c-0.368,0.407-0.6,0.955-0.6,1.575v0.1c0,0.5-0.3,1-0.8,1.2
	c-1.6,0.4-2.6,1.8-2.6,3.399c0,1.9,1.5,3.4,3.3,3.4h15.399c1.801,0,3.301-1.5,3.301-3.4
	C308.64,426.945,307.64,425.546,306.14,425.146z M291.64,421.642v-5.196c0-2.804,2.24-5,5.1-5c2.859,0,5.099,2.196,5.099,5v3.264
	c-0.29-0.114-0.591-0.205-0.9-0.266v-2.899c0-2.243-1.801-3.999-4.099-3.999c-2.28,0-4,1.719-4,3.999v5.107
	c-0.196-0.065-0.397-0.107-0.6-0.107C292.031,421.545,291.832,421.585,291.64,421.642z M294.34,422.445
	c-0.204,0-0.357-0.063-0.5-0.155v-5.745c0-1.71,1.29-2.999,3-2.999c1.737,0,3.099,1.317,3.099,2.999v2.801
	c-1.899,0-2.999,0.399-4.099,1.999c-0.2,0.301-1,1.001-1.3,1.101C294.44,422.445,294.34,422.445,294.34,422.445z M295.44,429.045
	l1.2-3.199c-0.4-0.2-0.7-0.7-0.7-1.2c0-0.7,0.6-1.4,1.4-1.4c0.8,0,1.399,0.601,1.399,1.4c0,0.5-0.299,0.9-0.7,1.2l1.2,3.199H295.44z
	"/>
</svg>
