<?xml version="1.0" encoding="utf-8"?>
<!-- Generator: Adobe Illustrator 16.0.0, SVG Export Plug-In . SVG Version: 6.00 Build 0)  -->
<!DOCTYPE svg PUBLIC "-//W3C//DTD SVG 1.1//EN" "http://www.w3.org/Graphics/SVG/1.1/DTD/svg11.dtd">
<svg version="1.1" id="Layer_1" xmlns="http://www.w3.org/2000/svg" xmlns:xlink="http://www.w3.org/1999/xlink" x="0px" y="0px"
	 width="38px" height="34px" viewBox="0 0 38 34" enable-background="new 0 0 38 34" xml:space="preserve">
<g>
	<path fill="#FFFFFF" d="M27.822,29.108v1.067c1.967,0,3.566-1.599,3.566-3.565h-1.066C30.322,27.988,29.201,29.108,27.822,29.108z"
		/>
	<path fill="#FFFFFF" d="M20.762,21.769c0-1.155-0.936-2.099-2.091-2.099c-1.154,0-2.09,0.929-2.09,2.084
		c0,0.754,0.401,1.455,1.002,1.824l-1.878,4.87h5.942l-1.881-4.877C20.363,23.201,20.762,22.522,20.762,21.769z"/>
	<path fill="#FFFFFF" d="M32.209,21.471c-0.246-0.062-0.438-0.289-0.477-0.569c-0.451-3.175-2.365-5.826-4.953-7.264V9.054
		c0-5.077-3.98-9.054-9.077-9.054c-5.085,0-9.221,4.062-9.221,9.054v7.534c-0.348,0.189-0.681,0.41-0.97,0.699
		c-0.876,0.879-1.358,2.061-1.354,3.385l0.007,0.114c0.014,0.337-0.186,0.637-0.475,0.714c-2.699,0.725-4.585,3.25-4.585,6.146
		C1.104,31.15,3.847,34,7.218,34h23.561c3.371,0,6.117-2.85,6.117-6.354C36.896,24.699,34.969,22.16,32.209,21.471z M9.547,9.054
		c0-4.404,3.659-7.988,8.172-7.988c4.481,0,7.993,3.509,7.993,7.988v4.067c-0.619-0.247-1.268-0.419-1.934-0.525V9.22
		c0-3.26-2.697-5.913-6.054-5.913c-3.285,0-5.858,2.597-5.858,5.91l-0.042,7.014c-0.742-0.215-1.528-0.237-2.277-0.059V9.054z
		 M22.713,12.491c-0.115-0.004-0.23-0.017-0.344-0.017c-2.915,0-5.24,0.622-7.115,3.652c-0.176,0.265-1,1.01-1.332,1.185h-0.018
		c-0.141,0-0.278-0.055-0.387-0.155c-0.196-0.18-0.408-0.333-0.629-0.469l0.044-7.467c0-2.718,2.105-4.847,4.835-4.847
		c2.726,0,4.945,2.175,4.945,4.847V12.491z M30.779,31.868H7.218c-2.195,0-3.982-1.896-3.982-4.223c0-1.932,1.235-3.61,3.005-4.087
		c1.245-0.333,2.108-1.538,2.052-2.878l-0.006-0.071c-0.001-0.695,0.26-1.342,0.733-1.816c0.133-0.132,0.282-0.24,0.438-0.334h0.089
		v-0.05c0.32-0.175,0.671-0.278,1.038-0.278c0.542,0,1.072,0.212,1.492,0.597c0.502,0.462,1.151,0.716,1.861,0.716
		c0,0,0.001,0,0.002,0c0,0,0.247-0.012,0.35-0.027c1-0.146,2.487-1.697,2.776-2.164c1.239-2.003,2.528-2.646,5.304-2.646
		c3.6,0,6.719,2.835,7.252,6.592c0.162,1.151,0.977,2.071,2.074,2.342c1.807,0.45,3.068,2.14,3.068,4.105
		C34.764,29.973,32.975,31.868,30.779,31.868z"/>
</g>
</svg>
