<?xml version="1.0" encoding="utf-8"?>
<!-- Generator: Adobe Illustrator 21.1.0, SVG Export Plug-In . SVG Version: 6.00 Build 0)  -->
<svg version="1.1" xmlns="http://www.w3.org/2000/svg" xmlns:xlink="http://www.w3.org/1999/xlink" x="0px" y="0px"
	 viewBox="0 0 24 24" style="enable-background:new 0 0 24 24;" xml:space="preserve">
<style type="text/css">
	.st0{display:none;}
	.st1{display:inline;}
	.st2{fill:#114A54;}
	.st3{fill:#778E93;}
	.st4{fill:#D4E4F1;}
	.st5{fill:#398CCB;}
	.st6{fill:#AFDFF9;}
	.st7{fill:#6AA9DD;}
	.st8{fill:#20568E;}
	.st9{fill:#2C5261;}
	.st10{fill:#295A99;}
	.st11{opacity:0.2;fill:#3E85C5;}
	.st12{opacity:0.8;fill:#AFDFF9;}
	.st13{opacity:0.5;fill:#D4E4F1;}
	.st14{fill:#FFFFFF;}
	.st15{fill:#FFFFFF;stroke:#3E85C5;stroke-miterlimit:10;}
	.st16{fill:#3E85C5;}
	.st17{fill:#21558E;}
	.st18{fill:#B3C3C4;}
	.st19{fill:#D2E3F0;}
	.st20{display:none;fill:#B3C3C4;}
	.st21{fill:#295A9A;}
	.st22{fill:none;stroke:#295A99;stroke-miterlimit:10;}
</style>
<g id="Guidelines">
</g>
<g id="Your_Icons">
	<g class="st0">
	</g>
	<g>
		<path class="st10" d="M8.8,20.7c0,0.1,0,0.1,0,0.2c0,1.7,1.4,3,3.2,3s3.2-1.4,3.2-3c0-0.1,0-0.1,0-0.2H8.8z"/>
		<path class="st7" d="M21.1,14.9C18.2,16.3,15.2,17,12,17c-3.2,0-6.2-0.7-9.1-2.1l-0.1,0c-0.2,0.4-0.4,0.9-0.4,1.5c0,1.3,2,2.5,5,3
			c0,0,0.1,0,0.1,0c2.4,0.5,5.4,0.6,7.9,0.2c3.5-0.5,6-1.7,6-3.2C21.5,15.8,21.4,15.3,21.1,14.9L21.1,14.9z"/>
		<path class="st4" d="M12,15c2.8,0,5.4-0.6,7.9-1.8c-1.2-1.2-2.6-2.4-2.6-5.3c0-1.7-0.9-3.2-2.3-4.1c0.1-0.3,0.2-0.6,0.2-0.9
			c0-0.8-0.3-1.5-0.9-2.1C13-0.3,11-0.3,9.8,0.9C9.2,1.4,8.8,2.2,8.8,3c0,0.3,0.1,0.6,0.2,0.9C7.6,4.8,6.7,6.3,6.7,8
			c0,2.9-1.4,4.1-2.6,5.3C6.6,14.4,9.2,15,12,15z"/>
		<g>
			<path class="st14" d="M13.5,1.6c0.4,0.4,0.6,0.9,0.6,1.4s-0.2,1-0.6,1.4c-0.8,0.8-2.2,0.8-3.1,0C10.1,4,9.8,3.5,9.8,3
				s0.2-1,0.6-1.4C10.9,1.2,11.4,1,12,1C12.6,1,13.1,1.2,13.5,1.6z"/>
			<path class="st8" d="M12,1c0.6,0,1.1,0.2,1.5,0.6c0.4,0.4,0.6,0.9,0.6,1.4s-0.2,1-0.6,1.4C13.1,4.8,12.6,5,12,5
				c-0.6,0-1.1-0.2-1.5-0.6C10.1,4,9.8,3.5,9.8,3s0.2-1,0.6-1.4C10.9,1.2,11.4,1,12,1 M12,0c-0.8,0-1.6,0.3-2.2,0.9
				C9.2,1.4,8.8,2.2,8.8,3c0,0.8,0.3,1.5,0.9,2.1c0.6,0.6,1.4,0.9,2.2,0.9c0.8,0,1.6-0.3,2.2-0.9c0.6-0.6,0.9-1.3,0.9-2.1
				c0-0.8-0.3-1.5-0.9-2.1C13.6,0.3,12.8,0,12,0L12,0z"/>
		</g>
	</g>
</g>
</svg>
