<?xml version="1.0" encoding="utf-8"?>
<!-- Generator: Adobe Illustrator 21.1.0, SVG Export Plug-In . SVG Version: 6.00 Build 0)  -->
<svg version="1.1" xmlns="http://www.w3.org/2000/svg" xmlns:xlink="http://www.w3.org/1999/xlink" x="0px" y="0px"
	 viewBox="0 0 24 24" style="enable-background:new 0 0 24 24;" xml:space="preserve">
<style type="text/css">
	.st0{display:none;}
	.st1{display:inline;}
	.st2{fill:#114A54;}
	.st3{fill:#778E93;}
	.st4{fill:#D4E4F1;}
	.st5{fill:#398CCB;}
	.st6{fill:#AFDFF9;}
	.st7{fill:#6AA9DD;}
	.st8{fill:#20568E;}
	.st9{fill:#2C5261;}
	.st10{fill:#295A99;}
	.st11{opacity:0.2;fill:#3E85C5;}
	.st12{opacity:0.8;fill:#AFDFF9;}
	.st13{opacity:0.5;fill:#D4E4F1;}
	.st14{fill:#FFFFFF;}
	.st15{fill:#FFFFFF;stroke:#3E85C5;stroke-miterlimit:10;}
	.st16{fill:#3E85C5;}
	.st17{fill:#21558E;}
	.st18{fill:#B3C3C4;}
	.st19{fill:#D2E3F0;}
	.st20{display:none;fill:#B3C3C4;}
	.st21{fill:#295A9A;}
	.st22{fill:none;stroke:#295A99;stroke-miterlimit:10;}
</style>
<g id="Guidelines">
</g>
<g id="Your_Icons">
	<g class="st0">
	</g>
	<g>
		<g>
			<path class="st20" d="M12,17c-3,0-5.9-0.7-8.7-2.1l-0.8-0.4l0.8-1.8l0.8,0.4C6.6,14.4,9.3,15,12,15c2.7,0,5.4-0.6,7.8-1.9
				l0.8-0.4l0.8,1.8l-0.8,0.4C18,16.3,15,17,12,17z"/>
			<g>
				<path class="st18" d="M9,20.7c0,0.1,0,0.1,0,0.2c0,1.7,1.4,3,3,3s3-1.4,3-3c0-0.1,0-0.1,0-0.2H9z"/>
				<path class="st18" d="M20.7,14.9C18,16.3,15,17,12,17c-3,0-5.9-0.7-8.7-2.1l-0.1,0c-0.2,0.4-0.3,0.9-0.3,1.5
					c0,1.3,1.9,2.5,4.8,3c0,0,0.1,0,0.1,0c2.3,0.5,5.2,0.6,7.5,0.2c3.4-0.5,5.7-1.7,5.7-3.2C21.1,15.8,20.9,15.3,20.7,14.9
					L20.7,14.9z"/>
				<path class="st18" d="M17,8c0-1.7-0.9-3.2-2.2-4.1C14.9,3.6,15,3.3,15,3c0-0.8-0.3-1.5-0.9-2.1c-1.2-1.1-3.1-1.1-4.2,0
					C9.3,1.4,9,2.2,9,3c0,0.3,0.1,0.6,0.2,0.9C7.8,4.8,7,6.3,7,8c0,2.9-1.4,4.1-2.5,5.3C6.8,14.4,9.3,15,12,15
					c2.6,0,5.2-0.6,7.5-1.8C18.4,12.1,17,10.9,17,8z M13.5,4.4c-0.8,0.8-2.1,0.8-2.9,0C10.1,4,9.9,3.5,9.9,3s0.2-1,0.6-1.4
					C10.9,1.2,11.5,1,12,1s1.1,0.2,1.5,0.6c0.4,0.4,0.6,0.9,0.6,1.4S13.9,4,13.5,4.4z"/>
			</g>
		</g>
	</g>
</g>
</svg>
