<?xml version="1.0" encoding="utf-8"?>
<!-- Generator: Adobe Illustrator 16.0.0, SVG Export Plug-In . SVG Version: 6.00 Build 0)  -->
<!DOCTYPE svg PUBLIC "-//W3C//DTD SVG 1.1//EN" "http://www.w3.org/Graphics/SVG/1.1/DTD/svg11.dtd">
<svg version="1.1" id="Layer_1" xmlns="http://www.w3.org/2000/svg" xmlns:xlink="http://www.w3.org/1999/xlink" x="0px" y="0px"
	 width="22px" height="22px" viewBox="0 0 22 22" enable-background="new 0 0 22 22" xml:space="preserve">
<path fill="#ADADAE" d="M19.034,2.5H2.966C1.882,2.5,1,3.375,1,4.451v2.895v0.472v9.731C1,18.625,1.882,19.5,2.966,19.5h16.068
	c1.084,0,1.966-0.875,1.966-1.951V7.817V7.48V4.451C21,3.375,20.118,2.5,19.034,2.5z M9.9,4.306C10.51,4.306,11,4.794,11,5.396
	c0,0.602-0.491,1.09-1.101,1.09c-0.605,0-1.098-0.488-1.098-1.09C8.802,4.794,9.295,4.306,9.9,4.306z M6.75,4.306
	c0.608,0,1.099,0.488,1.099,1.091c0,0.602-0.491,1.09-1.099,1.09c-0.605,0-1.098-0.488-1.098-1.09
	C5.652,4.794,6.145,4.306,6.75,4.306z M3.672,4.306c0.607,0,1.099,0.488,1.099,1.091c0,0.602-0.492,1.09-1.099,1.09
	c-0.606,0-1.099-0.488-1.099-1.09C2.574,4.794,3.066,4.306,3.672,4.306z M20.048,17.549c0,0.556-0.455,1.006-1.014,1.006H2.966
	c-0.56,0-1.014-0.45-1.014-1.006V7.817h18.096V17.549z"/>
<path fill="none" stroke="#ADADAE" stroke-miterlimit="10" d="M11,11"/>
<path fill="none" stroke="#ADADAE" stroke-miterlimit="10" d="M11,11"/>
<path fill="none" stroke="#ADADAE" stroke-miterlimit="10" d="M-2.31,8.708"/>
</svg>
