<?xml version="1.0" encoding="utf-8"?>
<!-- Generator: Adobe Illustrator 22.0.0, SVG Export Plug-In . SVG Version: 6.00 Build 0)  -->
<svg version="1.1" id="Layer_1" xmlns="http://www.w3.org/2000/svg" xmlns:xlink="http://www.w3.org/1999/xlink" x="0px" y="0px"
	 viewBox="0 0 24 24" style="enable-background:new 0 0 24 24;" xml:space="preserve">
<style type="text/css">
	.st0{fill:#295A99;}
</style>
<g id="Your_Icons">
	<path class="st0" d="M21,3.5c-0.7,0-6.8,0-6.8,0c-0.5,0-0.8,0.2-1.1,0.6c-0.1,0.2-1.4,1.6-1.9,2.1C10.7,6.8,10,6.8,9.4,6.8H4.1
		C3.5,6.8,3,7.2,3,7.8c0,0,0,11,0,12.7h18C21,19.6,21,3.5,21,3.5z M14.8,17c-2.3,1.3-5.2,0.9-7-0.8c0.3-0.9,1-1.7,1.9-2.2
		c0.3-0.2,0.7-0.3,1.1-0.4c-0.3-0.2-0.5-0.4-0.7-0.7c-0.6-1-0.2-2.2,0.7-2.8c1-0.6,2.2-0.2,2.8,0.7c0.5,0.9,0.2,2.1-0.7,2.7
		c1.1,0.3,2,1,2.6,2c0.1,0.2,0.2,0.4,0.3,0.7C15.6,16.5,15.2,16.8,14.8,17z"/>
</g>
</svg>
