<?xml version="1.0" encoding="utf-8"?>
<!-- Generator: Adobe Illustrator 18.0.0, SVG Export Plug-In . SVG Version: 6.00 Build 0)  -->
<!DOCTYPE svg PUBLIC "-//W3C//DTD SVG 1.1//EN" "http://www.w3.org/Graphics/SVG/1.1/DTD/svg11.dtd">
<svg version="1.1" id="Layer_1" xmlns="http://www.w3.org/2000/svg" xmlns:xlink="http://www.w3.org/1999/xlink" x="0px" y="0px"
	 viewBox="0 0 22 22" enable-background="new 0 0 22 22" xml:space="preserve">
<path fill="#ADADAE" d="M19.571,4.942c-0.921-0.921-2.146-1.429-3.448-1.429c-1.302,0-2.526,0.507-3.447,1.428l-0.564,0.564
	c-0.719-0.403-1.523-0.638-2.37-0.638c-1.303,0-2.526,0.507-3.447,1.428l-3.868,3.868c-1.9,1.901-1.9,4.994,0,6.895
	c0.921,0.921,2.146,1.428,3.448,1.428c1.302,0,2.526-0.507,3.447-1.428l0.564-0.563c0.719,0.403,1.523,0.638,2.37,0.638
	c1.303,0,2.526-0.507,3.447-1.429l3.868-3.867c0.921-0.921,1.428-2.146,1.428-3.448S20.492,5.863,19.571,4.942z M8.615,16.351
	c-1.466,1.464-4.018,1.463-5.481,0c-1.51-1.511-1.51-3.969,0-5.481l3.868-3.867c0.732-0.732,1.705-1.135,2.74-1.135
	c0.767,0,1.499,0.224,2.126,0.637l0.046,0.031c0.201,0.137,0.393,0.292,0.569,0.468c0.176,0.176,0.331,0.368,0.468,0.569l0.03,0.044
	c0.413,0.627,0.637,1.359,0.637,2.127c0,1.035-0.402,2.008-1.135,2.741l-1.556,1.556c-0.086-0.063-0.173-0.125-0.25-0.202
	c-0.078-0.078-0.14-0.164-0.204-0.25l1.557-1.558c0.611-0.611,0.947-1.423,0.947-2.287c0-0.4-0.08-0.786-0.218-1.149l0.021-0.021
	L12.61,8.248c-0.034-0.065-0.078-0.124-0.116-0.186c-0.033-0.054-0.063-0.108-0.1-0.161c-0.107-0.154-0.224-0.301-0.357-0.434
	c-0.003-0.003-0.005-0.007-0.009-0.011c-0.003-0.003-0.006-0.005-0.009-0.007c-0.144-0.144-0.304-0.268-0.472-0.381
	c-0.014-0.009-0.029-0.018-0.043-0.027c-0.088-0.057-0.174-0.118-0.268-0.166l-0.325-0.169l-0.036,0.036
	C9.722,6.331,8.348,6.564,7.455,7.456l-3.868,3.868c-0.611,0.611-0.947,1.423-0.947,2.287c0,0.864,0.337,1.676,0.948,2.287
	c1.221,1.221,3.353,1.223,4.573,0L8.59,15.47c0.071,0.082,0.145,0.16,0.219,0.234c0.075,0.076,0.153,0.148,0.234,0.219L8.615,16.351
	z M13.979,7.373l0.564-0.564c0.844-0.844,2.316-0.845,3.161,0c0.871,0.871,0.87,2.288-0.001,3.16l-3.867,3.868
	c-0.5,0.499-1.219,0.696-1.898,0.605l1.251-1.251c0.921-0.921,1.428-2.146,1.428-3.448C14.617,8.896,14.382,8.092,13.979,7.373z
	 M10.054,12.592c-0.102-0.678,0.101-1.394,0.621-1.915l1.268-1.268c0.017,0.11,0.033,0.221,0.033,0.335
	c0,0.597-0.232,1.158-0.654,1.58L10.054,12.592z M8.019,14.626l-0.566,0.566c-0.845,0.845-2.316,0.843-3.159,0
	c-0.423-0.422-0.655-0.983-0.655-1.58s0.232-1.158,0.655-1.58l3.867-3.868c0.499-0.499,1.218-0.695,1.897-0.604L8.808,8.81
	C7.234,10.385,6.985,12.77,8.019,14.626z M18.864,11.13l-3.868,3.868c-1.456,1.455-3.984,1.461-5.453,0.022
	c-0.008-0.008-0.02-0.015-0.028-0.023c-0.016-0.016-0.029-0.038-0.045-0.055c-0.163-0.169-0.313-0.348-0.439-0.538l-0.018-0.026
	c-0.983-1.502-0.817-3.543,0.502-4.861l1.555-1.556c0.084,0.061,0.168,0.122,0.243,0.197c0.002,0.002,0.005,0.004,0.008,0.007
	c0.003,0.003,0.005,0.006,0.007,0.009c0.073,0.074,0.135,0.157,0.197,0.239L9.969,9.97c-0.928,0.928-1.167,2.283-0.729,3.437
	l-0.021,0.021l0.169,0.325c0.033,0.063,0.076,0.121,0.113,0.182c0.032,0.052,0.061,0.104,0.096,0.155
	c0.111,0.161,0.232,0.315,0.372,0.455c0.146,0.146,0.309,0.271,0.479,0.386c0.016,0.01,0.032,0.02,0.048,0.03
	c0.087,0.057,0.172,0.117,0.265,0.164l0.325,0.168l0.035-0.035c1.153,0.411,2.528,0.179,3.422-0.715l3.867-3.868
	c1.262-1.261,1.262-3.313,0.001-4.574c-1.221-1.223-3.353-1.223-4.575,0L13.408,6.53c-0.069-0.08-0.142-0.157-0.215-0.23
	c-0.001-0.001-0.002-0.003-0.003-0.004c-0.001-0.001-0.003-0.002-0.004-0.003c-0.073-0.074-0.151-0.146-0.23-0.216l0.428-0.428
	c1.465-1.464,4.017-1.464,5.481,0c0.732,0.732,1.135,1.705,1.135,2.74S19.596,10.397,18.864,11.13z"/>
</svg>
