<?xml version="1.0" encoding="utf-8"?>
<!-- Generator: Adobe Illustrator 22.0.0, SVG Export Plug-In . SVG Version: 6.00 Build 0)  -->
<svg version="1.1" id="Your_Icons" xmlns="http://www.w3.org/2000/svg" xmlns:xlink="http://www.w3.org/1999/xlink" x="0px" y="0px"
	 viewBox="0 0 24 24" style="enable-background:new 0 0 24 24;" xml:space="preserve">
<style type="text/css">
	.st0{fill:#295A99;}
</style>
<g>
	<g>
		<path class="st0" d="M12,10.8c-3.2,0-6-0.7-7.5-1.9l1.9,9.5c0,1.4,2.5,2.6,5.6,2.6c3.1,0,5.6-1.2,5.6-2.6l1.9-9.5
			C18,10,15.2,10.8,12,10.8z"/>
		<path class="st0" d="M20.4,5.6h-0.7C19,4.1,15.8,3,12,3C8.2,3,5,4.1,4.3,5.6H3.6C3.3,5.6,3,5.9,3,6.2c0,0.4,0.3,0.6,0.6,0.6h0.6
			l0,0l0,0l0.2,0.5C4.9,8.5,7.8,9.7,12,9.7c4.2,0,7.1-1.2,7.6-2.4l0.2-0.5l0,0l0,0h0.6c0.3,0,0.6-0.3,0.6-0.6
			C21,5.9,20.7,5.6,20.4,5.6z M11.9,8.1c-3.1,0-5.6-0.9-5.6-1.9c0-1.1,2.5-1.9,5.6-1.9c3.1,0,5.6,0.9,5.6,1.9
			C17.5,7.2,15,8.1,11.9,8.1z"/>
	</g>
</g>
</svg>
