<?xml version="1.0" encoding="utf-8"?>
<!-- Generator: Adobe Illustrator 16.0.0, SVG Export Plug-In . SVG Version: 6.00 Build 0)  -->
<!DOCTYPE svg PUBLIC "-//W3C//DTD SVG 1.1//EN" "http://www.w3.org/Graphics/SVG/1.1/DTD/svg11.dtd">
<svg version="1.1" id="Layer_1" xmlns="http://www.w3.org/2000/svg" xmlns:xlink="http://www.w3.org/1999/xlink" x="0px" y="0px"
	 width="22px" height="22px" viewBox="0 0 22 22" enable-background="new 0 0 22 22" xml:space="preserve">
<g>
	<path fill="#ADADAE" d="M8.646,15.536c0.502-0.684,0.903-1.345,1.097-1.905c0.031-0.217,0.073-0.432,0.127-0.645
		c-0.004-0.214-0.063-0.397-0.194-0.541c-0.128-0.143-0.42-0.376-0.92-0.32c-0.803,0.092-2.596,1.266-4.155,2.393
		c-1.581-1.084-2.618-2.902-2.618-4.967c0-3.323,2.692-6.019,6.018-6.019c2.918,0,5.351,2.078,5.901,4.836
		C14.576,8.1,15.284,7.951,16,7.91V3.059c0-0.695-0.564-1.263-1.26-1.263H1.266C0.567,1.796,0,2.363,0,3.059v14.494
		c0,0.694,0.567,1.264,1.266,1.264h9.875c-0.827-1.03-1.306-2.246-1.438-3.492C9.361,15.425,9.009,15.497,8.646,15.536z
		 M4.912,16.976c-0.489-0.517-0.33-1.466,0.356-2.118c0.315-0.299,3.64-2.275,3.906-1.996c0.216,0.229-1.74,3.498-2.127,3.867
		C6.358,17.383,5.401,17.491,4.912,16.976z"/>
	<path fill="#ADADAE" d="M18.922,13.913h-1.931v-1.932c0-0.349-0.305-0.632-0.727-0.632c-0.42,0.001-0.652,0.283-0.652,0.632v1.932
		h-1.932c-0.349,0.001-0.632,0.305-0.631,0.727c0,0.421,0.282,0.651,0.632,0.652h1.931v1.931c0,0.35,0.232,0.632,0.652,0.63
		c0.422,0,0.726-0.281,0.726-0.631l0.001-1.931h1.932c0.348,0,0.631-0.23,0.631-0.651C19.554,14.218,19.271,13.914,18.922,13.913z"
		/>
	<path fill="#ADADAE" d="M20.349,10.576c-1.102-1.102-2.546-1.652-3.989-1.652s-2.887,0.551-3.988,1.652
		c-2.203,2.201-2.203,5.772,0,7.976c1.102,1.102,2.545,1.652,3.988,1.652c1.444,0,2.888-0.551,3.989-1.652
		C22.55,16.35,22.55,12.778,20.349,10.576z M19.642,17.845c-0.877,0.877-2.042,1.359-3.282,1.359c-1.239,0-2.404-0.482-3.281-1.359
		s-1.359-2.042-1.359-3.282c0-1.238,0.482-2.403,1.359-3.279c0.876-0.877,2.042-1.359,3.281-1.359c1.24,0,2.405,0.482,3.282,1.359
		C21.449,13.092,21.449,16.035,19.642,17.845z"/>
	<circle fill="#ADADAE" cx="8.159" cy="9.27" r="1.719"/>
</g>
</svg>
