<?xml version="1.0" encoding="utf-8"?>
<!-- Generator: Adobe Illustrator 16.0.0, SVG Export Plug-In . SVG Version: 6.00 Build 0)  -->
<!DOCTYPE svg PUBLIC "-//W3C//DTD SVG 1.1//EN" "http://www.w3.org/Graphics/SVG/1.1/DTD/svg11.dtd">
<svg version="1.1" id="Layer_1" xmlns="http://www.w3.org/2000/svg" xmlns:xlink="http://www.w3.org/1999/xlink" x="0px" y="0px"
	 width="22px" height="22px" viewBox="0 0 22 22" enable-background="new 0 0 22 22" xml:space="preserve">
<g>
	<path fill="#ADADAE" d="M18.021,2.136H3.985c-0.727,0-1.318,0.591-1.318,1.315v15.098c0,0.723,0.592,1.315,1.318,1.315h14.035
		c0.725,0,1.312-0.593,1.312-1.315V3.451C19.333,2.727,18.745,2.136,18.021,2.136z M7.784,17.947
		c-0.51-0.538-0.344-1.527,0.371-2.206c0.328-0.312,3.791-2.37,4.068-2.079c0.225,0.237-1.812,3.644-2.215,4.027
		C9.29,18.371,8.293,18.484,7.784,17.947z M11.673,16.448c0.984-1.341,1.621-2.616,1.072-3.22c-0.134-0.148-0.438-0.392-0.959-0.334
		c-0.836,0.096-2.703,1.318-4.328,2.492c-1.646-1.129-2.727-3.022-2.727-5.173c0-3.462,2.805-6.27,6.268-6.27
		c3.461,0,6.27,2.808,6.27,6.27C17.269,13.449,14.818,16.111,11.673,16.448z"/>
	<circle fill="#ADADAE" cx="10.999" cy="10.213" r="1.792"/>
</g>
</svg>
