<?xml version="1.0" encoding="utf-8"?>
<!-- Generator: Adobe Illustrator 16.0.0, SVG Export Plug-In . SVG Version: 6.00 Build 0)  -->
<!DOCTYPE svg PUBLIC "-//W3C//DTD SVG 1.1//EN" "http://www.w3.org/Graphics/SVG/1.1/DTD/svg11.dtd">
<svg version="1.1" id="Layer_1" xmlns="http://www.w3.org/2000/svg" xmlns:xlink="http://www.w3.org/1999/xlink" x="0px" y="0px"
	 width="15px" height="15px" viewBox="6.5 4.5 15 15" enable-background="new 6.5 4.5 15 15" xml:space="preserve">
<g>
	<path fill="#FFFFFF" d="M20.049,5.526h-3.103C16.931,4.958,16.459,4.5,15.878,4.5s-1.053,0.458-1.068,1.026H13.19
		C13.175,4.958,12.703,4.5,12.123,4.5c-0.581,0-1.053,0.458-1.069,1.026h-3.1C7.152,5.526,6.5,6.171,6.5,6.963v11.1
		c0,0.792,0.652,1.438,1.454,1.438h12.095c0.814,0,1.451-0.631,1.451-1.438v-11.1C21.5,6.171,20.849,5.526,20.049,5.526z
		 M15.557,5.556c0-0.169,0.145-0.306,0.321-0.306s0.321,0.137,0.321,0.306v1.689c0,0.168-0.145,0.306-0.321,0.306
		s-0.321-0.137-0.321-0.306V5.556z M11.801,5.556c0-0.169,0.144-0.306,0.322-0.306c0.177,0,0.32,0.137,0.32,0.306v1.689
		c0,0.168-0.144,0.306-0.32,0.306c-0.178,0-0.322-0.137-0.322-0.306V5.556z M20,18H8V7.026h3.051v0.219
		c0,0.582,0.481,1.056,1.072,1.056c0.59,0,1.07-0.474,1.07-1.056V7.026h1.613v0.219c0,0.582,0.48,1.056,1.071,1.056
		s1.071-0.474,1.071-1.056V7.026H20V18z"/>
	<path fill="#FFFFFF" d="M9.856,11.192h2.156V9.068H9.856V11.192z M10.606,9.818h0.656v0.624h-0.656V9.818z"/>
	<path fill="#FFFFFF" d="M9.856,13.776h2.156v-2.125H9.856V13.776z M10.606,12.401h0.656v0.625h-0.656V12.401z"/>
	<path fill="#FFFFFF" d="M12.922,11.192h2.156V9.068h-2.156V11.192z M13.672,9.818h0.656v0.624h-0.656V9.818z"/>
	<path fill="#FFFFFF" d="M12.922,13.776h2.156v-2.125h-2.156V13.776z M13.672,12.401h0.656v0.625h-0.656V12.401z"/>
	<path fill="#FFFFFF" d="M15.987,11.192h2.157V9.068h-2.157V11.192z M16.737,9.818h0.657v0.624h-0.657V9.818z"/>
	<path fill="#FFFFFF" d="M15.987,13.776h2.157v-2.125h-2.157V13.776z M16.737,12.401h0.657v0.625h-0.657V12.401z"/>
	<path fill="#FFFFFF" d="M9.856,16.538h2.156v-2.124H9.856V16.538z M10.606,15.164h0.656v0.624h-0.656V15.164z"/>
	<path fill="#FFFFFF" d="M12.922,16.538h2.156v-2.124h-2.156V16.538z M13.672,15.164h0.656v0.624h-0.656V15.164z"/>
	<path fill="#FFFFFF" d="M15.987,16.538h2.157v-2.124h-2.157V16.538z M16.737,15.164h0.657v0.624h-0.657V15.164z"/>
</g>
</svg>
