<?xml version="1.0" encoding="utf-8"?>
<!-- Generator: Adobe Illustrator 21.1.0, SVG Export Plug-In . SVG Version: 6.00 Build 0)  -->
<svg version="1.1" xmlns="http://www.w3.org/2000/svg" xmlns:xlink="http://www.w3.org/1999/xlink" x="0px" y="0px"
	 viewBox="0 0 24 24" style="enable-background:new 0 0 24 24;" xml:space="preserve">
<style type="text/css">
	.st0{display:none;}
	.st1{display:inline;}
	.st2{fill:#114A54;}
	.st3{fill:#778E93;}
	.st4{fill:#D4E4F1;}
	.st5{fill:#398CCB;}
	.st6{fill:#AFDFF9;}
	.st7{fill:#6AA9DD;}
	.st8{fill:#20568E;}
	.st9{fill:#2C5261;}
	.st10{fill:#295A99;}
	.st11{opacity:0.2;fill:#3E85C5;}
	.st12{opacity:0.8;fill:#AFDFF9;}
	.st13{opacity:0.5;fill:#D4E4F1;}
	.st14{fill:#FFFFFF;}
	.st15{fill:#FFFFFF;stroke:#3E85C5;stroke-miterlimit:10;}
	.st16{fill:#3E85C5;}
	.st17{fill:#21558E;}
	.st18{fill:#B3C3C4;}
	.st19{fill:#D2E3F0;}
	.st20{display:none;fill:#B3C3C4;}
	.st21{fill:#295A9A;}
	.st22{fill:none;stroke:#295A99;stroke-miterlimit:10;}
</style>
<g id="Guidelines">
</g>
<g id="Your_Icons">
	<g class="st0">
	</g>
	<g>
		<path class="st18" d="M10.8,11.4l-0.8,0c0.1,0.1,0.2,0.1,0.2,0.2l0.5,0.1C10.8,11.6,10.8,11.5,10.8,11.4z"/>
		<path class="st18" d="M10.8,11.8C10.8,11.7,10.8,11.7,10.8,11.8L10.8,11.8C10.8,11.7,10.7,11.7,10.8,11.8L10.8,11.8z"/>
		<path class="st18" d="M10.7,11.8C10.7,11.8,10.7,11.8,10.7,11.8L10.7,11.8C10.7,11.8,10.7,11.8,10.7,11.8
			C10.7,11.8,10.7,11.8,10.7,11.8z"/>
		<path class="st18" d="M10.6,12.1c-0.1-0.1-0.3-0.1-0.4-0.2L9.6,12L10.6,12.1z"/>
		<path class="st18" d="M10.8,12.1C10.8,12.1,10.8,12.1,10.8,12.1l-0.2,0C10.6,12.1,10.7,12.1,10.8,12.1L10.8,12.1z"/>
		<polygon class="st18" points="10.8,11.4 10.8,11.4 10.8,11.4 		"/>
		<ellipse transform="matrix(0.7532 -0.6578 0.6578 0.7532 -4.0599 10.7161)" class="st18" cx="12.3" cy="10.8" rx="0" ry="0"/>
		<path class="st18" d="M11.5,10.7L11,9.8l0.3,1c0,0,0,0,0,0l-0.7-0.5c0,0,0,0,0,0l0.5,0.7c0,0,0,0,0,0l-1-0.4c0,0,0,0,0,0l0.9,0.7
			C10.9,11.1,11.2,10.9,11.5,10.7z"/>
		<path class="st18" d="M12.2,10.8l0-1.1l-0.4,1l-0.3-1l0,1c0,0,0,0,0,0c0.1,0,0.2-0.1,0.3-0.1C12,10.7,12.1,10.7,12.2,10.8z"/>
		
			<ellipse transform="matrix(0.9985 -5.496266e-02 5.496266e-02 0.9985 -0.5832 0.7064)" class="st18" cx="12.6" cy="11" rx="0" ry="0"/>
		<polygon class="st18" points="12.9,11.6 12.9,11.6 12.9,11.6 		"/>
		<polygon class="st18" points="11.5,10.7 11.5,10.7 11.5,10.7 		"/>
		<path class="st18" d="M13.9,11.6l-0.6,0c-0.1,0.1-0.2,0.2-0.3,0.2L13.9,11.6z"/>
		<ellipse transform="matrix(0.6189 -0.7855 0.7855 0.6189 -5.2918 14.5397)" class="st18" cx="12.3" cy="12.7" rx="0" ry="0"/>
		<path class="st18" d="M12.3,12.7l0.9,0.7l-0.6-0.9l1,0.4l-0.8-0.7l0.1,0c0,0-0.1,0-0.1,0C12.8,12.4,12.6,12.6,12.3,12.7z"/>
		<path class="st18" d="M12.9,11.6C12.9,11.6,12.9,11.6,12.9,11.6L12.9,11.6C12.9,11.6,12.9,11.6,12.9,11.6z"/>
		<path class="st18" d="M13.4,10.4L12.6,11c0.1,0.1,0.2,0.2,0.2,0.3L13.4,10.4z"/>
		<path class="st18" d="M12.9,11.6l0.5-0.4c0.1-0.1,0.1-0.1,0.2-0.2l-0.8,0.3C12.8,11.4,12.9,11.5,12.9,11.6z"/>
		<path class="st18" d="M11.4,12.8c-0.1,0-0.2-0.1-0.2-0.1c-0.1,0.1-0.1,0.1-0.2,0.2l-0.2,0.9L11.4,12.8z"/>
		<path class="st18" d="M18,1.6C12.3-1.7,4.9,0.3,1.6,6C-1.7,11.7,0.3,19.1,6,22.4c5.7,3.3,13.1,1.3,16.4-4.4
			C25.7,12.3,23.7,4.9,18,1.6z M22.1,9.4c0,0.1-1.2,1.9-3.2,1.9l-0.1,0c0.4,0.1,0.8,0.5,0.9,0.5c0,0,0,0.1,0,0.1c0,0-0.1,0-0.1,0
			c0,0,0,0,0,0c-0.2-0.1-0.6-0.2-0.8-0.2c0.1,0,0.7,0.4,1.3,0.7c0,0,0.1,0.1,0.1,0.1c0,0-0.1,0.1-0.1,0.1c0,0,0,0,0,0
			c0,0-0.6-0.2-0.9-0.2c0,0.1,0.7,0.8,1.4,1.3c0,0,0.1,0.1,0,0.1c0,0,0,0-0.1,0c0,0,0,0-0.1,0c-0.7-0.5-1.5-1.1-1.7-1.1
			c0,0.1,0.4,0.4,0.7,0.7c0,0,0,0.1,0,0.1c0,0-0.1,0-0.1,0c0,0,0,0-0.1,0c0,0-1-0.6-1.6-0.6c-0.1,0-0.1,0-0.2,0c0,0,0.1,0.2,1,0.8
			c0.3,0.2,0.5,0.3,0.5,0.3c0,0,0.1,0.1,0,0.1c0,0-0.1,0-0.1,0c0,0,0,0-0.1,0c0,0-0.2-0.1-0.5-0.3c-0.5-0.3-0.7-0.3-0.8-0.3
			c-0.1,0.2,0.5,1.1,1.3,2c0,0,0,0.1,0,0.1c0,0,0,0-0.1,0c0,0-0.1,0-0.1,0C18,15,17.1,14.1,16.9,14c0,0.1,0.3,0.5,0.6,0.9
			c0,0,0,0.1,0,0.1c0,0,0,0-0.1,0c0,0-0.1,0-0.1,0c-0.3-0.3-0.8-0.8-1-0.8c0,0.2,0.6,1.5,1.3,2.5c0,0,0,0.1,0,0.1c0,0,0,0-0.1,0
			c0,0-0.1,0-0.1,0c-0.4-0.6-1.5-2.1-2-2.1c0,0,0,0,0,0c1,2.2,0.7,2.6,0.6,2.7c0,0,0,0-0.1,0c0,0,0,0,0,0c0,0-0.1,0-0.1-0.1
			c0,0-0.1-2.2-1.3-2.2c-0.1,0-0.1,0-0.2,0.1c-0.1,0.2,0.2,1.1,0.5,1.6c0,0,0,0.1,0,0.1c0,0,0,0,0,0c0,0-0.1,0-0.1,0
			c-0.2-0.4-0.8-1.3-1.2-1.5c1,2,0.6,2.8,0.6,2.8c0,0-0.1,0.1-0.1,0.1c0,0,0,0,0,0c0,0-0.1-0.1-0.1-0.1c0,0,0.1-1.5-1-2.4
			c0.1,0.8-0.4,2.3-0.5,2.5c0,0-0.1,0.1-0.1,0.1c0,0,0,0,0,0c0,0-0.1-0.1-0.1-0.1c0.1-0.6,0.4-2.1,0.1-2.6c-0.1-0.1-0.1-0.1-0.2-0.1
			c-0.1,0-0.2,0-0.3,0.1c-0.1,0.1,0,0.9,0,1.6c0,0.1,0,0.1-0.1,0.1c0,0,0,0,0,0c0,0-0.1,0-0.1-0.1c-0.1-0.8-0.4-1.6-0.6-1.6
			c-0.2,0.1-0.9,1.3-1.5,2.4c0,0-0.1,0.1-0.1,0.1c0,0,0,0,0,0c0,0-0.1-0.1,0-0.1c0.4-1.1,0.9-2.3,0.8-2.4c0,0.1-0.4,0.6-0.6,1.1
			c0,0-0.1,0.1-0.1,0.1c0,0,0,0,0,0c0,0-0.1-0.1-0.1-0.1c0.1-0.5,0.1-1,0.1-1c-0.1,0-0.8,0.6-1.3,1.1c0,0,0,0-0.1,0c0,0,0,0-0.1,0
			c0,0,0-0.1,0-0.1c0.4-0.5,0.8-1.1,0.8-1.2c-0.1-0.2-0.3-0.3-0.4-0.3c-0.1,0-0.2,0-0.3,0.1c-0.5,0.2-1.1,1-1.1,1c0,0,0,0-0.1,0
			c0,0,0,0-0.1,0c0,0-0.1-0.1,0-0.1c0.3-0.4,0.6-0.9,0.5-1.1c0,0,0,0,0,0c-0.5,0-1.5,0.8-1.9,1.1c0,0,0,0-0.1,0c0,0-0.1,0-0.1,0
			c0,0,0-0.1,0-0.1c0.4-0.3,0.9-0.9,0.9-1.1c-0.1-0.1-0.3-0.2-1.2-0.2l-0.8,0c-1.3,0-1.7-0.3-2.2-0.6c0,0,0-0.1,0-0.1
			c0,0,0.1,0,0.1,0c0,0,0,0,0,0c0.5,0.2,1,0.3,1.6,0.3c0.3,0,0.7,0,1-0.1c0.4,0,0.7-0.1,1.1-0.1c0.5,0,0.9,0.1,1.4,0.2
			c1.1,0.3,2.4,0.7,4,0.7c0.5,0,1,0,1.6-0.1c2.6-0.4,4.5-1.5,5.4-3.2c0.1-0.2,0.3-0.4,0.5-0.4c0,0,0,0,0.1,0c-0.2,0-0.4-0.2-0.7-0.3
			c-0.8-0.4-2.1-1.1-4.1-1.4c0.1,0.1,0.2,0.1,0.3,0.2c0,0.2-0.1,0.4-0.2,0.7c0,0,0,0-0.1,0c-0.2,0-0.3,0.1-0.3,0.3
			c0,0.1,0,0.2,0.1,0.2c0,0,0,0,0,0l0.1-0.1l-0.3,0.2c-0.1,0.1-0.3,0.3-0.5,0.4l0.4,0c0.2-0.2,0.3-0.3,0.5-0.5c0,0,0,0,0.1,0
			c0.2,0,0.3-0.1,0.3-0.3c0-0.1,0-0.2-0.1-0.2c0.1-0.2,0.1-0.4,0.1-0.7c0.3,0.2,0.5,0.6,0.5,1c0,0.6-0.2,1.1-0.4,1.6
			c-0.4-0.3-0.8-0.5-1.3-0.6c0,0,0,0,0.1,0l-0.2,0c0,0,0,0,0,0l1,0.4L13,12.2c0.4,0.1,0.8,0.2,1.2,0.5c-0.6,0.9-1.6,1.5-2.8,1.5
			c-0.3,0-0.6,0-0.8-0.1c-0.1-0.1-0.2-0.2-0.3-0.2c0.1-0.4,0.4-0.7,0.7-1l0.1-0.3L10.4,13c-0.1,0.2-0.2,0.4-0.3,0.5
			c-0.1-0.2-0.2-0.3-0.3-0.5C9.9,13,10,12.8,10,12.7c0,0,0,0,0,0l-0.1,0l0.1-0.1c0-0.2-0.2-0.4-0.4-0.4c0-0.3,0-0.5,0-0.8
			c0,0,0,0,0,0c0.2,0.2,0.4,0.3,0.6,0.5l0.5-0.1c-0.1-0.1-0.2-0.1-0.4-0.2l-0.6-0.2l0.4,0c-0.1-0.1-0.2-0.2-0.3-0.3
			c0.1-0.1,0.1-0.3,0.2-0.4l0,0l0,0c0-0.1,0.1-0.1,0.1-0.2c0,0,0.1,0,0.1,0c0.1,0,0.2-0.1,0.3-0.2l-0.1-0.2l0.2,0.1c0,0,0-0.1,0-0.2
			c0,0,0-0.1,0-0.1c0.3-0.2,0.7-0.4,1-0.5c-0.3,0-0.5,0-0.8,0.1c-0.2,0.1-0.3,0.2-0.5,0.3c0,0-0.1,0-0.1,0c-0.2,0-0.4,0.2-0.4,0.4
			c0,0,0,0.1,0,0.1c-0.1,0.2-0.2,0.4-0.3,0.6c-0.2-0.3-0.4-0.6-0.4-1c0,0-0.1,0-0.1,0c0,0.5,0.2,0.9,0.4,1.2c0,0.1-0.1,0.2-0.1,0.3
			c-0.1,0.3-0.1,0.6,0,0.9C9.1,12.4,9,12.5,9,12.7c0,0.3,0.2,0.5,0.5,0.5c0,0,0,0,0.1,0c0.1,0.2,0.3,0.5,0.5,0.7c0,0,0,0,0,0
			c-1.2-0.5-2-1.7-2-3c0-0.3,0.1-0.5,0.2-0.8c-1.6,0.5-2.7,1.3-3.8,2.1c-0.7,0.5-1.4,1-2.2,1.5c0,0,0,0,0,0c0,0-0.1,0-0.1,0
			c0,0,0-0.1,0-0.1c3.3-3.3,5.9-4.2,8-4.6c0.2,0,0.3-0.4,0.3-0.6c0-0.1,0-0.1,0.1-0.1s0.1,0,0.1,0.1c0,0.2,0.1,0.4,0.2,0.5
			c0.1,0,0.2-0.3,0.4-0.7l0,0c0,0,0.1-0.1,0.1-0.1c0,0,0,0,0,0c0.1,0,0.1,0.1,0.1,0.1c0,0,0,0,0,0c-0.1,0.2-0.1,0.6-0.1,0.6
			c0,0,0,0,0,0c0.1,0,0.4-0.3,0.6-0.7c0,0,0.1,0,0.1,0c0,0,0,0,0,0c0,0,0.1,0.1,0.1,0.1C12,8.4,12,8.7,12,8.8c0-0.1,0.4-0.5,0.6-0.9
			c0,0,0.1,0,0.1,0c0,0,0,0,0.1,0c0,0,0.1,0.1,0,0.1c-0.1,0.2-0.2,0.4-0.1,0.5l0,0.1l0.1-0.1c0.3,0,0.6-0.3,0.7-0.4c0,0,0,0,0.1,0
			c0,0,0,0,0.1,0c0,0,0,0.1,0,0.1c-0.1,0.2-0.3,0.3-0.2,0.4c0.1,0,0.1,0,0.2,0c0.6,0,1-0.7,1.1-0.7c0,0,0.1,0,0.1,0c0,0,0,0,0,0
			c0,0,0.1,0.1,0.1,0.1c0,0-0.1,0.4-0.4,0.8c0,0,0,0,0,0c0.7,0,1.1-1,1.1-1c0,0,0.1-0.1,0.1-0.1c0,0,0,0,0,0c0,0,0.1,0.1,0,0.1
			L15.2,9c0.3-0.2,0.9-0.8,1.3-1.2c0,0,0,0,0.1,0c0,0,0,0,0.1,0c0,0,0.1,0.1,0,0.1c0,0-0.4,0.7-0.8,1.2c0.2-0.1,0.4-0.3,0.6-0.4
			c0,0,0,0,0.1,0c0,0,0,0,0.1,0c0,0,0,0.1,0,0.1c-0.2,0.3-0.4,0.6-0.4,0.7c0.3,0,1-0.8,1.4-1.4c0,0,0,0,0.1,0c0,0,0,0,0.1,0
			c0,0,0.1,0.1,0,0.1c0,0-0.4,0.9-1.1,1.7c0.5-0.1,1.5-1.2,1.8-1.6c0,0,0,0,0.1,0c0,0,0,0,0,0c0,0,0.1,0.1,0.1,0.1
			c0,0,0,0.5-0.8,1.3c0.6-0.4,1.3-1.4,1.3-1.4c0,0,0.1,0,0.1,0c0,0,0,0,0,0c0,0,0.1,0.1,0.1,0.1c0,0-0.3,0.8-0.9,1.6
			C19.1,9.3,19.7,8.4,20,8c0,0,0.1,0,0.1,0c0,0,0,0,0,0c0,0,0.1,0.1,0,0.1c0,0.1-0.4,1.2-1.3,2c1,0,2.3-1.4,2.4-1.4c0,0,0,0,0.1,0
			c0,0,0,0,0.1,0c0,0,0.1,0.1,0,0.1c0,0-0.5,1-1.3,1.5c0,0,0,0,0.1,0c0.8,0,1.8-1.1,1.8-1.1c0,0,0,0,0.1,0c0,0,0,0,0.1,0
			C22.1,9.3,22.1,9.4,22.1,9.4z"/>
		<path class="st18" d="M12.9,9.9l-0.6,0.8c0.1,0,0.2,0.1,0.3,0.2L12.9,9.9z"/>
		<path class="st18" d="M10.9,12.4c-0.1-0.1-0.1-0.2-0.1-0.2c0,0,0,0-0.1,0L10,12.6c0,0,0,0,0,0L10.9,12.4l-0.8,0.8l0.3-0.2
			C10.6,12.8,10.7,12.6,10.9,12.4z"/>
		<ellipse transform="matrix(0.9722 -0.2341 0.2341 0.9722 -2.6701 3.0243)" class="st18" cx="11.4" cy="12.8" rx="0" ry="0"/>
		<ellipse transform="matrix(0.5118 -0.8591 0.8591 0.5118 -3.4295 16.4847)" class="st18" cx="12.8" cy="11.3" rx="0" ry="0"/>
		<path class="st18" d="M11.7,12.9L12,14l0.1-1.1l0.5,0.9l-0.3-1.1c-0.2,0.1-0.3,0.1-0.5,0.1c-0.2,0-0.3,0-0.4-0.1l-0.1,1.1
			L11.7,12.9z"/>
	</g>
</g>
</svg>
