<?xml version="1.0" encoding="utf-8"?>
<!-- Generator: Adobe Illustrator 21.1.0, SVG Export Plug-In . SVG Version: 6.00 Build 0)  -->
<svg version="1.1" xmlns="http://www.w3.org/2000/svg" xmlns:xlink="http://www.w3.org/1999/xlink" x="0px" y="0px"
	 viewBox="0 0 24 24" style="enable-background:new 0 0 24 24;" xml:space="preserve">
<style type="text/css">
	.st0{display:none;}
	.st1{display:inline;}
	.st2{fill:#114A54;}
	.st3{fill:#778E93;}
	.st4{fill:#D4E4F1;}
	.st5{fill:#398CCB;}
	.st6{fill:#AFDFF9;}
	.st7{fill:#6AA9DD;}
	.st8{fill:#20568E;}
	.st9{fill:#2C5261;}
	.st10{fill:#295A99;}
	.st11{opacity:0.2;fill:#3E85C5;}
	.st12{opacity:0.8;fill:#AFDFF9;}
	.st13{opacity:0.5;fill:#D4E4F1;}
	.st14{fill:#FFFFFF;}
	.st15{fill:#FFFFFF;stroke:#3E85C5;stroke-miterlimit:10;}
	.st16{fill:#3E85C5;}
	.st17{fill:#21558E;}
	.st18{fill:#B3C3C4;}
	.st19{fill:#D2E3F0;}
	.st20{display:none;fill:#B3C3C4;}
	.st21{fill:#295A9A;}
	.st22{fill:none;stroke:#295A99;stroke-miterlimit:10;}
</style>
<g id="Guidelines">
</g>
<g id="Your_Icons">
	<g class="st0">
	</g>
	<g>
		<ellipse transform="matrix(0.5 -0.866 0.866 0.5 -4.3921 16.3924)" class="st4" cx="12" cy="12" rx="12" ry="12"/>
		<ellipse transform="matrix(0.5 -0.866 0.866 0.5 -4.3921 16.3924)" class="st14" cx="12" cy="12" rx="9.5" ry="9.5"/>
		<g>
			<g>
				<path class="st8" d="M13.7,10.7C13.7,10.7,13.7,10.7,13.7,10.7c-0.3,0.3-0.5,0.6-0.8,0.8c0.5,0.1,0.9,0.3,1.3,0.6
					c0.3-0.5,0.4-1,0.4-1.6c0-0.4-0.2-0.8-0.5-1c0,0.2-0.1,0.5-0.1,0.7c0.1,0.1,0.1,0.1,0.1,0.2C14.1,10.6,13.9,10.7,13.7,10.7z"/>
				<path class="st8" d="M10,13.3c0.2-0.4,0.4-0.9,0.8-1.2c-0.1-0.1-0.1-0.2-0.1-0.2c-0.5-0.1-0.9-0.4-1.2-0.8c0,0,0,0,0,0
					c-0.1,0.3-0.1,0.5,0,0.8c0.2,0,0.4,0.2,0.4,0.5c0,0.1-0.1,0.3-0.2,0.3C9.8,12.9,9.9,13.1,10,13.3z"/>
				<path class="st8" d="M11.7,12.5c-0.3,0-0.5-0.1-0.7-0.2c-0.4,0.3-0.7,0.7-0.8,1.2c0.1,0.1,0.2,0.2,0.3,0.2
					c0.3,0.1,0.5,0.1,0.8,0.1c1.2,0,2.2-0.6,2.8-1.5c-0.4-0.3-0.9-0.4-1.3-0.5C12.6,12.2,12.2,12.5,11.7,12.5z"/>
				<path class="st8" d="M19.7,10.1c0.8-0.5,1.4-1.6,1.4-1.6s-1.6,1.6-2.7,1.4c1-0.8,1.5-2.1,1.5-2.1s-1.3,1.9-2,2
					c0.9-0.8,1.3-1.9,1.3-1.9s-1,1.5-1.8,1.6c1.1-1,1.1-1.6,1.1-1.6S17,9.8,16.4,9.5c0.7-0.8,1.2-1.8,1.2-1.8S16.3,9.4,16,9.2
					c-0.2,0,0.4-0.8,0.4-0.8s-0.8,0.7-1,0.5c0.4-0.2,1-1.4,1-1.4s-1.3,1.5-1.6,1.3l0.6-1.2c0,0-0.6,1.2-1.4,1
					c0.4-0.5,0.5-0.9,0.5-0.9s-0.6,1-1.4,0.7c-0.2-0.1,0.2-0.5,0.2-0.5s-0.5,0.5-0.9,0.4c-0.4-0.1,0-0.7,0-0.7s-0.6,1-0.8,0.9
					c-0.1,0,0.1-0.7,0.1-0.7s-0.5,0.8-0.7,0.7c-0.3,0,0-0.8,0-0.8s-0.3,0.8-0.5,0.8C10.4,8.5,10.4,8,10.4,8S10.3,8.6,10,8.7
					c-2.3,0.4-4.8,1.4-7.9,4.5c2.2-1.2,3.4-2.8,6.2-3.6c-0.2,0.2-0.4,0.5-0.4,0.9c0,1.4,0.8,2.5,2,3c0,0,0,0,0,0
					c-0.2-0.2-0.4-0.4-0.5-0.7c0,0,0,0-0.1,0c-0.3,0-0.5-0.2-0.5-0.5C8.9,12.2,9,12,9.1,12c0-0.3,0-0.6,0-0.9c0-0.1,0-0.2,0.1-0.3
					C9,10.4,8.8,10,8.8,9.5c0,0,0,0,0.1,0c0.1,0.4,0.2,0.8,0.5,1.1c0.1-0.2,0.2-0.4,0.3-0.6c0,0,0-0.1,0-0.1c0-0.2,0.2-0.4,0.4-0.4
					c0,0,0.1,0,0.1,0c0.2-0.2,0.5-0.3,0.8-0.4c0.3,0,0.5,0,0.8-0.1c0.2,0,0.4,0,0.6,0c0,0,0.1,0,0.1,0C11.8,9,11,9.2,10.4,9.7
					c0,0,0,0.1,0,0.1c0,0.2-0.2,0.4-0.4,0.4c0,0-0.1,0-0.1,0c-0.1,0.2-0.2,0.4-0.3,0.6c0.3,0.3,0.6,0.6,1,0.7c0,0,0,0,0-0.1
					c0-0.6,0.5-1.1,1.1-1.1c0.5,0,1,0.4,1.1,0.9c0.3-0.2,0.5-0.4,0.7-0.6c0-0.1-0.1-0.1-0.1-0.2c0-0.2,0.1-0.3,0.3-0.3
					c0,0,0.1,0,0.1,0C13.9,9.9,14,9.7,14,9.4c-0.2-0.1-0.4-0.3-0.7-0.3c3.2,0.3,4.7,1.7,5.3,1.8c2,0.1,3.2-1.8,3.2-1.8
					S20.6,10.5,19.7,10.1z"/>
				<path class="st8" d="M18.4,13.7c0.2,0.2,0.4,0.3,0.4,0.3S18.7,13.8,18.4,13.7z"/>
				<path class="st8" d="M20.4,13.5c0,0-1.4-1.1-1.5-1.4c-0.1-0.3,1.1,0.1,1.1,0.1s-1.3-0.6-1.4-0.8c0-0.2,0.9,0.2,0.9,0.2
					s-1.2-1-1.5-0.2c-1,1.9-3,2.9-5.4,3.2c-2.4,0.3-4.2-0.2-5.6-0.6c-1.9-0.5-3.4,0.4-5.1-0.4c0.4,0.3,0.8,0.6,2.1,0.6
					c0.4,0,1.8-0.1,2.1,0.2c0.3,0.2-0.9,1.3-0.9,1.3s1.9-1.6,2.1-1c0.1,0.3-0.5,1.2-0.5,1.2s0.7-0.9,1.1-1.1
					c0.3-0.1,0.6-0.1,0.9,0.2c0.2,0.2-0.8,1.3-0.8,1.3s1.2-1.2,1.5-1.1c0.2,0.1,0,1.1,0,1.1s0.5-1.1,0.7-1.2
					c0.3-0.1-0.8,2.5-0.8,2.5s1.3-2.4,1.6-2.5c0.4-0.1,0.7,1.7,0.7,1.7s-0.2-1.6,0-1.7c1.4-0.6,0.6,2.7,0.6,2.7s0.9-2.3,0.4-2.8
					c1.5,1,1.3,2.8,1.3,2.8s0.4-0.9-0.7-2.9c0.6,0,1.5,1.6,1.5,1.6s-1-1.7-0.3-1.8c1.3-0.1,1.5,2.3,1.5,2.3s0.4-0.3-0.7-2.6
					c0.7-0.4,2.3,2.1,2.3,2.1s-1.5-2.5-1.3-2.7c0.2-0.2,1.1,0.8,1.1,0.8s-0.7-0.9-0.5-1c0.2-0.1,2,1.8,2,1.8s-1.6-1.9-1.3-2.1
					c0.2-0.1,0.6,0.1,1,0.3c-0.5-0.4-1.2-0.9-1-1c0.5-0.3,1.9,0.6,1.9,0.6s-0.8-0.7-0.7-0.9C18.7,12.2,20.4,13.5,20.4,13.5z"/>
			</g>
			<path class="st7" d="M12.8,11.5C12.8,11.5,12.8,11.5,12.8,11.5l1-0.2l-1-0.1l0.8-0.6l-0.9,0.3c0,0,0,0,0,0l0.6-0.9l-0.9,0.6
				c0,0,0,0,0,0l0.3-1l-0.6,0.8c0,0,0,0,0,0l0-1.1l-0.4,1l-0.3-1l0,1c0,0,0,0,0,0l-0.5-0.9l0.3,1c0,0,0,0,0,0l-0.9-0.6l0.7,0.8
				c0,0,0,0,0,0l-1.1-0.4l0.9,0.7l-1.2,0l1.1,0.3c0,0,0,0,0,0l-1.1,0.2l1.2,0.1c0,0,0,0,0,0l-1,0.6l1-0.4L10,12.9l0.9-0.7l-0.3,1.2
				l0.7-1c0,0,0,0,0,0l-0.1,1.1l0.4-1.1l0.3,1.1l0.1-1.1l0.5,0.9l-0.3-1.1c0,0,0,0,0,0l0.9,0.7l-0.6-0.9l1,0.4l-0.8-0.7l1,0.1
				L12.8,11.5z"/>
		</g>
	</g>
</g>
</svg>
