<?xml version="1.0" encoding="utf-8"?>
<!-- Generator: Adobe Illustrator 16.0.0, SVG Export Plug-In . SVG Version: 6.00 Build 0)  -->
<!DOCTYPE svg PUBLIC "-//W3C//DTD SVG 1.1//EN" "http://www.w3.org/Graphics/SVG/1.1/DTD/svg11.dtd">
<svg version="1.1" id="Layer_1" xmlns="http://www.w3.org/2000/svg" xmlns:xlink="http://www.w3.org/1999/xlink" x="0px" y="0px"
	 width="13px" height="10px" viewBox="0 0 13 10" enable-background="new 0 0 13 10" xml:space="preserve">
<path fill-rule="evenodd" clip-rule="evenodd" fill="#FFFFFF" d="M12.74,0.709c-0.35-0.348-0.913-0.348-1.26,0L4.798,7.391
	L1.521,4.114c-0.348-0.348-0.912-0.348-1.26,0c-0.348,0.348-0.348,0.912,0,1.26l3.846,3.847c0.019,0.022,0.027,0.051,0.049,0.073
	c0.177,0.176,0.41,0.261,0.641,0.258C5.03,9.555,5.263,9.47,5.44,9.294c0.022-0.022,0.03-0.051,0.049-0.075l7.25-7.25
	C13.087,1.621,13.087,1.057,12.74,0.709z"/>
</svg>
