<?xml version="1.0" encoding="utf-8"?>
<!-- Generator: Adobe Illustrator 16.0.0, SVG Export Plug-In . SVG Version: 6.00 Build 0)  -->
<!DOCTYPE svg PUBLIC "-//W3C//DTD SVG 1.1//EN" "http://www.w3.org/Graphics/SVG/1.1/DTD/svg11.dtd">
<svg version="1.1" id="Layer_1" xmlns="http://www.w3.org/2000/svg" xmlns:xlink="http://www.w3.org/1999/xlink" x="0px" y="0px"
	 width="12px" height="12px" viewBox="0 0 12 12" enable-background="new 0 0 12 12" xml:space="preserve">
<path fill-rule="evenodd" clip-rule="evenodd" fill="#FFFFFF" d="M7.461,6l4.229-4.229c0.403-0.404,0.403-1.058,0-1.461
	s-1.057-0.403-1.46,0L6,4.54L1.77,0.31c-0.403-0.403-1.057-0.403-1.46,0s-0.403,1.057,0,1.46L4.54,6l-4.23,4.23
	c-0.403,0.403-0.403,1.058,0,1.46c0.403,0.403,1.058,0.403,1.461,0L6,7.461l4.229,4.229c0.403,0.403,1.059,0.403,1.461,0
	c0.403-0.403,0.403-1.058,0-1.461L7.461,6z"/>
</svg>
