<?xml version="1.0" encoding="utf-8"?>
<!-- Generator: Adobe Illustrator 16.0.0, SVG Export Plug-In . SVG Version: 6.00 Build 0)  -->
<!DOCTYPE svg PUBLIC "-//W3C//DTD SVG 1.1//EN" "http://www.w3.org/Graphics/SVG/1.1/DTD/svg11.dtd">
<svg version="1.1" id="Layer_1" xmlns="http://www.w3.org/2000/svg" xmlns:xlink="http://www.w3.org/1999/xlink" x="0px" y="0px"
	 width="22px" height="22px" viewBox="0 0 22 22" enable-background="new 0 0 22 22" xml:space="preserve">
<g>
	<path fill="#ADADAE" d="M4.961,10.999c0-2.149,1.157-4.154,3.019-5.231L7.479,4.902c-2.17,1.256-3.518,3.592-3.518,6.097
		c0,2.509,1.352,4.847,3.527,6.101l0.499-0.866C6.121,15.157,4.961,13.151,4.961,10.999z"/>
	<path fill="#ADADAE" d="M18.039,10.997c0-2.512-1.354-4.851-3.535-6.105l-0.499,0.867c1.872,1.076,3.034,3.083,3.034,5.238
		c0,2.161-1.166,4.171-3.042,5.246l0.497,0.868C16.681,15.858,18.039,13.515,18.039,10.997z"/>
	<path fill="#ADADAE" d="M1.666,11.01c0-3.271,1.747-6.344,4.559-8.021L5.712,2.131C2.6,3.987,0.666,7.39,0.666,11.01
		c0,3.657,1.873,6.969,5.011,8.859l0.516-0.856C3.358,17.305,1.666,14.313,1.666,11.01z"/>
	<path fill="#ADADAE" d="M16.229,2.076l-0.506,0.862c2.844,1.67,4.611,4.755,4.611,8.051c0,3.309-1.778,6.401-4.64,8.071
		l0.504,0.863c3.168-1.848,5.136-5.272,5.136-8.935C21.334,7.341,19.378,3.925,16.229,2.076z"/>
	<path fill="#ADADAE" d="M10.998,8.743c-1.244,0-2.256,1.012-2.256,2.257c0,1.245,1.012,2.258,2.256,2.258
		c1.246,0,2.26-1.013,2.26-2.258C13.258,9.755,12.244,8.743,10.998,8.743z M10.998,12.257c-0.692,0-1.256-0.564-1.256-1.258
		c0-0.693,0.563-1.257,1.256-1.257c0.695,0,1.26,0.564,1.26,1.257C12.258,11.693,11.693,12.257,10.998,12.257z"/>
</g>
</svg>
