<?xml version="1.0" encoding="utf-8"?>
<!-- Generator: Adobe Illustrator 16.0.0, SVG Export Plug-In . SVG Version: 6.00 Build 0)  -->
<!DOCTYPE svg PUBLIC "-//W3C//DTD SVG 1.1//EN" "http://www.w3.org/Graphics/SVG/1.1/DTD/svg11.dtd">
<svg version="1.1" id="Layer_1" xmlns="http://www.w3.org/2000/svg" xmlns:xlink="http://www.w3.org/1999/xlink" x="0px" y="0px"
	 width="22px" height="22px" viewBox="0 0 22 22" enable-background="new 0 0 22 22" xml:space="preserve">
<path fill="#ADADAE" d="M21.334,10.99c0-3.649-1.956-7.064-5.105-8.914l-0.506,0.862c2.845,1.67,4.611,4.755,4.611,8.051
	c0,3.143-1.616,6.075-4.229,7.794l-1.166-1.97c1.919-1.303,3.101-3.479,3.101-5.817c0-2.512-1.354-4.851-3.535-6.105l-0.498,0.867
	c1.871,1.076,3.033,3.083,3.033,5.238c0,1.986-0.993,3.836-2.609,4.958l-1.938-3.274c0.466-0.414,0.766-1.01,0.766-1.681
	c0-1.245-1.014-2.257-2.26-2.257c-0.266,0-0.517,0.054-0.753,0.139L6.118,1.909L5.721,2.144L5.713,2.131
	C5.649,2.169,5.594,2.217,5.531,2.256L5.258,2.418L5.27,2.437C2.425,4.344,0.666,7.57,0.666,11.01c0,3.657,1.873,6.969,5.011,8.859
	l0.516-0.856c-2.834-1.708-4.526-4.699-4.526-8.002c0-3.088,1.571-5.986,4.112-7.713l1.163,1.965
	c-1.848,1.312-2.98,3.448-2.98,5.736c0,2.509,1.352,4.847,3.526,6.101l0.5-0.866c-1.867-1.076-3.026-3.082-3.026-5.235
	c0-1.935,0.943-3.746,2.489-4.876l1.946,3.29C8.993,9.82,8.742,10.381,8.742,11c0,1.245,1.012,2.258,2.256,2.258
	c0.216,0,0.42-0.04,0.617-0.096l4.151,7.015l0.43-0.254l0.002,0.003c0.017-0.01,0.031-0.022,0.048-0.032l0.381-0.226l-0.014-0.023
	C19.529,17.745,21.334,14.484,21.334,10.99z M10.998,9.743c0.694,0,1.26,0.564,1.26,1.257c0,0.3-0.12,0.565-0.297,0.782L10.78,9.787
	C10.854,9.773,10.921,9.743,10.998,9.743z M10.998,12.257c-0.692,0-1.256-0.564-1.256-1.258c0-0.244,0.088-0.458,0.209-0.651
	l1.121,1.894C11.046,12.244,11.024,12.257,10.998,12.257z"/>
</svg>
