<?xml version="1.0" encoding="utf-8"?>
<!-- Generator: Adobe Illustrator 16.0.0, SVG Export Plug-In . SVG Version: 6.00 Build 0)  -->
<!DOCTYPE svg PUBLIC "-//W3C//DTD SVG 1.1//EN" "http://www.w3.org/Graphics/SVG/1.1/DTD/svg11.dtd">
<svg version="1.1" id="Layer_1" xmlns="http://www.w3.org/2000/svg" xmlns:xlink="http://www.w3.org/1999/xlink" x="0px" y="0px"
	 width="22px" height="22px" viewBox="0 0 22 22" enable-background="new 0 0 22 22" xml:space="preserve">
<path fill="#ADADAE" d="M21.334,10.99c0-2.426-0.879-4.737-2.384-6.564l0.944-0.949l-1.418-1.41L17.54,3.008
	c-0.413-0.339-0.844-0.657-1.312-0.932l-0.506,0.862c0.394,0.231,0.762,0.495,1.112,0.777l-1.633,1.642
	c-0.223-0.167-0.453-0.326-0.698-0.466l-0.498,0.867c0.168,0.097,0.323,0.209,0.479,0.32l-2.775,2.79
	c-0.226-0.075-0.462-0.125-0.712-0.125c-0.249,0-0.484,0.05-0.708,0.125L7.516,6.079c0.151-0.107,0.302-0.217,0.464-0.312
	l-0.5-0.865C7.241,5.04,7.017,5.196,6.799,5.359L5.174,3.725C5.505,3.458,5.854,3.21,6.225,2.99L5.713,2.131
	C5.271,2.395,4.861,2.696,4.47,3.018L3.523,2.066l-1.418,1.41l0.955,0.96C1.55,6.268,0.666,8.584,0.666,11.011
	c0,2.46,0.864,4.753,2.374,6.573l-0.935,0.94l1.418,1.41l0.93-0.935c0.385,0.314,0.789,0.608,1.224,0.871l0.516-0.856
	c-0.365-0.22-0.709-0.462-1.034-0.723L6.8,16.64c0.22,0.164,0.446,0.321,0.688,0.46l0.5-0.866c-0.165-0.095-0.316-0.206-0.471-0.315
	l2.772-2.787c0.225,0.075,0.46,0.125,0.709,0.125c0.25,0,0.487-0.05,0.712-0.126l2.773,2.788c-0.158,0.112-0.316,0.226-0.486,0.323
	l0.496,0.868c0.248-0.142,0.481-0.302,0.707-0.47l1.625,1.633c-0.356,0.287-0.73,0.554-1.131,0.788l0.504,0.863
	c0.475-0.277,0.913-0.6,1.331-0.943l0.947,0.952l1.418-1.41l-0.952-0.957C20.452,15.736,21.334,13.422,21.334,10.99z M20.334,10.99
	c0,2.163-0.771,4.226-2.097,5.867l-1.62-1.628c0.904-1.203,1.422-2.683,1.422-4.232c0-1.546-0.517-3.025-1.42-4.228l1.626-1.635
	C19.565,6.774,20.334,8.833,20.334,10.99z M8.871,11.722L6.1,14.508c-0.723-1.011-1.139-2.231-1.139-3.509
	c0-1.276,0.416-2.497,1.138-3.508l2.772,2.787C8.794,10.506,8.742,10.746,8.742,11S8.794,11.494,8.871,11.722z M13.129,10.278
	l2.772-2.788c0.722,1.01,1.138,2.229,1.138,3.506c0,1.279-0.417,2.5-1.14,3.511l-2.771-2.786c0.077-0.228,0.129-0.468,0.129-0.722
	S13.206,10.506,13.129,10.278z M1.666,11.011c0-2.159,0.773-4.223,2.1-5.865L5.381,6.77c-0.903,1.203-1.42,2.683-1.42,4.229
	c0,1.547,0.517,3.028,1.421,4.23l-1.635,1.644C2.422,15.241,1.666,13.199,1.666,11.011z"/>
</svg>
