<?xml version="1.0" encoding="utf-8"?>
<!-- Generator: Adobe Illustrator 16.0.0, SVG Export Plug-In . SVG Version: 6.00 Build 0)  -->
<!DOCTYPE svg PUBLIC "-//W3C//DTD SVG 1.1//EN" "http://www.w3.org/Graphics/SVG/1.1/DTD/svg11.dtd">
<svg version="1.1" id="Layer_1" xmlns="http://www.w3.org/2000/svg" xmlns:xlink="http://www.w3.org/1999/xlink" x="0px" y="0px"
	 width="22px" height="22px" viewBox="0 0 22 22" enable-background="new 0 0 22 22" xml:space="preserve">
<g>
	<path fill="#ADADAE" d="M4.961,11.647c0-2.149,1.157-4.153,3.018-5.231L7.479,5.55c-2.169,1.256-3.517,3.592-3.517,6.097
		c0,2.509,1.351,4.847,3.526,6.101l0.5-0.866C6.121,15.806,4.961,13.8,4.961,11.647z"/>
	<path fill="#ADADAE" d="M18.038,11.645c0-2.512-1.354-4.852-3.534-6.105l-0.498,0.867c1.87,1.076,3.032,3.083,3.032,5.238
		c0,2.161-1.165,4.171-3.042,5.246l0.498,0.868C16.68,16.506,18.038,14.164,18.038,11.645z"/>
	<path fill="#ADADAE" d="M1.667,11.659c0-3.271,1.747-6.344,4.559-8.021L5.713,2.779C2.6,4.636,0.667,8.038,0.667,11.659
		c0,3.657,1.873,6.969,5.011,8.859l0.516-0.856C3.359,17.954,1.667,14.962,1.667,11.659z"/>
	<path fill="#ADADAE" d="M16.229,2.725l-0.506,0.862c2.844,1.67,4.61,4.755,4.61,8.051c0,3.309-1.777,6.401-4.639,8.071l0.504,0.863
		c3.167-1.848,5.135-5.271,5.135-8.935C21.333,7.989,19.377,4.574,16.229,2.725z"/>
	<path fill="#ADADAE" d="M10.997,9.391c-1.244,0-2.256,1.012-2.256,2.257c0,1.245,1.012,2.258,2.256,2.258
		c1.246,0,2.26-1.013,2.26-2.258C13.257,10.403,12.243,9.391,10.997,9.391z M10.997,12.906c-0.692,0-1.256-0.564-1.256-1.258
		c0-0.693,0.563-1.257,1.256-1.257c0.694,0,1.26,0.564,1.26,1.257C12.257,12.341,11.691,12.906,10.997,12.906z"/>
	<path fill="#ADADAE" d="M9.72,3.376c0-0.048-0.002-0.1-0.004-0.156C9.712,3.164,9.706,3.107,9.7,3.049l0.953,1.842
		c0.029,0.057,0.068,0.101,0.119,0.13c0.049,0.029,0.105,0.044,0.17,0.044h0.113c0.064,0,0.121-0.015,0.17-0.044
		c0.051-0.029,0.09-0.073,0.119-0.13l0.947-1.839c-0.01,0.116-0.014,0.224-0.014,0.324v2.057h0.73V1.859h-0.633
		c-0.035,0-0.068,0-0.094,0c-0.027,0-0.053,0.004-0.074,0.013c-0.02,0.008-0.039,0.021-0.057,0.038
		c-0.018,0.017-0.033,0.041-0.051,0.072l-0.918,1.809c-0.031,0.064-0.064,0.13-0.096,0.197c-0.031,0.068-0.061,0.139-0.088,0.211
		c-0.027-0.071-0.057-0.14-0.088-0.207c-0.029-0.067-0.061-0.132-0.094-0.194l-0.92-1.815C9.88,1.951,9.864,1.926,9.847,1.91
		C9.829,1.892,9.81,1.879,9.788,1.872C9.767,1.863,9.743,1.859,9.716,1.859s-0.059,0-0.094,0H8.991v3.574H9.72V3.376z"/>
</g>
</svg>
