<?xml version="1.0" encoding="utf-8"?>
<!-- Generator: Adobe Illustrator 16.0.0, SVG Export Plug-In . SVG Version: 6.00 Build 0)  -->
<!DOCTYPE svg PUBLIC "-//W3C//DTD SVG 1.1//EN" "http://www.w3.org/Graphics/SVG/1.1/DTD/svg11.dtd">
<svg version="1.1" id="Layer_1" xmlns="http://www.w3.org/2000/svg" xmlns:xlink="http://www.w3.org/1999/xlink" x="0px" y="0px"
	 width="22px" height="18.966px" viewBox="3.5 0 22 18.966" enable-background="new 3.5 0 22 18.966" xml:space="preserve">
<path fill="#FFFFFF" d="M20.977,15.71H8.023c-1.943,0-3.523-1.58-3.523-3.524c0-1.635,1.112-3.044,2.706-3.424
	c0.071-0.017,0.125-0.076,0.135-0.146c0.388-2.611,2.67-4.58,5.31-4.58c1.649,0,2.967,0.339,4.039,1.994
	c0.088,0.12,0.45,0.435,0.632,0.541c0.041-0.004,0.069-0.017,0.091-0.038c1.008-0.878,2.613-0.82,3.549,0.115
	c0.493,0.494,0.763,1.15,0.762,1.849l-0.005,0.107c-0.003,0.077,0.053,0.152,0.133,0.173c1.56,0.398,2.649,1.801,2.649,3.41
	C24.5,14.13,22.919,15.71,20.977,15.71z"/>
</svg>
