<?xml version="1.0" encoding="utf-8"?>
<!-- Generator: Adobe Illustrator 21.1.0, SVG Export Plug-In . SVG Version: 6.00 Build 0)  -->
<svg version="1.1" id="Layer_1" xmlns="http://www.w3.org/2000/svg" xmlns:xlink="http://www.w3.org/1999/xlink" x="0px" y="0px"
	 viewBox="0 0 24 24" style="enable-background:new 0 0 24 24;" xml:space="preserve">
<style type="text/css">
	.st0{fill:#6AA9DD;}
	.st1{fill:#FFFFFF;}
</style>
<g id="Your_Icons">
	<g>
		<g>
			<path class="st0" d="M12,22.6l-10.5-5V6.4l10.5-5l10.5,4.9v11.2L12,22.6z M2.5,16.9l9.5,4.5l9.5-4.5V7L12,2.6L2.5,7V16.9z"/>
			<g>
				<g>
					<ellipse class="st0" cx="12" cy="2" rx="2" ry="2"/>
					<path class="st1" d="M12,0.8c0.7,0,1.2,0.6,1.2,1.3S12.7,3.3,12,3.3S10.7,2.7,10.7,2S11.3,0.8,12,0.8"/>
				</g>
			</g>
			<g>
				<g>
					<ellipse class="st0" cx="2" cy="6.7" rx="2" ry="2"/>
					<path class="st1" d="M2,5.5c0.7,0,1.2,0.6,1.2,1.3S2.7,8,2,8S0.7,7.4,0.7,6.7S1.3,5.5,2,5.5"/>
				</g>
			</g>
			<g>
				<g>
					<ellipse class="st0" cx="2" cy="17.3" rx="2" ry="2"/>
					<path class="st1" d="M2,16c0.7,0,1.2,0.6,1.2,1.3S2.7,18.6,2,18.6S0.7,18,0.7,17.3S1.3,16,2,16"/>
				</g>
			</g>
			<g>
				<g>
					<ellipse class="st0" cx="22" cy="6.7" rx="2" ry="2"/>
					<path class="st1" d="M22,5.5c0.7,0,1.2,0.6,1.2,1.3S22.7,8,22,8s-1.2-0.6-1.2-1.3S21.3,5.5,22,5.5"/>
				</g>
			</g>
			<g>
				<g>
					<ellipse class="st0" cx="22" cy="17.3" rx="2" ry="2"/>
					<path class="st1" d="M22,16c0.7,0,1.2,0.6,1.2,1.3s-0.6,1.3-1.2,1.3s-1.2-0.6-1.2-1.3S21.3,16,22,16"/>
				</g>
			</g>
			<g>
				<g>
					<ellipse class="st0" cx="12" cy="22" rx="2" ry="2"/>
					<path class="st1" d="M12,20.7c0.7,0,1.2,0.6,1.2,1.3s-0.6,1.3-1.2,1.3s-1.2-0.6-1.2-1.3S11.3,20.7,12,20.7"/>
				</g>
			</g>
		</g>
		<path class="st0" d="M11.1,17.3l0.3-0.5c0.4,0,0.9,0,1.3,0l0.3,0.4c0.1,0.1,0.3,0.3,0.5,0.2l1.4-0.6c0.1,0,0.1-0.1,0.2-0.2
			c0-0.1,0-0.2,0-0.3L15,15.8c0.3-0.3,0.6-0.6,0.9-0.9l0.6,0.1c0.2,0,0.4,0,0.5-0.2l0.5-1.4c0.1-0.2-0.1-0.4-0.2-0.5l-0.5-0.3
			c0-0.4,0-0.8,0-1.3l0.4-0.3c0.1-0.1,0.2-0.2,0.2-0.2c0-0.1,0-0.2,0-0.2l-0.6-1.4C16.7,9,16.5,9,16.3,9l-0.5,0
			c-0.3-0.3-0.6-0.6-0.9-0.9L15,7.6c0-0.2,0-0.4-0.2-0.5l-1.4-0.5c-0.2-0.1-0.4,0.1-0.5,0.2l-0.3,0.5c-0.4,0-0.9,0-1.3,0L11,6.9
			c-0.1-0.1-0.3-0.3-0.5-0.2L9.1,7.2C9,7.2,8.9,7.3,8.9,7.4s0,0.2,0,0.3L9,8.2C8.7,8.5,8.4,8.8,8.1,9.1H7.5c-0.2,0-0.4,0-0.5,0.2
			l-0.5,1.4c-0.1,0.2,0.1,0.4,0.2,0.5l0.5,0.3c0,0.4,0,0.8,0,1.3l-0.4,0.3c-0.1,0.1-0.2,0.2-0.2,0.3s0,0.2,0,0.2L7.2,15
			c0.1,0.2,0.3,0.2,0.5,0.2L8.2,15c0.3,0.3,0.6,0.6,0.9,0.9L9,16.4c0,0.2,0,0.4,0.2,0.5l1.4,0.5C10.8,17.6,11,17.4,11.1,17.3z
			 M9.6,11.1c0.5-1.3,2-2,3.3-1.4c1.3,0.5,2,2,1.4,3.3s-2,2-3.3,1.4C9.8,13.9,9.1,12.4,9.6,11.1z"/>
	</g>
</g>
</svg>
