<?xml version="1.0" encoding="utf-8"?>
<!-- Generator: Adobe Illustrator 21.1.0, SVG Export Plug-In . SVG Version: 6.00 Build 0)  -->
<svg version="1.1" id="Layer_1" xmlns="http://www.w3.org/2000/svg" xmlns:xlink="http://www.w3.org/1999/xlink" x="0px" y="0px"
	 viewBox="0 0 25 25" style="enable-background:new 0 0 25 25;" xml:space="preserve">
<style type="text/css">
	.st0{fill:none;stroke:#134A54;stroke-width:2;stroke-miterlimit:10;}
	.st1{fill:none;stroke:#134A54;stroke-width:2;stroke-linecap:round;stroke-linejoin:round;stroke-miterlimit:10;}
	.st2{fill:#134A54;}
	.st3{fill:none;stroke:#134A54;stroke-miterlimit:10;}
</style>
<g>
	<g>
		<path class="st0" d="M21.4,5.5c0-1-0.8-1.8-1.8-1.8H5.4c-1,0-1.8,0.8-1.8,1.8v14.1c0,1,0.8,1.8,1.8,1.8h14.1c1,0,1.8-0.8,1.8-1.8
			V5.5z"/>
		<g>
			<line class="st1" x1="17.4" y1="1.3" x2="17.4" y2="2.6"/>
			<line class="st1" x1="12.5" y1="1.3" x2="12.5" y2="2.6"/>
			<line class="st1" x1="7.7" y1="1.3" x2="7.7" y2="2.6"/>
		</g>
		<g>
			<line class="st1" x1="17.4" y1="21.7" x2="17.4" y2="23.7"/>
			<line class="st1" x1="12.5" y1="21.7" x2="12.5" y2="23.7"/>
			<line class="st1" x1="7.7" y1="21.7" x2="7.7" y2="23.7"/>
		</g>
		<g>
			<line class="st1" x1="23.9" y1="17.6" x2="22.2" y2="17.6"/>
			<line class="st1" x1="23.9" y1="12.8" x2="22.2" y2="12.8"/>
			<line class="st1" x1="23.9" y1="8" x2="22.2" y2="8"/>
		</g>
		<g>
			<line class="st1" x1="2.6" y1="17.6" x2="1.1" y2="17.6"/>
			<line class="st1" x1="2.6" y1="12.8" x2="1.1" y2="12.8"/>
			<line class="st1" x1="2.6" y1="8" x2="1.1" y2="8"/>
		</g>
	</g>
	<rect x="8.8" y="9" class="st2" width="7.6" height="7.6"/>
</g>
</svg>
