<?xml version="1.0" encoding="utf-8"?>
<!-- Generator: Adobe Illustrator 21.1.0, SVG Export Plug-In . SVG Version: 6.00 Build 0)  -->
<svg version="1.1" xmlns="http://www.w3.org/2000/svg" xmlns:xlink="http://www.w3.org/1999/xlink" x="0px" y="0px"
	 viewBox="0 0 24 24" style="enable-background:new 0 0 24 24;" xml:space="preserve">
<style type="text/css">
	.st0{display:none;}
	.st1{display:inline;}
	.st2{fill:#114A54;}
	.st3{fill:#778E93;}
	.st4{fill:#D4E4F1;}
	.st5{fill:#398CCB;}
	.st6{fill:#AFDFF9;}
	.st7{fill:#6AA9DD;}
	.st8{fill:#20568E;}
	.st9{fill:#2C5261;}
	.st10{fill:#295A99;}
	.st11{opacity:0.2;fill:#3E85C5;}
	.st12{opacity:0.8;fill:#AFDFF9;}
	.st13{opacity:0.5;fill:#D4E4F1;}
	.st14{fill:#FFFFFF;}
	.st15{fill:#FFFFFF;stroke:#3E85C5;stroke-miterlimit:10;}
	.st16{fill:#3E85C5;}
	.st17{fill:#21558E;}
	.st18{fill:#B3C3C4;}
	.st19{fill:#D2E3F0;}
	.st20{display:none;fill:#B3C3C4;}
	.st21{fill:#295A9A;}
	.st22{fill:none;stroke:#295A99;stroke-miterlimit:10;}
</style>
<g id="Guidelines">
</g>
<g id="Your_Icons">
	<g class="st0">
	</g>
	<g>
		<g>
			<path class="st7" d="M11,11H0V0h11V11z"/>
			<path class="st7" d="M24,11H13V0h11V11z"/>
			<path class="st7" d="M11,24H0V13h11V24z"/>
			<path class="st7" d="M24,24H13V13h11V24z"/>
		</g>
		<g>
			<g>
				<g>
					<g>
						<rect x="4.9" y="2.1" class="st8" width="1" height="7"/>
					</g>
				</g>
			</g>
			<g>
				<g>
					<g>
						<rect x="7.5" y="2.1" class="st8" width="1" height="7"/>
					</g>
				</g>
			</g>
			<g>
				<g>
					<g>
						<rect x="2.2" y="2.1" class="st8" width="1" height="7"/>
					</g>
				</g>
			</g>
		</g>
		<g>
			<g>
				<g>
					<g>
						<rect x="4.9" y="15.2" class="st8" width="1" height="7"/>
					</g>
				</g>
			</g>
			<g>
				<g>
					<g>
						<rect x="7.5" y="15.2" class="st8" width="1" height="7"/>
					</g>
				</g>
			</g>
			<g>
				<g>
					<g>
						<rect x="2.2" y="15.2" class="st8" width="1" height="7"/>
					</g>
				</g>
			</g>
		</g>
		<g>
			<g>
				<g>
					<g>
						<rect x="18.1" y="2.1" class="st8" width="1" height="7"/>
					</g>
				</g>
			</g>
			<g>
				<g>
					<g>
						<rect x="20.7" y="2.1" class="st8" width="1" height="7"/>
					</g>
				</g>
			</g>
			<g>
				<g>
					<g>
						<rect x="15.5" y="2.1" class="st8" width="1" height="7"/>
					</g>
				</g>
			</g>
		</g>
		<g>
			<g>
				<g>
					<g>
						<rect x="18.1" y="15.2" class="st8" width="1" height="7"/>
					</g>
				</g>
			</g>
			<g>
				<g>
					<g>
						<rect x="20.7" y="15.2" class="st8" width="1" height="7"/>
					</g>
				</g>
			</g>
			<g>
				<g>
					<g>
						<rect x="15.5" y="15.2" class="st8" width="1" height="7"/>
					</g>
				</g>
			</g>
		</g>
	</g>
</g>
</svg>
