<?xml version="1.0" encoding="utf-8"?>
<!-- Generator: Adobe Illustrator 16.0.0, SVG Export Plug-In . SVG Version: 6.00 Build 0)  -->
<!DOCTYPE svg PUBLIC "-//W3C//DTD SVG 1.1//EN" "http://www.w3.org/Graphics/SVG/1.1/DTD/svg11.dtd">
<svg version="1.1" id="Layer_1" xmlns="http://www.w3.org/2000/svg" xmlns:xlink="http://www.w3.org/1999/xlink" x="0px" y="0px"
	 width="22px" height="22px" viewBox="0 -1.572 22 22" enable-background="new 0 -1.572 22 22" xml:space="preserve">
<g>
	<path fill="#ADADAE" d="M16.617,14.497c-0.252,0-11.036,0-11.368,0c-0.24,0-0.347,0.197-0.347,0.477c0,0.262,0,2.719,0,2.719
		c0,0.521,0.375,1.008,0.897,1.008h10.272c0.522,0,0.97-0.486,0.97-1.008c0,0,0-2.326,0-2.734
		C17.042,14.706,16.867,14.497,16.617,14.497z M14.401,17.335c-0.398,0-0.723-0.324-0.723-0.727c0-0.398,0.324-0.725,0.723-0.725
		c0.403,0,0.725,0.326,0.725,0.725C15.126,17.01,14.805,17.335,14.401,17.335z"/>
	<path fill="#ADADAE" d="M16.072,7.759H5.8c-0.522,0-0.897,0.399-0.897,0.922c0,0,0,2.457,0,2.714c0,0.283,0.106,0.469,0.347,0.469
		c0.332,0,11.116,0,11.368,0c0.25,0,0.425-0.197,0.425-0.449c0-0.41,0-2.734,0-2.734C17.042,8.158,16.595,7.759,16.072,7.759z
		 M14.401,10.563c-0.398,0-0.723-0.326-0.723-0.726c0-0.401,0.324-0.726,0.723-0.726c0.403,0,0.725,0.324,0.725,0.726
		C15.126,10.237,14.805,10.563,14.401,10.563z"/>
	<path fill="#ADADAE" d="M19.203,5.764c-0.223-0.055-0.389-0.248-0.422-0.492c-0.416-2.917-2.858-5.116-5.681-5.116
		c-1.812,0-3.162,0.368-4.297,2.201C8.688,2.544,8.061,3.106,7.821,3.174c-0.129,0-0.255-0.05-0.354-0.139
		C6.484,2.13,4.893,2.167,3.95,3.111C3.435,3.627,3.151,4.323,3.152,5.07l0.003,0.104C3.168,5.457,2.993,5.712,2.736,5.78
		C1.125,6.214,0,7.726,0,9.457c0.001,1.632,1,3.079,2.484,3.601c0.261,0.094,0.545-0.047,0.637-0.307
		c0.091-0.26-0.045-0.547-0.306-0.637C1.73,11.733,1.001,10.665,1,9.456c0-1.279,0.821-2.394,1.994-2.71
		c0.707-0.188,1.194-0.868,1.158-1.679c-0.001-0.479,0.179-0.923,0.505-1.25c0.576-0.575,1.529-0.602,2.136-0.044
		c0.285,0.258,0.65,0.401,1.042,0.401c0,0,0,0,0.001,0c0,0,0.142-0.006,0.201-0.016C8.578,4.081,9.477,3.17,9.654,2.885
		c0.8-1.292,1.669-1.728,3.447-1.728c2.328,0,4.345,1.83,4.69,4.255c0.09,0.649,0.549,1.168,1.17,1.323
		C20.161,7.035,21,8.155,21,9.456c0,1.312-0.884,2.462-2.102,2.74c-0.27,0.061-0.438,0.328-0.377,0.598
		c0.052,0.232,0.259,0.389,0.487,0.389c0.036,0,0.073-0.004,0.11-0.012C20.788,12.794,22,11.231,22,9.456
		C22,7.695,20.85,6.177,19.203,5.764z"/>
</g>
</svg>
