<?xml version="1.0" encoding="utf-8"?>
<!-- Generator: Adobe Illustrator 21.1.0, SVG Export Plug-In . SVG Version: 6.00 Build 0)  -->
<svg version="1.1" xmlns="http://www.w3.org/2000/svg" xmlns:xlink="http://www.w3.org/1999/xlink" x="0px" y="0px"
	 viewBox="0 0 24 24" style="enable-background:new 0 0 24 24;" xml:space="preserve">
<style type="text/css">
	.st0{display:none;}
	.st1{display:inline;}
	.st2{fill:#114A54;}
	.st3{fill:#778E93;}
	.st4{fill:#D4E4F1;}
	.st5{fill:#398CCB;}
	.st6{fill:#AFDFF9;}
	.st7{fill:#6AA9DD;}
	.st8{fill:#20568E;}
	.st9{fill:#2C5261;}
	.st10{fill:#295A99;}
	.st11{opacity:0.2;fill:#3E85C5;}
	.st12{opacity:0.8;fill:#AFDFF9;}
	.st13{opacity:0.5;fill:#D4E4F1;}
	.st14{fill:#FFFFFF;}
	.st15{fill:#FFFFFF;stroke:#3E85C5;stroke-miterlimit:10;}
	.st16{fill:#3E85C5;}
	.st17{fill:#21558E;}
	.st18{fill:#B3C3C4;}
	.st19{fill:#D2E3F0;}
	.st20{display:none;fill:#B3C3C4;}
	.st21{fill:#295A9A;}
	.st22{fill:none;stroke:#295A99;stroke-miterlimit:10;}
</style>
<g id="Guidelines">
</g>
<g id="Your_Icons">
	<g class="st0">
	</g>
	<g>
		<polygon class="st4" points="3.5,2.9 19.4,2.9 19.4,0 0,0 0,20 3.5,20 		"/>
		<rect x="4.6" y="4" class="st7" width="19.4" height="20"/>
		<path class="st10" d="M13.7,20.1l0.3-0.5c0.5,0.1,0.9,0,1.4,0l0.4,0.5c0.1,0.2,0.3,0.3,0.5,0.2l1.5-0.6c0.1,0,0.1-0.1,0.2-0.2
			c0-0.1,0-0.2,0-0.3l-0.1-0.6c0.4-0.3,0.7-0.6,0.9-1l0.6,0.1c0.2,0,0.4,0,0.5-0.2l0.6-1.5c0.1-0.2-0.1-0.4-0.2-0.5L19.9,15
			c0.1-0.5,0-0.9,0-1.4l0.5-0.4c0.1-0.1,0.2-0.2,0.2-0.3c0-0.1,0-0.2,0-0.3l-0.7-1.5C19.8,11,19.6,11,19.3,11l-0.6,0.1
			c-0.3-0.4-0.6-0.7-1-1l0.1-0.6c0-0.2,0-0.4-0.2-0.5l-1.5-0.6c-0.2-0.1-0.4,0.1-0.5,0.2l-0.3,0.5c-0.5-0.1-0.9,0-1.4,0l-0.4-0.5
			c-0.1-0.2-0.3-0.3-0.5-0.2l-1.5,0.7c-0.1,0-0.1,0.1-0.2,0.2c0,0.1,0,0.2,0,0.3l0.1,0.6c-0.4,0.3-0.7,0.6-0.9,1l-0.6-0.1
			c-0.2,0-0.4,0-0.5,0.2l-0.6,1.5c-0.1,0.2,0.1,0.4,0.2,0.5l0.5,0.4c0,0.5,0,0.9,0,1.4L9,15.5c-0.1,0.1-0.2,0.2-0.2,0.3
			c0,0.1,0,0.2,0,0.3l0.7,1.5c0.1,0.2,0.3,0.2,0.5,0.2l0.6-0.1c0.3,0.4,0.6,0.7,1,1l-0.1,0.6c0,0.2,0,0.4,0.2,0.5l1.5,0.6
			C13.4,20.4,13.6,20.3,13.7,20.1z M12.1,13.4c0.6-1.4,2.2-2.1,3.6-1.6c1.4,0.6,2.1,2.2,1.6,3.6s-2.2,2.1-3.6,1.6
			C12.2,16.4,11.5,14.8,12.1,13.4z"/>
	</g>
</g>
</svg>
