<?xml version="1.0" encoding="utf-8"?>
<!-- Generator: Adobe Illustrator 16.0.0, SVG Export Plug-In . SVG Version: 6.00 Build 0)  -->
<!DOCTYPE svg PUBLIC "-//W3C//DTD SVG 1.1//EN" "http://www.w3.org/Graphics/SVG/1.1/DTD/svg11.dtd">
<svg version="1.1" id="Layer_1" xmlns="http://www.w3.org/2000/svg" xmlns:xlink="http://www.w3.org/1999/xlink" x="0px" y="0px"
	 width="15px" height="15px" viewBox="0 0 15 15" enable-background="new 0 0 15 15" xml:space="preserve">
<path fill="#FFFFFF" d="M7.502,13.846c-2.788,0-5.238-1.816-6.06-4.455L1.308,9.523c-0.129,0.149-0.338,0.24-0.564,0.24
	c-0.207,0-0.402-0.078-0.536-0.214C0.069,9.41-0.007,9.207,0.002,8.993c0.007-0.214,0.1-0.413,0.253-0.544l1.284-1.291l0.014-0.022
	l0.062-0.055l0.086-0.064L1.77,6.979C1.8,6.964,1.905,6.927,1.905,6.927L1.99,6.91c0.026-0.002,0.098-0.005,0.098-0.005
	c0.246,0,0.465,0.104,0.605,0.276l1.271,1.276c0.124,0.118,0.207,0.289,0.225,0.466v0.091c0.001,0.021-0.005,0.055-0.011,0.09
	L4.154,9.202C4.093,9.396,3.976,9.547,3.82,9.641C3.79,9.659,3.752,9.684,3.717,9.695c-0.068,0.029-0.139,0.044-0.218,0.05
	c-0.004,0-0.008,0-0.011,0c-0.108,0-0.205-0.015-0.291-0.04c0.818,1.597,2.476,2.632,4.305,2.632c1.977,0,3.734-1.187,4.479-3.021
	c0.141-0.315,0.41-0.49,0.709-0.49c0.105,0,0.209,0.021,0.307,0.064c0.186,0.082,0.326,0.231,0.396,0.42
	c0.072,0.188,0.066,0.395-0.016,0.578C12.402,12.291,10.098,13.846,7.502,13.846z M12.896,8.1c-0.229,0-0.451-0.104-0.594-0.28
	l-1.266-1.275c-0.125-0.121-0.207-0.288-0.225-0.467V5.986c-0.002-0.022,0-0.059,0.006-0.096c0.018-0.108,0.06-0.21,0.123-0.306
	c0.021-0.029,0.045-0.061,0.068-0.089c0.078-0.084,0.172-0.151,0.271-0.19c0.086-0.035,0.181-0.054,0.277-0.054
	c0.082,0,0.162,0.013,0.238,0.037C10.98,3.696,9.326,2.665,7.502,2.665c-1.98,0-3.74,1.184-4.484,3.018
	C2.877,5.999,2.606,6.175,2.31,6.175c-0.106,0-0.21-0.022-0.309-0.066C1.817,6.027,1.676,5.879,1.605,5.69S1.539,5.296,1.621,5.111
	C2.595,2.71,4.904,1.154,7.502,1.154c2.786,0.001,5.232,1.821,6.055,4.461l0.139-0.14c0.13-0.149,0.338-0.239,0.562-0.239
	c0.204,0,0.398,0.078,0.533,0.213c0.143,0.143,0.218,0.349,0.208,0.564c-0.008,0.213-0.101,0.41-0.251,0.539l-1.371,1.37
	l-0.088,0.064l-0.077,0.042c-0.015,0.009-0.054,0.023-0.095,0.037l-0.109,0.024C12.979,8.096,12.938,8.1,12.896,8.1z"/>
</svg>
