<?xml version="1.0" encoding="utf-8"?>
<!-- Generator: Adobe Illustrator 22.0.0, SVG Export Plug-In . SVG Version: 6.00 Build 0)  -->
<svg version="1.1" id="Your_Icons" xmlns="http://www.w3.org/2000/svg" xmlns:xlink="http://www.w3.org/1999/xlink" x="0px" y="0px"
	 viewBox="0 0 24 24" style="enable-background:new 0 0 24 24;" xml:space="preserve">
<style type="text/css">
	.st0{fill:#295A99;}
</style>
<g>
	<path class="st0" d="M16.2,4.1H7.8V9c0.4-0.1,0.8-0.1,1.1-0.1c3.2,0,5.7,2.5,5.7,5.6c0,2.5-1.7,4.7-4.1,5.4h8.6V6.9L16.2,4.1z
		 M15.5,7.7V5l2.7,2.7H15.5z"/>
	<path class="st0" d="M8.9,13.9c-0.3,0-0.6,0.2-0.6,0.6c0,0.3,0.3,0.6,0.6,0.6s0.6-0.2,0.6-0.6C9.5,14.2,9.2,13.9,8.9,13.9z"/>
	<path class="st0" d="M13.1,14.5c0-2.2-1.8-4.1-4.1-4.1s-4.1,1.8-4.1,4.1s1.8,4.1,4.1,4.1S13.1,16.7,13.1,14.5z M8.9,16
		c-0.9,0-1.6-0.7-1.6-1.6s0.7-1.6,1.6-1.6s1.6,0.7,1.6,1.6S9.8,16,8.9,16z"/>
</g>
</svg>
