<?xml version="1.0" encoding="utf-8"?>
<!-- Generator: Adobe Illustrator 18.0.0, SVG Export Plug-In . SVG Version: 6.00 Build 0)  -->
<!DOCTYPE svg PUBLIC "-//W3C//DTD SVG 1.1//EN" "http://www.w3.org/Graphics/SVG/1.1/DTD/svg11.dtd">
<svg version="1.1" id="Layer_1" xmlns="http://www.w3.org/2000/svg" xmlns:xlink="http://www.w3.org/1999/xlink" x="0px" y="0px"
	 viewBox="0 0 15 15" enable-background="new 0 0 15 15" xml:space="preserve">
<path fill="#FFFFFF" d="M14.8,12.8l-6-10.4C8.5,1.9,8,1.6,7.5,1.6c-0.5,0-1,0.3-1.3,0.7l-6,10.4c-0.3,0.5-0.3,1,0,1.5
	C0.5,14.7,1,15,1.5,15h12c0.5,0,1-0.3,1.3-0.7C15.1,13.8,15.1,13.2,14.8,12.8z M6.8,6.6c0-0.4,0.3-0.8,0.7-0.8
	c0.4,0,0.7,0.3,0.7,0.8v4.1c0,0.4-0.3,0.8-0.7,0.8c-0.4,0-0.7-0.3-0.7-0.8V6.6z M7.5,13.5c-0.4,0-0.7-0.3-0.7-0.7
	c0-0.4,0.3-0.7,0.7-0.7s0.7,0.3,0.7,0.7C8.2,13.1,7.9,13.5,7.5,13.5z"/>
</svg>
