<?xml version="1.0" encoding="utf-8"?>
<!-- Generator: Adobe Illustrator 21.1.0, SVG Export Plug-In . SVG Version: 6.00 Build 0)  -->
<svg version="1.1" xmlns="http://www.w3.org/2000/svg" xmlns:xlink="http://www.w3.org/1999/xlink" x="0px" y="0px"
	 viewBox="0 0 24 24" style="enable-background:new 0 0 24 24;" xml:space="preserve">
<style type="text/css">
	.st0{display:none;}
	.st1{display:inline;}
	.st2{fill:#114A54;}
	.st3{fill:#778E93;}
	.st4{fill:#D4E4F1;}
	.st5{fill:#398CCB;}
	.st6{fill:#AFDFF9;}
	.st7{fill:#6AA9DD;}
	.st8{fill:#20568E;}
	.st9{fill:#2C5261;}
	.st10{fill:#295A99;}
	.st11{opacity:0.2;fill:#3E85C5;}
	.st12{opacity:0.8;fill:#AFDFF9;}
	.st13{opacity:0.5;fill:#D4E4F1;}
	.st14{fill:#FFFFFF;}
	.st15{fill:#FFFFFF;stroke:#3E85C5;stroke-miterlimit:10;}
	.st16{fill:#3E85C5;}
	.st17{fill:#21558E;}
	.st18{fill:#B3C3C4;}
	.st19{fill:#D2E3F0;}
	.st20{display:none;fill:#B3C3C4;}
	.st21{fill:#295A9A;}
	.st22{fill:none;stroke:#295A99;stroke-miterlimit:10;}
</style>
<g id="Guidelines">
</g>
<g id="Your_Icons">
	<g class="st0">
	</g>
	<g>
		<g>
			<g>
				<g>
					<ellipse transform="matrix(0.5 -0.866 0.866 0.5 -4.3921 16.3924)" class="st4" cx="12" cy="12" rx="12" ry="12"/>
					<path class="st14" d="M19.9,9.9c-0.6-2.1-1.9-3.9-3.8-5C14.2,3.8,12,3.5,9.9,4.1C7.8,4.6,6,6,4.9,7.9c-2.3,3.9-0.9,8.9,3,11.2
						c3.9,2.3,8.9,0.9,11.2-3C20.2,14.2,20.5,12,19.9,9.9z"/>
					<path class="st10" d="M12,21.2c-1.6,0-3.1-0.4-4.6-1.2l0,0C3,17.4,1.5,11.8,4,7.4c1.2-2.1,3.2-3.6,5.6-4.3
						c2.4-0.6,4.9-0.3,7,0.9c2.1,1.2,3.7,3.2,4.3,5.6c0.6,2.4,0.3,4.9-0.9,7C18.3,19.5,15.2,21.2,12,21.2z M7.9,19.1
						c3.9,2.3,8.9,0.9,11.2-3c1.1-1.9,1.4-4.1,0.8-6.2c-0.6-2.1-1.9-3.9-3.8-5C14.2,3.8,12,3.5,9.9,4.1C7.8,4.6,6,6,4.9,7.9
						C2.6,11.8,4,16.8,7.9,19.1L7.9,19.1z"/>
				</g>
			</g>
		</g>
		<g>
			<path class="st10" d="M14,10.2l2.1-3.9l-0.9-0.5l-2,3.8c-0.3-0.1-0.7-0.2-1.1-0.2c-1.6,0-3,1.3-3,3s1.3,3,3,3s3-1.3,3-3
				C15.1,11.5,14.7,10.7,14,10.2z"/>
			<g>
				<path class="st16" d="M12.1,10.5c-1.1,0-2,0.9-2,2c0,0.7,0.4,1.3,1,1.7l2-3.4C12.8,10.6,12.5,10.5,12.1,10.5z"/>
			</g>
		</g>
	</g>
</g>
</svg>
