<?xml version="1.0" encoding="utf-8"?>
<!-- Generator: Adobe Illustrator 16.0.0, SVG Export Plug-In . SVG Version: 6.00 Build 0)  -->
<!DOCTYPE svg PUBLIC "-//W3C//DTD SVG 1.1//EN" "http://www.w3.org/Graphics/SVG/1.1/DTD/svg11.dtd">
<svg version="1.1" id="Layer_1" xmlns="http://www.w3.org/2000/svg" xmlns:xlink="http://www.w3.org/1999/xlink" x="0px" y="0px"
	 width="22px" height="22px" viewBox="0 0 22 22" enable-background="new 0 0 22 22" xml:space="preserve">
<g>
	<path fill="#ADADAE" d="M7.006,10.596c0.332-0.68,0.773-1.32,1.338-1.885c0.33-0.33,0.686-0.617,1.059-0.868
		C5.899,7.834,3.409,7.368,1.984,6.484v2.026C1.984,9.576,3.891,10.337,7.006,10.596z"/>
	<path fill="#ADADAE" d="M9.5,6.434c4.51,0,7.432-0.841,7.5-2.141c-0.066-1-2.41-2.059-7.5-2.059c-4.58,0-7.438,0.79-7.504,2.059
		C2.063,5.593,4.987,6.434,9.5,6.434z"/>
	<path fill="#ADADAE" d="M17.025,7.742V6.479c-0.372,0.232-0.821,0.435-1.34,0.608C16.149,7.256,16.598,7.473,17.025,7.742z"/>
	<path fill="#ADADAE" d="M6.372,14.639c-0.125-0.891-0.08-1.797,0.139-2.673c-2.012-0.196-3.533-0.604-4.526-1.22v1.866
		C1.984,13.604,3.633,14.333,6.372,14.639z"/>
	<path fill="#ADADAE" d="M6.736,16.092c-2.125-0.188-3.722-0.604-4.752-1.243v1.84c0,1.24,2.577,2.068,6.638,2.172
		c-0.092-0.083-0.188-0.162-0.277-0.251C7.607,17.872,7.076,17.009,6.736,16.092z"/>
	<path fill="#ADADAE" d="M16.811,13.213h-2.012v-2.012c0-0.363-0.317-0.658-0.757-0.658c-0.438,0.001-0.68,0.295-0.68,0.658
		l0.001,2.012h-2.013c-0.363,0.001-0.658,0.317-0.657,0.757c0,0.438,0.294,0.679,0.658,0.68h2.012v2.011
		c0,0.364,0.241,0.658,0.679,0.656c0.439,0,0.756-0.293,0.756-0.657l0.001-2.011h2.013c0.361,0,0.656-0.24,0.656-0.679
		C17.468,13.53,17.174,13.214,16.811,13.213z"/>
	<path fill="#ADADAE" d="M18.296,9.737c-1.147-1.147-2.651-1.722-4.155-1.722S11.134,8.59,9.987,9.737
		c-2.294,2.293-2.294,6.013,0,8.308c1.147,1.147,2.651,1.721,4.155,1.721c1.503,0,3.007-0.573,4.154-1.721
		C20.589,15.751,20.589,12.031,18.296,9.737z M17.589,17.338c-0.921,0.921-2.146,1.428-3.447,1.428
		c-1.303,0-2.527-0.507-3.448-1.428c-1.9-1.901-1.9-4.994,0-6.894c0.921-0.921,2.145-1.429,3.447-1.429s2.527,0.508,3.448,1.429
		C19.489,12.345,19.489,15.438,17.589,17.338z"/>
</g>
</svg>
