<?xml version="1.0" encoding="utf-8"?>
<!-- Generator: Adobe Illustrator 16.0.0, SVG Export Plug-In . SVG Version: 6.00 Build 0)  -->
<!DOCTYPE svg PUBLIC "-//W3C//DTD SVG 1.1//EN" "http://www.w3.org/Graphics/SVG/1.1/DTD/svg11.dtd">
<svg version="1.1" id="Layer_1" xmlns="http://www.w3.org/2000/svg" xmlns:xlink="http://www.w3.org/1999/xlink" x="0px" y="0px"
	 width="22px" height="22px" viewBox="0 0 22 22" enable-background="new 0 0 22 22" xml:space="preserve">
<g>
	<path fill="#ADADAE" d="M10.996,2.932c4.938,0,7.211,1.025,7.275,1.996c-0.066,1.262-2.9,2.076-7.275,2.076
		c-4.377,0-7.213-0.814-7.277-2.076C3.783,3.697,6.554,2.932,10.996,2.932z M18.294,16.951h-0.01c0,1.287-2.863,2.117-7.289,2.117
		c-4.428,0-7.29-0.83-7.29-2.117v-1.785c1.395,0.865,3.84,1.318,7.29,1.318c3.458,0,5.905-0.455,7.299-1.324V16.951z M18.294,12.998
		h-0.01c0,1.285-2.863,2.117-7.289,2.117c-4.428,0-7.29-0.832-7.29-2.117v-1.811c1.395,0.863,3.84,1.316,7.29,1.316
		c3.458,0,5.905-0.453,7.299-1.322V12.998z M18.294,9.02h-0.01c0,1.285-2.863,2.117-7.289,2.117c-4.428,0-7.29-0.832-7.29-2.117
		V7.053c1.395,0.867,3.84,1.32,7.29,1.32c3.458,0,5.905-0.457,7.299-1.324V9.02z"/>
</g>
</svg>
