<?xml version="1.0" encoding="utf-8"?>
<!-- Generator: Adobe Illustrator 21.1.0, SVG Export Plug-In . SVG Version: 6.00 Build 0)  -->
<svg version="1.1" xmlns="http://www.w3.org/2000/svg" xmlns:xlink="http://www.w3.org/1999/xlink" x="0px" y="0px"
	 viewBox="0 0 24 24" style="enable-background:new 0 0 24 24;" xml:space="preserve">
<style type="text/css">
	.st0{display:none;}
	.st1{display:inline;}
	.st2{fill:#114A54;}
	.st3{fill:#778E93;}
	.st4{fill:#D4E4F1;}
	.st5{fill:#398CCB;}
	.st6{fill:#AFDFF9;}
	.st7{fill:#6AA9DD;}
	.st8{fill:#20568E;}
	.st9{fill:#2C5261;}
	.st10{fill:#295A99;}
	.st11{opacity:0.2;fill:#3E85C5;}
	.st12{opacity:0.8;fill:#AFDFF9;}
	.st13{opacity:0.5;fill:#D4E4F1;}
	.st14{fill:#FFFFFF;}
	.st15{fill:#FFFFFF;stroke:#3E85C5;stroke-miterlimit:10;}
	.st16{fill:#3E85C5;}
	.st17{fill:#21558E;}
	.st18{fill:#B3C3C4;}
	.st19{fill:#D2E3F0;}
	.st20{display:none;fill:#B3C3C4;}
	.st21{fill:#295A9A;}
	.st22{fill:none;stroke:#295A99;stroke-miterlimit:10;}
</style>
<g id="Guidelines">
</g>
<g id="Your_Icons">
	<g class="st0">
	</g>
	<g>
		<rect y="18" class="st4" width="24" height="6"/>
		<rect y="9" class="st4" width="24" height="6"/>
		<rect y="0" class="st4" width="24" height="6"/>
		<rect x="3" y="6" class="st7" width="18" height="3"/>
		<rect x="3" y="15" class="st7" width="18" height="3"/>
		<path class="st10" d="M19,12.6l-0.1-1.9c0-0.3-0.3-0.4-0.5-0.4l-0.7-0.1c-0.2-0.5-0.4-1-0.7-1.4l0.3-0.6c0.1-0.2,0.2-0.5,0-0.7
			L16,6.2c-0.1-0.1-0.2-0.1-0.3-0.1c-0.1,0-0.3,0.1-0.4,0.1l-0.6,0.4c-0.5-0.2-1-0.4-1.5-0.5l-0.2-0.7C13,5.2,12.9,5,12.6,5
			l-1.9,0.1c-0.3,0-0.4,0.3-0.4,0.5l-0.1,0.7c-0.5,0.2-1,0.4-1.4,0.7L8.1,6.6C8,6.5,7.9,6.5,7.8,6.5c-0.1,0-0.2,0-0.3,0.1L6.2,8
			c-0.2,0.2-0.1,0.4,0,0.7l0.4,0.6c-0.2,0.5-0.4,1-0.5,1.5l-0.7,0.2C5.2,11,5,11.1,5,11.4l0.1,1.9c0,0.3,0.3,0.4,0.5,0.4l0.7,0.1
			c0.2,0.5,0.4,1,0.7,1.4l-0.3,0.6c-0.1,0.2-0.2,0.5,0,0.7L8,17.8c0.1,0.1,0.2,0.1,0.3,0.1c0.1,0,0.3-0.1,0.4-0.1l0.6-0.4
			c0.5,0.2,1,0.4,1.5,0.5l0.2,0.7c0.1,0.2,0.2,0.5,0.5,0.4l1.9-0.1c0.3,0,0.4-0.3,0.4-0.5l0.1-0.7c0.5-0.2,1-0.4,1.4-0.7l0.6,0.3
			c0.1,0.1,0.3,0.1,0.4,0.1c0.1,0,0.2,0,0.3-0.1l1.2-1.4c0.2-0.2,0.1-0.5,0-0.7l-0.4-0.6c0.2-0.5,0.4-1,0.5-1.5l0.7-0.2
			C18.8,13,19,12.9,19,12.6z M12.2,15.2c-1.7,0.1-3.2-1.3-3.3-3c-0.1-1.7,1.3-3.2,3-3.3c1.7-0.1,3.2,1.3,3.3,3
			C15.2,13.6,13.9,15.1,12.2,15.2z"/>
	</g>
</g>
</svg>
