<?xml version="1.0" encoding="utf-8"?>
<!-- Generator: Adobe Illustrator 21.1.0, SVG Export Plug-In . SVG Version: 6.00 Build 0)  -->
<svg version="1.1" xmlns="http://www.w3.org/2000/svg" xmlns:xlink="http://www.w3.org/1999/xlink" x="0px" y="0px"
	 viewBox="0 0 24 24" style="enable-background:new 0 0 24 24;" xml:space="preserve">
<style type="text/css">
	.st0{display:none;}
	.st1{display:inline;}
	.st2{fill:#114A54;}
	.st3{fill:#778E93;}
	.st4{fill:#D4E4F1;}
	.st5{fill:#398CCB;}
	.st6{fill:#AFDFF9;}
	.st7{fill:#6AA9DD;}
	.st8{fill:#20568E;}
	.st9{fill:#2C5261;}
	.st10{fill:#295A99;}
	.st11{opacity:0.2;fill:#3E85C5;}
	.st12{opacity:0.8;fill:#AFDFF9;}
	.st13{opacity:0.5;fill:#D4E4F1;}
	.st14{fill:#FFFFFF;}
	.st15{fill:#FFFFFF;stroke:#3E85C5;stroke-miterlimit:10;}
	.st16{fill:#3E85C5;}
	.st17{fill:#21558E;}
	.st18{fill:#B3C3C4;}
	.st19{fill:#D2E3F0;}
	.st20{display:none;fill:#B3C3C4;}
	.st21{fill:#295A9A;}
	.st22{fill:none;stroke:#295A99;stroke-miterlimit:10;}
</style>
<g id="Guidelines">
</g>
<g id="Your_Icons">
	<g class="st0">
	</g>
	<g>
		<path class="st18" d="M13.7,18.4c-0.1,0.2-0.2,0.5-0.4,0.5L11.4,19c-0.3,0-0.4-0.2-0.5-0.4L10.7,18H0v6h24v-6H13.7L13.7,18.4z"/>
		<path class="st18" d="M6.2,13.8l-0.7-0.1c-0.2-0.1-0.5-0.2-0.5-0.4L5,11.4c0-0.3,0.2-0.4,0.4-0.5l0.7-0.2c0.1-0.5,0.3-1,0.5-1.5
			L6.5,9H0v6h6.7C6.5,14.6,6.3,14.2,6.2,13.8z"/>
		<path class="st18" d="M17.7,10.2l0.7,0.1c0.2,0,0.5,0.2,0.5,0.4l0.1,1.9c0,0.3-0.2,0.4-0.4,0.5l-0.7,0.2c-0.1,0.5-0.3,1-0.5,1.5
			l0.1,0.2H24V9h-6.8C17.4,9.4,17.6,9.8,17.7,10.2z"/>
		<path class="st18" d="M0,0v6h10.2l0.1-0.4c0-0.2,0.2-0.5,0.4-0.5L12.6,5C12.8,5,13,5.2,13,5.4L13.2,6H24V0H0z"/>
		<path class="st18" d="M3,8.5h3.1C6.1,8.3,6,8.1,6.2,8l1.3-1.4c0.1-0.1,0.1-0.1,0.2-0.1H3V8.5z"/>
		<path class="st18" d="M17.2,8.5H21v-2h-4.8l1.1,1c0.2,0.2,0.1,0.4,0,0.7L17.2,8.5z"/>
		<path class="st18" d="M8.1,6.6l0.6,0.3c0.2-0.2,0.5-0.3,0.8-0.4H7.8C7.9,6.5,8,6.5,8.1,6.6z"/>
		<path class="st18" d="M14.9,6.5h-0.6c0.1,0,0.2,0.1,0.3,0.1L14.9,6.5z"/>
		<path class="st18" d="M15.8,17.4l-0.6-0.3c-0.3,0.2-0.6,0.4-1,0.5H21v-2.2h-3.3c0.1,0.2,0.2,0.4,0,0.6l-1.2,1.4
			c-0.1,0.1-0.2,0.1-0.3,0.1C16.1,17.5,15.9,17.5,15.8,17.4z"/>
		<path class="st18" d="M6.8,15.4H3v2.2h4.8l-1.2-1.1c-0.2-0.2-0.1-0.4,0-0.7L6.8,15.4z"/>
		<path class="st18" d="M7.6,6.5h0.2C7.8,6.5,7.8,6.5,7.6,6.5C7.7,6.5,7.7,6.5,7.6,6.5z"/>
		<path class="st18" d="M13.9,9.5c0,0-0.1-0.1-0.1-0.1c-0.1-0.1-0.2-0.1-0.3-0.2c0,0-0.1,0-0.1-0.1C13.2,9.1,13.1,9,12.9,9l0,0h0
			c-0.4-0.1-0.7-0.2-1.1-0.2c-0.3,0-0.6,0.1-0.8,0.2h0l0,0c-0.6,0.2-1.1,0.6-1.5,1.1c0,0.1-0.1,0.1-0.1,0.2
			c-0.1,0.1-0.1,0.2-0.2,0.3c0,0.1-0.1,0.2-0.1,0.3C9,10.8,9,10.9,9,11c0,0.1-0.1,0.2-0.1,0.3c0,0.1,0,0.1,0,0.2c0,0.2,0,0.4,0,0.6
			c0,0.2,0,0.4,0.1,0.6c0,0.1,0,0.1,0.1,0.2C9,13,9,13.1,9.1,13.2c0,0.1,0.1,0.1,0.1,0.2c0.1,0.1,0.1,0.2,0.2,0.3
			c0,0.1,0.1,0.1,0.1,0.2c0.1,0.1,0.2,0.2,0.3,0.4c0.1,0.1,0.2,0.1,0.3,0.2c0,0,0.1,0.1,0.1,0.1c0.1,0.1,0.2,0.1,0.3,0.2
			c0,0,0.1,0,0.1,0.1c0.5,0.2,1,0.3,1.5,0.3c1,0,1.8-0.5,2.4-1.2c0-0.1,0.1-0.1,0.1-0.2c0.1-0.1,0.1-0.2,0.2-0.3
			c0-0.1,0.1-0.2,0.1-0.3c0-0.1,0.1-0.2,0.1-0.2c0-0.1,0.1-0.2,0.1-0.3c0-0.1,0-0.1,0-0.2c0-0.2,0-0.4,0-0.6v0v0
			c0-0.2,0-0.4-0.1-0.6c0-0.1,0-0.1-0.1-0.2c0-0.1-0.1-0.2-0.1-0.4c0-0.1-0.1-0.1-0.1-0.2c-0.1-0.1-0.1-0.2-0.2-0.3
			c0-0.1-0.1-0.1-0.1-0.2c-0.1-0.1-0.2-0.2-0.3-0.4C14.1,9.6,14,9.6,13.9,9.5z"/>
	</g>
</g>
</svg>
