<?xml version="1.0" encoding="utf-8"?>
<!-- Generator: Adobe Illustrator 21.1.0, SVG Export Plug-In . SVG Version: 6.00 Build 0)  -->
<svg version="1.1" xmlns="http://www.w3.org/2000/svg" xmlns:xlink="http://www.w3.org/1999/xlink" x="0px" y="0px"
	 viewBox="0 0 24 24" style="enable-background:new 0 0 24 24;" xml:space="preserve">
<style type="text/css">
	.st0{display:none;}
	.st1{display:inline;}
	.st2{fill:#114A54;}
	.st3{fill:#778E93;}
	.st4{fill:none;}
	.st5{font-family:'Lato-Medium';}
	.st6{font-size:9px;}
	.st7{fill:#D4E4F1;}
	.st8{fill:#398CCB;}
	.st9{fill:#AFDFF9;}
	.st10{fill:#6AA9DD;}
	.st11{fill:#20568E;}
	.st12{fill:#2C5261;}
	.st13{fill:#295A99;}
	.st14{opacity:0.2;fill:#3E85C5;}
	.st15{opacity:0.8;fill:#AFDFF9;}
	.st16{opacity:0.5;fill:#D4E4F1;}
	.st17{fill:#FFFFFF;}
	.st18{fill:#FFFFFF;stroke:#3E85C5;stroke-miterlimit:10;}
	.st19{fill:#3E85C5;}
	.st20{fill:#21558E;}
	.st21{fill:#B3C3C4;}
	.st22{fill:#D2E3F0;}
	.st23{display:none;fill:#B3C3C4;}
	.st24{fill:#295A9A;}
	.st25{fill:none;stroke:#295A99;stroke-miterlimit:10;}
</style>
<g id="Guidelines">
</g>
<g id="Your_Icons">
	<g>
		<path class="st7" d="M0,0v24h24V0H0z"/>
		<path class="st13" d="M10.8,19.2l0.4-0.6c0.6,0.1,1.2,0.1,1.7,0l0.5,0.6c0.2,0.2,0.4,0.4,0.7,0.3l1.9-0.8c0.1-0.1,0.2-0.1,0.2-0.2
			c0.1-0.1,0.1-0.3,0-0.4l-0.1-0.7c0.4-0.4,0.8-0.8,1.2-1.2l0.8,0.1c0.3,0,0.6,0,0.7-0.3l0.7-1.9c0.1-0.3-0.1-0.5-0.3-0.7l-0.6-0.4
			c0.1-0.6,0.1-1.2,0-1.7l0.6-0.5c0.1-0.1,0.2-0.2,0.3-0.3c0-0.1,0-0.2,0-0.3L18.6,8c-0.1-0.3-0.4-0.3-0.7-0.3l-0.7,0.1
			c-0.4-0.4-0.8-0.9-1.2-1.2L16,5.9c0-0.3,0-0.6-0.3-0.7l-1.9-0.7c-0.3-0.1-0.5,0.1-0.7,0.3l-0.4,0.6c-0.6-0.1-1.2-0.1-1.7,0
			l-0.5-0.6c-0.2-0.2-0.4-0.4-0.7-0.3L8,5.4c-0.1,0-0.2,0.1-0.2,0.2c-0.1,0.1-0.1,0.3,0,0.4l0.1,0.7C7.4,7.2,7,7.6,6.7,8.1L5.9,8
			C5.7,8,5.4,8,5.3,8.3l-0.7,1.9c-0.1,0.3,0.1,0.5,0.3,0.7l0.6,0.4c-0.1,0.6-0.1,1.2,0,1.7l-0.6,0.5c-0.1,0.1-0.2,0.2-0.3,0.3
			c0,0.1,0,0.2,0,0.3L5.4,16c0.1,0.3,0.4,0.3,0.7,0.3l0.7-0.1c0.4,0.4,0.8,0.9,1.2,1.2L8,18.1c0,0.3,0,0.6,0.3,0.7l1.9,0.7
			C10.4,19.6,10.7,19.4,10.8,19.2z M8.8,10.7c0.7-1.8,2.7-2.7,4.5-2c1.8,0.7,2.7,2.7,2,4.5c-0.7,1.8-2.7,2.7-4.5,2
			C9,14.5,8.1,12.5,8.8,10.7z"/>
	</g>
</g>
</svg>
