<?xml version="1.0" encoding="utf-8"?>
<!-- Generator: Adobe Illustrator 21.1.0, SVG Export Plug-In . SVG Version: 6.00 Build 0)  -->
<svg version="1.1" id="Layer_1" xmlns="http://www.w3.org/2000/svg" xmlns:xlink="http://www.w3.org/1999/xlink" x="0px" y="0px"
	 viewBox="0 0 24 24" style="enable-background:new 0 0 24 24;" xml:space="preserve">
<style type="text/css">
	.st0{fill:#B3C3C4;}
</style>
<g id="Your_Icons">
	<g>
		<ellipse transform="matrix(0.3642 -0.9313 0.9313 0.3642 -3.5472 18.8047)" class="st0" cx="12" cy="12" rx="3.5" ry="3.5"/>
		<path class="st0" d="M0,0v24h24V0H0z M19.5,13.8l-0.7,1.9C18.6,16,18.3,16,18.1,16l-0.8-0.1c-0.3,0.5-0.7,0.9-1.2,1.2l0.1,0.8
			c0,0.1,0,0.3,0,0.4s-0.1,0.2-0.2,0.2l-1.9,0.8c-0.3,0.1-0.5-0.1-0.7-0.3L13,18.5c-0.6,0.1-1.1,0.1-1.7,0l-0.4,0.6
			c-0.1,0.2-0.4,0.4-0.7,0.3l-1.9-0.7C8,18.6,8,18.3,8,18.1l0.1-0.7c-0.5-0.3-0.9-0.8-1.2-1.2l-0.7,0.1c-0.3,0-0.6,0-0.7-0.3
			l-0.8-1.9c0-0.1,0-0.2,0-0.3c0.1-0.1,0.2-0.2,0.3-0.3L5.5,13c-0.1-0.6-0.1-1.1,0-1.7l-0.6-0.4c-0.2-0.2-0.4-0.4-0.3-0.7l0.7-1.9
			C5.4,8,5.7,8,5.9,8l0.8,0.1C7,7.6,7.4,7.2,7.9,6.8L7.7,6.1c0-0.1,0-0.3,0-0.4s0.1-0.2,0.2-0.2l1.9-0.8c0.3-0.1,0.5,0.1,0.7,0.3
			L11,5.5c0.6-0.1,1.1-0.1,1.7,0l0.4-0.6c0.2-0.2,0.4-0.4,0.7-0.3l1.9,0.7C16,5.4,16,5.7,16,5.9l-0.1,0.7c0.5,0.3,0.9,0.7,1.2,1.2
			l0.7-0.1c0.3,0,0.6,0,0.7,0.3l0.8,1.9c0.1,0.1,0,0.2,0,0.3c-0.1,0.1-0.2,0.2-0.3,0.3L18.5,11c0.1,0.6,0.1,1.1,0,1.7l0.6,0.4
			C19.4,13.3,19.6,13.6,19.5,13.8z"/>
	</g>
</g>
</svg>
