<?xml version="1.0" encoding="utf-8"?>
<!-- Generator: Adobe Illustrator 21.1.0, SVG Export Plug-In . SVG Version: 6.00 Build 0)  -->
<svg version="1.1" id="Layer_1" xmlns="http://www.w3.org/2000/svg" xmlns:xlink="http://www.w3.org/1999/xlink" x="0px" y="0px"
	 viewBox="0 0 25 25" style="enable-background:new 0 0 25 25;" xml:space="preserve">
<style type="text/css">
	.st0{fill:#134A54;}
	.st1{fill:none;stroke:#134A54;stroke-width:2;stroke-linecap:round;stroke-miterlimit:10;}
	.st2{fill:none;stroke:#134A54;stroke-linecap:round;stroke-miterlimit:10;}
</style>
<g>
	<path class="st0" d="M12.5,1C19,1,21.9,2.4,22,3.8c-0.1,1.8-3.8,3-9.5,3S3.1,5.7,3,3.8C3.1,2.1,6.7,1,12.5,1z M22,21L22,21
		c0,1.8-3.7,3-9.5,3S3,22.8,3,21v-2.5c1.8,1.2,5,1.9,9.5,1.9s7.7-0.6,9.5-1.9L22,21z M22,15.3L22,15.3c0,1.8-3.7,3-9.5,3
		S3,17.2,3,15.3v-2.6c1.8,1.2,5,1.9,9.5,1.9s7.7-0.6,9.5-1.9L22,15.3z M22,9.7L22,9.7c0,1.8-3.7,3-9.5,3S3,11.5,3,9.7V6.9
		c1.8,1.2,5,1.9,9.5,1.9s7.7-0.6,9.5-1.9L22,9.7z"/>
</g>
</svg>
