<?xml version="1.0" encoding="utf-8"?>
<!-- Generator: Adobe Illustrator 16.0.0, SVG Export Plug-In . SVG Version: 6.00 Build 0)  -->
<!DOCTYPE svg PUBLIC "-//W3C//DTD SVG 1.1//EN" "http://www.w3.org/Graphics/SVG/1.1/DTD/svg11.dtd">
<svg version="1.1" id="Layer_1" xmlns="http://www.w3.org/2000/svg" xmlns:xlink="http://www.w3.org/1999/xlink" x="0px" y="0px"
	 width="14px" height="14px" viewBox="0 0 14 14" enable-background="new 0 0 14 14" xml:space="preserve">
<g>
	<path fill="#FFFFFF" d="M7,2c2.757,0,5,2.243,5,5s-2.243,5-5,5S2,9.757,2,7S4.243,2,7,2 M7,0C3.134,0,0,3.134,0,7
		c0,3.865,3.134,7,7,7s7-3.135,7-7C14,3.134,10.866,0,7,0L7,0z"/>
	<path fill="#FFFFFF" d="M6.999,11.184c-0.391,0-0.708-0.318-0.708-0.71s0.317-0.708,0.708-0.708c0.392,0,0.709,0.316,0.709,0.708
		S7.391,11.184,6.999,11.184z M7.855,8.355c0,0.432-0.287,0.783-0.809,0.783c-0.524,0-0.902-0.352-0.902-0.783V3.812
		c0-0.432,0.378-0.782,0.902-0.782c0.521,0,0.809,0.35,0.809,0.782V8.355z"/>
</g>
</svg>
