<?xml version="1.0" encoding="utf-8"?>
<!-- Generator: Adobe Illustrator 22.0.0, SVG Export Plug-In . SVG Version: 6.00 Build 0)  -->
<svg version="1.1" id="Your_Icons" xmlns="http://www.w3.org/2000/svg" xmlns:xlink="http://www.w3.org/1999/xlink" x="0px" y="0px"
	 viewBox="0 0 24 24" style="enable-background:new 0 0 24 24;" xml:space="preserve">
<style type="text/css">
	.st0{fill:#295A99;}
</style>
<g>
	<path class="st0" d="M3,12c0,2.5,2,4.5,4.5,4.5h3.6v-1.7H7.5c-1.5,0-2.8-1.3-2.8-2.8S6,9.2,7.5,9.2h3.6V7.5H7.5C5,7.5,3,9.5,3,12z"
		/>
	<path class="st0" d="M16.5,7.5h-3.6v1.7h3.6c1.5,0,2.8,1.3,2.8,2.8s-1.3,2.8-2.8,2.8h-3.6v1.7h3.6c2.5,0,4.5-2,4.5-4.5
		S19,7.5,16.5,7.5z"/>
	<rect x="11.3" y="2.8" class="st0" width="1.2" height="2.9"/>
	<polygon class="st0" points="15.7,4.5 14.8,3.7 12.8,5.7 13.7,6.5 	"/>
	<polygon class="st0" points="11,5.7 9,3.7 8.2,4.5 10.2,6.5 	"/>
	<rect x="11.3" y="18.4" class="st0" width="1.2" height="2.9"/>
	<polygon class="st0" points="8.1,19.5 8.9,20.3 11,18.3 10.1,17.5 	"/>
	<polygon class="st0" points="12.7,18.3 14.8,20.3 15.6,19.5 13.6,17.5 	"/>
</g>
</svg>
