<?xml version="1.0" encoding="utf-8"?>
<!-- Generator: Adobe Illustrator 21.1.0, SVG Export Plug-In . SVG Version: 6.00 Build 0)  -->
<svg version="1.1" xmlns="http://www.w3.org/2000/svg" xmlns:xlink="http://www.w3.org/1999/xlink" x="0px" y="0px"
	 viewBox="0 0 24 24" style="enable-background:new 0 0 24 24;" xml:space="preserve">
<style type="text/css">
	.st0{display:none;}
	.st1{display:inline;}
	.st2{fill:#114A54;}
	.st3{fill:#778E93;}
	.st4{fill:#D4E4F1;}
	.st5{fill:#398CCB;}
	.st6{fill:#AFDFF9;}
	.st7{fill:#6AA9DD;}
	.st8{fill:#20568E;}
	.st9{fill:#2C5261;}
	.st10{fill:#295A99;}
	.st11{opacity:0.2;fill:#3E85C5;}
	.st12{opacity:0.8;fill:#AFDFF9;}
	.st13{opacity:0.5;fill:#D4E4F1;}
	.st14{fill:#FFFFFF;}
	.st15{fill:#FFFFFF;stroke:#3E85C5;stroke-miterlimit:10;}
	.st16{fill:#3E85C5;}
	.st17{fill:#21558E;}
	.st18{fill:#B3C3C4;}
	.st19{fill:#D2E3F0;}
	.st20{display:none;fill:#B3C3C4;}
	.st21{fill:#295A9A;}
	.st22{fill:none;stroke:#295A99;stroke-miterlimit:10;}
</style>
<g id="Guidelines">
</g>
<g id="Your_Icons">
	<g class="st0">
	</g>
	<g>
		<ellipse transform="matrix(0.7128 -0.7014 0.7014 0.7128 -4.0238 11.4271)" class="st18" cx="11.9" cy="10.6" rx="2" ry="2"/>
		<path class="st18" d="M0,0v24h24V0H0z M7.8,20.5c-0.7-0.7-0.5-1.9,0.5-2.7c0.4-0.4,5-2.9,5.4-2.6c0.3,0.3-2.4,4.5-2.9,5
			C9.7,21,8.4,21.1,7.8,20.5z M12.9,18.6c1.3-1.7,2.1-3.2,1.4-4c-0.2-0.2-0.6-0.5-1.2-0.4c-1.1,0.1-3.4,1.6-5.5,3.1
			C5.4,15.9,4,13.5,4,10.9c0-4.3,3.6-7.8,8-7.8c4.4,0,8,3.5,8,7.8C20,14.9,16.9,18.2,12.9,18.6z"/>
	</g>
</g>
</svg>
