<?xml version="1.0" encoding="iso-8859-1"?>
<!-- Generator: Adobe Illustrator 19.0.0, SVG Export Plug-In . SVG Version: 6.00 Build 0)  -->
<svg version="1.1" id="Layer_1" xmlns="http://www.w3.org/2000/svg" xmlns:xlink="http://www.w3.org/1999/xlink" x="0px" y="0px"
	 viewBox="0 0 262.782 262.782" style="enable-background:new 0 0 262.782 262.782;" xml:space="preserve">
<g>
	<g>
		<g>
			<path d="M115.637,41.621c-27.856,7.162-47.312,32.283-47.312,61.088c0,2.761,2.238,5,5,5c2.762,0,5-2.239,5-5
				c0-24.24,16.367-45.378,39.802-51.404c2.675-0.688,4.285-3.413,3.598-6.087C121.037,42.543,118.314,40.935,115.637,41.621z"/>
			<path d="M166.301,229.802h-69.82c-3.588,0-6.006,3.675-4.597,6.968c14.84,34.659,64.154,34.705,79.014,0
				C172.309,233.473,169.884,229.802,166.301,229.802z M105.126,239.802h52.529C144.492,257.157,118.299,257.17,105.126,239.802z"/>
			<path d="M227.443,56.109c-1.962-1.944-5.127-1.93-7.071,0.03l-12.966,13.077c-9.509-21.585-27.987-38.621-51.411-45.87
				C155.291,10.135,144.379,0,131.391,0c-13.003,0-23.901,10.149-24.603,23.345c-34.62,10.699-58.462,42.775-58.462,79.364v82.209
				l-8.875,33.688c-0.835,3.167,1.558,6.274,4.835,6.274h8.786l-17.763,17.916c-1.944,1.961-1.931,5.127,0.03,7.071
				c1.961,1.943,5.126,1.931,7.071-0.03l24.744-24.957h151.342c3.275,0,5.671-3.105,4.835-6.274l-8.875-33.688v-82.209
				c0-7.974-1.135-15.734-3.266-23.105l16.283-16.423C229.417,61.22,229.403,58.054,227.443,56.109z M62.986,214.88H50.774
				c7.897-29.976,7.552-28.314,7.552-29.314v-82.857c0-33.371,22.543-62.475,54.821-70.774c2.435-0.625,4.025-2.961,3.717-5.455
				C115.746,17.437,122.838,10,131.391,10c8.554,0,15.645,7.439,14.527,16.48c-0.309,2.494,1.281,4.829,3.715,5.455
				c23.556,6.068,41.915,23.213,50.124,44.996L62.986,214.88z M212.008,214.88H77.068L202.944,87.92
				c0.988,4.795,1.512,9.742,1.512,14.789v82.857C204.456,186.566,204.111,184.903,212.008,214.88z"/>
		</g>
	</g>
</g>
<g>
</g>
<g>
</g>
<g>
</g>
<g>
</g>
<g>
</g>
<g>
</g>
<g>
</g>
<g>
</g>
<g>
</g>
<g>
</g>
<g>
</g>
<g>
</g>
<g>
</g>
<g>
</g>
<g>
</g>
</svg>
