<?xml version="1.0" encoding="utf-8"?>
<!-- Generator: Adobe Illustrator 21.1.0, SVG Export Plug-In . SVG Version: 6.00 Build 0)  -->
<svg version="1.1" xmlns="http://www.w3.org/2000/svg" xmlns:xlink="http://www.w3.org/1999/xlink" x="0px" y="0px"
	 viewBox="0 0 24 24" style="enable-background:new 0 0 24 24;" xml:space="preserve">
<style type="text/css">
	.st0{display:none;}
	.st1{display:inline;}
	.st2{fill:#114A54;}
	.st3{fill:#778E93;}
	.st4{fill:#D4E4F1;}
	.st5{fill:#398CCB;}
	.st6{fill:#AFDFF9;}
	.st7{fill:#6AA9DD;}
	.st8{fill:#20568E;}
	.st9{fill:#2C5261;}
	.st10{fill:#295A99;}
	.st11{opacity:0.2;fill:#3E85C5;}
	.st12{opacity:0.8;fill:#AFDFF9;}
	.st13{opacity:0.5;fill:#D4E4F1;}
	.st14{fill:#FFFFFF;}
	.st15{fill:#FFFFFF;stroke:#3E85C5;stroke-miterlimit:10;}
	.st16{fill:#3E85C5;}
	.st17{fill:#21558E;}
	.st18{fill:#B3C3C4;}
	.st19{fill:#D2E3F0;}
	.st20{display:none;fill:#B3C3C4;}
	.st21{fill:#295A9A;}
	.st22{fill:none;stroke:#295A99;stroke-miterlimit:10;}
</style>
<g id="Guidelines">
</g>
<g id="Your_Icons">
	<g class="st0">
	</g>
	<g>
		<path class="st18" d="M3.9,6.9v4H3.5v2.9h0.4v4H3.5v2.8h17v-17h-17v3.4H3.9z M7.4,9.9c0.9-1.5,2.5-2.5,4.3-2.5h0
			c0.9,0,1.7,0.2,2.5,0.7c1.2,0.7,2,1.7,2.3,3c0.3,1.3,0.2,2.6-0.5,3.8c-0.9,1.5-2.5,2.5-4.3,2.5c-0.9,0-1.7-0.2-2.5-0.7
			C6.9,15.4,6.1,12.3,7.4,9.9z"/>
		<ellipse transform="matrix(0.4996 -0.8662 0.8662 0.4996 -4.8425 16.4348)" class="st18" cx="11.8" cy="12.4" rx="0.6" ry="0.6"/>
		<path class="st18" d="M0,0v24h24V0H0z M21.5,21.5h-19v-3.8H1.9v-4h0.6v-2.9H1.9v-4h0.6V2.5h19V21.5z"/>
		<path class="st18" d="M7.8,12.8c0.1,0.8,0.4,1.5,0.9,2.2l1.2-1.2l0.5,0.5l-1.2,1.2c0.2,0.1,0.3,0.3,0.5,0.4
			c0.5,0.3,1.1,0.5,1.6,0.5v-1.7h0.8v1.7c0.8-0.1,1.6-0.4,2.2-0.9l-1.2-1.2l0.5-0.5l1.1,1.1c0.1-0.2,0.3-0.3,0.4-0.5
			c0.3-0.5,0.5-1.1,0.5-1.6h-1.6V12h1.6c-0.1-0.8-0.4-1.5-0.9-2.2L13.7,11l-0.5-0.5l1.1-1.1C14.1,9.2,14,9.1,13.8,9
			c-0.5-0.3-1.1-0.5-1.6-0.5v1.7h-0.8V8.4c-0.8,0.1-1.5,0.4-2.1,0.9l1.2,1.2L9.9,11L8.7,9.9c-0.1,0.2-0.3,0.4-0.4,0.6
			C8,10.9,7.9,11.5,7.8,12h1.7v0.8H7.8z M10.4,11.6c0.5-0.8,1.5-1.1,2.2-0.6c0.8,0.5,1.1,1.5,0.6,2.2c-0.3,0.5-0.9,0.8-1.4,0.8
			c-0.3,0-0.6-0.1-0.8-0.2v0C10.2,13.4,9.9,12.4,10.4,11.6z"/>
	</g>
</g>
</svg>
