<?xml version="1.0" encoding="utf-8"?>
<!-- Generator: Adobe Illustrator 21.1.0, SVG Export Plug-In . SVG Version: 6.00 Build 0)  -->
<svg version="1.1" xmlns="http://www.w3.org/2000/svg" xmlns:xlink="http://www.w3.org/1999/xlink" x="0px" y="0px"
	 viewBox="0 0 24 24" style="enable-background:new 0 0 24 24;" xml:space="preserve">
<style type="text/css">
	.st0{display:none;}
	.st1{display:inline;}
	.st2{fill:#114A54;}
	.st3{fill:#778E93;}
	.st4{fill:#D4E4F1;}
	.st5{fill:#398CCB;}
	.st6{fill:#AFDFF9;}
	.st7{fill:#6AA9DD;}
	.st8{fill:#20568E;}
	.st9{fill:#2C5261;}
	.st10{fill:#295A99;}
	.st11{opacity:0.2;fill:#3E85C5;}
	.st12{opacity:0.8;fill:#AFDFF9;}
	.st13{opacity:0.5;fill:#D4E4F1;}
	.st14{fill:#FFFFFF;}
	.st15{fill:#FFFFFF;stroke:#3E85C5;stroke-miterlimit:10;}
	.st16{fill:#3E85C5;}
	.st17{fill:#21558E;}
	.st18{fill:#B3C3C4;}
	.st19{fill:#D2E3F0;}
	.st20{display:none;fill:#B3C3C4;}
	.st21{fill:#295A9A;}
	.st22{fill:none;stroke:#295A99;stroke-miterlimit:10;}
</style>
<g id="Guidelines">
</g>
<g id="Your_Icons">
	<g class="st0">
	</g>
	<g>
		<rect class="st7" width="24" height="24"/>
		<g>
			<g>
				<rect x="3.5" y="3.5" class="st19" width="17" height="17"/>
			</g>
			<path class="st14" d="M21.5,21.5h-19v-19h19V21.5z M3.5,20.5h17v-17h-17V20.5z"/>
		</g>
		<g>
			<rect x="1.9" y="6.9" class="st14" width="2" height="4"/>
			<rect x="1.9" y="13.7" class="st14" width="2" height="4"/>
		</g>
		<g>
			<g>
				<g>
					<g>
						<ellipse transform="matrix(0.5 -0.866 0.866 0.5 -4.8634 16.3941)" class="st10" cx="11.8" cy="12.4" rx="5.5" ry="5.5"/>
						<g>
							<path class="st14" d="M13.6,9.2c-0.9-0.5-1.9-0.6-2.8-0.4c-1,0.3-1.8,0.9-2.3,1.7c-1,1.8-0.4,4.1,1.4,5.1v0
								c1.8,1,4.1,0.4,5.1-1.4c0.5-0.9,0.6-1.9,0.4-2.8C15.1,10.5,14.5,9.7,13.6,9.2z"/>
						</g>
					</g>
				</g>
			</g>
			<g>
				<path class="st10" d="M12.6,11c-0.4-0.2-0.8-0.3-1.2-0.2c-0.4,0.1-0.8,0.4-1,0.8c-0.5,0.8-0.2,1.8,0.6,2.2
					c0.3,0.1,0.5,0.2,0.8,0.2c0.1,0,0.3,0,0.4-0.1c0.4-0.1,0.8-0.4,1-0.8C13.7,12.4,13.4,11.4,12.6,11z M12.4,12.7
					C12.3,12.9,12.1,13,12,13c-0.2,0-0.3,0-0.5-0.1c-0.3-0.2-0.4-0.6-0.2-0.9c0.1-0.1,0.2-0.3,0.4-0.3c0.1,0,0.1,0,0.2,0
					c0.1,0,0.2,0,0.3,0.1C12.4,12,12.5,12.4,12.4,12.7z"/>
				<rect x="11.5" y="8.2" class="st10" width="0.5" height="1.9"/>
				<rect x="11.5" y="14.7" class="st10" width="0.5" height="1.9"/>
				<rect x="14.1" y="12.2" class="st10" width="1.9" height="0.5"/>
				<rect x="7.6" y="12.2" class="st10" width="1.9" height="0.5"/>
				
					<rect x="13.1" y="9.8" transform="matrix(0.7071 -0.7071 0.7071 0.7071 -3.0102 12.9052)" class="st10" width="1.9" height="0.5"/>
				
					<rect x="8.5" y="14.4" transform="matrix(0.7071 -0.7071 0.7071 0.7071 -7.6016 11.0034)" class="st10" width="1.9" height="0.5"/>
				
					<rect x="13.8" y="13.8" transform="matrix(0.7071 -0.7071 0.7071 0.7071 -6.2678 14.2769)" class="st10" width="0.5" height="1.9"/>
				
					<rect x="9.3" y="9.2" transform="matrix(0.7071 -0.7071 0.7071 0.7071 -4.3661 9.6856)" class="st10" width="0.5" height="1.9"/>
			</g>
		</g>
	</g>
</g>
</svg>
