<?xml version="1.0" encoding="utf-8"?>
<!-- Generator: Adobe Illustrator 21.1.0, SVG Export Plug-In . SVG Version: 6.00 Build 0)  -->
<svg version="1.1" xmlns="http://www.w3.org/2000/svg" xmlns:xlink="http://www.w3.org/1999/xlink" x="0px" y="0px"
	 viewBox="0 0 24 24" style="enable-background:new 0 0 24 24;" xml:space="preserve">
<style type="text/css">
	.st0{display:none;}
	.st1{display:inline;}
	.st2{fill:#114A54;}
	.st3{fill:#778E93;}
	.st4{fill:#D4E4F1;}
	.st5{fill:#398CCB;}
	.st6{fill:#AFDFF9;}
	.st7{fill:#6AA9DD;}
	.st8{fill:#20568E;}
	.st9{fill:#2C5261;}
	.st10{fill:#295A99;}
	.st11{opacity:0.2;fill:#3E85C5;}
	.st12{opacity:0.8;fill:#AFDFF9;}
	.st13{opacity:0.5;fill:#D4E4F1;}
	.st14{fill:#FFFFFF;}
	.st15{fill:#FFFFFF;stroke:#3E85C5;stroke-miterlimit:10;}
	.st16{fill:#3E85C5;}
	.st17{fill:#21558E;}
	.st18{fill:#B3C3C4;}
	.st19{fill:#D2E3F0;}
	.st20{display:none;fill:#B3C3C4;}
	.st21{fill:#295A9A;}
	.st22{fill:none;stroke:#295A99;stroke-miterlimit:10;}
</style>
<g id="Guidelines">
</g>
<g id="Your_Icons">
	<g class="st0">
	</g>
	<g>
		<g>
			<path class="st4" d="M12,0C9.2,2,5.7,3.2,2,3.2v5.6C2,15.6,6.1,21.4,12,24c5.9-2.6,10-8.4,10-15.2V3.2C18.3,3.2,14.8,2,12,0z"/>
			<path class="st10" d="M12,12.6l-8-4.2c-0.1,5.1,2.6,10.3,8,13.1c4.3-1.5,8-7.3,8-13.1L12,12.6z"/>
			<path class="st7" d="M20,5.2C17.1,4.9,14.4,4,12,2.5C9.7,4,6.9,4.9,4.1,5.2c0,0,0,2.3-0.1,3.3l8,4.2l8-4.2C20,7.4,20,5.2,20,5.2z
				"/>
		</g>
		<g>
			<g>
				<path class="st14" d="M14.6,6.9c-1.2-0.7-2.5-0.8-3.8-0.5c-1.3,0.3-2.4,1.2-3,2.3c-1.4,2.4-0.6,5.5,1.8,6.8
					c2.4,1.4,5.5,0.6,6.8-1.8c0.7-1.2,0.8-2.5,0.5-3.8S15.7,7.6,14.6,6.9z"/>
			</g>
			<g>
				<path class="st10" d="M12,17.3c-1,0-2-0.3-3-0.8l0,0c-2.9-1.7-3.8-5.3-2.2-8.2C7.7,6.9,9,5.9,10.5,5.5c1.5-0.4,3.2-0.2,4.6,0.6
					c1.4,0.8,2.4,2.1,2.8,3.6c0.4,1.5,0.2,3.2-0.6,4.6C16.1,16.2,14.1,17.3,12,17.3z M9.6,15.6c2.4,1.4,5.5,0.6,6.8-1.8
					c0.7-1.2,0.8-2.5,0.5-3.8s-1.2-2.4-2.3-3c-1.2-0.7-2.5-0.8-3.8-0.5c-1.3,0.3-2.4,1.2-3,2.3C6.4,11.2,7.2,14.2,9.6,15.6L9.6,15.6
					z"/>
			</g>
		</g>
		<polygon class="st10" points="12.6,11.4 12.6,7.3 11.6,7.3 11.6,11.9 11.6,11.9 11.6,11.9 15,14.2 15.5,13.3 		"/>
	</g>
</g>
</svg>
