<?xml version="1.0" encoding="utf-8"?>
<!-- Generator: Adobe Illustrator 21.1.0, SVG Export Plug-In . SVG Version: 6.00 Build 0)  -->
<svg version="1.1" xmlns="http://www.w3.org/2000/svg" xmlns:xlink="http://www.w3.org/1999/xlink" x="0px" y="0px"
	 viewBox="0 0 24 24" style="enable-background:new 0 0 24 24;" xml:space="preserve">
<style type="text/css">
	.st0{display:none;}
	.st1{display:inline;}
	.st2{fill:#114A54;}
	.st3{fill:#778E93;}
	.st4{fill:#D4E4F1;}
	.st5{fill:#398CCB;}
	.st6{fill:#AFDFF9;}
	.st7{fill:#6AA9DD;}
	.st8{fill:#20568E;}
	.st9{fill:#2C5261;}
	.st10{fill:#295A99;}
	.st11{opacity:0.2;fill:#3E85C5;}
	.st12{opacity:0.8;fill:#AFDFF9;}
	.st13{opacity:0.5;fill:#D4E4F1;}
	.st14{fill:#FFFFFF;}
	.st15{fill:#FFFFFF;stroke:#3E85C5;stroke-miterlimit:10;}
	.st16{fill:#3E85C5;}
	.st17{fill:#21558E;}
	.st18{fill:#B3C3C4;}
	.st19{fill:#D2E3F0;}
	.st20{display:none;fill:#B3C3C4;}
	.st21{fill:#295A9A;}
	.st22{fill:none;stroke:#295A99;stroke-miterlimit:10;}
</style>
<g id="Guidelines">
</g>
<g id="Your_Icons">
	<g class="st0">
	</g>
	<g>
		<path class="st18" d="M15,14.2L11.6,12V7.3h1v4.1l2.9,1.9L15,14.2z"/>
		<path class="st18" d="M12,0C9.2,2,5.7,3.2,2,3.2v5.6C2,15.6,6.1,21.4,12,24c5.9-2.6,10-8.4,10-15.2V3.2C18.3,3.2,14.8,2,12,0z
			 M17.3,14.3c-1.1,1.9-3.1,3-5.2,3c-1,0-2-0.3-3-0.8c-2.9-1.7-3.8-5.3-2.2-8.2C7.7,6.9,9,5.9,10.5,5.5c1.5-0.4,3.2-0.2,4.6,0.6
			c1.4,0.8,2.4,2.1,2.8,3.6C18.3,11.3,18.1,12.9,17.3,14.3z"/>
	</g>
</g>
</svg>
