<?xml version="1.0" encoding="utf-8"?>
<!-- Generator: Adobe Illustrator 21.1.0, SVG Export Plug-In . SVG Version: 6.00 Build 0)  -->
<svg version="1.1" id="Layer_1" xmlns="http://www.w3.org/2000/svg" xmlns:xlink="http://www.w3.org/1999/xlink" x="0px" y="0px"
	 viewBox="0 0 25 25" style="enable-background:new 0 0 25 25;" xml:space="preserve">
<style type="text/css">
	.st0{fill:#134A54;}
	.st1{fill:none;stroke:#FFFFFF;stroke-linejoin:round;stroke-miterlimit:10;}
	.st2{fill:#FFFFFF;}
	.st3{fill:none;stroke:#134A54;stroke-linecap:round;stroke-miterlimit:10;}
	.st4{fill:none;stroke:#134A54;stroke-miterlimit:10;}
</style>
<g>
	<path class="st0" d="M16,3.2C15.9,3.2,15.9,3.2,16,3.2c-2.2-1.2-3.5-2.7-3.5-2.7S8.7,4.8,3,4.8c0.6,18.3,9.5,19.7,9.5,19.7
		s9.1-1,9.5-19.7C19.6,4.8,17.6,4.1,16,3.2z M16.7,15.2H8.3c-1,0-1.8-0.8-1.8-1.9c0-0.8,0.6-1.6,1.4-1.8c0.3-0.1,0.5-0.3,0.4-0.6
		l0,0c0-0.7,0.5-1.2,1.2-1.2c0.3,0,0.6,0.1,0.8,0.3c0.1,0.1,0.3,0.2,0.4,0.2c0,0,0.1,0,0.1,0c0.2,0,0.6-0.4,0.7-0.6
		c0.6-0.9,1.2-1.1,2.2-1.1c1.5,0,2.7,1.1,3,2.6c0,0.2,0.2,0.5,0.5,0.5c0.8,0.2,1.4,0.9,1.4,1.8C18.5,14.4,17.7,15.2,16.7,15.2z"/>
</g>
</svg>
