<?xml version="1.0" encoding="utf-8"?>
<!-- Generator: Adobe Illustrator 16.0.0, SVG Export Plug-In . SVG Version: 6.00 Build 0)  -->
<!DOCTYPE svg PUBLIC "-//W3C//DTD SVG 1.1//EN" "http://www.w3.org/Graphics/SVG/1.1/DTD/svg11.dtd">
<svg version="1.1" id="Layer_1" xmlns="http://www.w3.org/2000/svg" xmlns:xlink="http://www.w3.org/1999/xlink" x="0px" y="0px"
	 width="15px" height="15px" viewBox="0 0 15 15" enable-background="new 0 0 15 15" xml:space="preserve">
<g>
	<path fill="#FFFFFF" d="M11.561,5.376c-0.346-0.345-0.903-0.345-1.248,0L6.614,9.074L4.819,7.3C4.473,6.957,3.914,6.96,3.572,7.307
		c-0.343,0.346-0.34,0.906,0.007,1.248l2.399,2.371c0.005,0.006,0.007,0.014,0.013,0.021c0.172,0.172,0.398,0.258,0.624,0.258
		c0.001,0,0.002-0.001,0.003-0.001s0.002,0.001,0.003,0.001c0.228,0,0.455-0.087,0.627-0.262c0.006-0.006,0.008-0.014,0.013-0.02
		l4.299-4.299C11.904,6.279,11.904,5.721,11.561,5.376z"/>
	<path fill="#FFFFFF" d="M7.5,0C3.364,0,0,3.364,0,7.5C0,11.635,3.364,15,7.5,15S15,11.635,15,7.5C15,3.364,11.636,0,7.5,0z
		 M7.5,13.235c-3.162,0-5.735-2.573-5.735-5.735S4.338,1.765,7.5,1.765s5.735,2.573,5.735,5.735S10.662,13.235,7.5,13.235z"/>
</g>
</svg>
