<?xml version="1.0" encoding="utf-8"?>
<!-- Generator: Adobe Illustrator 18.0.0, SVG Export Plug-In . SVG Version: 6.00 Build 0)  -->
<!DOCTYPE svg PUBLIC "-//W3C//DTD SVG 1.1//EN" "http://www.w3.org/Graphics/SVG/1.1/DTD/svg11.dtd">
<svg version="1.1" id="Layer_1" xmlns="http://www.w3.org/2000/svg" xmlns:xlink="http://www.w3.org/1999/xlink" x="0px" y="0px"
	 viewBox="0 0 15 15" enable-background="new 0 0 15 15" xml:space="preserve">
<path fill="#FFFFFF" d="M7.5,0C3.4,0,0,3.4,0,7.5C0,11.6,3.4,15,7.5,15S15,11.6,15,7.5C15,3.4,11.6,0,7.5,0z M7.5,12.1
	c-0.4,0-0.8-0.3-0.8-0.8s0.3-0.8,0.8-0.8s0.8,0.3,0.8,0.8S7.9,12.1,7.5,12.1z M8.4,9.1c0,0.5-0.3,0.8-0.9,0.8c-0.6,0-1-0.4-1-0.8
	V3.7c0-0.5,0.4-0.8,1-0.8c0.6,0,0.9,0.4,0.9,0.8V9.1z"/>
</svg>
