<?xml version="1.0" encoding="utf-8"?>
<!-- Generator: Adobe Illustrator 21.1.0, SVG Export Plug-In . SVG Version: 6.00 Build 0)  -->
<svg version="1.1" id="Layer_1" xmlns="http://www.w3.org/2000/svg" xmlns:xlink="http://www.w3.org/1999/xlink" x="0px" y="0px"
	 viewBox="0 0 24 24" style="enable-background:new 0 0 24 24;" xml:space="preserve">
<style type="text/css">
	.st0{fill:#B3C3C4;}
</style>
<g id="Your_Icons">
	<polygon class="st0" points="19.7,12.4 18.7,10.8 18.5,10.8 18.5,7.4 18.5,6.9 18.5,6.4 12.1,6.4 12.1,2.3 6,2.3 4.7,0 0,0 0,11.6 
		3.6,11.6 3.6,15.9 3.4,15.7 0,15.7 0,24 8.7,24 8.7,17.3 4.4,17.3 4.3,17.3 4.6,17.3 4.6,11.6 12.1,11.6 12.1,7.4 17.5,7.4 
		17.5,10.8 15.3,10.8 15.3,19.1 24,19.1 24,12.4 	"/>
</g>
</svg>
