<?xml version="1.0" encoding="utf-8"?>
<!-- Generator: Adobe Illustrator 16.0.0, SVG Export Plug-In . SVG Version: 6.00 Build 0)  -->
<!DOCTYPE svg PUBLIC "-//W3C//DTD SVG 1.1//EN" "http://www.w3.org/Graphics/SVG/1.1/DTD/svg11.dtd">
<svg version="1.1" id="Layer_1" xmlns="http://www.w3.org/2000/svg" xmlns:xlink="http://www.w3.org/1999/xlink" x="0px" y="0px"
	 width="22px" height="22px" viewBox="0 0 22 22" enable-background="new 0 0 22 22" xml:space="preserve">
<g>
	<path fill="#ADADAE" d="M16.211,6.58c0.398,0,0.764,0.15,1.05,0.365V5.942c0-0.567-0.431-1.02-1.05-1.02h-5.208
		c-0.514,0-1.171-0.051-1.697-0.584C8.902,3.93,7.654,2.572,7.513,2.417C7.217,2.089,6.955,1.896,6.493,1.896H1.17
		C0.566,1.896,0,2.404,0,2.974v4.021C0.343,6.749,0.746,6.58,1.17,6.58H16.211z"/>
	<path fill="#ADADAE" d="M11.71,9.525c1.75-1.751,4.231-2.322,6.462-1.721c-0.209-0.148-0.459-0.244-0.734-0.244H1.17
		c-0.487,0-0.941,0.282-1.17,0.683v8.339c0,0.608,0.587,1.146,1.17,1.146h9.569C9.165,15.156,9.485,11.75,11.71,9.525z"/>
	<path fill="#ADADAE" d="M18.941,13.665h-1.92v-1.92c0-0.347-0.303-0.628-0.722-0.628c-0.417,0-0.648,0.281-0.648,0.628l0.001,1.92
		h-1.921c-0.347,0.001-0.628,0.303-0.627,0.722c0,0.418,0.28,0.647,0.628,0.648h1.92v1.919c0,0.348,0.23,0.628,0.647,0.626
		c0.419,0,0.721-0.28,0.721-0.627l0.001-1.919h1.921c0.345,0,0.626-0.229,0.626-0.647C19.569,13.968,19.288,13.666,18.941,13.665z"
		/>
	<path fill="#ADADAE" d="M20.359,10.348c-1.095-1.095-2.53-1.643-3.965-1.643s-2.87,0.548-3.964,1.643
		c-2.189,2.188-2.189,5.738,0,7.928c1.095,1.095,2.53,1.643,3.965,1.643s2.87-0.547,3.965-1.643
		C22.547,16.087,22.547,12.537,20.359,10.348z M19.652,17.569c-0.871,0.871-2.027,1.35-3.258,1.35s-2.387-0.479-3.258-1.35
		c-1.795-1.796-1.796-4.719,0-6.514c0.87-0.87,2.027-1.35,3.257-1.35c1.231,0,2.388,0.479,3.258,1.35
		C21.447,12.851,21.447,15.773,19.652,17.569z"/>
</g>
</svg>
