<?xml version="1.0" encoding="utf-8"?>
<!-- Generator: Adobe Illustrator 16.0.0, SVG Export Plug-In . SVG Version: 6.00 Build 0)  -->
<!DOCTYPE svg PUBLIC "-//W3C//DTD SVG 1.1//EN" "http://www.w3.org/Graphics/SVG/1.1/DTD/svg11.dtd">
<svg version="1.1" id="Layer_1" xmlns="http://www.w3.org/2000/svg" xmlns:xlink="http://www.w3.org/1999/xlink" x="0px" y="0px"
	 width="26px" height="20px" viewBox="0 0 26 20" enable-background="new 0 0 26 20" xml:space="preserve">
<g>
	<path fill-rule="evenodd" clip-rule="evenodd" fill="#FFFFFF" d="M1.324,2.077h23.434c0.895,0,1.369-0.099,1.369-0.993
		C26.127,0.191,25.652,0,24.758,0H1.324c-0.894,0-1.45,0.107-1.45,1.001C-0.126,1.894,0.43,2.077,1.324,2.077z"/>
	<path fill-rule="evenodd" clip-rule="evenodd" fill="#FFFFFF" d="M24.758,8H1.324c-0.894,0-1.45,0.107-1.45,1.001
		c0,0.893,0.557,1.076,1.45,1.076h23.434c0.895,0,1.369-0.099,1.369-0.993C26.127,8.191,25.652,8,24.758,8z"/>
	<path fill-rule="evenodd" clip-rule="evenodd" fill="#FFFFFF" d="M24.758,17H1.324c-0.894,0-1.45,0.107-1.45,1.001
		s0.557,1.075,1.45,1.075h23.434c0.895,0,1.369-0.099,1.369-0.992C26.127,17.191,25.652,17,24.758,17z"/>
</g>
</svg>
