<?xml version="1.0" encoding="utf-8"?>
<!-- Generator: Adobe Illustrator 16.0.0, SVG Export Plug-In . SVG Version: 6.00 Build 0)  -->
<!DOCTYPE svg PUBLIC "-//W3C//DTD SVG 1.1//EN" "http://www.w3.org/Graphics/SVG/1.1/DTD/svg11.dtd">
<svg version="1.1" id="Layer_1" xmlns="http://www.w3.org/2000/svg" xmlns:xlink="http://www.w3.org/1999/xlink" x="0px" y="0px"
	 width="14px" height="14px" viewBox="0 0 14 14" enable-background="new 0 0 14 14" xml:space="preserve">
<g>
	<path fill="#FFFFFF" d="M7,2c2.757,0,5,2.243,5,5s-2.243,5-5,5S2,9.757,2,7S4.243,2,7,2 M7,0C3.134,0,0,3.134,0,7
		c0,3.865,3.134,7,7,7s7-3.135,7-7C14,3.134,10.866,0,7,0L7,0z"/>
	<path fill="#FFFFFF" d="M10.503,5.253c-0.338-0.402-0.849-0.466-1.18-0.188L5.972,7.983L4.568,6.327
		C4.29,5.996,3.846,5.913,3.446,6.248C3.044,6.585,2.98,7.096,3.258,7.427L5.276,9.81c0.136,0.161,0.329,0.248,0.537,0.257
		c0.205,0.021,0.41-0.045,0.582-0.189l0.019-0.016c0.019-0.014,0.038-0.018,0.057-0.033C6.491,9.811,6.499,9.79,6.518,9.771
		l3.906-3.396C10.755,6.097,10.838,5.652,10.503,5.253z"/>
</g>
</svg>
