<?xml version="1.0" encoding="utf-8"?>
<!-- Generator: Adobe Illustrator 16.0.0, SVG Export Plug-In . SVG Version: 6.00 Build 0)  -->
<!DOCTYPE svg PUBLIC "-//W3C//DTD SVG 1.1//EN" "http://www.w3.org/Graphics/SVG/1.1/DTD/svg11.dtd">
<svg version="1.1" id="Layer_1" xmlns="http://www.w3.org/2000/svg" xmlns:xlink="http://www.w3.org/1999/xlink" x="0px" y="0px"
	 width="17px" height="17px" viewBox="0 0 17 17" enable-background="new 0 0 17 17" xml:space="preserve">
<g>
	<path fill-rule="evenodd" clip-rule="evenodd" fill="#FFFFFF" d="M2.708,4.494h0.884c0.493,0,0.893-0.4,0.893-0.894V2.717
		c0-0.495-0.4-0.895-0.893-0.895H2.708c-0.494,0-0.893,0.4-0.893,0.895v0.884C1.814,4.094,2.214,4.494,2.708,4.494z"/>
	<path fill-rule="evenodd" clip-rule="evenodd" fill="#FFFFFF" d="M9.229,0H7.743C6.913,0,6.24,0.673,6.24,1.503V2.99
		c0,0.831,0.673,1.504,1.503,1.504h1.486c0.83,0,1.503-0.673,1.503-1.504V1.503C10.732,0.673,10.059,0,9.229,0z"/>
	<path fill-rule="evenodd" clip-rule="evenodd" fill="#FFFFFF" d="M13.401,4.494h0.883c0.494,0,0.894-0.4,0.894-0.894V2.717
		c0-0.495-0.4-0.895-0.894-0.895h-0.883c-0.493,0-0.893,0.4-0.893,0.895v0.884C12.508,4.094,12.908,4.494,13.401,4.494z"/>
	<path fill-rule="evenodd" clip-rule="evenodd" fill="#FFFFFF" d="M15.497,6.257h-1.486c-0.83,0-1.503,0.673-1.503,1.503v1.487
		c0,0.83,0.673,1.503,1.503,1.503h1.486c0.83,0,1.503-0.673,1.503-1.503V7.761C17,6.931,16.327,6.257,15.497,6.257z"/>
	<path fill-rule="evenodd" clip-rule="evenodd" fill="#FFFFFF" d="M2.989,6.257H1.502C0.672,6.257,0,6.931,0,7.761v1.487
		c0,0.83,0.672,1.503,1.502,1.503h1.486c0.83,0,1.502-0.673,1.502-1.503V7.761C4.491,6.931,3.819,6.257,2.989,6.257z"/>
	<path fill-rule="evenodd" clip-rule="evenodd" fill="#FFFFFF" d="M8.938,9.857c0.494,0,0.894-0.4,0.894-0.894V8.08
		c0-0.494-0.4-0.894-0.894-0.894H8.054c-0.493,0-0.893,0.4-0.893,0.894v0.883c0,0.494,0.4,0.894,0.893,0.894H8.938z"/>
	<path fill-rule="evenodd" clip-rule="evenodd" fill="#FFFFFF" d="M3.591,13.42H2.708c-0.494,0-0.893,0.401-0.893,0.894v0.884
		c0,0.494,0.399,0.894,0.893,0.894h0.884c0.493,0,0.893-0.4,0.893-0.894v-0.884C4.484,13.821,4.084,13.42,3.591,13.42z"/>
	<path fill-rule="evenodd" clip-rule="evenodd" fill="#FFFFFF" d="M9.229,12.505H7.743c-0.83,0-1.503,0.674-1.503,1.504v1.486
		C6.24,16.326,6.913,17,7.743,17h1.486c0.83,0,1.503-0.674,1.503-1.504v-1.486C10.732,13.179,10.059,12.505,9.229,12.505z"/>
	<path fill-rule="evenodd" clip-rule="evenodd" fill="#FFFFFF" d="M14.284,13.42h-0.883c-0.493,0-0.893,0.401-0.893,0.894v0.884
		c0,0.494,0.4,0.894,0.893,0.894h0.883c0.494,0,0.894-0.4,0.894-0.894v-0.884C15.178,13.821,14.778,13.42,14.284,13.42z"/>
</g>
</svg>
