<?xml version="1.0" encoding="utf-8"?>
<!-- Generator: Adobe Illustrator 22.0.0, SVG Export Plug-In . SVG Version: 6.00 Build 0)  -->
<svg version="1.1" id="Layer_1" xmlns="http://www.w3.org/2000/svg" xmlns:xlink="http://www.w3.org/1999/xlink" x="0px" y="0px"
	 viewBox="0 0 24 24" style="enable-background:new 0 0 24 24;" xml:space="preserve">
<style type="text/css">
	.st0{fill:#3E85C5;}
	.st1{fill:#FFFFFF;}
	.st2{fill:#20568E;}
	.st3{fill:#6AA9DD;}
</style>
<g>
	<polygon class="st0" points="11.8,24 2.3,19 2.3,14.6 3.3,14.6 3.3,18.4 11.8,22.9 20.3,18.4 20.3,13.9 21.3,13.9 21.3,19 	"/>
	<polygon class="st0" points="3.3,12.4 2.3,12.4 2.3,8.5 9.8,4.7 10.3,5.6 3.3,9.2 	"/>
	<polygon class="st0" points="21.3,12.1 20.3,12.1 20.3,9.1 13.9,5.6 14.4,4.7 21.3,8.6 	"/>
	<g>
		<g>
			<polygon class="st1" points="11.8,0 6.7,2.9 11.8,5.9 16.9,2.9 			"/>
			<path class="st2" d="M11.8,0L6.7,2.9v5.9l5.1,2.9V5.9l5.1-2.9L11.8,0z M8.7,2.9l3.1-1.8l3.1,1.8l-3.1,1.8L8.7,2.9z"/>
		</g>
		<polygon class="st3" points="11.8,11.8 16.9,8.8 16.9,2.9 11.8,5.9 		"/>
	</g>
	<g>
		<g>
			<polygon class="st1" points="5.5,10.4 0,13.6 5.5,16.8 11,13.6 			"/>
			<path class="st2" d="M5.5,10.4L0,13.6V20l5.5,3.2v-6.4l5.5-3.2L5.5,10.4z M2,13.6l3.5-2l3.5,2l-3.5,2L2,13.6z"/>
		</g>
		<polygon class="st3" points="5.5,23.2 11,20 11,13.6 5.5,16.8 		"/>
	</g>
	<g>
		<g>
			<polygon class="st1" points="18.5,10.4 13,13.6 18.5,16.8 24,13.6 			"/>
			<g>
				<polygon class="st2" points="18.5,23.2 18.5,16.8 13,13.6 13,20 				"/>
				<path class="st2" d="M24,13.6l-5.5-3.2L13,13.6l5.5,3.2L24,13.6z M18.5,11.6l3.5,2l-3.5,2l-3.5-2L18.5,11.6z"/>
			</g>
		</g>
		<polygon class="st3" points="18.5,23.2 24,20 24,13.6 18.5,16.8 		"/>
	</g>
</g>
</svg>
