<?xml version="1.0" encoding="utf-8"?>
<!-- Generator: Adobe Illustrator 22.0.0, SVG Export Plug-In . SVG Version: 6.00 Build 0)  -->
<svg version="1.1" id="Layer_1" xmlns="http://www.w3.org/2000/svg" xmlns:xlink="http://www.w3.org/1999/xlink" x="0px" y="0px"
	 viewBox="0 0 24 24" style="enable-background:new 0 0 24 24;" xml:space="preserve">
<style type="text/css">
	.st0{fill:#B3C3C4;}
</style>
<path class="st0" d="M21.3,11.7V8.3l-4.4-2.5V2.9L11.8,0L6.7,2.9v3L2.3,8.3V12L0,13.3v6.4l5.5,3.2l2-1.1l4.3,2.3l4.5-2.4l2.2,1.2
	l5.5-3.2v-6.4L21.3,11.7z M18.5,15.3l-3.5-2l3.5-2l3.5,2L18.5,15.3z M11.8,1.2l3.1,1.8l-3.1,1.8L8.7,2.9L11.8,1.2z M5.5,11.3l3.5,2
	l-3.5,2l-3.5-2L5.5,11.3z M11.8,22.9l-3.3-1.7l2.5-1.5v-6.4l-5.5-3.2l-2.2,1.3V8.9l3.4-1.8v1.7l5.1,2.9l5.1-2.9V6.9l3.4,1.9v2.3
	l-1.8-1L13,13.3l0,0v6.4l2.3,1.3L11.8,22.9z"/>
</svg>
