<?xml version="1.0" encoding="utf-8"?>
<!-- Generator: Adobe Illustrator 21.1.0, SVG Export Plug-In . SVG Version: 6.00 Build 0)  -->
<svg version="1.1" id="Layer_1" xmlns="http://www.w3.org/2000/svg" xmlns:xlink="http://www.w3.org/1999/xlink" x="0px" y="0px"
	 viewBox="0 0 24 24" style="enable-background:new 0 0 24 24;" xml:space="preserve">
<style type="text/css">
	.st0{fill:#B3C3C4;}
</style>
<g id="Your_Icons">
	<g>
		<path class="st0" d="M23.7,12.5c-0.2-0.1-0.4,0.1-0.5,0.3l-1.3,4.6H6.8L4.1,7H0.4C0.2,7,0,7.2,0,7.4s0.2,0.4,0.4,0.4h3.2l2.7,10.4
			h16.3L24,13C24,12.8,23.9,12.6,23.7,12.5z"/>
		<path class="st0" d="M11.3,19.9c-1.2,0-2.1,0.9-2.1,2.1c0,1.1,0.9,2.1,2.1,2.1s2.1-0.9,2.1-2.1C13.4,20.8,12.5,19.9,11.3,19.9z
			 M11.3,23.3c-0.7,0-1.3-0.6-1.3-1.3c0-0.7,0.6-1.3,1.3-1.3s1.3,0.6,1.3,1.3C12.6,22.7,12,23.3,11.3,23.3z"/>
		<path class="st0" d="M17,19.9c-1.2,0-2.1,0.9-2.1,2.1c0,1.1,0.9,2.1,2.1,2.1s2.1-0.9,2.1-2.1S18.1,19.9,17,19.9z M17,23.3
			c-0.7,0-1.3-0.6-1.3-1.3c0-0.7,0.6-1.3,1.3-1.3s1.3,0.6,1.3,1.3C18.3,22.7,17.7,23.3,17,23.3z"/>
		<rect x="12.8" y="2.9" class="st0" width="0.8" height="2"/>
		<polygon class="st0" points="12.8,7.2 12.9,7.2 13.6,7.2 13.6,5.9 12.8,5.9 		"/>
		<polygon class="st0" points="12.8,2 13.6,2 13.6,0 11.6,0 11.6,0.7 12.8,0.7 		"/>
		<rect x="9.9" y="6.5" class="st0" width="2" height="0.7"/>
		<polygon class="st0" points="6.8,7.2 8.9,7.2 8.9,6.5 7.1,6.5 7.1,4.7 6.3,4.7 6.3,6.7 6.8,6.7 		"/>
		<rect x="8.5" class="st0" width="2" height="0.7"/>
		<rect x="6.3" y="1.8" class="st0" width="0.8" height="2"/>
		<path class="st0" d="M7.1,0.7h0.4V0H6.3v0.7v0.1L7.1,0.7L7.1,0.7z"/>
		<rect x="15.7" class="st0" width="7.3" height="7.2"/>
		<rect x="11" y="8.3" class="st0" width="7.3" height="7.2"/>
	</g>
</g>
</svg>
