<?xml version="1.0" encoding="utf-8"?>
<!-- Generator: Adobe Illustrator 21.1.0, SVG Export Plug-In . SVG Version: 6.00 Build 0)  -->
<svg version="1.1" xmlns="http://www.w3.org/2000/svg" xmlns:xlink="http://www.w3.org/1999/xlink" x="0px" y="0px"
	 viewBox="0 0 24 24" style="enable-background:new 0 0 24 24;" xml:space="preserve">
<style type="text/css">
	.st0{display:none;}
	.st1{display:inline;}
	.st2{fill:#114A54;}
	.st3{fill:#778E93;}
	.st4{fill:#D4E4F1;}
	.st5{fill:#398CCB;}
	.st6{fill:#AFDFF9;}
	.st7{fill:#6AA9DD;}
	.st8{fill:#20568E;}
	.st9{fill:#2C5261;}
	.st10{fill:#295A99;}
	.st11{opacity:0.2;fill:#3E85C5;}
	.st12{opacity:0.8;fill:#AFDFF9;}
	.st13{opacity:0.5;fill:#D4E4F1;}
	.st14{fill:#FFFFFF;}
	.st15{fill:#FFFFFF;stroke:#3E85C5;stroke-miterlimit:10;}
	.st16{fill:#3E85C5;}
	.st17{fill:#21558E;}
	.st18{fill:#B3C3C4;}
	.st19{fill:#D2E3F0;}
	.st20{display:none;fill:#B3C3C4;}
	.st21{fill:#295A9A;}
	.st22{fill:none;stroke:#295A99;stroke-miterlimit:10;}
</style>
<g id="Guidelines">
</g>
<g id="Your_Icons">
	<g class="st0">
	</g>
	<g>
		<polygon class="st18" points="3.8,18.7 3.8,16.7 3.8,16.7 0,16.7 0,16.7 0,18.7 0,18.7 3.8,18.7 		"/>
		<polygon class="st18" points="3.8,7.3 3.8,7.3 3.8,5.3 3.8,5.3 0,5.3 0,5.3 0,7.3 0,7.3 		"/>
		<polygon class="st18" points="1.1,4.3 4.8,4.3 4.8,8.3 1.1,8.3 1.1,15.7 4.8,15.7 4.8,16.7 4.8,18.7 4.8,19.7 1.1,19.7 1.1,24 
			5.8,24 5.8,0 1.1,0 		"/>
		<path class="st18" d="M6.6,0v24H24V0H6.6z M14.6,20.7h-4.3v-4h4.3V20.7z M14.6,14.3h-4.3v-4h4.3V14.3z M14.6,7.9h-4.3v-4h4.3V7.9z
			 M21,20.7h-4.3v-4H21V20.7z M21,14.3h-4.3v-4H21V14.3z M21,7.9h-4.3v-4H21V7.9z"/>
	</g>
</g>
</svg>
