<?xml version="1.0" encoding="utf-8"?>
<!-- Generator: Adobe Illustrator 21.1.0, SVG Export Plug-In . SVG Version: 6.00 Build 0)  -->
<svg version="1.1" xmlns="http://www.w3.org/2000/svg" xmlns:xlink="http://www.w3.org/1999/xlink" x="0px" y="0px"
	 viewBox="0 0 24 24" style="enable-background:new 0 0 24 24;" xml:space="preserve">
<style type="text/css">
	.st0{display:none;}
	.st1{display:inline;}
	.st2{fill:#114A54;}
	.st3{fill:#778E93;}
	.st4{fill:none;}
	.st5{font-family:'Lato-Medium';}
	.st6{font-size:9px;}
	.st7{fill:#D4E4F1;}
	.st8{fill:#398CCB;}
	.st9{fill:#AFDFF9;}
	.st10{fill:#6AA9DD;}
	.st11{fill:#20568E;}
	.st12{fill:#2C5261;}
	.st13{fill:#295A99;}
	.st14{opacity:0.2;fill:#3E85C5;}
	.st15{opacity:0.8;fill:#AFDFF9;}
	.st16{opacity:0.5;fill:#D4E4F1;}
	.st17{fill:#FFFFFF;}
	.st18{fill:#FFFFFF;stroke:#3E85C5;stroke-miterlimit:10;}
	.st19{fill:#3E85C5;}
	.st20{fill:#21558E;}
	.st21{fill:#B3C3C4;}
	.st22{fill:#D2E3F0;}
	.st23{display:none;fill:#B3C3C4;}
	.st24{fill:#295A9A;}
	.st25{fill:none;stroke:#295A99;stroke-miterlimit:10;}
</style>
<g id="Guidelines">
</g>
<g id="Your_Icons">
	<g>
		<g>
			<path class="st20" d="M22.5,18.4H6.2L3.5,7.9H0.4C0.2,7.9,0,7.7,0,7.5s0.2-0.4,0.4-0.4h3.7l2.7,10.5h15.1l1.3-4.7
				c0.1-0.2,0.3-0.3,0.5-0.3c0.2,0.1,0.3,0.3,0.3,0.5L22.5,18.4z"/>
			<path class="st20" d="M11.3,24c-1.1,0-2.1-0.9-2.1-2.1c0-1.2,0.9-2.1,2.1-2.1s2.1,0.9,2.1,2.1C13.4,23.1,12.4,24,11.3,24z
				 M11.3,20.5c-0.7,0-1.3,0.6-1.3,1.4s0.6,1.4,1.3,1.4c0.7,0,1.3-0.6,1.3-1.4S12,20.5,11.3,20.5z"/>
			<path class="st20" d="M16.9,24c-1.1,0-2.1-0.9-2.1-2.1c0-1.2,0.9-2.1,2.1-2.1s2.1,0.9,2.1,2.1C19,23.1,18.1,24,16.9,24z
				 M16.9,20.5c-0.7,0-1.3,0.6-1.3,1.4s0.6,1.4,1.3,1.4c0.7,0,1.3-0.6,1.3-1.4S17.7,20.5,16.9,20.5z"/>
		</g>
		<path class="st11" d="M10.6,0h-2v0.8h2V0L10.6,0z M7.6,0H6.4v0.8l0,0c0,0,0,0.1,0,0.1h0.8V0.7h0.4V0L7.6,0z M7.1,1.8H6.4v2h0.8
			V1.8L7.1,1.8z M7.1,4.8H6.4v2h0.5v0.5h2V6.6H7.1V4.8L7.1,4.8z M11.9,6.6h-2v0.8h2V6.6L11.9,6.6z M13.6,6h-0.8v1.3h0.1l0,0h-0.1
			h0.1l0,0h0.7V6L13.6,6z M13.6,3h-0.8v2h0.8V3L13.6,3z M13.6,0h-2v0.8h1.2V2h0.8V0L13.6,0z"/>
		<rect x="15.7" class="st20" width="7.2" height="7.3"/>
		<rect x="11" y="8.4" class="st10" width="7.2" height="7.3"/>
	</g>
</g>
</svg>
