<?xml version="1.0" encoding="utf-8"?>
<!-- Generator: Adobe Illustrator 21.1.0, SVG Export Plug-In . SVG Version: 6.00 Build 0)  -->
<svg version="1.1" xmlns="http://www.w3.org/2000/svg" xmlns:xlink="http://www.w3.org/1999/xlink" x="0px" y="0px"
	 viewBox="0 0 24 24" style="enable-background:new 0 0 24 24;" xml:space="preserve">
<style type="text/css">
	.st0{display:none;}
	.st1{display:inline;}
	.st2{fill:#114A54;}
	.st3{fill:#778E93;}
	.st4{fill:#D4E4F1;}
	.st5{fill:#398CCB;}
	.st6{fill:#AFDFF9;}
	.st7{fill:#6AA9DD;}
	.st8{fill:#20568E;}
	.st9{fill:#2C5261;}
	.st10{fill:#295A99;}
	.st11{opacity:0.2;fill:#3E85C5;}
	.st12{opacity:0.8;fill:#AFDFF9;}
	.st13{opacity:0.5;fill:#D4E4F1;}
	.st14{fill:#FFFFFF;}
	.st15{fill:#FFFFFF;stroke:#3E85C5;stroke-miterlimit:10;}
	.st16{fill:#3E85C5;}
	.st17{fill:#21558E;}
	.st18{fill:#B3C3C4;}
	.st19{fill:#D2E3F0;}
	.st20{display:none;fill:#B3C3C4;}
	.st21{fill:#295A9A;}
	.st22{fill:none;stroke:#295A99;stroke-miterlimit:10;}
</style>
<g id="Guidelines">
</g>
<g id="Your_Icons">
	<g class="st0">
	</g>
	<path class="st18" d="M0,0v24h24V0H0z M7,21.5H5v-1h2V21.5z M7.8,11.3h-1V6.5L5.5,7.8L4.8,7.1L7,5l0.3-0.4l0,0l0,0L7.7,5L9.9,7
		L9.2,7.8L7.8,6.5V11.3z M10,21.5H8v-1h2V21.5z M13,21.5h-2v-1h2V21.5z M16,21.5h-2v-1h2V21.5z M15.5,18l1.3-1.4H12v-1h4.8l-1.3-1.3
		l0.7-0.7l2.1,2.2l0.4,0.3l0,0l0,0l-0.3,0.3l-2.1,2.2L15.5,18z M19,21.5h-2v-1h2V21.5z M21.5,21.5H20v-1h0.5V20h1V21.5z M21.5,18.9
		h-1v-2.3h1V18.9z M21.5,15.5h-1v-2.3h1V15.5z M21.5,12.1h-1V9.8h1V12.1z M21.5,7.6v1h-1v-1V3.5h-17v17H4v1H3V21H2.5V2.5h19V7.6z"/>
</g>
</svg>
