<?xml version="1.0" encoding="utf-8"?>
<!-- Generator: Adobe Illustrator 21.1.0, SVG Export Plug-In . SVG Version: 6.00 Build 0)  -->
<svg version="1.1" xmlns="http://www.w3.org/2000/svg" xmlns:xlink="http://www.w3.org/1999/xlink" x="0px" y="0px"
	 viewBox="0 0 24 24" style="enable-background:new 0 0 24 24;" xml:space="preserve">
<style type="text/css">
	.st0{display:none;}
	.st1{display:inline;}
	.st2{fill:#114A54;}
	.st3{fill:#778E93;}
	.st4{fill:#D4E4F1;}
	.st5{fill:#398CCB;}
	.st6{fill:#AFDFF9;}
	.st7{fill:#6AA9DD;}
	.st8{fill:#20568E;}
	.st9{fill:#2C5261;}
	.st10{fill:#295A99;}
	.st11{opacity:0.2;fill:#3E85C5;}
	.st12{opacity:0.8;fill:#AFDFF9;}
	.st13{opacity:0.5;fill:#D4E4F1;}
	.st14{fill:#FFFFFF;}
	.st15{fill:#FFFFFF;stroke:#3E85C5;stroke-miterlimit:10;}
	.st16{fill:#3E85C5;}
	.st17{fill:#21558E;}
	.st18{fill:#B3C3C4;}
	.st19{fill:#D2E3F0;}
	.st20{display:none;fill:#B3C3C4;}
	.st21{fill:#295A9A;}
	.st22{fill:none;stroke:#295A99;stroke-miterlimit:10;}
</style>
<g id="Guidelines">
</g>
<g id="Your_Icons">
	<g class="st0">
	</g>
	<g>
		<rect y="0" class="st4" width="24" height="24"/>
		<g>
			<rect x="20.5" y="16.6" class="st7" width="1" height="2.3"/>
			<rect x="20.5" y="13.2" class="st7" width="1" height="2.3"/>
			<rect x="20.5" y="9.8" class="st7" width="1" height="2.3"/>
			<polygon class="st7" points="20.5,20.5 20,20.5 20,21.5 21.5,21.5 21.5,20 20.5,20 			"/>
			<rect x="8" y="20.5" class="st7" width="2" height="1"/>
			<rect x="11" y="20.5" class="st7" width="2" height="1"/>
			<rect x="5" y="20.5" class="st7" width="2" height="1"/>
			<rect x="17" y="20.5" class="st7" width="2" height="1"/>
			<rect x="14" y="20.5" class="st7" width="2" height="1"/>
			<polygon class="st7" points="2.5,2.5 2.5,20.5 2.5,21 2.5,21.5 4,21.5 4,20.5 3.5,20.5 3.5,3.5 20.5,3.5 20.5,7.6 20.5,8.6 
				21.5,8.6 21.5,7.6 21.5,2.5 			"/>
		</g>
		<polygon class="st8" points="18.6,16.2 18.7,16.1 18.3,15.8 16.2,13.6 15.5,14.3 16.8,15.7 12,15.7 12,16.7 16.8,16.7 15.5,18 
			16.2,18.7 18.3,16.5 18.7,16.2 		"/>
		<polygon class="st8" points="9.9,7 7.7,4.9 7.3,4.6 7.3,4.6 7.3,4.6 7,5 4.8,7.1 5.5,7.8 6.8,6.5 6.8,11.3 7.8,11.3 7.8,6.5 
			9.2,7.8 		"/>
	</g>
</g>
</svg>
