<?xml version="1.0" encoding="utf-8"?>
<!-- Generator: Adobe Illustrator 22.0.0, SVG Export Plug-In . SVG Version: 6.00 Build 0)  -->
<svg version="1.1" xmlns="http://www.w3.org/2000/svg" xmlns:xlink="http://www.w3.org/1999/xlink" x="0px" y="0px"
	 viewBox="0 0 24 24" style="enable-background:new 0 0 24 24;" xml:space="preserve">
<style type="text/css">
	.st0{fill:#295A99;}
</style>
<g id="Guidelines">
</g>
<g id="Your_Icons">
	<g>
		<polygon class="st0" points="16,12 10,7.5 10,11 4.1,11 3.6,11 3.6,13 4.1,13 10,13 10,16.5 		"/>
		<path class="st0" d="M11.8,3C7.7,3,4.2,5.7,3,9.3h2.2C6.3,6.8,8.8,5,11.8,5c3.9,0,7.1,3.1,7.1,7s-3.2,7-7.1,7
			c-3,0-5.5-1.8-6.6-4.3H3c1.2,3.7,4.7,6.3,8.8,6.3c5.1,0,9.2-4,9.2-9C21,7,16.9,3,11.8,3z"/>
	</g>
</g>
</svg>
