<?xml version="1.0" encoding="utf-8"?>
<!-- Generator: Adobe Illustrator 18.0.0, SVG Export Plug-In . SVG Version: 6.00 Build 0)  -->
<!DOCTYPE svg PUBLIC "-//W3C//DTD SVG 1.1//EN" "http://www.w3.org/Graphics/SVG/1.1/DTD/svg11.dtd">
<svg version="1.1" id="Layer_1" xmlns="http://www.w3.org/2000/svg" xmlns:xlink="http://www.w3.org/1999/xlink" x="0px" y="0px"
	 viewBox="0 0 15 15" enable-background="new 0 0 15 15" xml:space="preserve">
<path fill="#FFFFFF" d="M7.5,0C3.4,0,0,3.4,0,7.5C0,11.6,3.4,15,7.5,15S15,11.6,15,7.5C15,3.4,11.6,0,7.5,0z M8.2,12
	c-0.2,0.1-0.4,0.1-0.7,0.1c-0.4,0-0.7-0.1-0.9-0.3c-0.2-0.2-0.3-0.5-0.3-0.9c0-0.1,0-0.3,0-0.4c0-0.1,0-0.3,0.1-0.5l0.4-1.7
	c0-0.2,0.1-0.3,0.1-0.5c0-0.1,0-0.3,0-0.4c0-0.2,0-0.4-0.1-0.5C6.8,6.8,6.6,6.8,6.4,6.8c-0.1,0-0.2,0-0.3,0.1C6,6.9,5.9,6.4,5.9,6.4
	c0.3-0.1,0.5-0.2,0.8-0.3C6.9,6,7.1,6,7.3,6C7.7,6,8,6.1,8.2,6.3c0.2,0.2,0.3,0.5,0.3,0.9c0,0.1,0,0.2,0,0.4c0,0.2,0,0.4-0.1,0.5
	L8.1,9.8C8,10,8,10.1,8,10.3c0,0.2,0,0.3,0,0.4c0,0.2,0,0.4,0.1,0.5c0.1,0.1,0.2,0.1,0.4,0.1c0.1,0,0.2,0,0.3-0.1
	c0.1,0,0.2,0.4,0.2,0.4C8.7,11.8,8.4,11.9,8.2,12z M8.8,5.1C8.6,5.3,8.3,5.4,8,5.4c-0.3,0-0.6-0.1-0.8-0.3C7,4.9,6.9,4.6,6.9,4.3
	C6.9,4,7,3.7,7.2,3.5C7.4,3.3,7.7,3.2,8,3.2c0.3,0,0.6,0.1,0.8,0.3C9,3.7,9.1,4,9.1,4.3S9,4.9,8.8,5.1z"/>
</svg>
