<?xml version="1.0" encoding="utf-8"?>
<!-- Generator: Adobe Illustrator 22.0.0, SVG Export Plug-In . SVG Version: 6.00 Build 0)  -->
<svg version="1.1" id="Your_Icons" xmlns="http://www.w3.org/2000/svg" xmlns:xlink="http://www.w3.org/1999/xlink" x="0px" y="0px"
	 viewBox="0 0 24 24" style="enable-background:new 0 0 24 24;" xml:space="preserve">
<style type="text/css">
	.st0{fill:#295A99;}
</style>
<g>
	<polygon class="st0" points="18.1,13.9 18.1,18.4 5.9,18.4 5.9,13.9 4,13.9 4,20.4 20,20.4 20,13.9 	"/>
	<path class="st0" d="M6.5,10.8l0.6,0.1c0.1,0.5,0.3,0.9,0.5,1.3l-0.3,0.5c-0.1,0.2-0.1,0.4,0,0.5l1.1,1.1c0.1,0.1,0.1,0.1,0.3,0.1
		c0.1,0,0.2-0.1,0.3-0.1L9.5,14c0.4,0.2,0.8,0.4,1.2,0.5l0.1,0.6c0.1,0.2,0.2,0.4,0.4,0.4h1.6c0.2,0,0.3-0.2,0.4-0.4l0.1-0.6
		c0.5-0.1,0.8-0.3,1.2-0.5l0.5,0.3c0.1,0.1,0.2,0.1,0.3,0.1c0.1,0,0.2,0,0.3-0.1l1.1-1.1c0.1-0.1,0.1-0.4,0-0.5l-0.3-0.5
		c0.2-0.4,0.4-0.8,0.5-1.3l0.6-0.1c0.2-0.1,0.4-0.2,0.4-0.4V8.8c-0.1-0.2-0.3-0.3-0.5-0.4l-0.6-0.1c-0.1-0.5-0.3-0.9-0.5-1.3
		l0.3-0.5c0.1-0.2,0.1-0.4,0-0.5l-1.1-1.1c-0.1-0.1-0.1-0.1-0.3-0.1c-0.1,0-0.2,0.1-0.3,0.1l-0.5,0.3c-0.4-0.2-0.8-0.4-1.2-0.5L13,4
		c0-0.2-0.1-0.4-0.3-0.4h-1.6c-0.2,0-0.3,0.2-0.4,0.4l-0.1,0.6c-0.5,0.1-0.8,0.3-1.2,0.5L8.9,4.8C8.8,4.7,8.7,4.6,8.6,4.6
		c-0.1,0-0.2,0-0.3,0.1L7.3,5.9C7.1,6,7.2,6.3,7.3,6.4L7.6,7C7.3,7.4,7.1,7.8,7.1,8.2L6.5,8.4C6.3,8.4,6.1,8.6,6.1,8.8v1.6
		C6.1,10.6,6.3,10.7,6.5,10.8z M11.9,6.8c1.5,0,2.7,1.2,2.7,2.7c0,1.5-1.2,2.7-2.7,2.7s-2.7-1.2-2.7-2.7C9.3,8,10.4,6.8,11.9,6.8z"
		/>
</g>
</svg>
