<?xml version="1.0" encoding="utf-8"?>
<!-- Generator: Adobe Illustrator 21.1.0, SVG Export Plug-In . SVG Version: 6.00 Build 0)  -->
<svg version="1.1" xmlns="http://www.w3.org/2000/svg" xmlns:xlink="http://www.w3.org/1999/xlink" x="0px" y="0px"
	 viewBox="0 0 24 24" style="enable-background:new 0 0 24 24;" xml:space="preserve">
<style type="text/css">
	.st0{display:none;}
	.st1{display:inline;}
	.st2{fill:#114A54;}
	.st3{fill:#778E93;}
	.st4{fill:#D4E4F1;}
	.st5{fill:#398CCB;}
	.st6{fill:#AFDFF9;}
	.st7{fill:#6AA9DD;}
	.st8{fill:#20568E;}
	.st9{fill:#2C5261;}
	.st10{fill:#295A99;}
	.st11{opacity:0.2;fill:#3E85C5;}
	.st12{opacity:0.8;fill:#AFDFF9;}
	.st13{opacity:0.5;fill:#D4E4F1;}
	.st14{fill:#FFFFFF;}
	.st15{fill:#FFFFFF;stroke:#3E85C5;stroke-miterlimit:10;}
	.st16{fill:#3E85C5;}
	.st17{fill:#21558E;}
	.st18{fill:#B3C3C4;}
	.st19{fill:#D2E3F0;}
	.st20{display:none;fill:#B3C3C4;}
	.st21{fill:#295A9A;}
	.st22{fill:none;stroke:#295A99;stroke-miterlimit:10;}
</style>
<g id="Guidelines">
</g>
<g id="Your_Icons">
	<g class="st0">
	</g>
	<g>
		<g>
			<g>
				<ellipse transform="matrix(0.5 -0.866 0.866 0.5 -4.3921 16.3924)" class="st4" cx="12" cy="12" rx="12" ry="12"/>
				<ellipse transform="matrix(0.5 -0.866 0.866 0.5 -4.3925 16.3922)" class="st7" cx="12" cy="12" rx="8.7" ry="8.7"/>
			</g>
		</g>
		<path class="st10" d="M7,16.2l1.4,1.4c0.3,0.3,0.7,0.3,1,0c0.3-0.3,0.3-0.7,0-1l-0.9-0.9L9.3,15l0.9,0.9c0.3,0.3,0.7,0.3,1,0
			c0.3-0.3,0.3-0.7,0-1L10.3,14l1.3-1.3c1.5,1.3,3.7,1.2,5-0.3s1.2-3.7-0.3-5s-3.7-1.2-5,0.3c-0.9,1.1-1.2,2.6-0.6,3.9L7,15.2
			C6.7,15.5,6.7,16,7,16.2z M14.8,8.3c0.5,0,0.9,0.4,0.9,0.9s-0.4,0.9-0.9,0.9s-0.9-0.4-0.9-0.9C13.9,8.7,14.3,8.3,14.8,8.3z"/>
	</g>
</g>
</svg>
