<?xml version="1.0" encoding="utf-8"?>
<!-- Generator: Adobe Illustrator 16.0.0, SVG Export Plug-In . SVG Version: 6.00 Build 0)  -->
<!DOCTYPE svg PUBLIC "-//W3C//DTD SVG 1.1//EN" "http://www.w3.org/Graphics/SVG/1.1/DTD/svg11.dtd">
<svg version="1.1" id="Layer_1" xmlns="http://www.w3.org/2000/svg" xmlns:xlink="http://www.w3.org/1999/xlink" x="0px" y="0px"
	 width="20px" height="20px" viewBox="0 0 20 20" enable-background="new 0 0 20 20" xml:space="preserve">
<g>
	<path fill="#ADADAE" d="M8.189,10.062c0.111-0.136,0.1-0.345-0.037-0.456L6.686,8.299c-0.443,0.727-0.628,1.578-0.555,2.417
		l1.911-0.556C8.104,10.147,8.152,10.111,8.189,10.062z"/>
	<path fill="#ADADAE" d="M8.313,11.307L6.353,11.64c0.296,0.813,0.851,1.492,1.541,1.936l0.753-1.812
		c0.023-0.062,0.023-0.123,0.012-0.197C8.622,11.405,8.474,11.295,8.313,11.307z"/>
	<path fill="#ADADAE" d="M9.065,8.767c0.185,0,0.32-0.147,0.333-0.32l0.11-1.973C9.373,6.498,9.25,6.523,9.114,6.548
		c-0.703,0.16-1.331,0.506-1.837,1.011l1.64,1.172C8.954,8.755,9.016,8.767,9.065,8.767z"/>
	<polygon fill="#ADADAE" points="9.447,10.752 9.99,11.011 10.532,10.752 10.655,10.173 10.286,9.704 9.682,9.704 9.312,10.173 	"/>
	<path fill="#ADADAE" d="M10.644,8.632c0.11,0.135,0.296,0.16,0.431,0.073l1.615-1.146c-0.592-0.592-1.368-0.974-2.219-1.072
		l0.111,2.01C10.594,8.545,10.606,8.595,10.644,8.632z"/>
	<path fill="#ADADAE" d="M11.47,11.331c-0.148,0.074-0.21,0.234-0.173,0.383l0.777,1.861c0.468-0.309,0.875-0.703,1.184-1.195
		c0.16-0.235,0.283-0.48,0.357-0.753l-1.973-0.332C11.58,11.295,11.519,11.307,11.47,11.331z"/>
	<path fill="#ADADAE" d="M19.225,11.812l-1.541-6.695c-0.1-0.443-0.395-0.801-0.802-0.998l-6.238-2.972
		C10.446,1.049,10.224,1,10.003,1C9.78,1,9.559,1.049,9.361,1.147L3.122,4.132C2.717,4.329,2.42,4.687,2.321,5.131L0.78,11.825
		c-0.11,0.443,0,0.899,0.283,1.257l4.315,5.363C5.662,18.803,6.082,19,6.525,19l6.953-0.012c0.444,0,0.863-0.21,1.147-0.556
		l4.314-5.363C19.225,12.712,19.323,12.257,19.225,11.812z M16.203,12.046c-0.036,0-0.062,0-0.098-0.012
		c-0.013-0.013-0.024-0.013-0.037-0.013c-0.025,0-0.05-0.012-0.074-0.012c-0.086-0.025-0.147-0.05-0.222-0.087
		c-0.037-0.012-0.074-0.037-0.111-0.049h-0.012c-0.234-0.087-0.444-0.16-0.642-0.186h-0.024c-0.074,0-0.111,0.037-0.16,0.062
		c-0.013,0-0.013,0.012-0.024,0.012l-0.148-0.023c-0.123,0.381-0.296,0.764-0.518,1.108c-0.42,0.666-0.975,1.209-1.628,1.591
		l0.062,0.147c0,0.013-0.012,0.013-0.012,0.024c-0.013,0.062-0.037,0.112-0.013,0.197c0.062,0.186,0.185,0.371,0.32,0.58V15.4
		c0.024,0.036,0.05,0.062,0.074,0.099c0.05,0.062,0.099,0.123,0.136,0.197c0.013,0.012,0.025,0.036,0.037,0.062
		c0,0.012,0.012,0.012,0.012,0.024c0.05,0.099,0.05,0.209,0.025,0.308c-0.025,0.1-0.1,0.174-0.186,0.222
		c-0.049,0.025-0.099,0.037-0.147,0.037c-0.147,0-0.296-0.085-0.37-0.233c0,0-0.013-0.012-0.013-0.025
		c-0.012-0.024-0.024-0.036-0.036-0.061c-0.038-0.074-0.05-0.148-0.074-0.223c-0.013-0.037-0.024-0.074-0.037-0.11v-0.013
		c-0.087-0.234-0.16-0.443-0.259-0.616c-0.049-0.074-0.099-0.1-0.16-0.111c-0.013-0.013-0.013-0.013-0.025-0.013l-0.073-0.136
		c-0.21,0.075-0.42,0.136-0.641,0.186c-0.346,0.087-0.716,0.123-1.074,0.123c-0.591,0-1.183-0.11-1.726-0.32l-0.086,0.16
		c-0.013,0.012-0.013,0.012-0.024,0.012c-0.05,0.025-0.111,0.038-0.16,0.112c-0.11,0.172-0.173,0.369-0.259,0.616
		c-0.013,0.036-0.025,0.073-0.037,0.11c-0.025,0.074-0.037,0.136-0.074,0.223c-0.013,0.012-0.024,0.036-0.037,0.061
		c0,0-0.013,0.014-0.013,0.025c-0.073,0.135-0.222,0.233-0.369,0.233c-0.05,0-0.099-0.012-0.148-0.037
		c-0.185-0.086-0.259-0.32-0.16-0.529c0,0,0.012-0.013,0.012-0.024c0.014-0.025,0.025-0.05,0.038-0.062
		c0.049-0.074,0.086-0.136,0.136-0.197c0.024-0.037,0.049-0.062,0.073-0.099v-0.013c0.136-0.209,0.247-0.395,0.321-0.58
		c0.024-0.085,0-0.147-0.025-0.197c0-0.012-0.012-0.012-0.012-0.024l0.073-0.16c-0.185-0.11-0.357-0.222-0.53-0.357
		c-0.752-0.592-1.318-1.405-1.615-2.317l-0.172,0.024c-0.013,0-0.013-0.013-0.025-0.013c-0.036-0.023-0.086-0.062-0.16-0.062H5.046
		C4.849,11.726,4.64,11.8,4.404,11.886H4.393c-0.037,0.014-0.073,0.037-0.111,0.05c-0.074,0.037-0.136,0.062-0.222,0.086
		c-0.024,0-0.049,0.013-0.074,0.013c0,0.012-0.012,0.012-0.024,0.012C3.924,12.06,3.899,12.06,3.862,12.06
		c-0.197,0-0.357-0.112-0.395-0.284c-0.037-0.197,0.099-0.407,0.32-0.456c0.013-0.013,0.025-0.013,0.037-0.013
		c0.025,0,0.05-0.012,0.074-0.012c0.086-0.013,0.16-0.025,0.234-0.025c0.037-0.012,0.086-0.012,0.124-0.012H4.27
		c0.259-0.024,0.48-0.05,0.666-0.111c0.073-0.037,0.11-0.086,0.135-0.136c0-0.013,0.013-0.013,0.013-0.024l0.16-0.049
		c-0.16-1.136,0.074-2.281,0.69-3.256C5.946,7.646,5.971,7.62,5.995,7.583l-0.123-0.11V7.448c0-0.062,0-0.124-0.062-0.186
		C5.662,7.128,5.478,7.017,5.256,6.881C5.219,6.856,5.182,6.832,5.145,6.818C5.07,6.782,5.009,6.745,4.936,6.696
		C4.91,6.684,4.898,6.658,4.874,6.646c-0.013,0-0.013-0.013-0.025-0.013C4.677,6.486,4.64,6.239,4.763,6.079
		c0.062-0.086,0.173-0.136,0.283-0.136c0.099,0,0.197,0.037,0.271,0.099c0,0.013,0.012,0.013,0.024,0.025
		c0.024,0.024,0.05,0.037,0.062,0.049c0.062,0.062,0.111,0.111,0.161,0.173C5.602,6.313,5.626,6.351,5.65,6.375
		C5.823,6.56,5.983,6.72,6.144,6.832c0.037,0.024,0.074,0.036,0.11,0.036c0.025,0,0.05-0.012,0.074-0.012h0.024l0.124,0.086
		c0.652-0.689,1.491-1.171,2.44-1.381c0.223-0.05,0.444-0.073,0.667-0.099l0.012-0.16C9.607,5.291,9.607,5.291,9.62,5.277
		c0.037-0.036,0.086-0.073,0.099-0.16C9.744,4.92,9.706,4.698,9.682,4.452V4.439C9.67,4.391,9.67,4.354,9.657,4.316
		C9.632,4.242,9.62,4.169,9.62,4.082V4.009V3.983c0-0.111,0.037-0.209,0.11-0.283c0.075-0.074,0.174-0.124,0.272-0.124
		c0.209,0,0.382,0.186,0.382,0.407v0.037v0.074c-0.013,0.086-0.024,0.16-0.037,0.234c-0.013,0.037-0.024,0.086-0.024,0.123v0.013
		c-0.025,0.247-0.05,0.468-0.037,0.666c0.012,0.086,0.062,0.122,0.099,0.16c0.012,0.012,0.012,0.012,0.024,0.024l0.013,0.16
		c0.937,0.086,1.836,0.443,2.576,1.022c0.173,0.148,0.346,0.296,0.506,0.469l0.147-0.099h0.025c0.024,0.013,0.049,0.013,0.073,0.013
		c0.037,0,0.074-0.013,0.111-0.037c0.16-0.11,0.32-0.259,0.493-0.444c0.037-0.024,0.062-0.062,0.086-0.086
		c0.05-0.061,0.099-0.111,0.16-0.173c0.025-0.012,0.038-0.036,0.062-0.049c0.013-0.013,0.013-0.013,0.025-0.024
		c0.086-0.062,0.172-0.099,0.271-0.099c0.11,0,0.221,0.049,0.283,0.136c0.123,0.16,0.086,0.407-0.086,0.554
		c0,0.014-0.013,0.014-0.025,0.025c-0.024,0.024-0.049,0.036-0.062,0.05c-0.074,0.049-0.136,0.085-0.21,0.123
		c-0.036,0.024-0.073,0.037-0.11,0.062c-0.222,0.136-0.407,0.246-0.555,0.382c-0.05,0.062-0.062,0.123-0.062,0.185V7.51l-0.124,0.11
		c0.32,0.494,0.556,1.036,0.69,1.616c0.136,0.579,0.16,1.17,0.087,1.738l0.16,0.048c0,0.014,0.013,0.014,0.013,0.025
		c0.024,0.05,0.049,0.099,0.135,0.135c0.197,0.062,0.407,0.087,0.666,0.112h0.013c0.049,0.012,0.086,0.012,0.123,0.012
		c0.074,0,0.147,0.013,0.234,0.024c0.024,0,0.05,0.013,0.073,0.013c0,0.013,0.013,0.013,0.025,0.013h0.013
		c0.222,0.062,0.357,0.259,0.357,0.406C16.549,11.923,16.389,12.046,16.203,12.046z"/>
	<path fill="#ADADAE" d="M13.281,8.299L11.79,9.642c-0.037,0.038-0.062,0.087-0.074,0.137c-0.037,0.173,0.062,0.345,0.234,0.395
		l1.887,0.543c0.037-0.408,0.012-0.827-0.087-1.246C13.651,9.038,13.491,8.644,13.281,8.299z"/>
	<path fill="#ADADAE" d="M10.113,12.145c-0.136-0.073-0.296-0.024-0.395,0.087l-0.975,1.763c0.396,0.124,0.814,0.197,1.246,0.197
		c0.296,0,0.579-0.036,0.863-0.099c0.123-0.036,0.246-0.062,0.357-0.099l-0.949-1.714C10.224,12.231,10.175,12.183,10.113,12.145z"
		/>
</g>
</svg>
