<?xml version="1.0" encoding="utf-8"?>
<!-- Generator: Adobe Illustrator 22.0.0, SVG Export Plug-In . SVG Version: 6.00 Build 0)  -->
<svg version="1.1" id="Layer_1" xmlns="http://www.w3.org/2000/svg" xmlns:xlink="http://www.w3.org/1999/xlink" x="0px" y="0px"
	 viewBox="0 0 24 24" style="enable-background:new 0 0 24 24;" xml:space="preserve">
<style type="text/css">
	.st0{fill:#295A99;}
</style>
<g>
	<path class="st0" d="M15.7,8.9L15.7,8.9c0.1,0,0.2,0,0.4,0c-0.6-0.7-1.4-1.2-2.2-1.5c0.4,0.5,0.8,1,1.1,1.6C15.2,9,15.5,9,15.7,8.9
		z"/>
	<path class="st0" d="M10.1,12.4c0,0.1,0,0.3,0,0.4v-0.1c0.1,0.4,0.2,1,0.3,1.3c0.5,0,1-0.1,1.5-0.1c0-0.3,0-0.5,0-0.8
		c0-0.3,0-0.5,0-0.7c-0.1,0-0.2,0-0.2,0C11.1,12.4,10.6,12.4,10.1,12.4z"/>
	<path class="st0" d="M11.2,8.3l-0.4,0.8c0.1,0,0.2,0,0.3,0c0.3,0,0.6,0,0.9,0c0-0.3,0-0.6,0-0.9c0-0.3,0-0.5,0-0.8
		C11.7,7.7,11.4,8,11.2,8.3z"/>
	<path class="st0" d="M11.3,15.7L11.3,15.7c0.1,0.2,0.4,0.5,0.7,0.7c0-0.5,0-1,0-1.6c-0.4,0-0.8,0-1.2,0
		C10.9,15.2,11.1,15.4,11.3,15.7z"/>
	<path class="st0" d="M9,15L9,15c-0.1,0-0.2,0-0.4,0c0.6,0.7,1.3,1.2,2.2,1.5c-0.4-0.5-0.8-1-1.1-1.6C9.5,15,9.3,15,9,15z"/>
	<path class="st0" d="M9.1,11.6c0-0.6,0.2-1.2,0.3-1.7C9,9.8,8.6,9.8,8.2,9.7c-0.3,0.6-0.5,1.2-0.6,1.9c0.3,0,0.7,0,1,0
		C8.7,11.6,8.9,11.6,9.1,11.6z"/>
	<path class="st0" d="M9,8.9C9.2,9,9.5,9,9.8,9C9.9,8.9,10,8.8,10,8.6c0.2-0.3,0.3-0.7,0.6-0.9c0.1-0.1,0.2-0.2,0.2-0.3
		C10,7.7,9.3,8.2,8.7,8.9C8.8,8.9,8.9,8.9,9,8.9L9,8.9z"/>
	<path class="st0" d="M9.4,14c-0.2-0.5-0.2-1.1-0.3-1.6c-0.5,0-1,0-1.5,0c0,0,0,0-0.1,0c0.1,0.7,0.3,1.3,0.6,1.9
		C8.6,14.2,9,14.2,9.4,14C9.4,14.1,9.4,14.1,9.4,14z"/>
	<path class="st0" d="M10.1,11.2L10.1,11.2c0,0.1,0,0.2,0,0.4c0.2,0,0.4,0,0.5,0c0.5,0,0.9,0,1.3,0c0-0.6,0-1.1,0-1.6
		c-0.5,0-1,0-1.5-0.1C10.3,10.3,10.2,10.7,10.1,11.2z"/>
	<path class="st0" d="M15.3,9.8C15.3,9.9,15.3,9.9,15.3,9.8c0.2,0.6,0.3,1.2,0.3,1.7c0.5,0,1,0,1.4,0c0.1,0,0.1,0,0.2,0
		c-0.1-0.7-0.3-1.3-0.6-1.9C16.2,9.7,15.7,9.8,15.3,9.8z"/>
	<path class="st0" d="M15.6,12.4c0,0.6-0.2,1.2-0.4,1.7c0.5,0,1,0.1,1.4,0.2c0.3-0.6,0.5-1.2,0.6-1.9c-0.4,0-0.8,0-1.1,0
		C16,12.4,15.8,12.4,15.6,12.4z"/>
	<path class="st0" d="M12.4,2C7,2,2.6,6.5,2.6,12c0,1.2,0.2,2.3,0.6,3.4l-1.4,5.8l5-1c1.6,1.1,3.5,1.8,5.6,1.8c5.4,0,9.8-4.5,9.8-10
		S17.8,2,12.4,2z M12.4,18c-3.3,0-6-2.7-6-6s2.7-6,6-6s6,2.7,6,6S15.7,18,12.4,18z"/>
	<path class="st0" d="M13.4,8.2L13.4,8.2C13.3,8,13,7.7,12.7,7.5c0,0.6,0,1.1,0,1.6c0.4,0,0.8,0,1.3,0C13.8,8.8,13.6,8.5,13.4,8.2z"
		/>
	<path class="st0" d="M15.8,15c-0.3,0-0.6-0.1-0.9-0.1c-0.1,0.1-0.1,0.3-0.2,0.4c-0.2,0.3-0.3,0.7-0.6,0.9c-0.1,0.1-0.2,0.3-0.3,0.4
		c0.9-0.3,1.8-0.8,2.4-1.6C16,15.1,15.9,15.1,15.8,15L15.8,15z"/>
	<path class="st0" d="M14.6,11.6c0-0.7-0.2-1.3-0.3-1.7c-0.5,0-1.1,0.1-1.6,0.1c0,0.3,0,0.5,0,0.8c0,0.2,0,0.5,0,0.7
		c0.1,0,0.2,0,0.2,0C13.6,11.6,14.1,11.6,14.6,11.6z"/>
	<path class="st0" d="M14.6,12.7L14.6,12.7c0-0.1,0-0.2,0.1-0.3c-0.2,0-0.4,0-0.6,0c-0.5,0-0.9,0-1.3,0c0,0.6,0,1.1,0,1.6
		c0.5,0,1,0,1.5,0.1C14.4,13.6,14.5,13.2,14.6,12.7z"/>
	<path class="st0" d="M13.9,14.9c-0.1,0-0.1,0-0.2,0c-0.3,0-0.7,0-1,0c0,0.3,0,0.5,0,0.8c0,0.3,0,0.5,0,0.8c0.3-0.2,0.5-0.5,0.7-0.8
		l-0.1,0.1C13.6,15.5,13.8,15.2,13.9,14.9z"/>
</g>
</svg>
