<?xml version="1.0" encoding="utf-8"?>
<!-- Generator: Adobe Illustrator 22.0.0, SVG Export Plug-In . SVG Version: 6.00 Build 0)  -->
<svg version="1.1" id="Your_Icons" xmlns="http://www.w3.org/2000/svg" xmlns:xlink="http://www.w3.org/1999/xlink" x="0px" y="0px"
	 viewBox="0 0 24 24" style="enable-background:new 0 0 24 24;" xml:space="preserve">
<style type="text/css">
	.st0{fill:#295A99;}
</style>
<g>
	<g>
		<path class="st0" d="M6.4,15.2L9,14.1c0,0.1,0.1,0.2,0.1,0.3c0.1,0.1,0.1,0.2,0.2,0.3c0.4,0.8,1.2,1.3,2.1,1.3
			c0.9,0,1.7-0.5,2.1-1.3l0,0c0.1-0.1,0.1-0.2,0.2-0.3c0-0.1,0.1-0.2,0.1-0.3l2.6,1.1c0.3,0.2,0.6-0.1,0.6-0.4l-0.6-2.2
			c-0.3-1.1-0.9-2.1-1.8-2.9c-0.1-2.3-1-4.5-2.7-6.2l-0.4-0.4c-0.1-0.1-0.3-0.1-0.4,0l-0.4,0.4C9.2,5.2,8.3,7.4,8.2,9.7
			c-0.9,0.8-1.5,1.8-1.8,2.9l-0.6,2.2C5.7,15.1,6.1,15.3,6.4,15.2z M11.5,6.4c0.7,0,1.3,0.6,1.3,1.3S12.2,9,11.5,9s-1.3-0.6-1.3-1.3
			S10.8,6.4,11.5,6.4z"/>
		<path class="st0" d="M11.6,20.9l1.1-2.3c0.3-0.5,0.2-1.2-0.3-1.6c-0.6-0.6-1.4-0.6-2,0c-0.4,0.4-0.5,1.1-0.3,1.6l1.1,2.3
			C11.4,21,11.6,21,11.6,20.9z"/>
	</g>
</g>
</svg>
