<?xml version="1.0" encoding="utf-8"?>
<!-- Generator: Adobe Illustrator 16.0.0, SVG Export Plug-In . SVG Version: 6.00 Build 0)  -->
<!DOCTYPE svg PUBLIC "-//W3C//DTD SVG 1.1//EN" "http://www.w3.org/Graphics/SVG/1.1/DTD/svg11.dtd">
<svg version="1.1" id="Layer_1" xmlns="http://www.w3.org/2000/svg" xmlns:xlink="http://www.w3.org/1999/xlink" x="0px" y="0px"
	 width="15px" height="15px" viewBox="0 0 15 15" enable-background="new 0 0 15 15" xml:space="preserve">
<g>
	<path fill="#FFFFFF" d="M7.5,3.516C5.273,3.43,3.6,5.397,3.519,7.497C3.433,9.724,5.4,11.397,7.5,11.479
		c2.228,0.086,3.901-1.883,3.982-3.982C11.396,5.269,9.729,3.602,7.5,3.516z M7.5,10.444c-1.652,0.062-2.887-1.391-2.946-2.947
		C4.49,5.845,5.943,4.611,7.5,4.551c1.652-0.063,2.887,1.389,2.946,2.946C10.383,9.151,9.154,10.38,7.5,10.444z"/>
	<path fill="#FFFFFF" d="M8.019,2.054c0-0.518,0-1.035,0-1.553c0-0.668-1.036-0.668-1.036,0c0,0.518,0,1.035,0,1.553
		C6.982,2.722,8.019,2.722,8.019,2.054z"/>
	<path fill="#FFFFFF" d="M6.982,12.946c0,0.518,0,1.035,0,1.553c0,0.668,1.036,0.668,1.036,0c0-0.518,0-1.035,0-1.553
		C8.019,12.278,6.982,12.278,6.982,12.946z"/>
	<path fill="#FFFFFF" d="M2.055,6.982c-0.518,0-1.035,0-1.554,0c-0.668,0-0.668,1.035,0,1.035c0.519,0,1.036,0,1.554,0
		C2.723,8.018,2.723,6.982,2.055,6.982z"/>
	<path fill="#FFFFFF" d="M14.499,6.982c-0.518,0-1.034,0-1.552,0c-0.668,0-0.668,1.035,0,1.035c0.518,0,1.034,0,1.552,0
		C15.167,8.018,15.167,6.982,14.499,6.982z"/>
	<path fill="#FFFFFF" d="M11.762,3.971c0.366-0.366,0.732-0.732,1.098-1.098c0.473-0.473-0.26-1.205-0.732-0.732
		c-0.365,0.366-0.731,0.732-1.098,1.098C10.557,3.711,11.289,4.444,11.762,3.971z"/>
	<path fill="#FFFFFF" d="M3.239,11.028c-0.366,0.367-0.731,0.732-1.098,1.098c-0.473,0.473,0.26,1.205,0.732,0.732
		c0.365-0.365,0.731-0.732,1.098-1.098C4.444,11.288,3.712,10.556,3.239,11.028z"/>
	<path fill="#FFFFFF" d="M3.239,3.971c0.473,0.473,1.205-0.26,0.732-0.732C3.605,2.873,3.239,2.507,2.874,2.141
		C2.401,1.668,1.669,2.4,2.142,2.873C2.508,3.239,2.873,3.605,3.239,3.971z"/>
	<path fill="#FFFFFF" d="M11.763,11.028c-0.473-0.473-1.205,0.26-0.732,0.732c0.366,0.365,0.731,0.732,1.098,1.098
		c0.473,0.473,1.204-0.26,0.732-0.732C12.494,11.761,12.128,11.396,11.763,11.028z"/>
</g>
</svg>
