<?xml version="1.0" encoding="utf-8"?>
<!-- Generator: Adobe Illustrator 21.1.0, SVG Export Plug-In . SVG Version: 6.00 Build 0)  -->
<svg version="1.1" id="Layer_1" xmlns="http://www.w3.org/2000/svg" xmlns:xlink="http://www.w3.org/1999/xlink" x="0px" y="0px"
	 viewBox="0 0 20 20" style="enable-background:new 0 0 20 20;" xml:space="preserve">
<style type="text/css">
	.st0{fill:#FFFFFF;}
	.st1{fill:#C6D1DC;}
	.st2{fill:#8BCA35;}
	.st3{fill:#D70E0E;}
</style>
<path class="st0" d="M20,7.9h-4c-0.9-2.5-3.2-4.4-6-4.4S4.9,5.3,4,7.9H0v1h3.8C3.7,9.2,3.7,9.6,3.7,10s0,0.8,0.1,1.1H0v1h4
	c0.9,2.5,3.2,4.4,6,4.4s5.1-1.8,6-4.4h4v-1h-3.8c0.1-0.4,0.1-0.7,0.1-1.1s0-0.8-0.1-1.1H20V7.9z M10,5.5c1.7,0,3.1,1,3.8,2.4H6.2
	C6.9,6.5,8.3,5.5,10,5.5z M10,14.5c-1.7,0-3.1-1-3.8-2.4h7.6C13.1,13.5,11.7,14.5,10,14.5z M14.3,10c0,0.4-0.1,0.8-0.2,1.1H5.8
	c-0.1-0.4-0.2-0.7-0.2-1.1s0.1-0.8,0.2-1.1h8.4C14.3,9.2,14.3,9.6,14.3,10z"/>
</svg>
