<?xml version="1.0" encoding="utf-8"?>
<!-- Generator: Adobe Illustrator 21.1.0, SVG Export Plug-In . SVG Version: 6.00 Build 0)  -->
<svg version="1.1" xmlns="http://www.w3.org/2000/svg" xmlns:xlink="http://www.w3.org/1999/xlink" x="0px" y="0px"
	 viewBox="0 0 24 24" style="enable-background:new 0 0 24 24;" xml:space="preserve">
<style type="text/css">
	.st0{display:none;}
	.st1{display:inline;}
	.st2{fill:#114A54;}
	.st3{fill:#778E93;}
	.st4{fill:#D4E4F1;}
	.st5{fill:#398CCB;}
	.st6{fill:#AFDFF9;}
	.st7{fill:#6AA9DD;}
	.st8{fill:#20568E;}
	.st9{fill:#2C5261;}
	.st10{fill:#295A99;}
	.st11{opacity:0.2;fill:#3E85C5;}
	.st12{opacity:0.8;fill:#AFDFF9;}
	.st13{opacity:0.5;fill:#D4E4F1;}
	.st14{fill:#FFFFFF;}
	.st15{fill:#FFFFFF;stroke:#3E85C5;stroke-miterlimit:10;}
	.st16{fill:#3E85C5;}
	.st17{fill:#21558E;}
	.st18{fill:#B3C3C4;}
	.st19{fill:#D2E3F0;}
	.st20{display:none;fill:#B3C3C4;}
	.st21{fill:#295A9A;}
	.st22{fill:none;stroke:#295A99;stroke-miterlimit:10;}
</style>
<g id="Guidelines">
</g>
<g id="Your_Icons">
	<g class="st0">
	</g>
	<g>
		<path class="st18" d="M21.7,9.6c-1.1,0-2.1,0.9-2.3,2h-5.3L17.3,7c0.4,0.2,0.8,0.3,1.2,0.3c0.6,0,1.2-0.2,1.6-0.7
			c0.9-0.9,0.9-2.5,0-3.4c-0.5-0.5-1.1-0.7-1.7-0.7c0,0,0,0,0,0c-0.6,0-1.2,0.2-1.6,0.7l0,0c-0.8,0.8-0.9,2.2-0.2,3.1l-3.6,5.3h-0.6
			v1h0.6l3.6,5.2c-0.6,0.9-0.5,2.2,0.3,3c0.4,0.4,1,0.7,1.6,0.7c0.6,0,1.2-0.3,1.7-0.7c0.9-1,0.9-2.5,0-3.4l0,0
			c-0.4-0.4-1-0.7-1.6-0.7c0,0,0,0,0,0c-0.5,0-0.9,0.1-1.3,0.4l-3.1-4.5h5.3c0.2,1.1,1.1,1.9,2.2,1.9c1.3,0,2.3-1.1,2.3-2.4
			S23,9.6,21.7,9.6z M17.4,3.9c0.2-0.3,0.6-0.4,0.9-0.4c0,0,0,0,0,0c0.4,0,0.7,0.2,1,0.4c0.5,0.6,0.6,1.5,0,2
			c-0.5,0.5-1.4,0.5-1.9,0C16.9,5.3,16.9,4.4,17.4,3.9z M17.5,18.1c0.3-0.3,0.6-0.4,1-0.4h0c0.4,0,0.7,0.1,0.9,0.4
			c0.5,0.5,0.5,1.4,0,2c-0.3,0.3-0.6,0.4-1,0.4c-0.4,0-0.7-0.1-0.9-0.4C17,19.6,17,18.7,17.5,18.1z M21.7,13.5
			c-0.7,0-1.3-0.7-1.3-1.5c0-0.8,0.6-1.5,1.3-1.5c0.7,0,1.3,0.7,1.3,1.5C23,12.8,22.4,13.5,21.7,13.5z"/>
		<rect x="10.4" y="11.6" class="st18" width="1" height="1"/>
		<rect x="6.6" y="11.6" class="st18" width="1" height="1"/>
		<rect x="8.5" y="11.6" class="st18" width="1" height="1"/>
		<path class="st18" d="M1.5,9.4c-1.4,0.8-1.9,2.6-1.1,4.1s2.6,1.9,4.1,1.1c1.4-0.8,1.9-2.6,1.1-4.1C4.7,9.1,2.9,8.6,1.5,9.4z
			 M4,13.7C3,14.2,1.8,13.9,1.3,13C1.1,12.7,1,12.4,1,12l3.9,0C4.9,12.7,4.6,13.3,4,13.7z"/>
	</g>
</g>
</svg>
