<?xml version="1.0" encoding="utf-8"?>
<!-- Generator: Adobe Illustrator 21.1.0, SVG Export Plug-In . SVG Version: 6.00 Build 0)  -->
<svg version="1.1" id="Layer_1" xmlns="http://www.w3.org/2000/svg" xmlns:xlink="http://www.w3.org/1999/xlink" x="0px" y="0px"
	 viewBox="0 0 25 25" style="enable-background:new 0 0 25 25;" xml:space="preserve">
<style type="text/css">
	.st0{fill:#134A54;}
</style>
<path class="st0" d="M21,1.5H4C2.6,1.5,1.5,2.6,1.5,4V21c0,1.4,1.1,2.5,2.5,2.5H21c1.4,0,2.5-1.1,2.5-2.5V4
	C23.5,2.6,22.4,1.5,21,1.5z M20.6,13.5c-0.1,0.1-0.7,0.4-1.1,0.7c-0.7,0.4-1,0.7-1.3,0.8c-0.4,0.2-0.7,0.1-0.9,0
	c-0.1-0.1-0.4-0.3-0.4-0.8v-0.8v-0.3h-5.8l2.5,2.2l0.8-0.8c0.3-0.3,0.7-0.3,0.8-0.3c0.2,0,0.5,0.2,0.6,0.6c0.1,0.2,0.2,0.7,0.4,1.4
	c0.1,0.5,0.3,1.1,0.3,1.3c0.1,0.4,0.1,0.8-0.2,1.1c-0.3,0.3-0.7,0.4-1.2,0.4c-0.1,0-0.4-0.1-0.6-0.1c-0.9-0.2-1.7-0.4-2-0.5
	c-0.5-0.2-0.6-0.5-0.6-0.7c0-0.1,0-0.1,0-0.2c0-0.3,0.1-0.5,0.3-0.7l0.8-0.8l-3.4-3H7.4c-0.3,0.8-0.9,1.3-1.8,1.3
	c-1,0-1.8-0.8-1.8-1.8s0.8-1.8,1.8-1.8c0.8,0,1.5,0.5,1.8,1.3h2.1L13,8.9l-0.8-0.8C12.1,8,12,7.7,12,7.5c0-0.1,0-0.1,0-0.2
	c0-0.2,0.2-0.5,0.6-0.7c0.3-0.1,1-0.3,2-0.5C14.9,6.1,15.1,6,15.2,6c0.5-0.1,0.9,0,1.2,0.3c0.3,0.3,0.3,0.7,0.2,1.1
	c-0.1,0.1-0.2,0.8-0.3,1.3C16.2,9.4,16,9.9,16,10.1c-0.1,0.4-0.4,0.6-0.6,0.6c-0.2,0-0.5,0.1-0.8-0.3l-0.8-0.8l-2.7,2.4H17V11
	c0-0.3,0.1-0.6,0.4-0.8c0.1-0.1,0.5-0.2,0.9,0c0.3,0.1,0.9,0.5,1.8,1c0.2,0.1,0.4,0.3,0.5,0.3c0.4,0.3,0.7,0.7,0.7,1.1
	C21.3,13,21,13.4,20.6,13.5z"/>
</svg>
