<?xml version="1.0" encoding="utf-8"?>
<!-- Generator: Adobe Illustrator 22.0.0, SVG Export Plug-In . SVG Version: 6.00 Build 0)  -->
<svg version="1.1" id="Your_Icons" xmlns="http://www.w3.org/2000/svg" xmlns:xlink="http://www.w3.org/1999/xlink" x="0px" y="0px"
	 viewBox="0 0 24 24" style="enable-background:new 0 0 24 24;" xml:space="preserve">
<style type="text/css">
	.st0{fill:#295A99;}
</style>
<g>
	<path class="st0" d="M20.4,10.2L19.5,10c-0.2-0.7-0.4-1.3-0.8-1.9l0.5-0.8c0.1-0.3,0.2-0.6,0-0.8l-1.7-1.7
		c-0.1-0.1-0.2-0.1-0.4-0.1c-0.2,0-0.3,0.1-0.5,0.1l-0.8,0.5c-0.6-0.3-1.2-0.6-1.9-0.8l-0.2-0.9C13.7,3.3,13.5,3,13.2,3h-2.4
		c-0.3,0-0.5,0.3-0.6,0.6L10,4.5C9.3,4.7,8.7,4.9,8.1,5.3L7.3,4.8C7.2,4.7,7,4.6,6.9,4.6c-0.1,0-0.3,0-0.4,0.1L4.8,6.5
		c-0.2,0.2-0.1,0.6,0,0.8l0.5,0.8C4.9,8.7,4.6,9.3,4.5,10l-0.9,0.2C3.3,10.3,3,10.5,3,10.8v2.4c0,0.3,0.3,0.5,0.6,0.6L4.5,14
		c0.2,0.7,0.4,1.3,0.8,1.9l-0.5,0.8c-0.2,0.3-0.2,0.6,0,0.8l1.7,1.7c0.1,0.1,0.2,0.1,0.4,0.1c0.2,0,0.3-0.1,0.5-0.1l0.8-0.5
		c0.6,0.3,1.2,0.6,1.9,0.8l0.2,0.9c0.1,0.3,0.3,0.6,0.6,0.6h2.4c0.3,0,0.5-0.3,0.6-0.6l0.2-0.9c0.7-0.2,1.3-0.4,1.9-0.8l0.8,0.5
		c0.2,0.1,0.3,0.1,0.5,0.1c0.1,0,0.3,0,0.4-0.1l1.7-1.7c0.2-0.2,0.2-0.6,0-0.8l-0.5-0.8c0.3-0.6,0.6-1.2,0.8-1.9l0.9-0.2
		c0.3-0.1,0.6-0.3,0.6-0.6v-2.4C21,10.5,20.7,10.3,20.4,10.2z M12,16.1c-2.3,0-4.1-1.8-4.1-4.1c0-2.3,1.8-4.1,4.1-4.1
		c2.3,0,4.1,1.8,4.1,4.1C16.1,14.3,14.3,16.1,12,16.1z"/>
</g>
</svg>
