<?xml version="1.0" encoding="utf-8"?>
<!-- Generator: Adobe Illustrator 21.1.0, SVG Export Plug-In . SVG Version: 6.00 Build 0)  -->
<svg version="1.1" xmlns="http://www.w3.org/2000/svg" xmlns:xlink="http://www.w3.org/1999/xlink" x="0px" y="0px"
	 viewBox="0 0 24 24" style="enable-background:new 0 0 24 24;" xml:space="preserve">
<style type="text/css">
	.st0{display:none;}
	.st1{display:inline;}
	.st2{fill:#114A54;}
	.st3{fill:#778E93;}
	.st4{fill:#D4E4F1;}
	.st5{fill:#398CCB;}
	.st6{fill:#AFDFF9;}
	.st7{fill:#6AA9DD;}
	.st8{fill:#20568E;}
	.st9{fill:#2C5261;}
	.st10{fill:#295A99;}
	.st11{opacity:0.2;fill:#3E85C5;}
	.st12{opacity:0.8;fill:#AFDFF9;}
	.st13{opacity:0.5;fill:#D4E4F1;}
	.st14{fill:#FFFFFF;}
	.st15{fill:#FFFFFF;stroke:#3E85C5;stroke-miterlimit:10;}
	.st16{fill:#3E85C5;}
	.st17{fill:#21558E;}
	.st18{fill:#B3C3C4;}
	.st19{fill:#D2E3F0;}
	.st20{display:none;fill:#B3C3C4;}
	.st21{fill:#295A9A;}
	.st22{fill:none;stroke:#295A99;stroke-miterlimit:10;}
</style>
<g id="Guidelines">
</g>
<g id="Your_Icons">
	<g>
		<g>
			<path class="st10" d="M12.4,3.3c0,0.6,0,0.8-0.2,1c-0.3,0.3-0.7-0.2-1.5-0.2C9.8,4.1,9,4.9,9,5.8s0.8,1.7,1.7,1.7
				c0.8,0,1.2-0.5,1.5-0.2c0.1,0.2,0.2,0.4,0.2,1v3.3v0v0l2.8,0c0.4,0,0.5,0,0.5-0.1c0.1-0.2-0.1-0.4-0.1-1c0-1.3,1.4-2.3,2.6-2.3
				c1.2,0,2.6,1,2.6,2.3c0,0.6-0.1,0.9-0.1,1c0,0.1,0.1,0.1,0.5,0.1H24V0H12.4l0,0V3.3z"/>
		</g>
		<path class="st4" d="M3.3,11.6c0.6,0,0.8,0,1,0.2c0.3,0.3-0.2,0.7-0.2,1.5c0,0.9,0.8,1.7,1.7,1.7s1.7-0.8,1.7-1.7
			c0-0.8-0.5-1.2-0.2-1.5c0.2-0.1,0.4-0.2,1-0.2h3.3h0h0l0-2.8c0-0.4,0-0.5-0.1-0.5c-0.2-0.1-0.4,0.1-1,0.1C9.1,8.3,8.1,7,8.1,5.8
			c0-1.2,1-2.5,2.3-2.5c0.6,0,0.9,0.1,1,0.1c0.1,0,0.1-0.1,0.1-0.5V0H0v11.6l0,0H3.3z"/>
		<path class="st10" d="M11.6,20.7c0-0.6,0-0.8,0.2-1c0.3-0.3,0.7,0.2,1.5,0.2c0.9,0,1.7-0.8,1.7-1.7c0-0.9-0.8-1.7-1.7-1.7
			c-0.8,0-1.2,0.5-1.5,0.2c-0.1-0.2-0.2-0.4-0.2-1v-3.3v0v0l-2.8,0c-0.4,0-0.5,0-0.5,0.1c-0.1,0.2,0.1,0.4,0.1,1
			c0,1.3-1.4,2.3-2.6,2.3c-1.2,0-2.6-1-2.6-2.3c0-0.6,0.1-0.9,0.1-1c0-0.1-0.1-0.1-0.5-0.1H0V24h11.6l0,0V20.7z"/>
		<path class="st7" d="M20.7,12.4c-0.6,0-0.8,0-1-0.2c-0.3-0.3,0.2-0.7,0.2-1.5c0-0.9-0.8-1.7-1.7-1.7s-1.7,0.8-1.7,1.7
			c0,0.8,0.5,1.2,0.2,1.5c-0.2,0.1-0.4,0.2-1,0.2h-3.3h0h0l0,2.8c0,0.4,0,0.5,0.1,0.5c0.2,0.1,0.4-0.1,1-0.1c1.3,0,2.3,1.4,2.3,2.6
			c0,1.2-1,2.5-2.3,2.5c-0.6,0-0.9-0.1-1-0.1c-0.1,0-0.1,0.1-0.1,0.5l0,2.8H24V12.4l0,0H20.7z"/>
	</g>
</g>
</svg>
