<?xml version="1.0" encoding="utf-8"?>
<!-- Generator: Adobe Illustrator 22.0.0, SVG Export Plug-In . SVG Version: 6.00 Build 0)  -->
<svg version="1.1" xmlns="http://www.w3.org/2000/svg" xmlns:xlink="http://www.w3.org/1999/xlink" x="0px" y="0px"
	 viewBox="0 0 24 24" style="enable-background:new 0 0 24 24;" xml:space="preserve">
<style type="text/css">
	.st0{fill:#295A99;}
</style>
<g id="Guidelines">
</g>
<g id="Your_Icons">
	<g>
		<polygon class="st0" points="15.1,12.5 15.8,12.5 15.8,10.8 15.1,10.8 5.9,10.8 5.9,8 1,11.6 5.9,15.3 5.9,12.5 		"/>
		<path class="st0" d="M14.8,3.7C11.2,3.7,8.1,6,7,9.3h2c1-2.2,3.2-3.8,5.8-3.8c3.5,0,6.3,2.8,6.3,6.2s-2.8,6.2-6.3,6.2
			c-2.6,0-4.9-1.6-5.8-3.8H7c1,3.3,4.1,5.6,7.8,5.6c4.5,0,8.2-3.6,8.2-8C23,7.3,19.3,3.7,14.8,3.7z"/>
	</g>
</g>
</svg>
