<?xml version="1.0" encoding="utf-8"?>
<!-- Generator: Adobe Illustrator 21.1.0, SVG Export Plug-In . SVG Version: 6.00 Build 0)  -->
<svg version="1.1" xmlns="http://www.w3.org/2000/svg" xmlns:xlink="http://www.w3.org/1999/xlink" x="0px" y="0px"
	 viewBox="0 0 24 24" style="enable-background:new 0 0 24 24;" xml:space="preserve">
<style type="text/css">
	.st0{display:none;}
	.st1{display:inline;}
	.st2{fill:#114A54;}
	.st3{fill:#778E93;}
	.st4{fill:#D4E4F1;}
	.st5{fill:#398CCB;}
	.st6{fill:#AFDFF9;}
	.st7{fill:#6AA9DD;}
	.st8{fill:#20568E;}
	.st9{fill:#2C5261;}
	.st10{fill:#295A99;}
	.st11{opacity:0.2;fill:#3E85C5;}
	.st12{opacity:0.8;fill:#AFDFF9;}
	.st13{opacity:0.5;fill:#D4E4F1;}
	.st14{fill:#FFFFFF;}
	.st15{fill:#FFFFFF;stroke:#3E85C5;stroke-miterlimit:10;}
	.st16{fill:#3E85C5;}
	.st17{fill:#21558E;}
	.st18{fill:#B3C3C4;}
	.st19{fill:#D2E3F0;}
	.st20{display:none;fill:#B3C3C4;}
	.st21{fill:#295A9A;}
	.st22{fill:none;stroke:#295A99;stroke-miterlimit:10;}
</style>
<g id="Guidelines">
</g>
<g id="Your_Icons">
	<g class="st0">
	</g>
	<g>
		<g>
			<path class="st4" d="M20.2,7c-0.3-3.9-3.8-7-8-7s-7.7,3.1-8,7c-0.1,1.7,0.5,3.5,1.7,5l6,7.8c0.1,0.1,0.2,0.2,0.3,0.2
				c0.1,0,0.3-0.1,0.3-0.2l5.9-7.8C19.7,10.5,20.3,8.8,20.2,7z"/>
			<path class="st7" d="M6.7,11.4c-1.1-1.3-1.6-2.8-1.5-4.3C5.4,3.7,8.5,1,12.2,1c3.7,0,6.7,2.7,7,6.1c0.1,1.5-0.4,3-1.5,4.3
				l-5.5,7.2L6.7,11.4z"/>
		</g>
		<g>
			<path class="st10" d="M10,11.2c0,0.1,0,0.1-0.1,0.2c-0.1,0.1-0.1,0.1-0.2,0.1H9.2c-0.1,0-0.2,0-0.2-0.1c-0.1-0.1-0.1-0.1-0.1-0.2
				V5.4c0-0.1,0-0.1,0.1-0.2c0.1-0.1,0.1-0.1,0.2-0.1h0.5c0.1,0,0.2,0,0.2,0.1C10,5.3,10,5.4,10,5.4V11.2z"/>
			<path class="st10" d="M16.5,6.4c-0.1-0.3-0.3-0.5-0.6-0.7c-0.2-0.2-0.5-0.3-0.9-0.4c-0.3-0.1-0.7-0.1-1-0.1h-2
				c-0.1,0-0.2,0-0.2,0.1c-0.1,0.1-0.1,0.1-0.1,0.2v5.8c0,0.1,0,0.1,0.1,0.2c0.1,0.1,0.1,0.1,0.2,0.1h0.5c0.1,0,0.2,0,0.2-0.1
				c0.1-0.1,0.1-0.1,0.1-0.2V9.6H14c0.4,0,0.7,0,1-0.1c0.3-0.1,0.6-0.2,0.9-0.4c0.2-0.2,0.4-0.4,0.6-0.7c0.1-0.3,0.2-0.6,0.2-1
				S16.6,6.6,16.5,6.4z M15.2,8.3c-0.3,0.2-0.7,0.3-1.3,0.3h-1.1V6.1h1.1c0.5,0,1,0.1,1.3,0.3c0.3,0.2,0.4,0.5,0.4,1
				S15.5,8.1,15.2,8.3z"/>
		</g>
		<path class="st10" d="M22.5,21.1h-7.9c-0.2-1-1-1.8-2-2v-1h-1v1c-1,0.2-1.8,1-2,2H1.5v1h8.2C10,23.2,11,24,12.1,24
			c1.2,0,2.2-0.8,2.4-1.9h7.9V21.1z M12.1,23c-0.8,0-1.5-0.7-1.5-1.5s0.7-1.5,1.5-1.5c0.8,0,1.5,0.7,1.5,1.5S13,23,12.1,23z"/>
	</g>
</g>
</svg>
