<?xml version="1.0" encoding="utf-8"?>
<!-- Generator: Adobe Illustrator 16.0.0, SVG Export Plug-In . SVG Version: 6.00 Build 0)  -->
<!DOCTYPE svg PUBLIC "-//W3C//DTD SVG 1.1//EN" "http://www.w3.org/Graphics/SVG/1.1/DTD/svg11.dtd">
<svg version="1.1" id="Layer_1" xmlns="http://www.w3.org/2000/svg" xmlns:xlink="http://www.w3.org/1999/xlink" x="0px" y="0px"
	 width="22px" height="22px" viewBox="0 0 22 22" enable-background="new 0 0 22 22" xml:space="preserve">
<g>
	<path fill="#ADADAE" d="M5.261,14.981v-3.768h-1v3.802c-0.824,0.241-1.432,0.996-1.432,1.897c0,1.096,0.891,1.986,1.986,1.986
		c0.915,0,1.681-0.627,1.908-1.473h3.805v-1H6.732C6.551,15.71,5.982,15.148,5.261,14.981z M4.815,17.899
		c-0.544,0-0.986-0.442-0.986-0.986s0.442-0.986,0.986-0.986c0.543,0,0.984,0.442,0.984,0.986S5.358,17.899,4.815,17.899z"/>
	<path fill="#ADADAE" d="M9.612,6.506V2.058c0-0.711-0.576-1.288-1.287-1.288H1.288C0.576,0.77,0,1.346,0,2.058v4.448
		c0,0.713,0.576,1.289,1.288,1.289h7.037C9.036,7.795,9.612,7.219,9.612,6.506z"/>
	<rect x="2.959" y="9.495" fill="#ADADAE" width="3.604" height="1"/>
	<path fill="#ADADAE" d="M16.692,6.195v3.206h1V6.209C18.557,5.993,19.2,5.217,19.2,4.287c0-1.095-0.891-1.985-1.986-1.985
		c-0.952,0-1.749,0.675-1.94,1.571h-3.247v1h3.301C15.527,5.517,16.04,6.017,16.692,6.195z M17.214,3.302
		c0.544,0,0.986,0.442,0.986,0.985c0,0.544-0.442,0.986-0.986,0.986c-0.543,0-0.985-0.442-0.985-0.986
		C16.229,3.744,16.671,3.302,17.214,3.302z"/>
	<path fill="#ADADAE" d="M20.712,11.529h-7.037c-0.711,0-1.288,0.576-1.288,1.288v4.448c0,0.711,0.577,1.289,1.288,1.289h7.037
		c0.713,0,1.288-0.578,1.288-1.289v-4.448C22,12.105,21.425,11.529,20.712,11.529z"/>
	<rect x="15.437" y="20.23" fill="#ADADAE" width="3.559" height="1"/>
</g>
</svg>
