<?xml version="1.0" encoding="utf-8"?>
<!-- Generator: Adobe Illustrator 21.1.0, SVG Export Plug-In . SVG Version: 6.00 Build 0)  -->
<svg version="1.1" id="Layer_1" xmlns="http://www.w3.org/2000/svg" xmlns:xlink="http://www.w3.org/1999/xlink" x="0px" y="0px"
	 viewBox="0 0 24 24" style="enable-background:new 0 0 24 24;" xml:space="preserve">
<style type="text/css">
	.st0{fill:#B3C3C4;}
</style>
<g id="Your_Icons">
	<path class="st0" d="M0,0v24h24V0H0z M23,22.6h-6.3v-4.3h2.8v-3.2h-5.1c0,0.3-0.1,0.6-0.3,0.9c-0.3,0.6-0.9,0.9-1.5,1.1v1.2h2.6
		v4.3H8.9v-4.3h2.7v-1.2c-0.2,0-0.5-0.1-0.7-0.2c-0.7-0.4-1-1-1.1-1.8H4.7v3.2h2.7v4.3H1v-4.3h2.7v-3.2v-0.5v-0.5H10
		c0-0.1,0.1-0.3,0.2-0.4c0.6-1.1,2-1.5,3.1-0.8c0.5,0.3,0.8,0.7,1,1.2h6.2v0.5v0.5v3.2H23V22.6z M23,11h-6.3V6.7h2.8V3.6h-5.1
		c0,0.3-0.1,0.6-0.3,0.9c-0.3,0.6-0.9,0.9-1.5,1.1v1.2h2.6V11H8.9V6.7h2.7V5.6c-0.2,0-0.5-0.1-0.7-0.2c-0.7-0.4-1-1-1.1-1.8H4.7v3.2
		h2.7V11H1V6.7h2.7V3.6V3.1V2.6H10c0-0.1,0.1-0.3,0.2-0.4c0.6-1.1,2-1.5,3.1-0.8c0.5,0.3,0.8,0.7,1,1.2h6.2v0.5v0.5v3.2H23V11z"/>
</g>
</svg>
