<?xml version="1.0" encoding="utf-8"?>
<!-- Generator: Adobe Illustrator 21.1.0, SVG Export Plug-In . SVG Version: 6.00 Build 0)  -->
<svg version="1.1" id="Layer_1" xmlns="http://www.w3.org/2000/svg" xmlns:xlink="http://www.w3.org/1999/xlink" x="0px" y="0px"
	 viewBox="0 0 24 24" style="enable-background:new 0 0 24 24;" xml:space="preserve">
<style type="text/css">
	.st0{fill:#B3C3C4;}
</style>
<g id="Your_Icons">
	<g>
		<path class="st0" d="M18,1.6C12.3-1.7,4.9,0.3,1.6,6S0.3,19.1,6,22.4s13.1,1.3,16.4-4.4S23.7,4.9,18,1.6z M19.5,16.3
			c-2.4,4.2-7.7,5.6-11.9,3.2S2,11.8,4.4,7.6S12.1,2,16.3,4.4C20.5,6.9,21.9,12.2,19.5,16.3z"/>
		<path class="st0" d="M14.5,9.4C14.5,8.1,13.4,7,12,7S9.5,8,9.5,9.4c0,0.9,0.5,1.7,1.2,2.1L8.5,17h7.1l-2.2-5.6
			C14,11,14.5,10.2,14.5,9.4z"/>
	</g>
</g>
</svg>
