<?xml version="1.0" encoding="utf-8"?>
<!-- Generator: Adobe Illustrator 21.1.0, SVG Export Plug-In . SVG Version: 6.00 Build 0)  -->
<svg version="1.1" id="Layer_1" xmlns="http://www.w3.org/2000/svg" xmlns:xlink="http://www.w3.org/1999/xlink" x="0px" y="0px"
	 viewBox="0 0 24 24" style="enable-background:new 0 0 24 24;" xml:space="preserve">
<style type="text/css">
	.st0{fill:#D4E4F1;}
	.st1{fill:#295A99;}
	.st2{fill:#6AA9DD;}
	.st3{fill:#3E85C5;}
	.st4{fill:#20568E;}
</style>
<g id="Your_Icons">
	<path class="st0" d="M0,0v24h24V0H0z"/>
	<g>
		<g>
			<g>
				<rect x="3.7" y="3" class="st1" width="16.8" height="1"/>
				<rect x="19.5" y="3.5" class="st1" width="1" height="3.8"/>
				<rect x="3.7" y="3.5" class="st1" width="1" height="3.8"/>
				<rect x="11.6" y="3.7" class="st1" width="1" height="3.8"/>
				<rect x="8.9" y="7.3" class="st2" width="6.3" height="4.4"/>
				<rect x="16.7" y="7.3" class="st2" width="6.3" height="4.4"/>
				<rect x="1" y="7.3" class="st2" width="6.3" height="4.4"/>
				<g>
					<g>
						<g>
							<g>
								<path class="st1" d="M11,5.8c-1.1-0.7-1.5-2.1-0.8-3.2c0.6-1.1,2-1.5,3.1-0.9c1.1,0.7,1.5,2.1,0.8,3.2
									C13.5,6.1,12.1,6.5,11,5.8z"/>
								<g>
									<path class="st3" d="M11,5.8c-1.1-0.7-1.5-2.1-0.8-3.2c0.6-1.1,2-1.5,3.1-0.9"/>
								</g>
							</g>
							<g>
								<path class="st1" d="M12.1,6.6c-1.5,0-2.8-1.3-2.8-2.8c0-1.6,1.2-2.8,2.8-2.8s2.8,1.3,2.8,2.8C14.9,5.4,13.7,6.6,12.1,6.6z
									 M12.1,2c-1,0-1.8,0.8-1.8,1.8s0.8,1.8,1.8,1.8s1.8-0.8,1.8-1.8S13.1,2,12.1,2z"/>
							</g>
						</g>
					</g>
				</g>
			</g>
		</g>
		<g>
			<g>
				<rect x="3.7" y="14.4" class="st1" width="16.8" height="1"/>
				<rect x="19.5" y="14.9" class="st1" width="1" height="3.8"/>
				<rect x="3.7" y="14.9" class="st1" width="1" height="3.8"/>
				<rect x="11.6" y="15" class="st1" width="1" height="3.8"/>
				<rect x="8.9" y="18.6" class="st2" width="6.3" height="4.4"/>
				<rect x="16.7" y="18.6" class="st2" width="6.3" height="4.4"/>
				<rect x="1" y="18.6" class="st2" width="6.3" height="4.4"/>
				<g>
					<g>
						<g>
							<g>
								<path class="st1" d="M11,17.2c-1.1-0.7-1.5-2.1-0.8-3.2c0.6-1.1,2-1.5,3.1-0.9c1.1,0.7,1.5,2.1,0.8,3.2
									C13.5,17.4,12.1,17.8,11,17.2z"/>
								<g>
									<path class="st3" d="M11,17.2c-1.1-0.7-1.5-2.1-0.8-3.2c0.6-1.1,2-1.5,3.1-0.9"/>
									<path class="st1" d="M10.9,17.3c-1.2-0.7-1.6-2.2-0.9-3.4c0.3-0.6,0.9-1,1.5-1.2s1.3-0.1,1.8,0.3l-0.1,0.2
										c-0.5-0.3-1.1-0.4-1.6-0.2c-0.6,0.2-1,0.5-1.3,1c-0.6,1.1-0.2,2.4,0.8,3L10.9,17.3z"/>
								</g>
							</g>
							<g>
								<path class="st4" d="M12.1,18c-1.5,0-2.8-1.3-2.8-2.8c0-1.6,1.2-2.8,2.8-2.8s2.8,1.3,2.8,2.8C14.9,16.7,13.7,18,12.1,18z
									 M12.1,13.3c-1,0-1.8,0.8-1.8,1.8s0.8,1.8,1.8,1.8s1.8-0.8,1.8-1.8S13.1,13.3,12.1,13.3z"/>
							</g>
						</g>
					</g>
				</g>
			</g>
		</g>
	</g>
</g>
</svg>
