<?xml version="1.0" encoding="utf-8"?>
<!-- Generator: Adobe Illustrator 21.1.0, SVG Export Plug-In . SVG Version: 6.00 Build 0)  -->
<svg version="1.1" xmlns="http://www.w3.org/2000/svg" xmlns:xlink="http://www.w3.org/1999/xlink" x="0px" y="0px"
	 viewBox="0 0 24 24" style="enable-background:new 0 0 24 24;" xml:space="preserve">
<style type="text/css">
	.st0{display:none;}
	.st1{display:inline;}
	.st2{fill:#114A54;}
	.st3{fill:#778E93;}
	.st4{fill:#D4E4F1;}
	.st5{fill:#398CCB;}
	.st6{fill:#AFDFF9;}
	.st7{fill:#6AA9DD;}
	.st8{fill:#20568E;}
	.st9{fill:#2C5261;}
	.st10{fill:#295A99;}
	.st11{opacity:0.2;fill:#3E85C5;}
	.st12{opacity:0.8;fill:#AFDFF9;}
	.st13{opacity:0.5;fill:#D4E4F1;}
	.st14{fill:#FFFFFF;}
	.st15{fill:#FFFFFF;stroke:#3E85C5;stroke-miterlimit:10;}
	.st16{fill:#3E85C5;}
	.st17{fill:#21558E;}
	.st18{fill:#B3C3C4;}
	.st19{fill:#D2E3F0;}
	.st20{display:none;fill:#B3C3C4;}
	.st21{fill:#295A9A;}
	.st22{fill:none;stroke:#295A99;stroke-miterlimit:10;}
</style>
<g id="Guidelines">
</g>
<g id="Your_Icons">
	<g class="st0">
	</g>
	<g>
		<path class="st18" d="M18,1.6C12.3-1.7,4.9,0.3,1.6,6C-1.7,11.7,0.3,19.1,6,22.4c5.7,3.3,13.1,1.3,16.4-4.4
			C25.7,12.3,23.7,4.9,18,1.6z M19.5,16.3c-2.4,4.2-7.7,5.6-11.9,3.2c-4.2-2.4-5.6-7.7-3.2-11.9c2.4-4.2,7.7-5.6,11.9-3.2
			C20.5,6.9,21.9,12.2,19.5,16.3z"/>
		<polygon class="st18" points="10.6,12 10.6,12 10.6,12 10.3,11.6 8.1,9.5 7.4,10.2 8.7,11.5 4,11.5 4,12.5 8.8,12.5 7.5,13.9 
			8.2,14.5 10.3,12.4 		"/>
		<polygon class="st18" points="16.5,10.1 15.8,9.5 13.7,11.6 13.4,12 13.4,12 13.4,12 13.7,12.4 15.9,14.5 16.6,13.8 15.3,12.5 
			20,12.5 20,11.5 15.2,11.5 		"/>
		<polygon class="st18" points="11.5,5.6 11.5,10.4 12.5,10.4 12.5,5.6 13.9,6.9 14.5,6.2 12.3,4.1 12,3.7 12,3.8 12,3.7 11.6,4.1 
			9.5,6.2 10.2,7 		"/>
		<polygon class="st18" points="12.5,18.4 12.5,13.6 11.5,13.6 11.5,18.4 10.1,17.1 9.5,17.8 11.7,19.9 12,20.3 12,20.2 12,20.3 
			12.4,19.9 14.5,17.8 13.8,17 		"/>
	</g>
</g>
</svg>
