<?xml version="1.0" encoding="utf-8"?>
<!-- Generator: Adobe Illustrator 16.0.0, SVG Export Plug-In . SVG Version: 6.00 Build 0)  -->
<!DOCTYPE svg PUBLIC "-//W3C//DTD SVG 1.1//EN" "http://www.w3.org/Graphics/SVG/1.1/DTD/svg11.dtd">
<svg version="1.1" id="Layer_1" xmlns="http://www.w3.org/2000/svg" xmlns:xlink="http://www.w3.org/1999/xlink" x="0px" y="0px"
	 width="15px" height="15px" viewBox="0 0 15 15" enable-background="new 0 0 15 15" xml:space="preserve">
<path fill="#FFFFFF" d="M0,7.5C0,3.358,3.358,0,7.5,0S15,3.358,15,7.5S11.642,15,7.5,15S0,11.642,0,7.5z M8.812,10.47l2.521-2.521
	C11.459,7.825,11.52,7.662,11.52,7.5c0-0.091-0.024-0.179-0.061-0.263c-0.031-0.066-0.069-0.132-0.125-0.187
	c0,0-0.002,0-0.002-0.002L8.812,4.53c-0.248-0.248-0.65-0.248-0.898,0c-0.249,0.248-0.249,0.65-0.002,0.898l1.433,1.434H4.116
	c-0.352,0-0.637,0.284-0.637,0.636c0,0.351,0.285,0.636,0.637,0.636H9.35L7.914,9.572c-0.249,0.248-0.249,0.648,0,0.898
	C8.162,10.719,8.564,10.719,8.812,10.47z"/>
</svg>
