<?xml version="1.0" encoding="utf-8"?>
<!-- Generator: Adobe Illustrator 16.0.0, SVG Export Plug-In . SVG Version: 6.00 Build 0)  -->
<!DOCTYPE svg PUBLIC "-//W3C//DTD SVG 1.1//EN" "http://www.w3.org/Graphics/SVG/1.1/DTD/svg11.dtd">
<svg version="1.1" id="Layer_1" xmlns="http://www.w3.org/2000/svg" xmlns:xlink="http://www.w3.org/1999/xlink" x="0px" y="0px"
	 width="22px" height="22px" viewBox="0 0 22 22" enable-background="new 0 0 22 22" xml:space="preserve">
<g>
	<polygon fill="#ADADAE" points="22,11.099 21.306,10.404 21.306,10.404 15.953,5.052 15.259,5.746 20.612,11.099 15.456,16.253 
		16.15,16.947 21.306,11.792 21.306,11.792 	"/>
	<polygon fill="#ADADAE" points="6.544,5.747 5.85,5.053 0.694,10.206 0.694,10.206 0,10.9 6.047,16.948 6.741,16.254 1.388,10.9 	
		"/>
	<path fill="#ADADAE" d="M6.852,9.173c-0.915,0-1.659,0.743-1.659,1.657s0.744,1.658,1.659,1.658c0.915,0,1.659-0.744,1.659-1.658
		S7.767,9.173,6.852,9.173z M6.852,11.507c-0.374,0-0.677-0.304-0.677-0.677c0-0.372,0.304-0.676,0.677-0.676
		s0.678,0.304,0.678,0.676C7.529,11.203,7.225,11.507,6.852,11.507z"/>
	<path fill="#ADADAE" d="M10.999,9.173c-0.914,0-1.658,0.743-1.658,1.657s0.744,1.658,1.658,1.658c0.916,0,1.66-0.744,1.66-1.658
		S11.915,9.173,10.999,9.173z M10.999,11.507c-0.373,0-0.676-0.304-0.676-0.677c0-0.372,0.303-0.676,0.676-0.676
		c0.374,0,0.678,0.304,0.678,0.676C11.677,11.203,11.373,11.507,10.999,11.507z"/>
	<path fill="#ADADAE" d="M16.807,10.83c0-0.914-0.744-1.657-1.66-1.657c-0.915,0-1.658,0.743-1.658,1.657s0.744,1.658,1.658,1.658
		C16.063,12.488,16.807,11.744,16.807,10.83z M15.147,11.507c-0.373,0-0.677-0.304-0.677-0.677c0-0.372,0.304-0.676,0.677-0.676
		c0.374,0,0.678,0.304,0.678,0.676C15.826,11.203,15.521,11.507,15.147,11.507z"/>
</g>
</svg>
