<?xml version="1.0" encoding="utf-8"?>
<!-- Generator: Adobe Illustrator 16.0.0, SVG Export Plug-In . SVG Version: 6.00 Build 0)  -->
<!DOCTYPE svg PUBLIC "-//W3C//DTD SVG 1.1//EN" "http://www.w3.org/Graphics/SVG/1.1/DTD/svg11.dtd">
<svg version="1.1" id="Layer_1" xmlns="http://www.w3.org/2000/svg" xmlns:xlink="http://www.w3.org/1999/xlink" x="0px" y="0px"
	 width="22px" height="22px" viewBox="0 0 22 22" enable-background="new 0 0 22 22" xml:space="preserve">
<path fill="#FFFFFF" d="M19.182,15.091c0-3.182-3.636-3.182-3.636-7.727c0-1.878-1.14-3.489-2.764-4.182
	c0.023-0.118,0.036-0.239,0.036-0.363C12.818,1.814,12.004,1,11,1S9.182,1.814,9.182,2.818c0,0.124,0.014,0.246,0.037,0.363
	C7.594,3.875,6.455,5.486,6.455,7.364c0,4.545-3.637,4.545-3.637,7.727c0,1.388,2.285,2.563,5.468,2.999
	c-0.005,0.061-0.013,0.121-0.013,0.184C8.273,19.779,9.494,21,11,21s2.728-1.221,2.728-2.727c0-0.062-0.008-0.123-0.013-0.184
	C16.896,17.654,19.182,16.479,19.182,15.091z M11,20.07c-1.004,0-1.818-1.146-1.818-2.559c0-0.039,0.006-0.074,0.008-0.113
	c0.583,0.072,1.188,0.113,1.811,0.113s1.229-0.041,1.812-0.113c0.001,0.039,0.007,0.074,0.007,0.113
	C12.818,18.925,12.004,20.07,11,20.07z M11.001,15.826c-3.21,0-6.116-0.728-7.584-1.898l1.246-1.562
	c0.912,0.727,3.226,1.461,6.338,1.461c3.111,0,5.425-0.734,6.336-1.463l1.248,1.563C17.117,15.098,14.211,15.826,11.001,15.826z"/>
</svg>
