<?xml version="1.0" encoding="utf-8"?>
<!-- Generator: Adobe Illustrator 16.0.0, SVG Export Plug-In . SVG Version: 6.00 Build 0)  -->
<!DOCTYPE svg PUBLIC "-//W3C//DTD SVG 1.1//EN" "http://www.w3.org/Graphics/SVG/1.1/DTD/svg11.dtd">
<svg version="1.1" id="Layer_1" xmlns="http://www.w3.org/2000/svg" xmlns:xlink="http://www.w3.org/1999/xlink" x="0px" y="0px"
	 width="22px" height="22px" viewBox="0 0 22 22" enable-background="new 0 0 22 22" xml:space="preserve">
<path fill="#ADADAE" d="M21,13.008c0-5.514-4.486-10-10-10s-10,4.486-10,10c0,1.922,0.546,3.717,1.488,5.242
	c0.021,0.033,0.045,0.064,0.066,0.098v0.645H19.43v-0.621c0.026-0.041,0.057-0.079,0.082-0.121C20.455,16.725,21,14.93,21,13.008z
	 M18.91,13.259v1h-2.785v-1H18.91z M16.567,7.94l0.686,0.729L14.988,10.8l-0.686-0.729L16.567,7.94z M10.5,5.472h1v2.986h-1V5.472z
	 M9.611,14.185c0.414-0.381,3.048-1.958,3.226-1.824c0.178,0.133-1.424,2.946-1.84,3.329c-0.415,0.383-1.13,0.256-1.445-0.058
	C9.133,15.212,9.196,14.569,9.611,14.185z M5.597,8.033l2.063,2.048L6.955,10.79L4.892,8.742L5.597,8.033z M2.851,13.259h2.889v1
	H2.851V13.259z"/>
</svg>
