<?xml version="1.0" encoding="utf-8"?>
<!-- Generator: Adobe Illustrator 21.1.0, SVG Export Plug-In . SVG Version: 6.00 Build 0)  -->
<svg version="1.1" xmlns="http://www.w3.org/2000/svg" xmlns:xlink="http://www.w3.org/1999/xlink" x="0px" y="0px"
	 viewBox="0 0 24 24" style="enable-background:new 0 0 24 24;" xml:space="preserve">
<style type="text/css">
	.st0{display:none;}
	.st1{display:inline;}
	.st2{fill:#114A54;}
	.st3{fill:#778E93;}
	.st4{fill:#D4E4F1;}
	.st5{fill:#398CCB;}
	.st6{fill:#AFDFF9;}
	.st7{fill:#6AA9DD;}
	.st8{fill:#20568E;}
	.st9{fill:#2C5261;}
	.st10{fill:#295A99;}
	.st11{opacity:0.2;fill:#3E85C5;}
	.st12{opacity:0.8;fill:#AFDFF9;}
	.st13{opacity:0.5;fill:#D4E4F1;}
	.st14{fill:#FFFFFF;}
	.st15{fill:#FFFFFF;stroke:#3E85C5;stroke-miterlimit:10;}
	.st16{fill:#3E85C5;}
	.st17{fill:#21558E;}
	.st18{fill:#B3C3C4;}
	.st19{fill:#D2E3F0;}
	.st20{display:none;fill:#B3C3C4;}
	.st21{fill:#295A9A;}
	.st22{fill:none;stroke:#295A99;stroke-miterlimit:10;}
</style>
<g id="Guidelines">
</g>
<g id="Your_Icons">
	<g class="st0">
	</g>
	<g>
		<path class="st18" d="M0,0v5h24V0H0z M4.2,3.7C3.6,4.3,2.6,4.3,2,3.7C1.4,3,1.4,1.9,2,1.3c0.6-0.6,1.6-0.6,2.3,0
			C4.9,2,4.9,3,4.2,3.7z"/>
		<path class="st18" d="M0,11.3h24v-5H0V11.3z M2,7.6C2.6,7,3.6,7,4.3,7.7c0.6,0.7,0.6,1.7,0,2.4c-0.6,0.6-1.6,0.6-2.3,0
			C1.4,9.4,1.4,8.3,2,7.6z"/>
		<path class="st18" d="M0,17.7h24v-5H0V17.7z M2,14c0.6-0.6,1.6-0.6,2.3,0c0.6,0.7,0.6,1.7,0,2.4C3.6,17,2.6,17,2,16.4
			C1.4,15.7,1.4,14.6,2,14z"/>
		<path class="st18" d="M0,24h24v-5H0V24z M2,20.3c0.6-0.6,1.6-0.6,2.3,0c0.6,0.7,0.6,1.7,0,2.4c-0.6,0.6-1.6,0.6-2.3,0
			C1.4,22,1.4,21,2,20.3z"/>
	</g>
</g>
</svg>
