<?xml version="1.0" encoding="utf-8"?>
<!-- Generator: Adobe Illustrator 21.1.0, SVG Export Plug-In . SVG Version: 6.00 Build 0)  -->
<svg version="1.1" xmlns="http://www.w3.org/2000/svg" xmlns:xlink="http://www.w3.org/1999/xlink" x="0px" y="0px"
	 viewBox="0 0 24 24" style="enable-background:new 0 0 24 24;" xml:space="preserve">
<style type="text/css">
	.st0{display:none;}
	.st1{display:inline;}
	.st2{fill:#114A54;}
	.st3{fill:#778E93;}
	.st4{fill:#D4E4F1;}
	.st5{fill:#398CCB;}
	.st6{fill:#AFDFF9;}
	.st7{fill:#6AA9DD;}
	.st8{fill:#20568E;}
	.st9{fill:#2C5261;}
	.st10{fill:#295A99;}
	.st11{opacity:0.2;fill:#3E85C5;}
	.st12{opacity:0.8;fill:#AFDFF9;}
	.st13{opacity:0.5;fill:#D4E4F1;}
	.st14{fill:#FFFFFF;}
	.st15{fill:#FFFFFF;stroke:#3E85C5;stroke-miterlimit:10;}
	.st16{fill:#3E85C5;}
	.st17{fill:#21558E;}
	.st18{fill:#B3C3C4;}
	.st19{fill:#D2E3F0;}
	.st20{display:none;fill:#B3C3C4;}
	.st21{fill:#295A9A;}
	.st22{fill:none;stroke:#295A99;stroke-miterlimit:10;}
</style>
<g id="Guidelines">
</g>
<g id="Your_Icons">
	<g class="st0">
	</g>
	<g>
		
			<rect x="9.5" y="-9.5" transform="matrix(-1.836970e-16 1 -1 -1.836970e-16 14.4856 -9.5144)" class="st7" width="5" height="24"/>
		<g>
			<path class="st14" d="M2,3.7C1.4,3,1.4,1.9,2,1.3c0.6-0.6,1.6-0.6,2.3,0C4.9,2,4.9,3,4.2,3.7C3.6,4.3,2.6,4.3,2,3.7z"/>
			<path class="st8" d="M3.1,1.8L3.1,1.8c0.2,0,0.3,0.1,0.4,0.2c0.3,0.3,0.2,0.7,0,1C3.4,3.1,3.2,3.2,3.1,3.2C3,3.2,2.8,3.1,2.7,3
				c-0.3-0.3-0.2-0.7,0-1C2.9,1.9,3,1.8,3.1,1.8 M3.1,0.8C2.7,0.8,2.3,1,2,1.3C1.4,1.9,1.4,3,2,3.7C2.3,4,2.7,4.2,3.1,4.2
				c0.4,0,0.8-0.2,1.1-0.5C4.9,3,4.9,2,4.3,1.3C3.9,1,3.5,0.8,3.1,0.8L3.1,0.8z"/>
		</g>
		
			<rect x="9.5" y="-3.2" transform="matrix(-1.836970e-16 1 -1 -1.836970e-16 20.8285 -3.1715)" class="st7" width="5" height="24"/>
		<g>
			<path class="st14" d="M2,10C1.4,9.4,1.4,8.3,2,7.6C2.6,7,3.6,7,4.3,7.7c0.6,0.7,0.6,1.7,0,2.4C3.6,10.7,2.6,10.7,2,10z"/>
			<path class="st8" d="M3.1,8.2L3.1,8.2c0.2,0,0.3,0.1,0.4,0.2c0.3,0.3,0.2,0.7,0,1C3.4,9.5,3.2,9.5,3.1,9.5C3,9.5,2.8,9.4,2.7,9.3
				c-0.3-0.3-0.2-0.7,0-1C2.9,8.2,3,8.2,3.1,8.2 M3.1,7.2C2.7,7.2,2.3,7.3,2,7.6C1.4,8.3,1.4,9.4,2,10c0.3,0.3,0.7,0.5,1.1,0.5
				c0.4,0,0.8-0.2,1.1-0.5c0.6-0.6,0.6-1.7,0-2.4C3.9,7.3,3.5,7.2,3.1,7.2L3.1,7.2z"/>
		</g>
		<rect x="9.5" y="3.2" transform="matrix(-1.836970e-16 1 -1 -1.836970e-16 27.1715 3.1715)" class="st7" width="5" height="24"/>
		<g>
			<path class="st14" d="M2,16.4c-0.6-0.7-0.6-1.7,0-2.4c0.6-0.6,1.6-0.6,2.3,0c0.6,0.7,0.6,1.7,0,2.4C3.6,17,2.6,17,2,16.4z"/>
			<path class="st8" d="M3.1,14.5L3.1,14.5c0.2,0,0.3,0.1,0.4,0.2c0.3,0.3,0.2,0.7,0,1c-0.1,0.1-0.3,0.2-0.4,0.2
				c-0.2,0-0.3-0.1-0.4-0.2c-0.3-0.3-0.2-0.7,0-1C2.9,14.5,3,14.5,3.1,14.5 M3.1,13.5c-0.4,0-0.8,0.2-1.1,0.5
				c-0.6,0.6-0.6,1.7,0,2.4c0.3,0.3,0.7,0.5,1.1,0.5c0.4,0,0.8-0.2,1.1-0.5c0.6-0.6,0.6-1.7,0-2.4C3.9,13.7,3.5,13.5,3.1,13.5
				L3.1,13.5z"/>
		</g>
		<rect x="9.5" y="9.5" transform="matrix(-1.836970e-16 1 -1 -1.836970e-16 33.5144 9.5144)" class="st7" width="5" height="24"/>
		<g>
			<path class="st14" d="M2,22.7C1.4,22,1.4,21,2,20.3c0.6-0.6,1.6-0.6,2.3,0c0.6,0.7,0.6,1.7,0,2.4C3.6,23.4,2.6,23.4,2,22.7z"/>
			<path class="st8" d="M3.1,20.8L3.1,20.8c0.2,0,0.3,0.1,0.4,0.2c0.3,0.3,0.2,0.7,0,1c-0.1,0.1-0.3,0.2-0.4,0.2
				c-0.2,0-0.3-0.1-0.4-0.2c-0.3-0.3-0.2-0.7,0-1C2.9,20.9,3,20.8,3.1,20.8 M3.1,19.8c-0.4,0-0.8,0.2-1.1,0.5C1.4,21,1.4,22,2,22.7
				c0.3,0.3,0.7,0.5,1.1,0.5c0.4,0,0.8-0.2,1.1-0.5c0.6-0.6,0.6-1.7,0-2.4C3.9,20,3.5,19.8,3.1,19.8L3.1,19.8z"/>
		</g>
	</g>
</g>
</svg>
