<?xml version="1.0" encoding="utf-8"?>
<!-- Generator: Adobe Illustrator 21.1.0, SVG Export Plug-In . SVG Version: 6.00 Build 0)  -->
<svg version="1.1" id="Layer_1" xmlns="http://www.w3.org/2000/svg" xmlns:xlink="http://www.w3.org/1999/xlink" x="0px" y="0px"
	 viewBox="0 0 20 20" style="enable-background:new 0 0 20 20;" xml:space="preserve">
<style type="text/css">
	.st0{fill:#FFFFFF;}
	.st1{fill:#C6D1DC;}
	.st2{fill:#8BCA35;}
	.st3{fill:#D70E0E;}
</style>
<path class="st0" d="M14.1,3.6v2.1h2.5l0,10.7h-2.1v-2.9h-0.6v2.9h-2.2v-2.9h-0.6v2.9H8.9v-2.9H8.3v2.9H6.1v-2.9H5.5v2.9H3.4V5.7
	h2.5V3.6H14.1 M15,2.7h-0.9H5.9H5v0.9v1.2H3.4H2.5v0.9v10.7v0.9h0.9h2.1h0.9h1.9h0.9h1.9H12h1.9h0.9h1.9h0.9l0-0.9l0-10.7l0-0.9
	h-0.9H15V3.6V2.7L15,2.7z"/>
</svg>
