<?xml version="1.0" encoding="utf-8"?>
<!-- Generator: Adobe Illustrator 16.0.0, SVG Export Plug-In . SVG Version: 6.00 Build 0)  -->
<!DOCTYPE svg PUBLIC "-//W3C//DTD SVG 1.1//EN" "http://www.w3.org/Graphics/SVG/1.1/DTD/svg11.dtd">
<svg version="1.1" id="Layer_1" xmlns="http://www.w3.org/2000/svg" xmlns:xlink="http://www.w3.org/1999/xlink" x="0px" y="0px"
	 width="15px" height="15px" viewBox="0 0 15 15" enable-background="new 0 0 15 15" xml:space="preserve">
<path fill="#FFFFFF" d="M15,7.5C15,3.358,11.642,0,7.5,0S0,3.358,0,7.5S3.358,15,7.5,15S15,11.642,15,7.5z M6.188,10.47L3.666,7.949
	C3.541,7.825,3.48,7.662,3.48,7.5c0-0.091,0.024-0.179,0.061-0.263C3.572,7.171,3.61,7.105,3.666,7.051c0,0,0.002,0,0.002-0.002
	l2.52-2.519c0.248-0.248,0.65-0.248,0.898,0c0.249,0.248,0.249,0.65,0.002,0.898L5.655,6.862h5.229c0.352,0,0.637,0.284,0.637,0.636
	c0,0.351-0.285,0.636-0.637,0.636H5.65l1.436,1.438c0.249,0.248,0.249,0.648,0,0.898C6.838,10.719,6.436,10.719,6.188,10.47z"/>
</svg>
