<?xml version="1.0" encoding="utf-8"?>
<!-- Generator: Adobe Illustrator 22.0.0, SVG Export Plug-In . SVG Version: 6.00 Build 0)  -->
<svg version="1.1" id="Layer_1" xmlns="http://www.w3.org/2000/svg" xmlns:xlink="http://www.w3.org/1999/xlink" x="0px" y="0px"
	 viewBox="0 0 24 26.7" style="enable-background:new 0 0 24 26.7;" xml:space="preserve">
<style type="text/css">
	.st0{fill:#295A99;}
</style>
<g id="Your_Icons">
	<g>
		<path class="st0" d="M14.7,17h-0.5v0.6C14.4,17.3,14.6,17.1,14.7,17z"/>
		<path class="st0" d="M10.7,8.6c-0.3,0-0.8,1.1-0.8,1.3c0,0.1,0,0.1,0,0.2l1.2-1.5C10.9,8.6,10.8,8.6,10.7,8.6z"/>
		<path class="st0" d="M12,3.6c-5,0-9,4-9,9c0,4.2,2.9,7.7,6.8,8.7v-0.8c-1.1-0.3-2.1-0.8-3-1.6c0.2-0.5,0.5-1.5,0.5-1.8V17H6.5
			c-0.4,0-0.7-0.2-0.9-0.6c-0.1-0.3-0.1-0.6,0-0.9c-0.1-0.2-0.1-0.4-0.2-0.5c-0.2-0.2-1.1-0.6-1.4-0.7c-0.1-0.5-0.2-1.1-0.2-1.7
			c0-0.2,0-0.5,0-0.7c0.6-0.3,1.8-1,1.8-1.2c0-0.3-0.5-1.6-0.5-1.9S5.6,8,5.9,8s0.3,1.1,0.5,1.1s1.1-1.6,1.1-1.9
			c0-0.2-0.6-0.8-0.7-1C8.2,5.1,10,4.4,12,4.4c1.4,0,2.8,0.4,3.9,1c-0.5,0.3-1.4,0.8-1.5,0.8c-0.3,0-1.3,0-1.6,0s-1.5,1.1-1.3,1.3
			c0.3,0.3,1.1-0.3,1.3-0.3s0.3,0.8,0,1.1l-0.1,0.1l0.1,0.1l1,1.2c0.3-0.2,0.7-0.5,0.9-0.3s-0.3,0.5-0.6,0.7l2.5,3.1
			c0.1-0.1,0.2-0.3,0.2-0.4c0-0.3-0.5-1.3-0.5-1.3s0.3,0.3,0.5,0.5s0.5,0,0.8,0s0.8,1.9,1.1,1.9s0.3-0.8,0.5-1.1
			c0.2-0.2,0.7-0.2,1.1-0.3c0,3.8-2.5,6.9-6,7.9v0.8c3.9-1,6.8-4.5,6.8-8.7C21,7.6,17,3.6,12,3.6z"/>
		<polygon class="st0" points="12,9.1 6.5,16 10.8,16 10.8,22.6 10.8,23.1 13.2,23.1 13.2,22.6 13.2,16 17.5,16 		"/>
	</g>
</g>
</svg>
