<?xml version="1.0" encoding="utf-8"?>
<!-- Generator: Adobe Illustrator 22.0.0, SVG Export Plug-In . SVG Version: 6.00 Build 0)  -->
<svg version="1.1" xmlns="http://www.w3.org/2000/svg" xmlns:xlink="http://www.w3.org/1999/xlink" x="0px" y="0px"
	 viewBox="0 0 24 24" style="enable-background:new 0 0 24 24;" xml:space="preserve">
<style type="text/css">
	.st0{fill:#295A99;}
</style>
<g id="Guidelines">
</g>
<g id="Your_Icons">
	<path class="st0" d="M22,10.1h-0.8c-0.8-3.7-3.7-6.6-7.3-7.3V2h-3.8v0.8c-3.7,0.8-6.6,3.7-7.3,7.3H2v3.8h0.8
		c0.8,3.7,3.7,6.6,7.3,7.3V22h3.8v-0.8c3.7-0.8,6.6-3.7,7.3-7.3H22V10.1z M20.1,10.1h-3.2c-0.5-1.3-1.6-2.4-2.9-2.9V3.9
		C17,4.6,19.4,7,20.1,10.1z M15.7,13.9c-0.4,0.7-1,1.3-1.7,1.7v-0.2h-3.8v0.2c-0.7-0.4-1.3-1-1.7-1.7h0.2v-3.8H8.3
		c0.4-0.7,1-1.3,1.7-1.7v0.2h3.8V8.3c0.7,0.4,1.3,1,1.7,1.7h-0.2v3.8H15.7z M10.1,3.9v3.2c-1.3,0.5-2.4,1.6-2.9,2.9H3.9
		C4.6,7,7,4.6,10.1,3.9z M3.9,13.9h3.2c0.5,1.3,1.6,2.4,2.9,2.9v3.2C7,19.4,4.6,17,3.9,13.9z M13.9,20.1v-3.2
		c1.3-0.5,2.4-1.6,2.9-2.9h3.2C19.4,17,17,19.4,13.9,20.1z"/>
</g>
</svg>
