<?xml version="1.0" encoding="utf-8"?>
<!-- Generator: Adobe Illustrator 22.0.0, SVG Export Plug-In . SVG Version: 6.00 Build 0)  -->
<svg version="1.1" xmlns="http://www.w3.org/2000/svg" xmlns:xlink="http://www.w3.org/1999/xlink" x="0px" y="0px"
	 viewBox="0 0 24 24" style="enable-background:new 0 0 24 24;" xml:space="preserve">
<style type="text/css">
	.st0{fill:#295A99;}
</style>
<g id="Guidelines">
</g>
<g id="Your_Icons">
	<g>
		<polygon class="st0" points="4,15 4,13 4,12.5 3,12.5 3,13 3,15 3,15.5 4,15.5 		"/>
		<polygon class="st0" points="4,19 4,17 4,16.5 3,16.5 3,17 3,19 3,19.5 4,19.5 		"/>
		<polygon class="st0" points="3,20 3,21 5,21 5.5,21 5.5,20 5,20 		"/>
		<polygon class="st0" points="3,4 5,4 5.5,4 5.5,3 3,3 		"/>
		<polygon class="st0" points="7,20 6.5,20 6.5,21 7,21 9,21 9.5,21 9.5,20 9,20 		"/>
		<polygon class="st0" points="13,4 13.5,4 13.5,3 10.5,3 10.5,4 11,4 		"/>
		<polygon class="st0" points="9,4 9.5,4 9.5,3 6.5,3 6.5,4 7,4 		"/>
		<polygon class="st0" points="4,11 4,9 4,8.5 3,8.5 3,9 3,11 3,11.5 4,11.5 		"/>
		<polygon class="st0" points="4,7 4,5 4,4.5 3,4.5 3,5 3,7 3,7.5 4,7.5 		"/>
		<polygon class="st0" points="20,9 20,11 20,11.5 21,11.5 21,8.5 20,8.5 		"/>
		<polygon class="st0" points="20,5 20,7 20,7.5 21,7.5 21,4.5 20,4.5 		"/>
		<polygon class="st0" points="20,13 20,15 20,15.5 21,15.5 21,12.5 20,12.5 		"/>
		<polygon class="st0" points="18.5,3 18.5,4 19,4 21,4 21,3 		"/>
		<polygon class="st0" points="15,20 14.5,20 14.5,21 15,21 17,21 17.5,21 17.5,20 17,20 		"/>
		<polygon class="st0" points="11,20 10.5,20 10.5,21 11,21 13,21 13.5,21 13.5,20 13,20 		"/>
		<polygon class="st0" points="14.5,4 15,4 17,4 17.5,4 17.5,3 14.5,3 		"/>
		<polygon class="st0" points="18.5,20 18.5,21 19,21 21,21 21,20 19,20 		"/>
		<polygon class="st0" points="20,17 20,19 20,19.5 21,19.5 21,16.5 20,16.5 		"/>
		<rect x="7.6" y="7.6" class="st0" width="8.8" height="8.8"/>
	</g>
</g>
</svg>
