<?xml version="1.0" encoding="utf-8"?>
<!-- Generator: Adobe Illustrator 22.0.0, SVG Export Plug-In . SVG Version: 6.00 Build 0)  -->
<svg version="1.1" xmlns="http://www.w3.org/2000/svg" xmlns:xlink="http://www.w3.org/1999/xlink" x="0px" y="0px"
	 viewBox="0 0 24 24" style="enable-background:new 0 0 24 24;" xml:space="preserve">
<style type="text/css">
	.st0{fill:#295A99;}
</style>
<g id="Guidelines">
</g>
<g id="Your_Icons">
	<path class="st0" d="M12,2C6.5,2,2,6.5,2,12c0,5.5,4.5,10,10,10c5.5,0,10-4.5,10-10C22,6.5,17.5,2,12,2z M17.8,9.6l-1.7,2.6
		c0,0.1-0.1,0.3-0.2,0.3l-0.2,0.3l-3.2-2.2c-0.2-0.2-0.3-0.5-0.1-0.8c0.2-0.2,0.5-0.3,0.8-0.1l1.8,1.2c-0.5-1.6-2-2.8-3.8-2.8
		c-2.2,0-3.9,1.8-3.9,3.9c0,2.2,1.8,3.9,3.9,3.9c1.2,0,2.3-0.5,3-1.4c0.2-0.2,0.5-0.3,0.8-0.1c0.2,0.2,0.3,0.5,0.1,0.8
		c-1,1.2-2.4,1.8-3.9,1.8c-2.8,0-5-2.2-5-5s2.2-5,5-5c2.2,0,4.1,1.5,4.8,3.5l1.1-1.6c0.2-0.2,0.5-0.3,0.8-0.1
		C17.9,9,18,9.3,17.8,9.6z"/>
</g>
</svg>
