<?xml version="1.0" encoding="utf-8"?>
<!-- Generator: Adobe Illustrator 16.0.0, SVG Export Plug-In . SVG Version: 6.00 Build 0)  -->
<!DOCTYPE svg PUBLIC "-//W3C//DTD SVG 1.1//EN" "http://www.w3.org/Graphics/SVG/1.1/DTD/svg11.dtd">
<svg version="1.1" id="Layer_1" xmlns="http://www.w3.org/2000/svg" xmlns:xlink="http://www.w3.org/1999/xlink" x="0px" y="0px"
	 width="22px" height="22px" viewBox="0 0 22 22" enable-background="new 0 0 22 22" xml:space="preserve">
<path fill-rule="evenodd" clip-rule="evenodd" fill="#AEAEAF" d="M17.77,11c-0.004-0.105-0.021-0.207-0.042-0.312
	c-0.024-0.156-0.061-0.304-0.132-0.448c-0.129-0.291-0.304-0.574-0.566-0.82L7.742,0.764C6.843-0.083,5.599-0.291,4.785,0.471
	c-0.815,0.76-0.713,2.034,0.188,2.88L13.104,11l-8.131,7.647c-0.9,0.849-1.003,2.122-0.188,2.883
	c0.813,0.762,2.058,0.554,2.957-0.293l9.287-8.656c0.261-0.246,0.438-0.527,0.566-0.818c0.071-0.146,0.107-0.292,0.132-0.45
	C17.749,11.206,17.766,11.105,17.77,11z"/>
</svg>
