<?xml version="1.0" encoding="utf-8"?>
<!-- Generator: Adobe Illustrator 16.0.0, SVG Export Plug-In . SVG Version: 6.00 Build 0)  -->
<!DOCTYPE svg PUBLIC "-//W3C//DTD SVG 1.1//EN" "http://www.w3.org/Graphics/SVG/1.1/DTD/svg11.dtd">
<svg version="1.1" id="Layer_1" xmlns="http://www.w3.org/2000/svg" xmlns:xlink="http://www.w3.org/1999/xlink" x="0px" y="0px"
	 width="22px" height="22px" viewBox="0 0 22 22" enable-background="new 0 0 22 22" xml:space="preserve">
<g>
	<path fill="#ADADAE" d="M18.938,18.908h-5.188c-0.181-1.102-1.034-1.978-2.128-2.182v-1.947h5.242c0.604,0,1.094-0.493,1.094-1.096
		V1.096C17.956,0.492,17.467,0,16.862,0H5.161C4.557,0,4.062,0.492,4.062,1.096v12.587c0,0.603,0.495,1.096,1.099,1.096h5.482v1.947
		c-1.094,0.204-1.948,1.08-2.129,2.182H3.062v0.978h5.466C8.781,21.092,9.852,22,11.132,22c1.279,0,2.351-0.908,2.604-2.114h5.202
		V18.908z M5.782,6.735c0-2.887,2.339-5.227,5.226-5.227c2.886,0,5.228,2.34,5.228,5.227c0,2.697-2.043,4.917-4.666,5.196
		c0.82-1.117,1.352-2.18,0.895-2.683c-0.111-0.125-0.365-0.327-0.8-0.278c-0.696,0.079-2.252,1.098-3.607,2.078
		C6.685,10.105,5.782,8.527,5.782,6.735z M8.327,13.182c-0.425-0.448-0.285-1.272,0.311-1.84c0.273-0.26,3.16-1.976,3.391-1.732
		c0.187,0.198-1.512,3.038-1.847,3.357C9.583,13.535,8.753,13.63,8.327,13.182z M11.132,21.022c-0.929,0-1.684-0.756-1.684-1.684
		c0-0.929,0.755-1.685,1.684-1.685c0.928,0,1.684,0.756,1.684,1.685C12.815,20.267,12.06,21.022,11.132,21.022z"/>
	<circle fill="#ADADAE" cx="11.009" cy="6.735" r="1.493"/>
</g>
</svg>
