<?xml version="1.0" encoding="utf-8"?>
<!-- Generator: Adobe Illustrator 21.1.0, SVG Export Plug-In . SVG Version: 6.00 Build 0)  -->
<svg version="1.1" xmlns="http://www.w3.org/2000/svg" xmlns:xlink="http://www.w3.org/1999/xlink" x="0px" y="0px"
	 viewBox="0 0 24 24" style="enable-background:new 0 0 24 24;" xml:space="preserve">
<style type="text/css">
	.st0{display:none;}
	.st1{display:inline;}
	.st2{fill:#114A54;}
	.st3{fill:#778E93;}
	.st4{fill:#D4E4F1;}
	.st5{fill:#398CCB;}
	.st6{fill:#AFDFF9;}
	.st7{fill:#6AA9DD;}
	.st8{fill:#20568E;}
	.st9{fill:#2C5261;}
	.st10{fill:#295A99;}
	.st11{opacity:0.2;fill:#3E85C5;}
	.st12{opacity:0.8;fill:#AFDFF9;}
	.st13{opacity:0.5;fill:#D4E4F1;}
	.st14{fill:#FFFFFF;}
	.st15{fill:#FFFFFF;stroke:#3E85C5;stroke-miterlimit:10;}
	.st16{fill:#3E85C5;}
	.st17{fill:#21558E;}
	.st18{fill:#B3C3C4;}
	.st19{fill:#D2E3F0;}
	.st20{display:none;fill:#B3C3C4;}
	.st21{fill:#295A9A;}
	.st22{fill:none;stroke:#295A99;stroke-miterlimit:10;}
</style>
<g id="Guidelines">
</g>
<g id="Your_Icons">
	<g class="st0">
	</g>
	<polygon class="st7" points="18,0 6,0 0,10.4 6,20.8 18,20.8 24,10.4 	"/>
	<polygon class="st21" points="5.5,11.7 5.3,12 5.3,19 9.5,22 9.5,24 14.8,24 14.8,22 18.7,19 18.7,12 18.5,11.7 15.4,16.5 
		8.3,16.5 	"/>
	<polygon class="st14" points="15,3.4 9,3.4 5.9,8.7 9,14 15,14 18.1,8.7 	"/>
	<g>
		<g>
			<g>
				<circle class="st21" cx="12" cy="9" r="2.5"/>
			</g>
		</g>
		<g>
			<path class="st16" d="M10.8,11.3c-1.2-0.7-1.6-2.3-0.9-3.5c0.7-1.2,2.3-1.6,3.5-0.9"/>
		</g>
		<g>
			<g>
				<circle class="st22" cx="12" cy="9.1" r="2.5"/>
			</g>
		</g>
	</g>
</g>
</svg>
