<?xml version="1.0" encoding="utf-8"?>
<!-- Generator: Adobe Illustrator 21.1.0, SVG Export Plug-In . SVG Version: 6.00 Build 0)  -->
<svg version="1.1" xmlns="http://www.w3.org/2000/svg" xmlns:xlink="http://www.w3.org/1999/xlink" x="0px" y="0px"
	 viewBox="0 0 24 24" style="enable-background:new 0 0 24 24;" xml:space="preserve">
<style type="text/css">
	.st0{display:none;}
	.st1{display:inline;}
	.st2{fill:#114A54;}
	.st3{fill:#778E93;}
	.st4{fill:#D4E4F1;}
	.st5{fill:#398CCB;}
	.st6{fill:#AFDFF9;}
	.st7{fill:#6AA9DD;}
	.st8{fill:#20568E;}
	.st9{fill:#2C5261;}
	.st10{fill:#295A99;}
	.st11{opacity:0.2;fill:#3E85C5;}
	.st12{opacity:0.8;fill:#AFDFF9;}
	.st13{opacity:0.5;fill:#D4E4F1;}
	.st14{fill:#FFFFFF;}
	.st15{fill:#FFFFFF;stroke:#3E85C5;stroke-miterlimit:10;}
	.st16{fill:#3E85C5;}
	.st17{fill:#21558E;}
	.st18{fill:#B3C3C4;}
	.st19{fill:#D2E3F0;}
	.st20{display:none;fill:#B3C3C4;}
	.st21{fill:#295A9A;}
	.st22{fill:none;stroke:#295A99;stroke-miterlimit:10;}
</style>
<g id="Guidelines">
</g>
<g id="Your_Icons">
	<g class="st0">
	</g>
	<circle class="st18" cx="12" cy="9" r="2.5"/>
	<path class="st18" d="M18,0H6L0,10.4l6,10.4h1.8L5.3,19v-7l0.3-0.3l2.7,4.8h7.1l3.1-4.8l0.2,0.3v7l-2.4,1.8H18l6-10.4L18,0z M15,14
		H9l-3-5.3l3-5.3H15l3,5.3L15,14z"/>
	<polygon class="st18" points="10.1,24 10.1,21.7 5.9,18.7 5.9,13.5 7.9,17.1 15.8,17.1 17.9,13.7 18.1,13.4 18.1,18.6 14.1,21.8 
		14.2,24 	"/>
</g>
</svg>
