<?xml version="1.0" encoding="utf-8"?>
<!-- Generator: Adobe Illustrator 22.0.0, SVG Export Plug-In . SVG Version: 6.00 Build 0)  -->
<svg version="1.1" id="Your_Icons" xmlns="http://www.w3.org/2000/svg" xmlns:xlink="http://www.w3.org/1999/xlink" x="0px" y="0px"
	 viewBox="0 0 24 24" style="enable-background:new 0 0 24 24;" xml:space="preserve">
<style type="text/css">
	.st0{fill:#295A99;}
</style>
<g>
	<path class="st0" d="M20.5,6.9c-1.9-1.7-4.7-1.5-6.4,0.4c-1.2,1.4-1.5,3.3-0.7,4.9l-4.7,4.7c-0.4,0.4-0.4,0.9,0,1.3l1.8,1.8
		c0.4,0.3,0.9,0.3,1.3,0c0.3-0.3,0.3-0.9,0-1.2l-1.2-1.2l1-1l1.2,1.2c0.4,0.3,0.9,0.3,1.3,0c0.3-0.3,0.3-0.9,0-1.2l-1.2-1.2l1.6-1.6
		c1.9,1.7,4.7,1.5,6.4-0.4S22.3,8.6,20.5,6.9z M18.6,10.3c-0.6,0-1.1-0.5-1.1-1.1C17.5,8.5,18,8,18.6,8c0.6,0,1.1,0.5,1.1,1.1
		C19.7,9.8,19.2,10.3,18.6,10.3z"/>
	<path class="st0" d="M9.2,12.2c0.1,0.1,0.2,0.1,0.3,0.1c0.1,0,0.2,0,0.2-0.1l0.9-0.9c0.1-0.1,0.1-0.3,0-0.4l-0.3-0.4
		c0.2-0.3,0.3-0.6,0.4-1l0.5-0.1c0.2-0.1,0.3-0.2,0.3-0.3V7.8c-0.1-0.2-0.3-0.3-0.4-0.3l-0.5-0.1c-0.1-0.4-0.2-0.7-0.4-1L10.4,6
		c0.1-0.2,0.1-0.3,0-0.4L9.5,4.7C9.5,4.7,9.4,4.7,9.3,4.7S9.2,4.7,9,4.7L8.6,5C8.3,4.8,8,4.7,7.6,4.6L7.5,4.1c0-0.2-0.1-0.3-0.3-0.3
		H6C5.9,3.8,5.8,4,5.7,4.1L5.6,4.6C5.3,4.7,5,4.8,4.6,5L4.2,4.7C4.2,4.7,4.1,4.6,4,4.6s-0.2,0-0.2,0.1L2.9,5.6
		C2.8,5.7,2.9,5.9,2.9,6l0.3,0.4C3,6.8,2.8,7.1,2.8,7.4L2.3,7.5C2.2,7.6,2,7.7,2,7.8v1.2c0,0.2,0.2,0.3,0.3,0.3l0.5,0.1
		c0.1,0.4,0.2,0.7,0.4,1l-0.3,0.4c-0.1,0.2-0.1,0.3,0,0.4l0.9,0.9c0.1,0.1,0.1,0.1,0.2,0.1s0.2-0.1,0.3-0.1l0.4-0.3
		c0.3,0.2,0.6,0.3,1,0.4l0.1,0.5c0.1,0.2,0.2,0.3,0.3,0.3h1.2c0.2,0,0.3-0.2,0.3-0.3l0.1-0.5c0.4-0.1,0.7-0.2,1-0.4L9.2,12.2z
		 M6.7,10.6c-1.2,0-2.1-0.9-2.1-2.1s0.9-2.1,2.1-2.1s2.1,0.9,2.1,2.1S7.9,10.6,6.7,10.6z"/>
</g>
</svg>
