<?xml version="1.0" encoding="utf-8"?>
<!-- Generator: Adobe Illustrator 21.1.0, SVG Export Plug-In . SVG Version: 6.00 Build 0)  -->
<svg version="1.1" id="Layer_1" xmlns="http://www.w3.org/2000/svg" xmlns:xlink="http://www.w3.org/1999/xlink" x="0px" y="0px"
	 viewBox="0 0 24 24" style="enable-background:new 0 0 24 24;" xml:space="preserve">
<style type="text/css">
	.st0{fill:#B3C3C4;}
</style>
<g id="Your_Icons">
	<path class="st0" d="M18,1.6C12.3-1.7,4.9,0.3,1.6,6S0.3,19.1,6,22.4s13.1,1.3,16.4-4.4S23.7,4.9,18,1.6z M19.5,16.3
		c-2.4,4.2-7.7,5.6-11.9,3.2S2,11.8,4.4,7.6S12.1,2,16.3,4.4C20.5,6.9,21.9,12.2,19.5,16.3z"/>
	<path class="st0" d="M11.1,17.3l0.3-0.5c0.4,0,0.9,0,1.3,0l0.3,0.4c0.1,0.1,0.3,0.3,0.5,0.2l1.4-0.6c0.1,0,0.1-0.1,0.2-0.2
		c0-0.1,0-0.2,0-0.3L15,15.8c0.3-0.3,0.6-0.6,0.9-0.9l0.6,0.1c0.2,0,0.4,0,0.5-0.2l0.5-1.4c0.1-0.2-0.1-0.4-0.2-0.5l-0.5-0.3
		c0-0.4,0-0.8,0-1.3l0.4-0.3c0.1-0.1,0.2-0.2,0.2-0.2c0-0.1,0-0.2,0-0.2l-0.6-1.4C16.7,9,16.5,9,16.3,9l-0.5,0
		c-0.3-0.3-0.6-0.6-0.9-0.9L15,7.6c0-0.2,0-0.4-0.2-0.5l-1.4-0.5c-0.2-0.1-0.4,0.1-0.5,0.2l-0.3,0.5c-0.4,0-0.9,0-1.3,0L11,6.9
		c-0.1-0.1-0.3-0.3-0.5-0.2L9.1,7.2C9,7.2,8.9,7.3,8.9,7.4s0,0.2,0,0.3L9,8.2C8.7,8.5,8.4,8.8,8.1,9.1H7.5c-0.2,0-0.4,0-0.5,0.2
		l-0.5,1.4c-0.1,0.2,0.1,0.4,0.2,0.5l0.5,0.3c0,0.4,0,0.8,0,1.3l-0.4,0.3c-0.1,0.1-0.2,0.2-0.2,0.3s0,0.2,0,0.2L7.2,15
		c0.1,0.2,0.3,0.2,0.5,0.2L8.2,15c0.3,0.3,0.6,0.6,0.9,0.9L9,16.4c0,0.2,0,0.4,0.2,0.5l1.4,0.5C10.8,17.6,11,17.4,11.1,17.3z
		 M9.6,11.1c0.5-1.3,2-2,3.3-1.4c1.3,0.5,2,2,1.4,3.3s-2,2-3.3,1.4C9.8,13.9,9.1,12.4,9.6,11.1z"/>
</g>
</svg>
