<?xml version="1.0" encoding="utf-8"?>
<!-- Generator: Adobe Illustrator 16.0.0, SVG Export Plug-In . SVG Version: 6.00 Build 0)  -->
<!DOCTYPE svg PUBLIC "-//W3C//DTD SVG 1.1//EN" "http://www.w3.org/Graphics/SVG/1.1/DTD/svg11.dtd">
<svg version="1.1" id="Layer_1" xmlns="http://www.w3.org/2000/svg" xmlns:xlink="http://www.w3.org/1999/xlink" x="0px" y="0px"
	 width="15px" height="15px" viewBox="0 0 15 15" enable-background="new 0 0 15 15" xml:space="preserve">
<g>
	<path fill="#FFFFFF" d="M7.487,0C3.616,0,0.467,3.027,0.467,6.748c0,1.982,0.911,3.852,2.505,5.158v1.221
		c0,1.259,0.874,1.822,1.74,1.822h0.243c0.235,0,0.462-0.051,0.66-0.145c0.58,0.274,1.36,0.252,1.899-0.051
		C7.801,14.914,8.144,15,8.512,15c0.321,0,0.631-0.068,0.902-0.196c0.197,0.094,0.424,0.145,0.659,0.145h0.243
		c0.851,0,1.766-0.57,1.766-1.822v-1.311c1.562-1.257,2.451-3.108,2.451-5.126C14.476,3,11.315,0,7.487,0z M11.283,11.17
		l-0.201,0.149v1.807c0,0.742-0.535,0.822-0.766,0.822h-0.243c-0.052,0-0.102-0.01-0.147-0.021v-1.351c0-0.276-0.224-0.5-0.5-0.5
		s-0.5,0.224-0.5,0.5v1.333c-0.295,0.114-0.665,0.095-0.922-0.05v-1.283c0-0.276-0.223-0.5-0.5-0.5s-0.5,0.224-0.5,0.5v1.294
		c-0.263,0.138-0.632,0.148-0.922,0.029v-1.323c0-0.276-0.224-0.5-0.5-0.5s-0.5,0.224-0.5,0.5v1.354
		C5.042,13.938,5,13.948,4.955,13.948H4.711c-0.491,0-0.74-0.276-0.74-0.822v-1.478l-0.054-0.338l-0.232-0.114
		C2.275,10.078,1.467,8.46,1.467,6.748C1.467,3.578,4.167,1,7.487,1c3.285,0,5.997,2.559,6.046,5.697
		C13.533,8.473,12.713,10.104,11.283,11.17z"/>
	<path fill="#FFFFFF" d="M7.918,10.041c-0.216-0.233-0.566-0.233-0.782,0c-0.215,0.233-0.404,0.415-0.404,0.415
		c-0.054,0.077-0.107,0.207-0.107,0.311c0,0.285,0.215,0.519,0.485,0.519c0.188,0,0.323-0.104,0.404-0.26
		c0.082,0.156,0.242,0.26,0.405,0.26c0.269,0,0.485-0.233,0.485-0.519c0-0.129-0.026-0.233-0.108-0.311L7.918,10.041z"/>
	<path fill="#FFFFFF" d="M6.895,7.008C6.84,6.93,6.706,6.904,6.706,6.904L3.822,6.645c0,0-0.295,0-0.377,0.156
		C3.311,7.059,3.23,7.319,3.23,7.629c0,0.985,0.835,1.816,1.886,1.816s1.886-0.804,1.886-1.816C7.002,7.422,6.948,7.215,6.895,7.008
		z"/>
	<path fill="#FFFFFF" d="M11.824,6.826c-0.08-0.182-0.377-0.156-0.377-0.156L8.564,6.93c0,0-0.135,0.025-0.161,0.129
		C8.35,7.266,8.295,7.448,8.295,7.682c0,0.985,0.835,1.814,1.887,1.814c1.023,0,1.886-0.804,1.886-1.814
		C12.039,7.344,11.959,7.085,11.824,6.826z"/>
</g>
</svg>
