<svg width="24px" height="24px" viewBox="0 0 24 24" version="1.1" xmlns="http://www.w3.org/2000/svg" xmlns:xlink="http://www.w3.org/1999/xlink">
    <!-- Generator: Sketch 43.2 (39069) - http://www.bohemiancoding.com/sketch -->
    <desc>Created with Sketch.</desc>
    <g id="Page-1" stroke="none" stroke-width="1" fill="none" fill-rule="evenodd" transform="translate(0, 3)">
        <g id="Storage__Snapshots" fill-rule="nonzero" fill="#134A54">
            <path d="M2.33446461,3.64893847 C2.03012173,3.18807639 1.40980054,3.06119251 0.948938465,3.36553539 C0.488076387,3.66987827 0.361192508,4.29019946 0.66553539,4.75106153 L4.73396563,10.9118273 L10.6766832,6.71696786 C11.1278821,6.39847453 11.2354612,5.77451569 10.9169679,5.3233168 C10.5984745,4.87211791 9.97451569,4.7645388 9.5233168,5.08303214 L5.26603437,8.08817268 L2.33446461,3.64893847 Z" id="Shape"></path>
            <path d="M6.01511723,15.5196443 C7.74393162,17.7094758 10.3549921,19 13.2,19 C18.3542281,19 22.5,14.7505838 22.5,9.5 C22.5,4.2494162 18.3542281,0 13.2,0 C8.0457719,0 3.9,4.2494162 3.9,9.5 C3.9,10.0522847 4.34771525,10.5 4.9,10.5 C5.45228475,10.5 5.9,10.0522847 5.9,9.5 C5.9,5.3430838 9.16154517,2 13.2,2 C17.2384548,2 20.5,5.3430838 20.5,9.5 C20.5,13.6569162 17.2384548,17 13.2,17 C10.9729149,17 8.93791362,15.9941948 7.58488277,14.2803557 C7.24266267,13.8468769 6.61383449,13.7728971 6.18035571,14.1151172 C5.74687693,14.4573373 5.67289714,15.0861655 6.01511723,15.5196443 Z" id="Shape"></path>
            <path d="M12.4,5.7 L12.4,9.7 C12.4,9.97614237 12.6238576,10.2 12.9,10.2 C13.1761424,10.2 13.4,9.97614237 13.4,9.7 L13.4,5.7 C13.4,5.42385763 13.1761424,5.2 12.9,5.2 C12.6238576,5.2 12.4,5.42385763 12.4,5.7 Z" id="Shape"></path>
            <path d="M12.5522893,10.0593011 L15.6522893,13.0593011 C15.8507258,13.2513364 16.1672657,13.2461472 16.3593011,13.0477107 C16.5513364,12.8492742 16.5461472,12.5327343 16.3477107,12.3406989 L13.2477107,9.34069893 C13.0492742,9.1486636 12.7327343,9.15385278 12.5406989,9.35228929 C12.3486636,9.55072579 12.3538528,9.86726575 12.5522893,10.0593011 Z" id="Shape"></path>
        </g>
    </g>
</svg>