<?xml version="1.0" encoding="utf-8"?>
<!-- Generator: Adobe Illustrator 21.1.0, SVG Export Plug-In . SVG Version: 6.00 Build 0)  -->
<svg version="1.1" xmlns="http://www.w3.org/2000/svg" xmlns:xlink="http://www.w3.org/1999/xlink" x="0px" y="0px"
	 viewBox="0 0 24 24" style="enable-background:new 0 0 24 24;" xml:space="preserve">
<style type="text/css">
	.st0{display:none;}
	.st1{display:inline;}
	.st2{fill:#114A54;}
	.st3{fill:#778E93;}
	.st4{fill:#D4E4F1;}
	.st5{fill:#398CCB;}
	.st6{fill:#AFDFF9;}
	.st7{fill:#6AA9DD;}
	.st8{fill:#20568E;}
	.st9{fill:#2C5261;}
	.st10{fill:#295A99;}
	.st11{opacity:0.2;fill:#3E85C5;}
	.st12{opacity:0.8;fill:#AFDFF9;}
	.st13{opacity:0.5;fill:#D4E4F1;}
	.st14{fill:#FFFFFF;}
	.st15{fill:#FFFFFF;stroke:#3E85C5;stroke-miterlimit:10;}
	.st16{fill:#3E85C5;}
	.st17{fill:#21558E;}
	.st18{fill:#B3C3C4;}
	.st19{fill:#D2E3F0;}
	.st20{display:none;fill:#B3C3C4;}
	.st21{fill:#295A9A;}
	.st22{fill:none;stroke:#295A99;stroke-miterlimit:10;}
</style>
<g id="Guidelines">
</g>
<g id="Your_Icons">
	<g class="st0">
	</g>
	<g>
		<g>
			<g>
				<path class="st4" d="M6.1,22.4C0.4,19.1-1.6,11.7,1.7,6C5,0.3,12.3-1.7,17.9,1.6c5.7,3.3,7.6,10.7,4.4,16.4
					C19,23.7,11.7,25.7,6.1,22.4z"/>
			</g>
		</g>
		<path class="st14" d="M7.6,20.3C3,17.7,1.4,11.7,4,7.1c2.6-4.7,8.5-6.3,13.1-3.6c4.6,2.7,6.2,8.6,3.6,13.3
			C18.1,21.3,12.3,23,7.6,20.3z"/>
		<g>
			<polygon class="st10" points="2.9,13.4 0.6,9.9 1.5,9.4 3.2,12 5.7,10.2 6.3,11 			"/>
			<path class="st10" d="M12.4,22.1c-2.9,0-5.7-1.3-7.6-3.7l0.8-0.6c1.7,2.1,4.1,3.3,6.8,3.3c4.8,0,8.8-4.1,8.8-9.1
				s-3.9-9.1-8.8-9.1S3.6,7,3.6,12h-1C2.6,6.5,7,1.9,12.4,1.9c5.4,0,9.8,4.5,9.8,10.1S17.8,22.1,12.4,22.1z"/>
		</g>
		<g>
			
				<rect x="11.7" y="4.8" transform="matrix(1 -7.812262e-03 7.812262e-03 1 -6.624959e-02 9.558231e-02)" class="st10" width="1" height="7.4"/>
			
				<rect x="14.4" y="11.6" transform="matrix(0.6143 -0.7891 0.7891 0.6143 -5.8934 17.4925)" class="st10" width="1" height="6.3"/>
		</g>
		<g>
			<g>
				<path class="st10" d="M11,14.6c-1.1-0.6-1.5-2.1-0.8-3.2c0.6-1.1,2-1.5,3.1-0.8c1.1,0.6,1.5,2.1,0.8,3.2
					C13.5,14.9,12.1,15.3,11,14.6z"/>
				<g>
					<path class="st16" d="M11,14.6c-1.1-0.6-1.5-2.1-0.8-3.2c0.6-1.1,2-1.5,3.1-0.8"/>
				</g>
			</g>
			<g>
				<path class="st10" d="M12.2,15.4c-1.5,0-2.8-1.2-2.8-2.8s1.2-2.8,2.8-2.8s2.8,1.2,2.8,2.8S13.7,15.4,12.2,15.4z M12.2,10.8
					c-1,0-1.8,0.8-1.8,1.8s0.8,1.8,1.8,1.8s1.8-0.8,1.8-1.8S13.2,10.8,12.2,10.8z"/>
			</g>
		</g>
	</g>
</g>
</svg>
