<?xml version="1.0" encoding="utf-8"?>
<!-- Generator: Adobe Illustrator 21.1.0, SVG Export Plug-In . SVG Version: 6.00 Build 0)  -->
<svg version="1.1" xmlns="http://www.w3.org/2000/svg" xmlns:xlink="http://www.w3.org/1999/xlink" x="0px" y="0px"
	 viewBox="0 0 24 24" style="enable-background:new 0 0 24 24;" xml:space="preserve">
<style type="text/css">
	.st0{display:none;}
	.st1{display:inline;}
	.st2{fill:#114A54;}
	.st3{fill:#778E93;}
	.st4{fill:#D4E4F1;}
	.st5{fill:#398CCB;}
	.st6{fill:#AFDFF9;}
	.st7{fill:#6AA9DD;}
	.st8{fill:#20568E;}
	.st9{fill:#2C5261;}
	.st10{fill:#295A99;}
	.st11{opacity:0.2;fill:#3E85C5;}
	.st12{opacity:0.8;fill:#AFDFF9;}
	.st13{opacity:0.5;fill:#D4E4F1;}
	.st14{fill:#FFFFFF;}
	.st15{fill:#FFFFFF;stroke:#3E85C5;stroke-miterlimit:10;}
	.st16{fill:#3E85C5;}
	.st17{fill:#21558E;}
	.st18{fill:#B3C3C4;}
	.st19{fill:#D2E3F0;}
	.st20{display:none;fill:#B3C3C4;}
	.st21{fill:#295A9A;}
	.st22{fill:none;stroke:#295A99;stroke-miterlimit:10;}
</style>
<g id="Guidelines">
</g>
<g id="Your_Icons">
	<g class="st0">
	</g>
	<g>
		<path class="st18" d="M17.9,1.6C12.3-1.7,5,0.3,1.7,6c-3.3,5.7-1.3,13.1,4.4,16.4c5.7,3.3,13,1.3,16.2-4.4
			C25.6,12.3,23.6,4.9,17.9,1.6z M12.4,22.2c-2.9,0-5.7-1.3-7.6-3.7l0.8-0.6c1.7,2.1,4.1,3.3,6.8,3.3c4.8,0,8.8-4.1,8.8-9.1
			S17.2,3,12.4,3c-4.7,0-8.6,3.9-8.8,8.8l2.1-1.5l0.6,0.8l-3.4,2.4L0.6,10l0.8-0.6l1.2,1.8C3.1,6.1,7.3,2,12.4,2
			c5.4,0,9.8,4.5,9.8,10.1S17.8,22.2,12.4,22.2z M11.5,4.1l1,0l0,5c1.4,0.3,2.5,1.5,2.5,3c0,0.4-0.1,0.8-0.2,1.1l3.1,2.4l-0.6,0.8
			l-3-2.3C13.8,14.6,12.9,15,12,15c-1.7,0-3.1-1.4-3.1-3c0-1.5,1.2-2.8,2.6-3L11.5,4.1z"/>
		<path class="st18" d="M14.2,13.3c0.7-1.2,0.3-2.7-0.9-3.4l-2.5,4.3C12,14.9,13.5,14.5,14.2,13.3z"/>
	</g>
</g>
</svg>
