<?xml version="1.0" encoding="utf-8"?>
<!-- Generator: Adobe Illustrator 16.0.0, SVG Export Plug-In . SVG Version: 6.00 Build 0)  -->
<!DOCTYPE svg PUBLIC "-//W3C//DTD SVG 1.1//EN" "http://www.w3.org/Graphics/SVG/1.1/DTD/svg11.dtd">
<svg version="1.1" id="Layer_1" xmlns="http://www.w3.org/2000/svg" xmlns:xlink="http://www.w3.org/1999/xlink" x="0px" y="0px"
	 width="22px" height="22px" viewBox="0 0 22 22" enable-background="new 0 0 22 22" xml:space="preserve">
	<style type="text/css">
	.st0{display:none;}
	.st1{display:inline;}
	.st2{fill:#114A54;}
	.st3{fill:#778E93;}
	.st4{fill:#D4E4F1;}
	.st5{fill:#398CCB;}
	.st6{fill:#AFDFF9;}
	.st7{fill:#6AA9DD;}
	.st8{fill:#20568E;}
	.st9{fill:#2C5261;}
	.st10{fill:#295A99;}
	.st11{opacity:0.2;fill:#3E85C5;}
	.st12{opacity:0.8;fill:#AFDFF9;}
	.st13{opacity:0.5;fill:#D4E4F1;}
	.st14{fill:#FFFFFF;}
	.st15{fill:#FFFFFF;stroke:#3E85C5;stroke-miterlimit:10;}
	.st16{fill:#3E85C5;}
	.st17{fill:#21558E;}
	.st18{fill:#B3C3C4;}
	.st19{fill:#D2E3F0;}
	.st20{display:none;fill:#B3C3C4;}
	.st21{fill:#295A9A;}
	.st22{fill:none;stroke:#295A99;stroke-miterlimit:10;}
</style>
<g>
	<path class="st8" d="M11.412,17.432v-2.079h-1.046v2.11c-0.843,0.219-1.503,0.896-1.684,1.753h-4.4v1.047h4.43
		C8.968,21.259,9.866,22,10.939,22c1.075,0,1.973-0.741,2.229-1.737h4.16v-1.047h-4.131C13.011,18.323,12.306,17.618,11.412,17.432z
		 M10.939,20.954c-0.695,0-1.261-0.566-1.261-1.263c0-0.697,0.566-1.263,1.261-1.263c0.697,0,1.263,0.565,1.263,1.263
		C12.202,20.388,11.637,20.954,10.939,20.954z"/>
	<path class="st7" d="M19.351,0H2.531C1.676,0,1.062,0.653,1.062,1.508c0,0,0,3.113,0,3.542c0,0.458,0.173,0.762,0.566,0.762
		c0.547,0,18.204,0,18.614,0s0.695-0.322,0.695-0.732c0-0.672,0-3.571,0-3.571C20.938,0.653,20.205,0,19.351,0z M16.615,4.092
		c-0.654,0-1.185-0.532-1.185-1.188s0.53-1.186,1.185-1.186c0.656,0,1.188,0.53,1.188,1.186S17.271,4.092,16.615,4.092z"/>
	<path class="st7" d="M20.242,9.1c-0.41,0-18.066,0-18.614,0c-0.393,0-0.566,0.326-0.566,0.782c0,0.428,0,3.542,0,3.542
		c0,0.854,0.614,1.653,1.469,1.653h16.819c0.854,0,1.587-0.799,1.587-1.653c0,0,0-2.9,0-3.571C20.938,9.442,20.652,9.1,20.242,9.1z
		 M16.615,13.276c-0.654,0-1.185-0.531-1.185-1.187c0-0.656,0.53-1.188,1.185-1.188c0.656,0,1.188,0.531,1.188,1.188
		C17.803,12.745,17.271,13.276,16.615,13.276z"/>
</g>
</svg>
