<?xml version="1.0" encoding="utf-8"?>
<!-- Generator: Adobe Illustrator 21.1.0, SVG Export Plug-In . SVG Version: 6.00 Build 0)  -->
<svg version="1.1" id="Layer_1" xmlns="http://www.w3.org/2000/svg" xmlns:xlink="http://www.w3.org/1999/xlink" x="0px" y="0px"
	 viewBox="0 0 48 48" style="enable-background:new 0 0 48 48;" xml:space="preserve">
<style type="text/css">
	.st0{fill:#6AA9DD;}
	.st1{fill:#20568E;}
</style>
<g>
	<g>
		<polygon class="st0" points="20.2,6.9 23.6,7.9 23.6,5 20.2,3.9 		"/>
		<polygon class="st0" points="20.2,35.5 23.5,37.3 23.5,34.4 20.2,32.7 		"/>
		<polygon class="st0" points="20.2,39.1 23.4,41 23.5,38 20.2,36.3 		"/>
		<polygon class="st0" points="20.2,15.1 20.2,17.7 23.5,19 23.6,16.3 		"/>
		<polygon class="st0" points="16.3,33.4 19.3,35 19.3,32.3 16.3,30.8 		"/>
		<polygon class="st0" points="16.3,36.8 19.3,38.6 19.3,35.8 16.3,34.1 		"/>
		<polygon class="st0" points="16.3,13.1 19.3,14.1 19.3,11.5 16.3,10.6 		"/>
		<polygon class="st0" points="16.3,19.5 19.3,20.7 19.3,18.1 16.3,17 		"/>
		<polygon class="st0" points="9.2,32.8 11.8,34.3 11.8,31.7 9.2,30.3 		"/>
		<polygon class="st0" points="12.6,34.7 15.4,36.4 15.4,33.7 12.6,32.1 		"/>
		<polygon class="st0" points="28.1,13.2 24.8,14.3 24.8,11.6 28.1,10.6 		"/>
		<polygon class="st0" points="27.8,21.1 24.5,22.4 24.5,19.8 27.8,18.5 		"/>
		<polygon class="st0" points="27.8,32.1 24.5,33.7 24.5,30.7 27.8,29.2 		"/>
		<polygon class="st0" points="27.8,28.5 24.5,29.9 24.5,27.1 27.8,25.7 		"/>
		<polygon class="st0" points="27.8,35.6 24.5,37.4 24.5,34.5 27.8,32.8 		"/>
		<polygon class="st0" points="27.8,25 24.5,26.3 24.5,23.8 27.8,22.5 		"/>
		<polygon class="st0" points="27.8,39.2 24.6,41 24.5,38.1 27.8,36.3 		"/>
		<polygon class="st0" points="31.7,26.7 28.7,28.1 28.7,25.3 31.7,24.1 		"/>
		<polygon class="st0" points="32.1,8 29,9 29,6.7 32.1,5.8 		"/>
		<polygon class="st0" points="31.7,23.4 28.7,24.6 28.7,22.1 31.7,20.9 		"/>
		<polygon class="st0" points="32.1,16.3 29,17.5 29,14.9 32.1,13.8 		"/>
		<polygon class="st0" points="35.4,21.9 32.6,23 32.6,20.6 35.4,19.5 		"/>
		<polygon class="st0" points="35.4,25.1 32.6,26.4 32.6,23.7 35.4,22.6 		"/>
		<polygon class="st0" points="38.8,20.5 36.2,21.6 36.2,19.1 38.8,18.1 		"/>
	</g>
	<g>
		<polygon class="st1" points="31.7,40.4 28.7,42.3 28.7,39.4 31.7,37.6 		"/>
		<polygon class="st1" points="31.7,41.1 31.7,43.3 28.7,45.3 28.7,43 		"/>
		<g>
			<polygon class="st1" points="8.6,29.9 6.1,28.6 6.1,31 8.6,32.4 			"/>
			<polygon class="st1" points="39.4,17.8 41.9,16.8 41.9,19.2 39.4,20.2 			"/>
			<polygon class="st1" points="12.6,15.4 15.4,16.4 15.4,13.9 12.6,13.1 			"/>
			<polygon class="st1" points="20.2,32 23.5,33.6 23.5,30.6 20.2,29.1 			"/>
			<polygon class="st1" points="20.2,28.4 23.5,29.8 23.5,27 20.2,25.6 			"/>
			<polygon class="st1" points="20.2,24.9 23.5,26.3 23.5,23.8 20.2,22.4 			"/>
			<polygon class="st1" points="20.2,42.7 23.4,44.8 23.4,41.7 20.2,39.8 			"/>
			<polygon class="st1" points="16.3,40.3 19.3,42.2 19.3,39.3 16.3,37.6 			"/>
			<polygon class="st1" points="16.3,26.7 19.3,28 19.3,25.3 16.3,24 			"/>
			<polygon class="st1" points="16.3,30.1 19.3,31.6 19.3,28.7 16.3,27.4 			"/>
			<polygon class="st1" points="9.2,26.6 11.8,27.9 11.8,25.4 9.2,24.2 			"/>
			<polygon class="st1" points="9.2,35.9 11.8,37.5 11.8,35 9.2,33.5 			"/>
			<polygon class="st1" points="12.6,25 15.4,26.3 15.4,23.7 12.6,22.5 			"/>
			<polygon class="st1" points="12.6,28.3 15.4,29.7 15.4,27 12.6,25.7 			"/>
			<polygon class="st1" points="12.6,9.5 15.4,10.3 15.4,8 12.6,7.2 			"/>
			<polygon class="st1" points="9.2,29.6 11.8,31 11.8,28.6 9.2,27.3 			"/>
			<polygon class="st1" points="12.6,20.6 15.4,21.8 15.4,19.2 12.6,18.2 			"/>
			<polygon class="st1" points="12.6,38 15.4,39.8 15.4,37.1 12.6,35.4 			"/>
			<polygon class="st1" points="9.2,10.7 11.8,11.5 11.8,9.2 9.2,8.4 			"/>
			<polygon class="st1" points="9.2,17.4 11.8,18.4 11.8,15.9 9.2,15 			"/>
			<polygon class="st1" points="9.2,20.4 11.8,21.5 11.8,19.1 9.2,18 			"/>
			<polygon class="st1" points="9.2,23.5 11.8,24.7 11.8,22.2 9.2,21.1 			"/>
			<polygon class="st1" points="8.6,27 6.1,25.7 6.1,27.9 8.6,29.2 			"/>
			<polygon class="st1" points="9.2,36.6 9.2,38.6 11.8,40.3 11.8,38.2 			"/>
			<polygon class="st1" points="8.6,23.9 6.1,22.8 6.1,25.1 8.6,26.3 			"/>
			<polygon class="st1" points="6.1,34.6 6.1,36.5 8.6,38.2 8.6,36.1 			"/>
			<polygon class="st1" points="8.6,20.8 6.1,19.8 6.1,22.2 8.6,23.2 			"/>
			<polygon class="st1" points="8.6,12.1 6.1,11.3 6.1,13.4 8.6,14.4 			"/>
			<polygon class="st1" points="8.6,17.8 6.1,16.8 6.1,19.1 8.6,20.1 			"/>
			<polygon class="st1" points="8.6,33.1 6.1,31.7 6.1,33.9 8.6,35.5 			"/>
			<polygon class="st1" points="12.6,38.7 12.6,40.8 15.4,42.7 15.4,40.5 			"/>
			<polygon class="st1" points="20.2,45.8 23.4,47.9 23.4,45.5 20.2,43.5 			"/>
			<polygon class="st1" points="16.3,41 16.3,43.2 19.3,45.2 19.3,42.9 			"/>
			<polygon class="st1" points="8.6,5.6 6.1,4.8 6.1,7.2 8.6,7.9 			"/>
			<polygon class="st1" points="35.7,10.3 32.9,11.2 32.9,8.8 35.7,7.9 			"/>
			<polygon class="st1" points="27.8,42.8 24.6,44.8 24.6,41.8 27.8,39.9 			"/>
			<polygon class="st1" points="31.7,33.5 28.7,35.1 28.7,32.4 31.7,30.9 			"/>
			<polygon class="st1" points="31.7,36.9 28.7,38.7 28.7,35.8 31.7,34.2 			"/>
			<polygon class="st1" points="38.8,26.7 36.2,28 36.2,25.5 38.8,24.3 			"/>
			<polygon class="st1" points="38.8,36 36.2,37.6 36.2,35.1 38.8,33.6 			"/>
			<polygon class="st1" points="35.4,28.4 32.6,29.7 32.6,27.1 35.4,25.8 			"/>
			<polygon class="st1" points="38.8,29.7 36.2,31.1 36.2,28.7 38.8,27.4 			"/>
			<polygon class="st1" points="38.8,32.9 36.2,34.4 36.2,31.8 38.8,30.4 			"/>
			<polygon class="st1" points="35.4,18.8 32.6,19.9 32.6,17.4 35.4,16.3 			"/>
			<polygon class="st1" points="35.4,38.1 32.6,39.8 32.6,37.2 35.4,35.5 			"/>
			<polygon class="st1" points="35.4,34.8 32.6,36.4 32.6,33.7 35.4,32.2 			"/>
			<polygon class="st1" points="35.4,31.5 32.6,33 32.6,30.5 35.4,29.1 			"/>
			<polygon class="st1" points="38.8,8.2 36.2,9 36.2,6.7 38.8,5.9 			"/>
			<polygon class="st1" points="38.8,23.6 36.2,24.8 36.2,22.2 38.8,21.2 			"/>
			<polygon class="st1" points="38.8,13.7 36.2,14.7 36.2,12.3 38.8,11.4 			"/>
			<polygon class="st1" points="39.4,27.1 41.9,25.8 41.9,28 39.4,29.3 			"/>
			<polygon class="st1" points="38.8,36.7 38.8,38.7 36.2,40.4 36.2,38.3 			"/>
			<polygon class="st1" points="39.4,24 41.9,22.9 41.9,25.2 39.4,26.4 			"/>
			<polygon class="st1" points="41.9,34.7 41.9,36.6 39.4,38.3 39.4,36.2 			"/>
			<polygon class="st1" points="39.4,30 41.9,28.6 41.9,31.1 39.4,32.5 			"/>
			<polygon class="st1" points="39.4,20.9 41.9,19.9 41.9,22.2 39.4,23.3 			"/>
			<polygon class="st1" points="39.4,11.2 41.9,10.4 41.9,12.5 39.4,13.5 			"/>
			<polygon class="st1" points="39.4,33.2 41.9,31.8 41.9,34 39.4,35.5 			"/>
			<polygon class="st1" points="35.4,38.8 35.4,40.9 32.6,42.8 32.6,40.6 			"/>
			<polygon class="st1" points="27.8,45.9 24.6,48 24.6,45.6 27.8,43.6 			"/>
			<polygon class="st1" points="39.4,0.8 41.9,0 41.9,2.3 39.4,3.1 			"/>
		</g>
	</g>
</g>
</svg>
