<?xml version="1.0" encoding="utf-8"?>
<!-- Generator: Adobe Illustrator 16.0.0, SVG Export Plug-In . SVG Version: 6.00 Build 0)  -->
<!DOCTYPE svg PUBLIC "-//W3C//DTD SVG 1.1//EN" "http://www.w3.org/Graphics/SVG/1.1/DTD/svg11.dtd">
<svg version="1.1" id="Layer_1" xmlns="http://www.w3.org/2000/svg" xmlns:xlink="http://www.w3.org/1999/xlink" x="0px" y="0px"
	 width="22px" height="22px" viewBox="0 0 22 22" enable-background="new 0 0 22 22" xml:space="preserve">
<path fill="#FFFFFF" d="M22,11.113c0,0-0.147-2.57-2.072-3.277l0.053-0.016c-0.254-0.833-0.582-1.57-0.963-2.218
	c-0.666-1.135-1.496-1.997-2.364-2.642c-0.65-0.485-1.321-0.849-1.965-1.122c-0.966-0.411-1.867-0.62-2.554-0.728
	s-1.157-0.114-1.261-0.114c-0.011,0-0.018,0-0.021,0v0c-0.821,0-1.581,0.105-2.279,0.291C7.347,1.613,6.316,2.184,5.468,2.849
	C4.831,3.348,4.296,3.9,3.851,4.447c-0.668,0.82-1.136,1.627-1.439,2.234C2.108,7.288,1.969,7.695,1.962,7.715l0.041,0.014
	C0.142,8.471,0,10.984,0,10.984c-0.032,4.207,3.619,4.021,3.619,4.021l0.52-0.598L4.102,8.01L3.419,7.532
	c-0.029-0.002-0.053,0.001-0.081,0c0.062-0.134,0.131-0.281,0.219-0.45c0.222-0.429,0.529-0.954,0.931-1.496
	C4.789,5.18,5.142,4.763,5.551,4.369c0.614-0.592,1.351-1.133,2.227-1.527c0.876-0.394,1.891-0.643,3.083-0.643h0.004h0.003h0.001h0
	h0.005c0.055,0,0.478,0.004,1.104,0.104c0.47,0.075,1.053,0.205,1.681,0.424c0.47,0.166,0.967,0.382,1.461,0.664
	c0.741,0.423,1.476,0.994,2.122,1.768c0.554,0.665,1.036,1.491,1.407,2.504c-0.023,0.001-0.045-0.002-0.068,0l-0.683,0.478
	l-0.036,6.398l0.52,0.597c0,0,0.28,0.011,0.68-0.056c-0.02,0.069-0.031,0.146-0.053,0.213c-0.241,0.743-0.608,1.348-0.914,1.761
	c-0.152,0.207-0.289,0.366-0.386,0.471c-0.048,0.053-0.085,0.092-0.11,0.115c-0.013,0.013-0.021,0.021-0.027,0.026l-0.004,0.004
	l-0.017,0.016L17.534,17.7c-0.188,0.205-0.405,0.381-0.628,0.527c-0.332,0.221-0.671,0.375-0.924,0.471
	c-0.126,0.048-0.23,0.082-0.301,0.104c-0.02,0.005-0.029,0.008-0.043,0.012h-1.29c-0.327-0.718-1.364-1.244-2.608-1.244
	c-1.505,0-2.726,0.768-2.726,1.718c0,0.948,1.221,1.717,2.726,1.717c1.143,0,2.119-0.444,2.523-1.072h1.514l0.063-0.016
	c0.024-0.006,0.389-0.094,0.879-0.314c0.245-0.11,0.523-0.256,0.806-0.442c0.27-0.181,0.543-0.402,0.797-0.671l0.001,0.001
	c0.026-0.025,0.532-0.494,1.043-1.33c0.255-0.419,0.511-0.931,0.704-1.522c0.101-0.311,0.181-0.646,0.237-0.999
	C21.18,14.137,22.016,13.135,22,11.113z"/>
</svg>
