<?xml version="1.0" encoding="utf-8"?>
<!-- Generator: Adobe Illustrator 16.0.0, SVG Export Plug-In . SVG Version: 6.00 Build 0)  -->
<!DOCTYPE svg PUBLIC "-//W3C//DTD SVG 1.1//EN" "http://www.w3.org/Graphics/SVG/1.1/DTD/svg11.dtd">
<svg version="1.1" id="Layer_1" xmlns="http://www.w3.org/2000/svg" xmlns:xlink="http://www.w3.org/1999/xlink" x="0px" y="0px"
	 width="17px" height="17px" viewBox="0 0 17 17" enable-background="new 0 0 17 17" xml:space="preserve">
<g>
	<path fill="#FFFFFF" d="M6.64,4.942h9.114C16.568,4.942,17,4.881,17,4.066s-0.432-0.988-1.246-0.988H6.64
		c-0.813,0-1.321,0.098-1.321,0.912C5.319,4.805,5.827,4.942,6.64,4.942z"/>
	<path fill="#FFFFFF" d="M15.754,7.427H6.782c-0.814,0-1.32,0.099-1.32,0.912c0,0.814,0.506,0.953,1.32,0.953h8.972
		C16.568,9.292,17,9.229,17,8.415S16.568,7.427,15.754,7.427z"/>
	<path fill="#FFFFFF" d="M15.754,12.058H6.782c-0.814,0-1.32,0.099-1.32,0.912s0.506,0.952,1.32,0.952h8.972
		c0.814,0,1.246-0.062,1.246-0.876C17,12.232,16.568,12.058,15.754,12.058z"/>
	<path fill="#FFFFFF" d="M0,5.521h3.707V2.5H0V5.521z M1.035,3.536h1.638v0.95H1.035V3.536z"/>
	<path fill="#FFFFFF" d="M0,9.87h3.707V6.85H0V9.87z M1.035,7.885h1.638v0.95H1.035V7.885z"/>
	<path fill="#FFFFFF" d="M0,14.5h3.707v-3.021H0V14.5z M1.035,12.515h1.638v0.95H1.035V12.515z"/>
</g>
</svg>
