<?xml version="1.0" encoding="utf-8"?>
<!-- Generator: Adobe Illustrator 16.0.0, SVG Export Plug-In . SVG Version: 6.00 Build 0)  -->
<!DOCTYPE svg PUBLIC "-//W3C//DTD SVG 1.1//EN" "http://www.w3.org/Graphics/SVG/1.1/DTD/svg11.dtd">
<svg version="1.1" id="Layer_1" xmlns="http://www.w3.org/2000/svg" xmlns:xlink="http://www.w3.org/1999/xlink" x="0px" y="0px"
	 width="22px" height="22px" viewBox="0 0 22 22" enable-background="new 0 0 22 22" xml:space="preserve">
<g>
	<path fill="#ADADAE" d="M10.688,13.042h0.247c0.73,0,1.282-0.527,1.282-1.226v-0.435h-1v0.435c0,0.219-0.254,0.226-0.282,0.226
		h-0.247c-0.098,0-0.26-0.029-0.26-0.226v-0.435h-1v0.435C9.429,12.516,9.97,13.042,10.688,13.042z"/>
	<path fill="#ADADAE" d="M8.381,8.142c-0.603,0-1.092,0.49-1.092,1.092s0.489,1.092,1.092,1.092c0.602,0,1.091-0.49,1.091-1.092
		S8.982,8.142,8.381,8.142z M8.406,9.734c-0.268,0-0.484-0.217-0.484-0.484s0.217-0.484,0.484-0.484S8.891,8.982,8.891,9.25
		S8.674,9.734,8.406,9.734z"/>
	<path fill="#ADADAE" d="M13.097,10.326c0.602,0,1.092-0.49,1.092-1.092s-0.49-1.092-1.092-1.092c-0.603,0-1.092,0.49-1.092,1.092
		S12.494,10.326,13.097,10.326z M13.094,8.766c0.268,0,0.484,0.217,0.484,0.484s-0.217,0.484-0.484,0.484s-0.484-0.217-0.484-0.484
		S12.826,8.766,13.094,8.766z"/>
	<path fill="#ADADAE" d="M11.641,18.375c0.002-0.02-0.134-0.309-0.141-0.328c-0.109-0.312-0.302-0.5-0.578-0.5l-0.634,0.017
		c-0.522,0-0.947-0.425-0.947-0.946l0.006-1.144c0.441,0.105,0.9,0.167,1.374,0.167c0.311,0,0.62-0.024,0.919-0.07l-0.154-0.988
		c-0.25,0.039-0.505,0.059-0.765,0.059c-2.714,0-4.921-2.207-4.921-4.92v-2.36c0-0.28,0.037-0.551,0.082-0.818
		c0.657,0.478,1.52,0.591,2.402,0.591c0.349,0,0.699-0.016,1.041-0.032C9.663,7.087,10,7.071,10.327,7.071h0.45l0.047-0.448
		c0.026-0.246,0.047-0.499,0.049-0.751c1.814,0.754,3.168,0.862,4.692,0.732c0.039,0.249,0.077,0.498,0.077,0.758v2.622h1V7.362
		c0-3.265-2.657-5.922-5.922-5.922c-2.276,0-4.254,1.293-5.244,3.182c-0.474-0.194-0.98-0.31-1.503-0.31
		c-2.186,0-3.964,1.778-3.964,3.964v1.508c0,1.575,0.932,2.927,2.267,3.565l-0.003,0.606C1.094,14.283,0.265,15.271,0,16.525h7.329
		c-1.456,0.678-2.472,2.058-2.828,3.749h8.743c-0.18-0.143-0.354-0.293-0.521-0.459C12.22,19.311,11.924,18.986,11.641,18.375z
		 M4.351,14.613H3.697c-0.234,0-0.425-0.19-0.425-0.422l0.002-0.516c0.228,0.041,0.46,0.071,0.699,0.071
		c0.272,0,0.54-0.038,0.803-0.092l0.001,0.534C4.777,14.422,4.586,14.613,4.351,14.613z M3.974,12.746
		c-1.635,0-2.964-1.329-2.964-2.962V8.276c0-0.077,0.017-0.148,0.022-0.224c0.419,0.205,0.913,0.258,1.399,0.258
		c0.225,0,0.447-0.01,0.659-0.02c0.213-0.01,0.426-0.02,0.632-0.02h0.452l0.045-0.45C4.228,7.745,4.235,7.667,4.24,7.586
		C4.432,7.659,4.617,7.721,4.8,7.773v1.949c0,0.947,0.229,1.84,0.626,2.634C4.982,12.607,4.488,12.746,3.974,12.746z M8.343,16.199
		c-0.102,0.022-0.209,0.032-0.308,0.06C7.708,15.115,6.9,14.23,5.776,13.942l-0.001-0.634c0.059-0.03,0.113-0.067,0.17-0.101
		c0.614,0.839,1.44,1.512,2.403,1.935L8.343,16.199z"/>
	<path fill="#ADADAE" d="M19.295,15.03h-1.698v-1.698c0-0.307-0.268-0.556-0.639-0.556c-0.369,0.001-0.573,0.249-0.573,0.556
		l0.001,1.698h-1.699c-0.307,0.001-0.556,0.268-0.555,0.639c0,0.37,0.248,0.572,0.556,0.573h1.698v1.697
		c0,0.308,0.203,0.556,0.572,0.554c0.371,0,0.639-0.247,0.639-0.555v-1.697h1.699c0.305,0,0.554-0.202,0.554-0.572
		C19.85,15.297,19.602,15.031,19.295,15.03z"/>
	<path fill="#ADADAE" d="M20.549,12.096c-0.969-0.969-2.238-1.453-3.508-1.453c-1.269,0-2.538,0.484-3.506,1.453
		c-1.936,1.936-1.936,5.074,0,7.012c0.969,0.968,2.237,1.452,3.507,1.452c1.269,0,2.538-0.484,3.507-1.452
		C22.484,17.171,22.484,14.032,20.549,12.096z M19.842,18.4c-0.748,0.748-1.743,1.16-2.8,1.16c-1.058,0-2.052-0.412-2.8-1.159
		c-1.542-1.544-1.543-4.056,0-5.598c0.748-0.748,1.742-1.16,2.799-1.16c1.058,0,2.053,0.412,2.801,1.16
		C21.385,14.346,21.384,16.857,19.842,18.4z"/>
</g>
</svg>
