<?xml version="1.0" encoding="utf-8"?>
<!-- Generator: Adobe Illustrator 16.0.0, SVG Export Plug-In . SVG Version: 6.00 Build 0)  -->
<!DOCTYPE svg PUBLIC "-//W3C//DTD SVG 1.1//EN" "http://www.w3.org/Graphics/SVG/1.1/DTD/svg11.dtd">
<svg version="1.1" id="Layer_1" xmlns="http://www.w3.org/2000/svg" xmlns:xlink="http://www.w3.org/1999/xlink" x="0px" y="0px"
	 width="22px" height="22px" viewBox="0 0 22 22" enable-background="new 0 0 22 22" xml:space="preserve">
<g>
	<path fill="#ADADAE" d="M15.188,12.34c0,0.232-0.201,0.336-0.401,0.336h-0.285c-0.088,0-0.375-0.024-0.375-0.336v-0.501h-1v0.501
		c0,0.762,0.591,1.336,1.375,1.336h0.285c0.799,0,1.401-0.574,1.401-1.336v-0.501h-1V12.34z"/>
	<path fill="#ADADAE" d="M17.39,17.083l-0.001-1.323c2.298-1.077,3.897-3.405,3.897-6.105V6.936c0-3.721-3.026-6.747-6.747-6.747
		c-2.388,0-4.485,1.251-5.684,3.129C7.907,2.483,6.688,2.012,5.412,2.012c-2.876,0-5.216,2.341-5.216,5.218v2.054
		c0,2.116,1.272,3.934,3.087,4.751l-0.004,0.896C1.578,15.324,0.373,16.695,0,18.464h9.206c-0.91,0.854-1.551,2.015-1.833,3.348
		h14.581H22C21.485,19.378,19.784,17.516,17.39,17.083z M16.39,17.597c0,0.645-0.524,1.169-1.169,1.169h-1.18
		c-0.644,0-1.167-0.524-1.167-1.166l0.007-1.415c0.532,0.135,1.086,0.215,1.659,0.215c0.642,0,1.261-0.096,1.85-0.265L16.39,17.597z
		 M20.286,9.654c0,3.168-2.578,5.745-5.747,5.745c-3.168,0-5.746-2.577-5.746-5.745V6.936c0-0.372,0.039-0.735,0.106-1.088
		c0.754,0.611,1.783,0.75,2.837,0.75c0.398,0,0.8-0.019,1.19-0.037c0.391-0.018,0.78-0.036,1.158-0.036h0.45l0.047-0.447
		c0.032-0.306,0.056-0.62,0.054-0.934l0.126,0.01c2.099,0.868,3.663,0.983,5.436,0.826c0.053,0.312,0.086,0.629,0.086,0.956V9.654z
		 M1.195,9.283V7.229c0-0.202,0.032-0.396,0.06-0.59c0.571,0.37,1.296,0.457,2.034,0.457c0.306,0,0.613-0.014,0.912-0.027
		C4.494,7.056,4.787,7.042,5.07,7.042h0.45l0.047-0.448C5.586,6.409,5.603,6.22,5.608,6.03c0.776,0.314,1.477,0.508,2.201,0.594
		C7.805,6.728,7.793,6.83,7.793,6.936v2.719c0,0.94,0.194,1.835,0.543,2.648c-0.79,0.766-1.817,1.196-2.925,1.196
		C3.087,13.499,1.195,11.608,1.195,9.283z M5.412,14.499c0.438,0,0.862-0.07,1.275-0.174l0.001,0.957
		c0,0.418-0.341,0.759-0.761,0.759H5.036c-0.418,0-0.759-0.341-0.759-0.757l0.004-0.916C4.646,14.449,5.022,14.499,5.412,14.499z
		 M7.687,14.915L7.686,13.96c0.406-0.197,0.78-0.454,1.128-0.756c0.726,1.167,1.793,2.1,3.068,2.647l-0.006,1.25
		c-0.407,0.082-0.797,0.197-1.161,0.359C10.151,16.164,9.087,15.211,7.687,14.915z"/>
</g>
<path fill="#ADADAE" d="M11.919,7.934c-0.67,0-1.214,0.544-1.214,1.214s0.544,1.214,1.214,1.214c0.669,0,1.213-0.544,1.213-1.214
	S12.588,7.934,11.919,7.934z M11.948,9.704c-0.298,0-0.539-0.241-0.539-0.538c0-0.298,0.241-0.539,0.539-0.539
	c0.297,0,0.539,0.241,0.539,0.539C12.486,9.463,12.245,9.704,11.948,9.704z"/>
<path fill="#ADADAE" d="M17.162,10.361c0.669,0,1.214-0.544,1.214-1.214s-0.545-1.214-1.214-1.214c-0.67,0-1.214,0.544-1.214,1.214
	S16.492,10.361,17.162,10.361z M17.159,8.627c0.298,0,0.539,0.241,0.539,0.539c0,0.297-0.241,0.538-0.539,0.538
	c-0.297,0-0.538-0.241-0.538-0.538C16.621,8.868,16.861,8.627,17.159,8.627z"/>
</svg>
