<?xml version="1.0" encoding="utf-8"?>
<!-- Generator: Adobe Illustrator 16.0.0, SVG Export Plug-In . SVG Version: 6.00 Build 0)  -->
<!DOCTYPE svg PUBLIC "-//W3C//DTD SVG 1.1//EN" "http://www.w3.org/Graphics/SVG/1.1/DTD/svg11.dtd">
<svg version="1.1" id="Layer_1" xmlns="http://www.w3.org/2000/svg" xmlns:xlink="http://www.w3.org/1999/xlink" x="0px" y="0px"
	 width="15px" height="15px" viewBox="0 0 15 15" enable-background="new 0 0 15 15" xml:space="preserve">
<path fill="#FFFFFF" d="M8.16,9.813c-0.078-0.04-0.156-0.081-0.232-0.129C7.57,9.464,7.266,9.175,7.031,8.833
	C6.982,8.762,6.934,8.689,6.895,8.616C6.637,8.163,6.508,7.671,6.508,7.157c0-1.639,1.332-2.973,2.969-2.973
	c1.643,0,2.973,1.334,2.973,2.973c0,1.634-1.33,2.967-2.967,2.968c-0.002,0-0.004,0-0.004,0c-0.002,0-0.004,0-0.006,0
	C9.012,10.125,8.566,10.018,8.16,9.813z"/>
<path fill="#FFFFFF" d="M3.994,15c0.718-2.371,2.934-4.091,5.494-4.094c0.004,0,0.006,0,0.008,0s0.004,0,0.006,0
	C12.068,10.909,14.285,12.629,15,15H3.994z"/>
<path fill="#FFFFFF" d="M2.972,11.317c-0.056-0.028-0.11-0.058-0.166-0.092c-0.254-0.156-0.47-0.362-0.636-0.604
	c-0.034-0.051-0.069-0.102-0.098-0.154c-0.184-0.321-0.273-0.671-0.273-1.036c0-1.163,0.945-2.11,2.107-2.11
	c1.166,0,2.109,0.947,2.109,2.11c0,1.16-0.941,2.107-2.104,2.107c-0.002,0-0.003,0-0.003,0c-0.002,0-0.003,0-0.005,0
	C3.576,11.538,3.261,11.462,2.972,11.317z"/>
<g>
	<path fill="#FFFFFF" d="M3.906,12.093c-0.001,0-0.003,0-0.005,0C2.083,12.096,0.51,13.316,0,15h2.994
		C3.329,13.893,4,12.938,4.871,12.224c-0.31-0.077-0.629-0.13-0.96-0.131C3.909,12.093,3.908,12.093,3.906,12.093z"/>
</g>
</svg>
