<?xml version="1.0" encoding="utf-8"?>
<!-- Generator: Adobe Illustrator 16.0.0, SVG Export Plug-In . SVG Version: 6.00 Build 0)  -->
<!DOCTYPE svg PUBLIC "-//W3C//DTD SVG 1.1//EN" "http://www.w3.org/Graphics/SVG/1.1/DTD/svg11.dtd">
<svg version="1.1" id="Layer_1" xmlns="http://www.w3.org/2000/svg" xmlns:xlink="http://www.w3.org/1999/xlink" x="0px" y="0px"
	 width="15px" height="15px" viewBox="0 0 15 15" enable-background="new 0 0 15 15" xml:space="preserve">
<path fill="#FFFFFF" d="M14.212,10.979h-1.158V9.004H8.022v-2h1.984v-1L10.115,6c0.489,0,0.883-0.398,0.883-0.886V1.893
	c0-0.489-0.394-0.885-0.883-0.885H4.92c-0.49,0-0.89,0.396-0.89,0.885v3.221C4.03,5.602,4.43,6,4.92,6l0.118,0.004v1h1.984v2H2.054
	v1.975H0.788c-0.424,0-0.766,0.344-0.766,0.766v2.491C0.022,14.657,0.364,15,0.788,15h4.424c0.419,0,0.766-0.343,0.766-0.765v-2.491
	c0-0.422-0.347-0.766-0.766-0.766H4.054v-0.975h7v0.975H9.788c-0.424,0-0.766,0.344-0.766,0.766v2.491
	C9.022,14.657,9.364,15,9.788,15h4.424c0.419,0,0.766-0.343,0.766-0.765v-2.491C14.978,11.322,14.631,10.979,14.212,10.979z
	 M5.022,1.957h5v3.031h-5V1.957z"/>
</svg>
