<?xml version="1.0" encoding="utf-8"?>
<!-- Generator: Adobe Illustrator 16.0.0, SVG Export Plug-In . SVG Version: 6.00 Build 0)  -->
<!DOCTYPE svg PUBLIC "-//W3C//DTD SVG 1.1//EN" "http://www.w3.org/Graphics/SVG/1.1/DTD/svg11.dtd">
<svg version="1.1" id="Layer_1" xmlns="http://www.w3.org/2000/svg" xmlns:xlink="http://www.w3.org/1999/xlink" x="0px" y="0px"
	 width="15px" height="15px" viewBox="0 0 15 15" enable-background="new 0 0 15 15" xml:space="preserve">
<g>
	<path fill="#FFFFFF" d="M12.217,13.218l-0.037-0.445c0.288-0.197,0.547-0.427,0.769-0.685l0.442,0.095
		c0.153,0.021,0.331,0.011,0.404-0.14l0.53-1.088c0.033-0.067,0.03-0.138,0.007-0.201c-0.026-0.078-0.083-0.15-0.147-0.205
		l-0.349-0.291c0.064-0.334,0.087-0.676,0.062-1.021l0.38-0.247c0.124-0.095,0.242-0.228,0.188-0.388l-0.395-1.142
		c-0.055-0.158-0.232-0.2-0.385-0.188l-0.453,0.04c-0.193-0.289-0.423-0.543-0.68-0.767l0.097-0.444
		c0.016-0.082,0.016-0.174-0.011-0.252c-0.022-0.064-0.062-0.12-0.131-0.154l-1.088-0.53c-0.15-0.072-0.298,0.029-0.404,0.14
		l-0.29,0.348C10.393,5.588,10.049,5.565,9.7,5.589L9.454,5.214c-0.083-0.13-0.225-0.244-0.383-0.188L7.927,5.42
		C7.769,5.476,7.734,5.648,7.74,5.806l0.037,0.447C7.49,6.449,7.232,6.679,7.011,6.936L6.568,6.841
		c-0.149-0.03-0.33-0.01-0.403,0.14L5.634,8.07C5.602,8.138,5.605,8.202,5.627,8.265c0.026,0.079,0.084,0.151,0.146,0.212
		l0.352,0.289C6.059,9.101,6.036,9.443,6.061,9.789l-0.379,0.247c-0.128,0.084-0.242,0.226-0.188,0.385l0.396,1.143
		c0.055,0.159,0.229,0.191,0.384,0.189l0.451-0.041c0.193,0.288,0.424,0.543,0.68,0.766l-0.096,0.445
		c-0.012,0.087-0.013,0.181,0.016,0.257c0.021,0.062,0.06,0.116,0.125,0.148l1.09,0.531c0.15,0.071,0.305-0.026,0.404-0.141
		l0.288-0.348c0.334,0.065,0.678,0.088,1.026,0.064l0.246,0.374c0.092,0.127,0.227,0.243,0.385,0.188l1.144-0.395
		C12.19,13.549,12.231,13.371,12.217,13.218z M8.029,10.187c-0.372-1.077,0.2-2.253,1.277-2.625c1.076-0.371,2.25,0.201,2.622,1.278
		c0.373,1.078-0.199,2.252-1.275,2.623C9.576,11.834,8.401,11.262,8.029,10.187z"/>
	<path fill="#FFFFFF" d="M6.319,3.389L6.03,3.316C5.97,3.094,5.883,2.883,5.77,2.688l0.154-0.255c0.046-0.091,0.078-0.206,0-0.283
		L5.357,1.583C5.323,1.548,5.278,1.535,5.235,1.535c-0.056,0-0.113,0.02-0.161,0.048L4.818,1.738
		c-0.195-0.112-0.404-0.2-0.627-0.259L4.12,1.188c-0.033-0.098-0.09-0.2-0.201-0.2h-0.8c-0.111,0-0.175,0.102-0.2,0.2L2.847,1.479
		C2.624,1.539,2.415,1.626,2.22,1.738L1.964,1.583c-0.048-0.028-0.105-0.048-0.16-0.048c-0.044,0-0.088,0.013-0.123,0.048
		L1.114,2.149c-0.078,0.078-0.046,0.192,0,0.283l0.154,0.255c-0.113,0.195-0.2,0.406-0.261,0.628L0.719,3.389
		C0.62,3.413,0.52,3.478,0.52,3.588v0.801c0,0.11,0.101,0.168,0.199,0.199l0.289,0.073c0.061,0.223,0.147,0.433,0.261,0.627
		L1.114,5.544c-0.052,0.087-0.078,0.204,0,0.282l0.566,0.567C1.715,6.427,1.757,6.44,1.8,6.44c0.056,0,0.113-0.021,0.164-0.047
		L2.22,6.237c0.195,0.112,0.404,0.201,0.627,0.26l0.072,0.291c0.025,0.097,0.089,0.199,0.2,0.199h0.8
		c0.111,0,0.168-0.102,0.201-0.199l0.071-0.291c0.223-0.059,0.432-0.147,0.627-0.26l0.256,0.156C5.126,6.419,5.184,6.44,5.238,6.44
		c0.044,0,0.085-0.013,0.119-0.047l0.566-0.567c0.078-0.078,0.052-0.195,0-0.282L5.77,5.288c0.113-0.194,0.2-0.404,0.261-0.627
		l0.289-0.073c0.097-0.031,0.2-0.089,0.2-0.199V3.588C6.52,3.478,6.416,3.413,6.319,3.389z M3.52,5.353
		c-0.753,0-1.365-0.612-1.365-1.365c0-0.752,0.612-1.363,1.365-1.363s1.364,0.61,1.364,1.363C4.884,4.741,4.272,5.353,3.52,5.353z"
		/>
</g>
</svg>
