<?xml version="1.0" encoding="utf-8"?>
<!-- Generator: Adobe Illustrator 16.0.0, SVG Export Plug-In . SVG Version: 6.00 Build 0)  -->
<!DOCTYPE svg PUBLIC "-//W3C//DTD SVG 1.1//EN" "http://www.w3.org/Graphics/SVG/1.1/DTD/svg11.dtd">
<svg version="1.1" id="Layer_1" xmlns="http://www.w3.org/2000/svg" xmlns:xlink="http://www.w3.org/1999/xlink" x="0px" y="0px"
	 width="14px" height="14px" viewBox="0 0 14 14" enable-background="new 0 0 14 14" xml:space="preserve">
<g>
	<path fill="#FFFFFF" d="M7,2c2.757,0,5,2.243,5,5s-2.243,5-5,5S2,9.757,2,7S4.243,2,7,2 M7,0C3.134,0,0,3.134,0,7
		c0,3.865,3.134,7,7,7s7-3.135,7-7C14,3.134,10.866,0,7,0L7,0z"/>
	<path fill="#FFFFFF" d="M8.211,6.985l1.695-1.696c0.305-0.306,0.35-0.756-0.02-1.125C9.516,3.793,9.002,3.774,8.695,4.08L7,5.774
		L5.306,4.08C5,3.773,4.484,3.793,4.113,4.164C3.746,4.533,3.789,4.983,4.095,5.29L5.79,6.984L4.095,8.68
		C3.791,8.986,3.808,9.501,4.179,9.871C4.548,10.24,5,10.195,5.306,9.89L7,8.195l1.695,1.693c0.307,0.307,0.758,0.352,1.125-0.018
		C10.191,9.5,10.211,8.986,9.904,8.68L8.211,6.985z"/>
</g>
</svg>
