<?xml version="1.0" encoding="utf-8"?>
<!-- Generator: Adobe Illustrator 21.1.0, SVG Export Plug-In . SVG Version: 6.00 Build 0)  -->
<svg version="1.1" xmlns="http://www.w3.org/2000/svg" xmlns:xlink="http://www.w3.org/1999/xlink" x="0px" y="0px"
	 viewBox="0 0 24 24" style="enable-background:new 0 0 24 24;" xml:space="preserve">
<style type="text/css">
	.st0{display:none;}
	.st1{display:inline;}
	.st2{fill:#114A54;}
	.st3{fill:#778E93;}
	.st4{fill:#D4E4F1;}
	.st5{fill:#398CCB;}
	.st6{fill:#AFDFF9;}
	.st7{fill:#6AA9DD;}
	.st8{fill:#20568E;}
	.st9{fill:#2C5261;}
	.st10{fill:#295A99;}
	.st11{opacity:0.2;fill:#3E85C5;}
	.st12{opacity:0.8;fill:#AFDFF9;}
	.st13{opacity:0.5;fill:#D4E4F1;}
	.st14{fill:#FFFFFF;}
	.st15{fill:#FFFFFF;stroke:#3E85C5;stroke-miterlimit:10;}
	.st16{fill:#3E85C5;}
	.st17{fill:#21558E;}
	.st18{fill:#B3C3C4;}
	.st19{fill:#D2E3F0;}
	.st20{display:none;fill:#B3C3C4;}
	.st21{fill:#295A9A;}
	.st22{fill:none;stroke:#295A99;stroke-miterlimit:10;}
</style>
<g id="Guidelines">
</g>
<g id="Your_Icons">
	<g class="st0">
	</g>
	<path class="st18" d="M18,1.6C12.3-1.7,4.9,0.3,1.6,6C-1.7,11.7,0.3,19.1,6,22.4c5.7,3.3,13.1,1.3,16.4-4.4
		C25.7,12.3,23.7,4.9,18,1.6z M19.5,16.3c-1.5,2.6-4.2,4.2-7,4.3v-9l1.4,1.3l0.7-0.7l-2.2-2.1L12,9.9l0,0l0,0l-0.3,0.4l-2.2,2.1
		l0.7,0.7l1.3-1.3v8.9c-1.3-0.1-2.7-0.4-3.9-1.1c-4.2-2.4-5.6-7.7-3.2-11.9c2.4-4.2,7.7-5.6,11.9-3.2C20.5,6.9,21.9,12.2,19.5,16.3z
		"/>
</g>
</svg>
