<?xml version="1.0" encoding="utf-8"?>
<!-- Generator: Adobe Illustrator 21.1.0, SVG Export Plug-In . SVG Version: 6.00 Build 0)  -->
<svg version="1.1" xmlns="http://www.w3.org/2000/svg" xmlns:xlink="http://www.w3.org/1999/xlink" x="0px" y="0px"
	 viewBox="0 0 24 24" style="enable-background:new 0 0 24 24;" xml:space="preserve">
<style type="text/css">
	.st0{display:none;}
	.st1{display:inline;}
	.st2{fill:#114A54;}
	.st3{fill:#778E93;}
	.st4{fill:#D4E4F1;}
	.st5{fill:#398CCB;}
	.st6{fill:#AFDFF9;}
	.st7{fill:#6AA9DD;}
	.st8{fill:#20568E;}
	.st9{fill:#2C5261;}
	.st10{fill:#295A99;}
	.st11{opacity:0.2;fill:#3E85C5;}
	.st12{opacity:0.8;fill:#AFDFF9;}
	.st13{opacity:0.5;fill:#D4E4F1;}
	.st14{fill:#FFFFFF;}
	.st15{fill:#FFFFFF;stroke:#3E85C5;stroke-miterlimit:10;}
	.st16{fill:#3E85C5;}
	.st17{fill:#21558E;}
	.st18{fill:#B3C3C4;}
	.st19{fill:#D2E3F0;}
	.st20{display:none;fill:#B3C3C4;}
	.st21{fill:#295A9A;}
	.st22{fill:none;stroke:#295A99;stroke-miterlimit:10;}
</style>
<g id="Guidelines">
</g>
<g id="Your_Icons">
	<g class="st0">
	</g>
	<g>
		<g>
			<g>
				<ellipse transform="matrix(0.5 -0.866 0.866 0.5 -4.3921 16.3924)" class="st4" cx="12" cy="12" rx="12" ry="12"/>
			</g>
		</g>
		<ellipse transform="matrix(0.5 -0.866 0.866 0.5 -4.3926 16.3922)" class="st14" cx="12" cy="12" rx="8.7" ry="8.7"/>
		<path class="st10" d="M20.9,9.6c-0.6-2.4-2.2-4.4-4.3-5.6c-2.1-1.2-4.6-1.6-7-0.9C7.2,3.8,5.3,5.3,4,7.4c-2.5,4.4-1,10,3.4,12.6
			l0.5-0.9c-3.9-2.3-5.3-7.3-3-11.2C6,6,7.8,4.6,9.9,4.1c2.1-0.6,4.3-0.3,6.2,0.8c1.9,1.1,3.3,2.9,3.8,5c0.6,2.1,0.3,4.3-0.8,6.2
			c-1.4,2.4-3.9,3.9-6.6,4.1v-8.4l1.4,1.3l0.7-0.7l-2.2-2.1L12,9.9l0,0l0,0l-0.3,0.4l-2.2,2.1l0.7,0.7l1.3-1.3v9.5h1v0
			c3.1-0.2,5.9-1.9,7.4-4.6C21.2,14.5,21.5,12,20.9,9.6z"/>
	</g>
</g>
</svg>
