<?xml version="1.0" encoding="utf-8"?>
<!-- Generator: Adobe Illustrator 16.0.0, SVG Export Plug-In . SVG Version: 6.00 Build 0)  -->
<!DOCTYPE svg PUBLIC "-//W3C//DTD SVG 1.1//EN" "http://www.w3.org/Graphics/SVG/1.1/DTD/svg11.dtd">
<svg version="1.1" id="Layer_1" xmlns="http://www.w3.org/2000/svg" xmlns:xlink="http://www.w3.org/1999/xlink" x="0px" y="0px"
	 width="22px" height="22px" viewBox="0 0 22 22" enable-background="new 0 0 22 22" xml:space="preserve">
<g>
	<path fill="#ADADAE" d="M18.135,15.138c-0.168-0.042-0.3-0.196-0.326-0.384c-0.363-2.56-2.506-4.489-4.984-4.489
		c-0.271,0-0.489,0.219-0.489,0.489s0.218,0.489,0.489,0.489c1.995,0,3.722,1.569,4.016,3.65c0.084,0.585,0.5,1.054,1.059,1.194
		c1.02,0.253,1.731,1.203,1.731,2.309c0,1.311-1.008,2.377-2.247,2.377H4.617c-1.239,0-2.247-1.066-2.247-2.377
		c0-1.087,0.696-2.032,1.693-2.298c0.637-0.171,1.078-0.786,1.045-1.514c-0.001-0.401,0.148-0.771,0.421-1.046
		c0.478-0.48,1.273-0.501,1.779-0.039C7.508,13.683,7.816,13.668,8,13.47c0.182-0.199,0.169-0.508-0.03-0.69
		c-0.878-0.807-2.296-0.77-3.132,0.068c-0.458,0.46-0.708,1.076-0.704,1.829c0.01,0.223-0.126,0.423-0.323,0.476
		c-1.424,0.381-2.419,1.715-2.419,3.243c0,1.85,1.447,3.354,3.225,3.354h12.766c1.777,0,3.225-1.505,3.225-3.354
		C20.607,16.84,19.59,15.501,18.135,15.138z"/>
	<path fill="#ADADAE" d="M6.361,7.424c0.244,0,1.926,0,3.435,0v9.768h0.978V7.424c0.625,0,1.124,0,1.355,0
		c0.444,0,1.419-0.003,2.19-0.003c0.582,0,1.001-0.256,0.598-1.069c-0.453-0.918-3.144-5.003-3.485-5.752
		c-0.519-1.128-1.745-1.166-2.498,0.086C8.32,1.698,6.005,5.273,5.643,6.116C5.241,7.053,5.909,7.424,6.361,7.424z"/>
</g>
</svg>
