<?xml version="1.0" encoding="utf-8"?>
<!-- Generator: Adobe Illustrator 16.0.0, SVG Export Plug-In . SVG Version: 6.00 Build 0)  -->
<!DOCTYPE svg PUBLIC "-//W3C//DTD SVG 1.1//EN" "http://www.w3.org/Graphics/SVG/1.1/DTD/svg11.dtd">
<svg version="1.1" id="Layer_1" xmlns="http://www.w3.org/2000/svg" xmlns:xlink="http://www.w3.org/1999/xlink" x="0px" y="0px"
	 width="38px" height="34px" viewBox="0 0 38 34" enable-background="new 0 0 38 34" xml:space="preserve">
<g>
	<path fill="#FFFFFF" d="M21.4,14.62v-0.992H20.39v0.992c0,0.751-0.641,1.146-1.274,1.146H18.55c-0.733,0-1.226-0.46-1.226-1.146
		v-0.992h-1.01v0.992c0,1.249,0.94,2.156,2.236,2.156h0.565C20.418,16.776,21.4,15.849,21.4,14.62z"/>
	<path fill="#FFFFFF" d="M12.479,11.992c-0.844,0-1.53,0.686-1.53,1.529c0,0.844,0.687,1.53,1.53,1.53c0.843,0,1.53-0.687,1.53-1.53
		C14.009,12.678,13.322,11.992,12.479,11.992z M12.479,14.041c-0.287,0-0.52-0.233-0.52-0.52c0-0.286,0.233-0.519,0.52-0.519
		c0.286,0,0.519,0.233,0.519,0.519C12.998,13.808,12.765,14.041,12.479,14.041z"/>
	<path fill="#FFFFFF" d="M25.174,15.051c0.844,0,1.53-0.687,1.53-1.53c0-0.843-0.687-1.529-1.53-1.529s-1.53,0.686-1.53,1.529
		C23.644,14.365,24.33,15.051,25.174,15.051z M25.174,13.002c0.287,0,0.52,0.233,0.52,0.519c0,0.287-0.232,0.52-0.52,0.52
		c-0.286,0-0.52-0.233-0.52-0.52C24.654,13.235,24.888,13.002,25.174,13.002z"/>
	<path fill="#FFFFFF" d="M31,33.052c0-4.519-3.616-8.199-8.104-8.324l-0.001-0.805c3.702-1.594,6.303-5.276,6.303-9.556v-4.089
		c0-5.736-4.667-10.402-10.403-10.402c-5.735,0-10.401,4.667-10.401,10.402v4.089c0,4.429,2.788,8.21,6.697,9.708l0,0.654
		C10.608,24.86,7,28.538,7,33.052V34h24V33.052z M18.794,1.896c3.51,0,6.519,2.171,7.764,5.239
		c-2.551,0.165-4.773-0.159-8.086-1.761l-2.024-0.978l0.611,2.163c0.118,0.415,0.135,0.911,0.119,1.358
		c-0.294,0.01-0.591,0.024-0.889,0.038c-2.571,0.117-4.292,0.103-5.187-0.996C12.391,3.984,15.353,1.896,18.794,1.896z
		 M10.415,14.367v-4.089c0-0.396,0.037-0.782,0.09-1.164c1.139,0.742,2.585,0.916,4.059,0.916c0.609,0,1.223-0.028,1.818-0.055
		c0.584-0.027,1.167-0.055,1.731-0.055h0.91l0.096-0.905c0.029-0.282,0.07-0.668,0.083-1.104c3.023,1.227,5.323,1.415,7.885,1.209
		c0.054,0.379,0.091,0.763,0.091,1.157v4.089c0,4.622-3.76,8.38-8.382,8.38C14.174,22.747,10.415,18.988,10.415,14.367z
		 M18.794,24.768c1.075,0,2.113-0.163,3.089-0.467l0.003,2.32c0,1.105-0.9,2.005-2.006,2.005h-1.773
		c-1.105,0-2.004-0.899-2.004-2.006l-0.003-2.218C16.962,24.633,17.861,24.768,18.794,24.768z M15.106,26.749
		c0.068,1.603,1.383,2.888,3.002,2.888h1.773c1.619,0,2.935-1.285,3.004-2.889c3.016,0.105,5.496,2.331,5.995,5.23H9.119
		C9.619,29.082,12.094,26.858,15.106,26.749z"/>
</g>
</svg>
