<?xml version="1.0" encoding="utf-8"?>
<!-- Generator: Adobe Illustrator 16.0.0, SVG Export Plug-In . SVG Version: 6.00 Build 0)  -->
<!DOCTYPE svg PUBLIC "-//W3C//DTD SVG 1.1//EN" "http://www.w3.org/Graphics/SVG/1.1/DTD/svg11.dtd">
<svg version="1.1" id="Layer_1" xmlns="http://www.w3.org/2000/svg" xmlns:xlink="http://www.w3.org/1999/xlink" x="0px" y="0px"
	 width="22px" height="22px" viewBox="0 0 22 22" enable-background="new 0 0 22 22" xml:space="preserve">
<g>
	<path fill="#ADADAE" d="M9.622,13.666h0.282c0.795,0,1.395-0.571,1.395-1.329V11.84h-1v0.497c0,0.228-0.198,0.329-0.395,0.329
		H9.622c-0.086,0-0.368-0.023-0.368-0.329V11.84h-1v0.497C8.254,13.095,8.842,13.666,9.622,13.666z"/>
	<path fill="#ADADAE" d="M10.546,19.418C10.545,19.418,10.545,19.418,10.546,19.418c-0.03-0.248-0.233-0.443-0.49-0.443H9.164
		c-0.637,0-1.154-0.519-1.154-1.153l0.008-1.398c0.526,0.134,1.074,0.212,1.641,0.212c0.346,0,0.696-0.027,1.039-0.08l-0.153-0.988
		c-0.292,0.045-0.59,0.068-0.885,0.068c-3.141,0-5.696-2.555-5.696-5.695V7.242c0-0.366,0.046-0.72,0.112-1.067
		C4.823,6.774,5.839,6.91,6.879,6.91c0.396,0,0.794-0.019,1.181-0.037c0.387-0.018,0.774-0.036,1.148-0.036h0.449l0.048-0.447
		C9.738,6.1,9.761,5.784,9.759,5.466l0.11,0.008c2.083,0.863,3.635,0.979,5.394,0.824c0.054,0.308,0.092,0.621,0.092,0.944v3.72h1
		v-3.72c0-3.693-3.004-6.697-6.696-6.697S2.963,3.549,2.963,7.242V9.94c0,2.755,1.674,5.125,4.057,6.151l-0.007,1.238
		C4.697,17.796,3.051,19.623,2.55,22h9.993c-0.205-0.163-0.404-0.334-0.595-0.525C11.338,20.865,10.874,20.164,10.546,19.418z"/>
	<path fill="#ADADAE" d="M18.295,16.325h-1.697v-1.698c0-0.307-0.269-0.557-0.64-0.557c-0.369,0.002-0.573,0.25-0.573,0.557
		l0.002,1.698h-1.699c-0.308,0.001-0.557,0.268-0.556,0.639c0,0.37,0.248,0.572,0.556,0.573h1.699v1.697
		c0,0.308,0.202,0.556,0.571,0.554c0.371,0,0.64-0.247,0.64-0.556v-1.696h1.698c0.306,0,0.554-0.202,0.554-0.572
		C18.85,16.593,18.602,16.326,18.295,16.325z"/>
	<path fill="#ADADAE" d="M19.549,13.393c-0.969-0.97-2.238-1.453-3.508-1.453s-2.538,0.483-3.506,1.453
		c-1.936,1.936-1.936,5.073,0,7.012c0.969,0.968,2.236,1.451,3.507,1.451c1.269,0,2.538-0.483,3.507-1.451
		C21.484,18.467,21.484,15.327,19.549,13.393z M18.842,19.695c-0.748,0.748-1.742,1.16-2.8,1.16s-2.052-0.412-2.8-1.158
		c-1.542-1.545-1.543-4.057,0-5.598c0.748-0.748,1.742-1.16,2.799-1.16c1.059,0,2.053,0.412,2.801,1.16
		C20.385,15.643,20.384,18.152,18.842,19.695z"/>
	<path fill="#ADADAE" d="M7.17,7.934c-0.67,0-1.215,0.544-1.215,1.214S6.5,10.361,7.17,10.361c0.668,0,1.213-0.544,1.213-1.214
		S7.838,7.934,7.17,7.934z M7.197,9.704c-0.297,0-0.538-0.241-0.538-0.538c0-0.298,0.241-0.539,0.538-0.539
		c0.298,0,0.539,0.241,0.539,0.539C7.736,9.463,7.495,9.704,7.197,9.704z"/>
	<path fill="#ADADAE" d="M12.412,10.361c0.669,0,1.214-0.544,1.214-1.214s-0.545-1.214-1.214-1.214c-0.67,0-1.214,0.544-1.214,1.214
		S11.742,10.361,12.412,10.361z M12.408,8.627c0.299,0,0.539,0.241,0.539,0.539c0,0.297-0.24,0.538-0.539,0.538
		c-0.297,0-0.537-0.241-0.537-0.538C11.871,8.868,12.111,8.627,12.408,8.627z"/>
</g>
</svg>
