<?xml version="1.0" encoding="utf-8"?>
<!-- Generator: Adobe Illustrator 22.0.0, SVG Export Plug-In . SVG Version: 6.00 Build 0)  -->
<svg version="1.1" id="Layer_1" xmlns="http://www.w3.org/2000/svg" xmlns:xlink="http://www.w3.org/1999/xlink" x="0px" y="0px"
	 viewBox="0 0 24 24" style="enable-background:new 0 0 24 24;" xml:space="preserve">
<style type="text/css">
	.st0{fill:#295A99;}
</style>
<g id="Your_Icons">
	<g>
		<path class="st0" d="M12,12.5c2.7,0,5-2.1,5-4.7S14.7,3,12,3S7,5.1,7,7.7C7,10.4,9.3,12.5,12,12.5z"/>
		<path class="st0" d="M15.5,12.8c-0.3,0-0.5,0-0.7,0.2c-0.8,0.6-1.8,0.9-2.7,0.9s-1.9-0.3-2.7-0.9c-0.2-0.2-0.5-0.2-0.7-0.2
			C5.3,13.5,3,16.3,3,19.5V21h18v-1.5C21,16.3,18.7,13.5,15.5,12.8z"/>
	</g>
</g>
</svg>
