<?xml version="1.0" encoding="utf-8"?>
<!-- Generator: Adobe Illustrator 21.1.0, SVG Export Plug-In . SVG Version: 6.00 Build 0)  -->
<svg version="1.1" xmlns="http://www.w3.org/2000/svg" xmlns:xlink="http://www.w3.org/1999/xlink" x="0px" y="0px"
	 viewBox="0 0 24 24" style="enable-background:new 0 0 24 24;" xml:space="preserve">
<style type="text/css">
	.st0{display:none;}
	.st1{display:inline;}
	.st2{fill:#114A54;}
	.st3{fill:#778E93;}
	.st4{fill:#D4E4F1;}
	.st5{fill:#398CCB;}
	.st6{fill:#AFDFF9;}
	.st7{fill:#6AA9DD;}
	.st8{fill:#20568E;}
	.st9{fill:#2C5261;}
	.st10{fill:#295A99;}
	.st11{opacity:0.2;fill:#3E85C5;}
	.st12{opacity:0.8;fill:#AFDFF9;}
	.st13{opacity:0.5;fill:#D4E4F1;}
	.st14{fill:#FFFFFF;}
	.st15{fill:#FFFFFF;stroke:#3E85C5;stroke-miterlimit:10;}
	.st16{fill:#3E85C5;}
	.st17{fill:#21558E;}
	.st18{fill:#B3C3C4;}
	.st19{fill:#D2E3F0;}
	.st20{display:none;fill:#B3C3C4;}
	.st21{fill:#295A9A;}
	.st22{fill:none;stroke:#295A99;stroke-miterlimit:10;}
</style>
<g id="Guidelines">
</g>
<g id="Your_Icons">
	<g class="st0">
	</g>
	<g>
		<ellipse transform="matrix(0.5 -0.866 0.866 0.5 -4.3925 16.3923)" class="st4" cx="12" cy="12" rx="12" ry="12"/>
		<ellipse transform="matrix(0.5 -0.866 0.866 0.5 -4.3924 16.3923)" class="st7" cx="12" cy="12" rx="9.2" ry="9.2"/>
		<g>
			<path class="st5" d="M21.2,19.6c-0.6-0.6-1.2-1.1-2-1.6c-4.2-2.4-9.6-1-12.1,3.2c-0.3,0.4-0.5,0.9-0.6,1.3
				c0.1,0.1,0.1,0.1,0.2,0.2C11.8,25.2,17.7,23.9,21.2,19.6z"/>
			<path class="st5" d="M8.8,17.1c-2.4-1.4-5.4-1.2-7.6,0.3c1,2,2.6,3.8,4.7,5c0.5,0.3,1,0.5,1.5,0.7c1.6-0.4,3.2-1.2,4.4-2.3
				C11.4,19.3,10.3,18,8.8,17.1z"/>
		</g>
		<ellipse class="st8" cx="5.2" cy="13.5" rx="3.8" ry="3.8"/>
		<ellipse class="st8" cx="14.8" cy="13.6" rx="4.6" ry="4.6"/>
		<g>
			<path class="st16" d="M18.4,13.6c0-1.3-0.7-2.4-1.8-3L13,16.7c0.5,0.3,1.1,0.5,1.7,0.5C16.8,17.2,18.4,15.6,18.4,13.6z"/>
		</g>
		<path class="st16" d="M8,13.5c0-1-0.6-1.9-1.4-2.4l-2.8,4.8c0.4,0.2,0.9,0.4,1.4,0.4C6.8,16.3,8,15,8,13.5z"/>
	</g>
</g>
</svg>
