<?xml version="1.0" encoding="utf-8"?>
<!-- Generator: Adobe Illustrator 21.1.0, SVG Export Plug-In . SVG Version: 6.00 Build 0)  -->
<svg version="1.1" xmlns="http://www.w3.org/2000/svg" xmlns:xlink="http://www.w3.org/1999/xlink" x="0px" y="0px"
	 viewBox="0 0 24 24" style="enable-background:new 0 0 24 24;" xml:space="preserve">
<style type="text/css">
	.st0{display:none;}
	.st1{display:inline;}
	.st2{fill:#114A54;}
	.st3{fill:#778E93;}
	.st4{fill:#D4E4F1;}
	.st5{fill:#398CCB;}
	.st6{fill:#AFDFF9;}
	.st7{fill:#6AA9DD;}
	.st8{fill:#20568E;}
	.st9{fill:#2C5261;}
	.st10{fill:#295A99;}
	.st11{opacity:0.2;fill:#3E85C5;}
	.st12{opacity:0.8;fill:#AFDFF9;}
	.st13{opacity:0.5;fill:#D4E4F1;}
	.st14{fill:#FFFFFF;}
	.st15{fill:#FFFFFF;stroke:#3E85C5;stroke-miterlimit:10;}
	.st16{fill:#3E85C5;}
	.st17{fill:#21558E;}
	.st18{fill:#B3C3C4;}
	.st19{fill:#D2E3F0;}
	.st20{display:none;fill:#B3C3C4;}
	.st21{fill:#295A9A;}
	.st22{fill:none;stroke:#295A99;stroke-miterlimit:10;}
</style>
<g id="Guidelines">
</g>
<g id="Your_Icons">
	<g class="st0">
	</g>
	<path class="st18" d="M18,1.7C12.3-1.6,4.9,0.3,1.6,6.1c-1.9,3.3-2,7.1-0.8,10.4c0.4-0.3,0.8-0.5,1.3-0.7h0
		c0.2,0.3,0.5,0.6,0.8,0.8c-0.6,0.2-1.1,0.5-1.6,0.8c1,2,2.6,3.8,4.7,5c0.5,0.3,1,0.5,1.5,0.7c0,0,0,0,0,0c4.8,2,10.4,0.5,13.7-3.5
		c-0.6-0.6-1.2-1.1-2-1.6c-0.6-0.3-1.2-0.6-1.9-0.8c0.9-0.8,1.5-2,1.5-3.3c0-2.5-2-4.5-4.5-4.5s-4.5,2-4.5,4.5
		c0,1.5,0.7,2.7,1.8,3.6c-0.5,0.2-0.9,0.4-1.4,0.7c-0.4-0.4-0.9-0.8-1.4-1.1c-0.4-0.2-0.8-0.4-1.3-0.6c0.9-0.7,1.5-1.8,1.5-3
		c0-2.1-1.7-3.8-3.8-3.8c-1,0-1.9,0.4-2.6,1c0.1-0.1,0.2-0.2,0.3-0.3c0.2-1,0.5-2.1,1.1-3c2.5-4.4,8.1-5.9,12.5-3.4
		c4.4,2.5,5.9,8.1,3.4,12.5c-0.1,0.2-0.2,0.3-0.3,0.5c0,0,0.1,0,0.1,0.1c0.8,0.5,1.5,1,2.2,1.7c0.2-0.3,0.4-0.5,0.5-0.8
		C25.7,12.3,23.7,5,18,1.7z M10.8,13.9c0-1.9,1.6-3.5,3.5-3.5c0.7,0,1.3,0.2,1.8,0.5l-3.5,6C11.5,16.4,10.8,15.3,10.8,13.9z
		 M1.5,12.9c0,0.2-0.1,0.4-0.1,0.7c0,0.2,0,0.5,0.1,0.7c0-0.2-0.1-0.4-0.1-0.7C1.4,13.3,1.4,13.1,1.5,12.9z M1.7,12.2
		c-0.1,0.2-0.1,0.4-0.2,0.6C1.6,12.5,1.6,12.3,1.7,12.2z M1.8,15.2c0,0.1,0.1,0.1,0.1,0.2C1.9,15.3,1.8,15.3,1.8,15.2z M1.5,14.5
		c0,0.1,0.1,0.2,0.1,0.4C1.6,14.7,1.6,14.6,1.5,14.5z M5.2,10.8c0.5,0,1,0.2,1.5,0.4L3.9,16c-0.9-0.5-1.5-1.4-1.5-2.4
		C2.4,12,3.7,10.8,5.2,10.8z M2.2,11.3c0.1-0.1,0.1-0.2,0.2-0.2C2.3,11.1,2.3,11.2,2.2,11.3z M1.8,12c0.1-0.1,0.1-0.3,0.2-0.4
		C1.9,11.7,1.8,11.8,1.8,12z"/>
</g>
</svg>
