<?xml version="1.0" encoding="utf-8"?>
<!-- Generator: Adobe Illustrator 21.1.0, SVG Export Plug-In . SVG Version: 6.00 Build 0)  -->
<svg version="1.1" id="Layer_1" xmlns="http://www.w3.org/2000/svg" xmlns:xlink="http://www.w3.org/1999/xlink" x="0px" y="0px"
	 viewBox="0 0 24 24" style="enable-background:new 0 0 24 24;" xml:space="preserve">
<style type="text/css">
	.st0{fill:#B3C3C4;}
</style>
<g id="Your_Icons">
	<g>
		<g>
			<path class="st0" d="M22.3,19.3c-0.3-0.1-0.5-0.3-0.6-0.7c-0.3-1.9-1.8-3.4-3.6-3.4c-1.3,0-2,0.3-2.7,1.4
				c-0.1,0.2-0.7,0.7-0.9,0.8h-0.1c-0.2,0-0.3-0.1-0.5-0.2c-0.3-0.3-0.6-0.4-1-0.4c-0.8,0-1.5,0.7-1.5,1.6v0.1
				c0,0.4-0.2,0.7-0.6,0.8c-1,0.3-1.7,1.2-1.7,2.3c0,1.3,1,2.4,2.2,2.4h10.3c1.2,0,2.2-1.1,2.2-2.4C24,20.5,23.3,19.5,22.3,19.3z"/>
		</g>
	</g>
	<g>
		<path class="st0" d="M3.9,18.7v-4.8H2.7v4.8c-1,0.3-1.8,1.2-1.8,2.3c0,1.3,1.1,2.4,2.4,2.4c1.1,0,2-0.8,2.3-1.9h2.7v-1.2H5.5
			C5.3,19.5,4.7,18.9,3.9,18.7z M3.3,22.1c-0.6,0-1.2-0.5-1.2-1.2s0.5-1.2,1.2-1.2s1.2,0.5,1.2,1.2S4,22.1,3.3,22.1z"/>
		<path class="st0" d="M21,5v9.7h1.2V5c1-0.3,1.8-1.2,1.8-2.3c0-1.3-1.1-2.4-2.4-2.4c-1.1,0-2,0.8-2.3,1.9h-11v1.2h11.1
			C19.6,4.2,20.3,4.8,21,5z M21.6,1.6c0.6,0,1.2,0.5,1.2,1.2S22.3,4,21.6,4c-0.6,0-1.2-0.5-1.2-1.2S21,1.6,21.6,1.6z"/>
		<rect y="10.6" class="st0" width="6.4" height="2.1"/>
		<path class="st0" d="M6.4,0H0v9.6h6.4V0z M5.9,4.9H0.6v-1h5.3V4.9z M5.9,2.4H0.6v-1h5.3V2.4z"/>
	</g>
</g>
</svg>
