<?xml version="1.0" encoding="utf-8"?>
<!-- Generator: Adobe Illustrator 16.0.0, SVG Export Plug-In . SVG Version: 6.00 Build 0)  -->
<!DOCTYPE svg PUBLIC "-//W3C//DTD SVG 1.1//EN" "http://www.w3.org/Graphics/SVG/1.1/DTD/svg11.dtd">
<svg version="1.1" id="Layer_1" xmlns="http://www.w3.org/2000/svg" xmlns:xlink="http://www.w3.org/1999/xlink" x="0px" y="0px"
	 width="22px" height="22px" viewBox="0 0 22 22" enable-background="new 0 0 22 22" xml:space="preserve">
<g>
	<path fill="#ADADAE" d="M19.215,7.296c-0.232-0.058-0.404-0.258-0.439-0.511c-0.416-2.912-2.853-5.107-5.67-5.107
		c-1.808,0-3.153,0.367-4.287,2.194C8.695,4.07,8.066,4.633,7.815,4.702c-0.135,0-0.268-0.053-0.37-0.146
		C6.469,3.658,4.886,3.694,3.952,4.632C3.439,5.145,3.158,5.836,3.159,6.578l0.004,0.103c0.013,0.295-0.17,0.561-0.438,0.631
		C1.121,7.744,0,9.25,0,10.975c0.001,1.626,0.996,3.067,2.475,3.585c0.247,0.086,0.521-0.045,0.609-0.293s-0.043-0.521-0.293-0.609
		c-1.097-0.385-1.834-1.465-1.835-2.683c0-1.293,0.83-2.419,2.016-2.739c0.697-0.185,1.179-0.857,1.143-1.66
		C4.114,6.09,4.297,5.64,4.628,5.308C5.213,4.722,6.183,4.693,6.8,5.262c0.281,0.255,0.641,0.396,1.028,0.396l0,0
		c0,0,0.141-0.005,0.2-0.015C8.56,5.567,9.454,4.662,9.631,4.377c0.808-1.303,1.684-1.743,3.475-1.743
		c2.345,0,4.375,1.842,4.723,4.283c0.089,0.641,0.542,1.154,1.154,1.307c1.215,0.304,2.062,1.435,2.062,2.751
		c0,1.325-0.895,2.487-2.124,2.766c-0.258,0.058-0.419,0.313-0.36,0.571c0.051,0.223,0.248,0.373,0.467,0.373
		c0.035,0,0.07-0.004,0.105-0.014C20.793,14.299,22,12.743,22,10.975C22,9.22,20.854,7.707,19.215,7.296z"/>
</g>
<g>
	<path fill="#ADADAE" d="M10.85,7.579c3.899,0,5.695,0.81,5.746,1.577c-0.053,0.996-2.291,1.64-5.746,1.64
		c-3.457,0-5.696-0.644-5.748-1.64C5.154,8.184,7.342,7.579,10.85,7.579z M16.614,18.649h-0.009c0,1.017-2.26,1.674-5.755,1.674
		c-3.497,0-5.757-0.657-5.757-1.674V17.24c1.102,0.683,3.032,1.041,5.757,1.041c2.73,0,4.664-0.358,5.764-1.044V18.649z
		 M16.614,15.528h-0.009c0,1.015-2.26,1.672-5.755,1.672c-3.497,0-5.757-0.657-5.757-1.672v-1.431
		c1.102,0.683,3.032,1.04,5.757,1.04c2.73,0,4.664-0.357,5.764-1.043V15.528z M16.614,12.386h-0.009c0,1.017-2.26,1.672-5.755,1.672
		c-3.497,0-5.757-0.655-5.757-1.672v-1.552c1.102,0.685,3.032,1.042,5.757,1.042c2.73,0,4.664-0.36,5.764-1.046V12.386z"/>
</g>
</svg>
