<?xml version="1.0" encoding="utf-8"?>
<!-- Generator: Adobe Illustrator 21.1.0, SVG Export Plug-In . SVG Version: 6.00 Build 0)  -->
<svg version="1.1" xmlns="http://www.w3.org/2000/svg" xmlns:xlink="http://www.w3.org/1999/xlink" x="0px" y="0px"
	 viewBox="0 0 24 24" style="enable-background:new 0 0 24 24;" xml:space="preserve">
<style type="text/css">
	.st0{display:none;}
	.st1{display:inline;}
	.st2{fill:#114A54;}
	.st3{fill:#778E93;}
	.st4{fill:#D4E4F1;}
	.st5{fill:#398CCB;}
	.st6{fill:#AFDFF9;}
	.st7{fill:#6AA9DD;}
	.st8{fill:#20568E;}
	.st9{fill:#2C5261;}
	.st10{fill:#295A99;}
	.st11{opacity:0.2;fill:#3E85C5;}
	.st12{opacity:0.8;fill:#AFDFF9;}
	.st13{opacity:0.5;fill:#D4E4F1;}
	.st14{fill:#FFFFFF;}
	.st15{fill:#FFFFFF;stroke:#3E85C5;stroke-miterlimit:10;}
	.st16{fill:#3E85C5;}
	.st17{fill:#21558E;}
	.st18{fill:#B3C3C4;}
	.st19{fill:#D2E3F0;}
	.st20{display:none;fill:#B3C3C4;}
	.st21{fill:#295A9A;}
	.st22{fill:none;stroke:#295A99;stroke-miterlimit:10;}
</style>
<g id="Guidelines">
</g>
<g id="Your_Icons">
	<g class="st0">
	</g>
	<g>
		<g>
			<path class="st8" d="M3.9,18.7v-4.8H2.7v4.8c-1,0.3-1.8,1.2-1.8,2.3c0,1.3,1.1,2.4,2.4,2.4c1.1,0,2-0.8,2.3-1.9h10v-1.2H5.5
				C5.3,19.5,4.7,18.9,3.9,18.7z M3.3,22.1c-0.6,0-1.2-0.5-1.2-1.2c0-0.6,0.5-1.2,1.2-1.2c0.6,0,1.2,0.5,1.2,1.2
				C4.5,21.6,4,22.1,3.3,22.1z"/>
		</g>
		<g>
			<path class="st8" d="M21,5v4.8h1.2V5c1-0.3,1.8-1.2,1.8-2.3c0-1.3-1.1-2.4-2.4-2.4c-1.1,0-2,0.8-2.3,1.9h-11v1.2h11.1
				C19.6,4.2,20.3,4.8,21,5z M21.6,1.6c0.6,0,1.2,0.5,1.2,1.2s-0.5,1.2-1.2,1.2c-0.6,0-1.2-0.5-1.2-1.2S21,1.6,21.6,1.6z"/>
		</g>
		<path class="st7" d="M0,10.6v2.1h6.4v-2.1H0z"/>
		<path class="st7" d="M0,0v9.6h6.4V0H0z"/>
		<g>
			<g>
				<g>
					<rect x="0.6" y="1.4" class="st10" width="5.3" height="1"/>
				</g>
			</g>
		</g>
		<g>
			<g>
				<g>
					<rect x="0.6" y="3.9" class="st10" width="5.3" height="1"/>
				</g>
			</g>
		</g>
		<path class="st4" d="M17.6,21.9V24H24v-2.1H17.6z"/>
		<g>
			<path class="st4" d="M17.6,11.3v9.6H24v-9.6H17.6z"/>
			<g>
				<g>
					<g>
						<rect x="18.1" y="12.6" class="st10" width="5.3" height="1"/>
					</g>
				</g>
			</g>
			<g>
				<g>
					<g>
						<rect x="18.1" y="15.1" class="st10" width="5.3" height="1"/>
					</g>
				</g>
			</g>
		</g>
	</g>
</g>
</svg>
