<?xml version="1.0" encoding="UTF-8"?>
<svg xmlns="http://www.w3.org/2000/svg" xmlns:xlink="http://www.w3.org/1999/xlink" viewBox="0 0 50 50" version="1.1" width="50px" height="50px">
<g id="surface1">
<path style=" " d="M 21 14 C 18.097656 14 15.523438 15.476563 14.140625 18.660156 L 10.875 25.800781 L 6.949219 16.160156 L 6.941406 16.144531 C 6.128906 14.351563 3.988281 13.503906 2.132813 14.332031 C 0.257813 15.171875 -0.484375 17.390625 0.359375 19.183594 L 6.203125 32.359375 L 6.203125 32.363281 C 6.691406 33.425781 7.21875 34.316406 7.96875 34.976563 C 8.722656 35.636719 9.71875 36 10.820313 36 C 11.988281 36 13 35.601563 13.734375 34.925781 C 14.472656 34.25 14.953125 33.375 15.433594 32.378906 L 15.4375 32.371094 L 15.441406 32.355469 C 15.441406 32.355469 19.441406 23.4375 19.90625 22.417969 C 20.109375 21.972656 20.375 21.589844 20.644531 21.347656 C 20.917969 21.109375 21.160156 21 21.5 21 C 22.328125 21 23 21.671875 23 22.5 L 23 32.375 C 23 34.320313 24.539063 36 26.519531 36 C 28.503906 36 30 34.300781 30 32.375 L 30 22.5 C 30 21.671875 30.671875 21 31.5 21 C 32.328125 21 33 21.671875 33 22.5 L 33 32.5 C 33 34.421875 34.578125 36 36.5 36 C 38.421875 36 40 34.421875 40 32.5 L 40 22.5 C 40 21.671875 40.671875 21 41.5 21 C 42.328125 21 43 21.671875 43 22.5 L 43 32.5 C 43 34.421875 44.578125 36 46.5 36 C 48.421875 36 50 34.421875 50 32.5 L 50 21.359375 C 50 17.085938 46.496094 14 42.414063 14 C 39.199219 14 37.363281 15.503906 36.566406 16.242188 C 35.234375 14.929688 33.488281 14.003906 30.9375 14.003906 C 28.257813 14.003906 26.726563 15.410156 25.976563 16.203125 C 24.554688 14.867188 22.726563 14 21 14 Z M 3.625 15.988281 C 4.273438 15.957031 4.820313 16.320313 5.117188 16.96875 L 10.765625 30.84375 L 15.96875 19.46875 L 15.972656 19.457031 C 17.117188 16.832031 18.6875 16 21 16 C 22.316406 16 24.289063 16.855469 25.25 18.109375 L 26.035156 19.132813 L 26.832031 18.113281 C 26.832031 18.113281 28.5625 16.003906 30.9375 16.003906 C 33.503906 16.003906 34.734375 16.75 35.78125 18.109375 L 36.511719 19.0625 L 37.316406 18.171875 C 37.316406 18.171875 39.285156 16 42.414063 16 C 45.523438 16 48 18.152344 48 21.359375 L 48 32.5 C 48 33.328125 47.328125 34 46.5 34 C 45.671875 34 45 33.328125 45 32.5 L 45 22.5 C 45 20.578125 43.421875 19 41.5 19 C 39.578125 19 38 20.578125 38 22.5 L 38 32.5 C 38 33.328125 37.328125 34 36.5 34 C 35.671875 34 35 33.328125 35 32.5 L 35 22.5 C 35 20.578125 33.421875 19 31.5 19 C 29.578125 19 28 20.578125 28 22.5 L 28 32.375 C 28 33.339844 27.40625 34 26.519531 34 C 25.636719 34 25 33.316406 25 32.375 L 25 22.5 C 25 20.578125 23.421875 19 21.5 19 C 20.640625 19 19.875 19.359375 19.316406 19.855469 C 18.761719 20.347656 18.378906 20.960938 18.09375 21.582031 C 17.585938 22.6875 13.640625 31.488281 13.625 31.519531 C 13.183594 32.433594 12.785156 33.085938 12.382813 33.453125 C 11.980469 33.828125 11.597656 34 10.820313 34 C 10.101563 34 9.703125 33.835938 9.289063 33.472656 C 8.875 33.109375 8.453125 32.46875 8.023438 31.53125 L 2.171875 18.339844 L 2.171875 18.328125 C 1.757813 17.460938 2.039063 16.566406 2.953125 16.160156 C 3.183594 16.054688 3.410156 16 3.625 15.988281 Z "/>
</g>
</svg>
